<?xml version="1.0" standalone="no"?>
<!DOCTYPE svg PUBLIC "-//W3C//DTD SVG 1.1//EN" "http://www.w3.org/Graphics/SVG/1.1/DTD/svg11.dtd" >
<svg xmlns="http://www.w3.org/2000/svg" xmlns:xlink="http://www.w3.org/1999/xlink" version="1.1">
<metadata>
Created by FontForge 20170924 at Thu Jul 25 18:40:33 2019
 By www-data
Copyright (c) 2017 by Fabio Haag Type. All rights reserved. Fabio Haag Type is a registered trademark of VLF Design Ltda
</metadata>
<defs>
<font id="MargemTest-Bold" horiz-adv-x="580" >
  <font-face 
    font-family="Margem Test"
    font-weight="700"
    font-stretch="normal"
    units-per-em="1000"
    panose-1="2 1 8 3 4 2 1 2 2 3"
    ascent="800"
    descent="-200"
    x-height="475"
    cap-height="624"
    bbox="-357 -253 1354 906"
    underline-thickness="50"
    underline-position="-100"
    unicode-range="U+0020-FB02"
  />
<missing-glyph horiz-adv-x="434" 
d="M81 -194v868h275v-868h-275zM146 587h56v-32h-57v-29h144v29h-57v32h57v29h-143v-29zM145 414h144v29h-57v61h-87v-90zM174 443v31h28v-31h-28zM145 362h57v-33h-57v-28h87v61h57v28h-144v-28zM260 281h-115v-30h144v87h-29v-57zM202 184h30v20h28v-41h-86v69h-29v-98
h144v98h-87v-48zM145 -16h144v98h-144v-98zM174 13v40h86v-40h-86zM145 -65h61l-61 -40v-29h144v29h-88l60 40h28v29h-144v-29z" />
    <glyph glyph-name="f_f" unicode="ff" horiz-adv-x="875" 
d="M24 361v114h94v1q0 99 54 154t145 55q93 0 152 -62l-54 -80q-37 29 -74 29q-40 0 -63 -24t-23 -71v-2h265v1q0 99 55.5 154t146.5 55q94 0 153 -62l-54 -80q-37 29 -76 29q-40 0 -64 -24t-24 -71v-2h188v-114h-188v-366h-137v366h-265v-366h-137v366h-94z" />
    <glyph glyph-name="fi" unicode="fi" horiz-adv-x="756" 
d="M24 361v114h94v2q0 93 53.5 150.5t148.5 57.5q94 0 153 -62l-54 -80q-37 29 -76 29q-41 0 -64.5 -24t-23.5 -71v-2h188v-114h-188v-361h-137v361h-94zM683 475v-475h-137v475h137zM557.5 557.5q-21.5 21.5 -21.5 53.5t22 53.5t57 21.5q36 0 57.5 -21.5t21.5 -53.5
t-22 -53.5t-57 -21.5q-36 0 -57.5 21.5z" />
    <glyph glyph-name="fl" unicode="fl" horiz-adv-x="756" 
d="M24 361v114h94v2q0 93 53.5 150.5t148.5 57.5q94 0 153 -62l-54 -80q-37 29 -76 29q-41 0 -64.5 -24t-23.5 -71v-2h188v-114h-188v-361h-137v361h-94zM683 674v-674h-137v674h137z" />
    <glyph glyph-name=".notdef" horiz-adv-x="434" 
d="M81 -194v868h275v-868h-275zM146 587h56v-32h-57v-29h144v29h-57v32h57v29h-143v-29zM145 414h144v29h-57v61h-87v-90zM174 443v31h28v-31h-28zM145 362h57v-33h-57v-28h87v61h57v28h-144v-28zM260 281h-115v-30h144v87h-29v-57zM202 184h30v20h28v-41h-86v69h-29v-98
h144v98h-87v-48zM145 -16h144v98h-144v-98zM174 13v40h86v-40h-86zM145 -65h61l-61 -40v-29h144v29h-88l60 40h28v29h-144v-29z" />
    <glyph glyph-name="space" unicode=" " horiz-adv-x="232" 
 />
    <glyph glyph-name="A" unicode="A" horiz-adv-x="655" 
d="M408 624l242 -624h-144l-54 149h-254l-53 -149h-140l243 624h160zM325 506l-89 -240h178z" />
    <glyph glyph-name="Aacute" unicode="&#xc1;" horiz-adv-x="655" 
d="M408 624l242 -624h-144l-54 149h-254l-53 -149h-140l243 624h160zM325 506l-89 -240h178zM443 856l42 -91l-237 -93l-37 80z" />
    <glyph glyph-name="Abreve" unicode="&#x102;" horiz-adv-x="655" 
d="M408 624l242 -624h-144l-54 149h-254l-53 -149h-140l243 624h160zM325 506l-89 -240h178zM233.5 702.5q-44.5 26.5 -79.5 79.5l66 50q26 -35 50.5 -51t57.5 -16t57.5 16t50.5 51l66 -50q-35 -53 -79.5 -79.5t-94.5 -26.5t-94.5 26.5z" />
    <glyph glyph-name="Acircumflex" unicode="&#xc2;" horiz-adv-x="655" 
d="M408 624l242 -624h-144l-54 149h-254l-53 -149h-140l243 624h160zM325 506l-89 -240h178zM287 830q20 17 42 17t42 -17l122 -103l-49 -58l-116 86l-117 -86l-49 58z" />
    <glyph glyph-name="Adieresis" unicode="&#xc4;" horiz-adv-x="655" 
d="M408 624l242 -624h-144l-54 149h-254l-53 -149h-140l243 624h160zM325 506l-89 -240h178zM172 705q-20 21 -20 52q0 30 20 51t52 21q33 0 53 -21t20 -51q0 -31 -20.5 -52t-52.5 -21t-52 21zM379 705q-20 21 -20 52q0 30 20.5 51t52.5 21t52 -21t20 -51q0 -31 -20.5 -52
t-52.5 -21t-52 21z" />
    <glyph glyph-name="Agrave" unicode="&#xc0;" horiz-adv-x="655" 
d="M408 624l242 -624h-144l-54 149h-254l-53 -149h-140l243 624h160zM325 506l-89 -240h178zM214 856l232 -104l-37 -80l-237 93z" />
    <glyph glyph-name="Amacron" unicode="&#x100;" horiz-adv-x="655" 
d="M408 624l242 -624h-144l-54 149h-254l-53 -149h-140l243 624h160zM325 506l-89 -240h178zM483 790v-91h-310v91h310z" />
    <glyph glyph-name="Aogonek" unicode="&#x104;" horiz-adv-x="655" 
d="M670 -138q-21 -23 -52.5 -36.5t-66.5 -13.5q-50 0 -80 21.5t-30 59.5q0 32 21.5 56.5t64.5 50.5h-21l-54 149h-254l-53 -149h-140l243 624h160l242 -624q-11 -7 -56 -34q-28 -17 -38.5 -26.5t-10.5 -21.5q0 -21 27 -21q24 0 50 24zM414 266l-89 240l-89 -240h178z" />
    <glyph glyph-name="Aring" unicode="&#xc5;" horiz-adv-x="655" 
d="M650 0h-144l-54 149h-254l-53 -149h-140l241 618q-39 34 -39 87q0 51 35.5 84.5t84.5 33.5t84.5 -33.5t35.5 -84.5t-37 -86zM295.5 738q-13.5 -13 -13.5 -33t13.5 -32.5t31.5 -12.5t31.5 12.5t13.5 32.5t-13.5 33t-31.5 13t-31.5 -13zM414 266l-89 240l-89 -240h178z" />
    <glyph glyph-name="Atilde" unicode="&#xc3;" horiz-adv-x="655" 
d="M408 624l242 -624h-144l-54 149h-254l-53 -149h-140l243 624h160zM325 506l-89 -240h178zM356 681q-17 7 -39 20q-16 10 -28 15t-24 5q-23 0 -37 -8.5t-29 -28.5l-56 49q47 76 120 76q25 0 43 -7t37 -19q17 -10 28.5 -15t26.5 -5q19 0 33 8.5t29 28.5l56 -50
q-49 -76 -122 -76q-21 0 -38 7z" />
    <glyph glyph-name="AE" unicode="&#xc6;" horiz-adv-x="988" 
d="M944 624v-124h-317v-124h280v-118h-280v-134h327v-124h-458v155h-230l-107 -155h-153l443 624h495zM496 492l-157 -223h157v223z" />
    <glyph glyph-name="B" unicode="B" horiz-adv-x="626" 
d="M341 624q107 0 169.5 -42.5t62.5 -125.5q0 -92 -86 -131q51 -18 79.5 -54.5t28.5 -92.5q0 -90 -65.5 -134t-176.5 -44h-270v624h258zM414 384.5q30 17.5 30 58.5t-29.5 56t-89.5 15h-110v-147h113q56 0 86 17.5zM428.5 125q30.5 16 30.5 57q0 43 -31.5 60.5t-93.5 17.5
h-119v-151h123q60 0 90.5 16z" />
    <glyph glyph-name="C" unicode="C" horiz-adv-x="631" 
d="M190 29.5q-70 40.5 -107 113.5t-37 169q0 85 35 158.5t105.5 118.5t172.5 45q79 0 142 -33t99 -101l-95 -73q-50 79 -145 79q-84 0 -128.5 -55t-44.5 -139q0 -85 45.5 -140t124.5 -55q51 0 89.5 22t63.5 60l94 -72q-36 -69 -100.5 -103.5t-146.5 -34.5q-97 0 -167 40.5z
" />
    <glyph glyph-name="Cacute" unicode="&#x106;" horiz-adv-x="631" 
d="M190 29.5q-70 40.5 -107 113.5t-37 169q0 85 35 158.5t105.5 118.5t172.5 45q79 0 142 -33t99 -101l-95 -73q-50 79 -145 79q-84 0 -128.5 -55t-44.5 -139q0 -85 45.5 -140t124.5 -55q51 0 89.5 22t63.5 60l94 -72q-36 -69 -100.5 -103.5t-146.5 -34.5q-97 0 -167 40.5z
M464 856l42 -91l-237 -93l-37 80z" />
    <glyph glyph-name="Ccaron" unicode="&#x10c;" horiz-adv-x="631" 
d="M190 29.5q-70 40.5 -107 113.5t-37 169q0 85 35 158.5t105.5 118.5t172.5 45q79 0 142 -33t99 -101l-95 -73q-50 79 -145 79q-84 0 -128.5 -55t-44.5 -139q0 -85 45.5 -140t124.5 -55q51 0 89.5 22t63.5 60l94 -72q-36 -69 -100.5 -103.5t-146.5 -34.5q-97 0 -167 40.5z
M306 690l-122 103l49 57l116 -86l116 86l49 -58l-125 -102q-19 -17 -41 -17q-23 0 -42 17z" />
    <glyph glyph-name="Ccedilla" unicode="&#xc7;" horiz-adv-x="631" 
d="M531 41q-45 -33 -103 -45q31 -34 31 -73q0 -47 -36 -76.5t-97 -29.5q-38 0 -71.5 14t-54.5 38l47 61q16 -12 30.5 -19t32.5 -7q22 0 35 9.5t13 30.5q0 38 -45 47q-126 13 -196.5 100t-70.5 221q0 85 35 158.5t105.5 118.5t172.5 45q79 0 142 -33t99 -101l-95 -73
q-50 79 -145 79q-84 0 -128.5 -55t-44.5 -139q0 -85 45.5 -140t124.5 -55q51 0 89.5 22t63.5 60l94 -72q-28 -53 -73 -86z" />
    <glyph glyph-name="Ccircumflex" unicode="&#x108;" horiz-adv-x="631" 
d="M190 29.5q-70 40.5 -107 113.5t-37 169q0 85 35 158.5t105.5 118.5t172.5 45q79 0 142 -33t99 -101l-95 -73q-50 79 -145 79q-84 0 -128.5 -55t-44.5 -139q0 -85 45.5 -140t124.5 -55q51 0 89.5 22t63.5 60l94 -72q-36 -69 -100.5 -103.5t-146.5 -34.5q-97 0 -167 40.5z
M309 830q20 17 42 17t42 -17l122 -103l-49 -58l-116 86l-117 -86l-49 58z" />
    <glyph glyph-name="Cdotaccent" unicode="&#x10a;" horiz-adv-x="631" 
d="M190 29.5q-70 40.5 -107 113.5t-37 169q0 85 35 158.5t105.5 118.5t172.5 45q79 0 142 -33t99 -101l-95 -73q-50 79 -145 79q-84 0 -128.5 -55t-44.5 -139q0 -85 45.5 -140t124.5 -55q51 0 89.5 22t63.5 60l94 -72q-36 -69 -100.5 -103.5t-146.5 -34.5q-97 0 -167 40.5z
M292.5 701q-21.5 22 -21.5 55q0 32 22 54.5t57 22.5q36 0 57.5 -22.5t21.5 -54.5t-22 -54.5t-57 -22.5q-36 0 -57.5 22z" />
    <glyph glyph-name="D" unicode="D" horiz-adv-x="699" 
d="M327 624q102 0 175.5 -39t112 -109.5t38.5 -162.5q0 -91 -40 -162t-113.5 -111t-172.5 -40h-244v624h244zM463 177q49 48 49 136t-48 135t-137 47h-105v-366h104q88 0 137 48z" />
    <glyph glyph-name="Eth" unicode="&#xd0;" horiz-adv-x="717" 
d="M520.5 585q73.5 -39 112 -109.5t38.5 -162.5q0 -91 -40 -162t-113.5 -111t-172.5 -40h-244v254h-73v125h73v245h244q102 0 175.5 -39zM481 177q49 48 49 136t-48 135t-137 47h-105v-116h156v-125h-156v-125h104q88 0 137 48z" />
    <glyph glyph-name="Dcaron" unicode="&#x10e;" horiz-adv-x="699" 
d="M327 624q102 0 175.5 -39t112 -109.5t38.5 -162.5q0 -91 -40 -162t-113.5 -111t-172.5 -40h-244v624h244zM463 177q49 48 49 136t-48 135t-137 47h-105v-366h104q88 0 137 48zM273 690l-122 103l49 57l116 -86l116 86l49 -58l-125 -102q-19 -17 -41 -17q-23 0 -42 17z
" />
    <glyph glyph-name="Dcroat" unicode="&#x110;" horiz-adv-x="717" 
d="M520.5 585q73.5 -39 112 -109.5t38.5 -162.5q0 -91 -40 -162t-113.5 -111t-172.5 -40h-244v254h-73v125h73v245h244q102 0 175.5 -39zM481 177q49 48 49 136t-48 135t-137 47h-105v-116h156v-125h-156v-125h104q88 0 137 48z" />
    <glyph glyph-name="E" unicode="E" horiz-adv-x="581" 
d="M537 624v-124h-317v-124h280v-118h-280v-134h327v-124h-464v624h454z" />
    <glyph glyph-name="Eacute" unicode="&#xc9;" horiz-adv-x="581" 
d="M537 624v-124h-317v-124h280v-118h-280v-134h327v-124h-464v624h454zM433 856l42 -91l-237 -93l-37 80z" />
    <glyph glyph-name="Ebreve" unicode="&#x114;" horiz-adv-x="581" 
d="M537 624v-124h-317v-124h280v-118h-280v-134h327v-124h-464v624h454zM224.5 702.5q-44.5 26.5 -79.5 79.5l66 50q26 -35 50.5 -51t57.5 -16t57.5 16t50.5 51l66 -50q-35 -53 -79.5 -79.5t-94.5 -26.5t-94.5 26.5z" />
    <glyph glyph-name="Ecaron" unicode="&#x11a;" horiz-adv-x="581" 
d="M537 624v-124h-317v-124h280v-118h-280v-134h327v-124h-464v624h454zM275 690l-122 103l49 57l116 -86l116 86l49 -58l-125 -102q-19 -17 -41 -17q-23 0 -42 17z" />
    <glyph glyph-name="Ecircumflex" unicode="&#xca;" horiz-adv-x="581" 
d="M537 624v-124h-317v-124h280v-118h-280v-134h327v-124h-464v624h454zM278 830q20 17 42 17t42 -17l122 -103l-49 -58l-116 86l-117 -86l-49 58z" />
    <glyph glyph-name="Edieresis" unicode="&#xcb;" horiz-adv-x="581" 
d="M537 624v-124h-317v-124h280v-118h-280v-134h327v-124h-464v624h454zM163 705q-20 21 -20 52q0 30 20 51t52 21q33 0 53 -21t20 -51q0 -31 -20.5 -52t-52.5 -21t-52 21zM370 705q-20 21 -20 52q0 30 20.5 51t52.5 21t52 -21t20 -51q0 -31 -20.5 -52t-52.5 -21t-52 21z
" />
    <glyph glyph-name="Edotaccent" unicode="&#x116;" horiz-adv-x="581" 
d="M537 624v-124h-317v-124h280v-118h-280v-134h327v-124h-464v624h454zM261.5 701q-21.5 22 -21.5 55q0 32 22 54.5t57 22.5q36 0 57.5 -22.5t21.5 -54.5t-22 -54.5t-57 -22.5q-36 0 -57.5 22z" />
    <glyph glyph-name="Egrave" unicode="&#xc8;" horiz-adv-x="581" 
d="M537 624v-124h-317v-124h280v-118h-280v-134h327v-124h-464v624h454zM205 856l232 -104l-37 -80l-237 93z" />
    <glyph glyph-name="Emacron" unicode="&#x112;" horiz-adv-x="581" 
d="M537 624v-124h-317v-124h280v-118h-280v-134h327v-124h-464v624h454zM474 790v-91h-310v91h310z" />
    <glyph glyph-name="Eogonek" unicode="&#x118;" horiz-adv-x="581" 
d="M567 -138q-21 -23 -52.5 -36.5t-66.5 -13.5q-50 0 -80 21.5t-30 59.5q0 32 21.5 56.5t64.5 50.5h-341v624h454v-124h-317v-124h280v-118h-280v-134h327v-124q-11 -7 -56 -34q-28 -17 -38.5 -26.5t-10.5 -21.5q0 -21 27 -21q24 0 50 24z" />
    <glyph glyph-name="F" unicode="F" horiz-adv-x="570" 
d="M538 624v-129h-315v-138h275v-128h-275v-229h-140v624h455z" />
    <glyph glyph-name="G" unicode="G" horiz-adv-x="700" 
d="M189.5 29.5q-70.5 40.5 -107 114t-36.5 169.5q0 84 38.5 157.5t112.5 118.5t175 45q83 0 149.5 -33.5t102.5 -102.5l-93 -69q-52 82 -160 82q-90 0 -137 -56t-47 -146q0 -89 46.5 -144t133.5 -55q62 0 105 31t50 88h-144v108h278v-47q0 -92 -36 -160t-103 -104.5
t-159 -36.5q-98 0 -168.5 40.5z" />
    <glyph glyph-name="Gbreve" unicode="&#x11e;" horiz-adv-x="700" 
d="M189.5 29.5q-70.5 40.5 -107 114t-36.5 169.5q0 84 38.5 157.5t112.5 118.5t175 45q83 0 149.5 -33.5t102.5 -102.5l-93 -69q-52 82 -160 82q-90 0 -137 -56t-47 -146q0 -89 46.5 -144t133.5 -55q62 0 105 31t50 88h-144v108h278v-47q0 -92 -36 -160t-103 -104.5
t-159 -36.5q-98 0 -168.5 40.5zM270.5 702.5q-44.5 26.5 -79.5 79.5l66 50q26 -35 50.5 -51t57.5 -16t57.5 16t50.5 51l66 -50q-35 -53 -79.5 -79.5t-94.5 -26.5t-94.5 26.5z" />
    <glyph glyph-name="Gcircumflex" unicode="&#x11c;" horiz-adv-x="700" 
d="M189.5 29.5q-70.5 40.5 -107 114t-36.5 169.5q0 84 38.5 157.5t112.5 118.5t175 45q83 0 149.5 -33.5t102.5 -102.5l-93 -69q-52 82 -160 82q-90 0 -137 -56t-47 -146q0 -89 46.5 -144t133.5 -55q62 0 105 31t50 88h-144v108h278v-47q0 -92 -36 -160t-103 -104.5
t-159 -36.5q-98 0 -168.5 40.5zM324 830q20 17 42 17t42 -17l122 -103l-49 -58l-116 86l-117 -86l-49 58z" />
    <glyph glyph-name="uni0122" unicode="&#x122;" horiz-adv-x="700" 
d="M189.5 29.5q-70.5 40.5 -107 114t-36.5 169.5q0 84 38.5 157.5t112.5 118.5t175 45q83 0 149.5 -33.5t102.5 -102.5l-93 -69q-52 82 -160 82q-90 0 -137 -56t-47 -146q0 -89 46.5 -144t133.5 -55q62 0 105 31t50 88h-144v108h278v-47q0 -92 -36 -160t-103 -104.5
t-159 -36.5q-98 0 -168.5 40.5zM288.5 -133q20.5 33 20.5 81h106q0 -66 -37 -119t-100 -82l-53 59q43 28 63.5 61z" />
    <glyph glyph-name="Gdotaccent" unicode="&#x120;" horiz-adv-x="700" 
d="M189.5 29.5q-70.5 40.5 -107 114t-36.5 169.5q0 84 38.5 157.5t112.5 118.5t175 45q83 0 149.5 -33.5t102.5 -102.5l-93 -69q-52 82 -160 82q-90 0 -137 -56t-47 -146q0 -89 46.5 -144t133.5 -55q62 0 105 31t50 88h-144v108h278v-47q0 -92 -36 -160t-103 -104.5
t-159 -36.5q-98 0 -168.5 40.5zM307.5 701q-21.5 22 -21.5 55q0 32 22 54.5t57 22.5q36 0 57.5 -22.5t21.5 -54.5t-22 -54.5t-57 -22.5q-36 0 -57.5 22z" />
    <glyph glyph-name="H" unicode="H" horiz-adv-x="732" 
d="M223 624v-242h286v242h140v-624h-140v252h-286v-252h-140v624h140z" />
    <glyph glyph-name="Hbar" unicode="&#x126;" horiz-adv-x="732" 
d="M9 436v108h74v80h140v-80h286v80h140v-80h74v-108h-74v-436h-140v236h-286v-236h-140v436h-74zM509 436h-286v-76h286v76z" />
    <glyph glyph-name="Hcircumflex" unicode="&#x124;" horiz-adv-x="732" 
d="M223 624v-242h286v242h140v-624h-140v252h-286v-252h-140v624h140zM325 830q20 17 42 17t42 -17l122 -103l-49 -58l-116 86l-117 -86l-49 58z" />
    <glyph glyph-name="I" unicode="I" horiz-adv-x="305" 
d="M223 624v-624h-140v624h140z" />
    <glyph glyph-name="IJ" unicode="&#x132;" horiz-adv-x="877" 
d="M223 624v-624h-140v624h140zM398 22.5q-63 33.5 -98 102.5l94 72q26 -39 59.5 -59.5t82.5 -20.5q67 0 99.5 45.5t32.5 124.5v337h140v-335q0 -141 -67.5 -220.5t-199.5 -79.5q-80 0 -143 33.5z" />
    <glyph glyph-name="Iacute" unicode="&#xcd;" horiz-adv-x="305" 
d="M223 624v-624h-140v624h140zM268 856l42 -91l-237 -93l-37 80z" />
    <glyph glyph-name="Ibreve" unicode="&#x12c;" horiz-adv-x="305" 
d="M223 624v-624h-140v624h140zM58.5 702.5q-44.5 26.5 -79.5 79.5l66 50q26 -35 50.5 -51t57.5 -16t57.5 16t50.5 51l66 -50q-35 -53 -79.5 -79.5t-94.5 -26.5t-94.5 26.5z" />
    <glyph glyph-name="Icircumflex" unicode="&#xce;" horiz-adv-x="305" 
d="M223 624v-624h-140v624h140zM112 830q20 17 42 17t42 -17l122 -103l-49 -58l-116 86l-117 -86l-49 58z" />
    <glyph glyph-name="Idieresis" unicode="&#xcf;" horiz-adv-x="305" 
d="M223 624v-624h-140v624h140zM-3 705q-20 21 -20 52q0 30 20 51t52 21q33 0 53 -21t20 -51q0 -31 -20.5 -52t-52.5 -21t-52 21zM204 705q-20 21 -20 52q0 30 20.5 51t52.5 21t52 -21t20 -51q0 -31 -20.5 -52t-52.5 -21t-52 21z" />
    <glyph glyph-name="Idotaccent" unicode="&#x130;" horiz-adv-x="305" 
d="M223 624v-624h-140v624h140zM95.5 701q-21.5 22 -21.5 55q0 32 22 54.5t57 22.5q36 0 57.5 -22.5t21.5 -54.5t-22 -54.5t-57 -22.5q-36 0 -57.5 22z" />
    <glyph glyph-name="Igrave" unicode="&#xcc;" horiz-adv-x="305" 
d="M223 624v-624h-140v624h140zM39 856l232 -104l-37 -80l-237 93z" />
    <glyph glyph-name="Imacron" unicode="&#x12a;" horiz-adv-x="305" 
d="M223 624v-624h-140v624h140zM308 790v-91h-310v91h310z" />
    <glyph glyph-name="Iogonek" unicode="&#x12e;" horiz-adv-x="305" 
d="M243 -138q-21 -23 -52.5 -36.5t-66.5 -13.5q-50 0 -80 21.5t-30 59.5q0 32 21.5 56.5t64.5 50.5h-17v624h140v-624q-11 -7 -56 -34q-28 -17 -38.5 -26.5t-10.5 -21.5q0 -21 27 -21q24 0 50 24z" />
    <glyph glyph-name="Itilde" unicode="&#x128;" horiz-adv-x="305" 
d="M223 624v-624h-140v624h140zM181 681q-17 7 -39 20q-16 10 -28 15t-24 5q-23 0 -37 -8.5t-29 -28.5l-56 49q47 76 120 76q25 0 43 -7t37 -19q17 -10 28.5 -15t26.5 -5q19 0 33 8.5t29 28.5l56 -50q-49 -76 -122 -76q-21 0 -38 7z" />
    <glyph glyph-name="J" unicode="J" horiz-adv-x="594" 
d="M116 22.5q-63 33.5 -98 102.5l94 72q26 -39 59.5 -59.5t82.5 -20.5q67 0 99.5 45.5t32.5 124.5v337h140v-335q0 -141 -67.5 -220.5t-199.5 -79.5q-80 0 -143 33.5z" />
    <glyph glyph-name="Jcircumflex" unicode="&#x134;" horiz-adv-x="594" 
d="M116 22.5q-63 33.5 -98 102.5l94 72q26 -39 59.5 -59.5t82.5 -20.5q67 0 99.5 45.5t32.5 124.5v337h140v-335q0 -141 -67.5 -220.5t-199.5 -79.5q-80 0 -143 33.5zM415 830q20 17 42 17t42 -17l122 -103l-49 -58l-116 86l-117 -86l-49 58z" />
    <glyph glyph-name="K" unicode="K" horiz-adv-x="669" 
d="M222 624v-245q31 -4 66 -4q90 0 137 61t58 188h134q-4 -109 -44 -192.5t-109 -131.5l199 -300h-167l-160 254q-14 -2 -46 -2q-24 0 -68 4v-256h-139v624h139z" />
    <glyph glyph-name="uni0136" unicode="&#x136;" horiz-adv-x="669" 
d="M222 624v-245q31 -4 66 -4q90 0 137 61t58 188h134q-4 -109 -44 -192.5t-109 -131.5l199 -300h-167l-160 254q-14 -2 -46 -2q-24 0 -68 4v-256h-139v624h139zM277.5 -133q20.5 33 20.5 81h106q0 -66 -37 -119t-100 -82l-53 59q43 28 63.5 61z" />
    <glyph glyph-name="L" unicode="L" horiz-adv-x="547" 
d="M220 624v-494h311v-130h-449v624h138z" />
    <glyph glyph-name="Lacute" unicode="&#x139;" horiz-adv-x="547" 
d="M220 624v-494h311v-130h-449v624h138zM266 856l42 -91l-237 -93l-37 80z" />
    <glyph glyph-name="Lcaron" unicode="&#x13d;" horiz-adv-x="547" 
d="M403 674l-20 -197h-86v197h106zM220 624v-494h311v-130h-449v624h138z" />
    <glyph glyph-name="uni013B" unicode="&#x13b;" horiz-adv-x="547" 
d="M220 624v-494h311v-130h-449v624h138zM251.5 -133q20.5 33 20.5 81h106q0 -66 -37 -119t-100 -82l-53 59q43 28 63.5 61z" />
    <glyph glyph-name="Ldot" unicode="&#x13f;" horiz-adv-x="547" 
d="M220 624v-494h311v-130h-449v624h138zM360.5 300q-21.5 22 -21.5 55q0 32 22 54.5t57 22.5q36 0 57.5 -22.5t21.5 -54.5t-22 -54.5t-57 -22.5q-36 0 -57.5 22z" />
    <glyph glyph-name="Lslash" unicode="&#x141;" horiz-adv-x="577" 
d="M561 130v-130h-448v218l-74 -34l-48 110l122 56v274h138v-210l155 72l47 -110l-202 -94v-152h310z" />
    <glyph glyph-name="M" unicode="M" horiz-adv-x="831" 
d="M248 624l168 -326l171 326h140l36 -624h-134l-22 424l-146 -271h-94l-144 264l-22 -417h-133l36 624h144z" />
    <glyph glyph-name="N" unicode="N" horiz-adv-x="731" 
d="M221 624l293 -414v414h134v-624h-138l-294 411v-411h-133v624h138z" />
    <glyph glyph-name="Nacute" unicode="&#x143;" horiz-adv-x="731" 
d="M221 624l293 -414v414h134v-624h-138l-294 411v-411h-133v624h138zM480 856l42 -91l-237 -93l-37 80z" />
    <glyph glyph-name="Ncaron" unicode="&#x147;" horiz-adv-x="731" 
d="M221 624l293 -414v414h134v-624h-138l-294 411v-411h-133v624h138zM322 690l-122 103l49 57l116 -86l116 86l49 -58l-125 -102q-19 -17 -41 -17q-23 0 -42 17z" />
    <glyph glyph-name="uni0145" unicode="&#x145;" horiz-adv-x="731" 
d="M221 624l293 -414v414h134v-624h-138l-294 411v-411h-133v624h138zM289.5 -133q20.5 33 20.5 81h106q0 -66 -37 -119t-100 -82l-53 59q43 28 63.5 61z" />
    <glyph glyph-name="Eng" unicode="&#x14a;" horiz-adv-x="731" 
d="M648 624v-624q-2 -103 -53.5 -154t-139.5 -51q-48 0 -88 16.5t-68 45.5l58 88q37 -29 76 -29q35 0 56 20.5t22 63.5h-1l-294 411v-411h-133v624h138l290 -410v44h3v366h134z" />
    <glyph glyph-name="Ntilde" unicode="&#xd1;" horiz-adv-x="731" 
d="M221 624l293 -414v414h134v-624h-138l-294 411v-411h-133v624h138zM393 681q-17 7 -39 20q-16 10 -28 15t-24 5q-23 0 -37 -8.5t-29 -28.5l-56 49q47 76 120 76q25 0 43 -7t37 -19q17 -10 28.5 -15t26.5 -5q19 0 33 8.5t29 28.5l56 -50q-49 -76 -122 -76q-21 0 -38 7z
" />
    <glyph glyph-name="O" unicode="O" horiz-adv-x="722" 
d="M194.5 31q-71.5 42 -110 115.5t-38.5 166.5q0 89 40 162.5t112 116t163 42.5q95 0 166 -41.5t109.5 -114.5t38.5 -165q0 -91 -39.5 -165t-111 -116.5t-163.5 -42.5q-95 0 -166.5 42zM486 170.5q48 53.5 48 141.5t-47 141t-125 53t-126.5 -53t-48.5 -141t47.5 -141.5
t125.5 -53.5t126 53.5z" />
    <glyph glyph-name="Oacute" unicode="&#xd3;" horiz-adv-x="722" 
d="M194.5 31q-71.5 42 -110 115.5t-38.5 166.5q0 89 40 162.5t112 116t163 42.5q95 0 166 -41.5t109.5 -114.5t38.5 -165q0 -91 -39.5 -165t-111 -116.5t-163.5 -42.5q-95 0 -166.5 42zM486 170.5q48 53.5 48 141.5t-47 141t-125 53t-126.5 -53t-48.5 -141t47.5 -141.5
t125.5 -53.5t126 53.5zM475 856l42 -91l-237 -93l-37 80z" />
    <glyph glyph-name="Obreve" unicode="&#x14e;" horiz-adv-x="722" 
d="M194.5 31q-71.5 42 -110 115.5t-38.5 166.5q0 89 40 162.5t112 116t163 42.5q95 0 166 -41.5t109.5 -114.5t38.5 -165q0 -91 -39.5 -165t-111 -116.5t-163.5 -42.5q-95 0 -166.5 42zM486 170.5q48 53.5 48 141.5t-47 141t-125 53t-126.5 -53t-48.5 -141t47.5 -141.5
t125.5 -53.5t126 53.5zM266.5 702.5q-44.5 26.5 -79.5 79.5l66 50q26 -35 50.5 -51t57.5 -16t57.5 16t50.5 51l66 -50q-35 -53 -79.5 -79.5t-94.5 -26.5t-94.5 26.5z" />
    <glyph glyph-name="Ocircumflex" unicode="&#xd4;" horiz-adv-x="722" 
d="M194.5 31q-71.5 42 -110 115.5t-38.5 166.5q0 89 40 162.5t112 116t163 42.5q95 0 166 -41.5t109.5 -114.5t38.5 -165q0 -91 -39.5 -165t-111 -116.5t-163.5 -42.5q-95 0 -166.5 42zM486 170.5q48 53.5 48 141.5t-47 141t-125 53t-126.5 -53t-48.5 -141t47.5 -141.5
t125.5 -53.5t126 53.5zM320 830q20 17 42 17t42 -17l122 -103l-49 -58l-116 86l-117 -86l-49 58z" />
    <glyph glyph-name="Odieresis" unicode="&#xd6;" horiz-adv-x="722" 
d="M194.5 31q-71.5 42 -110 115.5t-38.5 166.5q0 89 40 162.5t112 116t163 42.5q95 0 166 -41.5t109.5 -114.5t38.5 -165q0 -91 -39.5 -165t-111 -116.5t-163.5 -42.5q-95 0 -166.5 42zM486 170.5q48 53.5 48 141.5t-47 141t-125 53t-126.5 -53t-48.5 -141t47.5 -141.5
t125.5 -53.5t126 53.5zM205 705q-20 21 -20 52q0 30 20 51t52 21q33 0 53 -21t20 -51q0 -31 -20.5 -52t-52.5 -21t-52 21zM412 705q-20 21 -20 52q0 30 20.5 51t52.5 21t52 -21t20 -51q0 -31 -20.5 -52t-52.5 -21t-52 21z" />
    <glyph glyph-name="Ograve" unicode="&#xd2;" horiz-adv-x="722" 
d="M194.5 31q-71.5 42 -110 115.5t-38.5 166.5q0 89 40 162.5t112 116t163 42.5q95 0 166 -41.5t109.5 -114.5t38.5 -165q0 -91 -39.5 -165t-111 -116.5t-163.5 -42.5q-95 0 -166.5 42zM486 170.5q48 53.5 48 141.5t-47 141t-125 53t-126.5 -53t-48.5 -141t47.5 -141.5
t125.5 -53.5t126 53.5zM247 856l232 -104l-37 -80l-237 93z" />
    <glyph glyph-name="Ohungarumlaut" unicode="&#x150;" horiz-adv-x="722" 
d="M194.5 31q-71.5 42 -110 115.5t-38.5 166.5q0 89 40 162.5t112 116t163 42.5q95 0 166 -41.5t109.5 -114.5t38.5 -165q0 -91 -39.5 -165t-111 -116.5t-163.5 -42.5q-95 0 -166.5 42zM486 170.5q48 53.5 48 141.5t-47 141t-125 53t-126.5 -53t-48.5 -141t47.5 -141.5
t125.5 -53.5t126 53.5zM347 863l56 -73l-174 -115l-51 66zM556 861l56 -73l-175 -115l-50 66z" />
    <glyph glyph-name="Omacron" unicode="&#x14c;" horiz-adv-x="722" 
d="M194.5 31q-71.5 42 -110 115.5t-38.5 166.5q0 89 40 162.5t112 116t163 42.5q95 0 166 -41.5t109.5 -114.5t38.5 -165q0 -91 -39.5 -165t-111 -116.5t-163.5 -42.5q-95 0 -166.5 42zM486 170.5q48 53.5 48 141.5t-47 141t-125 53t-126.5 -53t-48.5 -141t47.5 -141.5
t125.5 -53.5t126 53.5zM516 790v-91h-310v91h310z" />
    <glyph glyph-name="Oslash" unicode="&#xd8;" horiz-adv-x="722" 
d="M675 313q0 -91 -39.5 -165t-111 -116.5t-163.5 -42.5q-104 0 -177 50l-73 -78l-80 74l73 79q-58 85 -58 199q0 89 40 162.5t112 116t163 42.5q103 0 179 -51l71 75l77 -74l-70 -76q57 -82 57 -195zM205 223l242 259q-38 24 -85 24q-78 0 -126.5 -53t-48.5 -141
q0 -50 18 -89zM517 399l-240 -259q35 -23 83 -23q78 0 126 53.5t48 141.5q0 48 -17 87z" />
    <glyph glyph-name="Otilde" unicode="&#xd5;" horiz-adv-x="722" 
d="M194.5 31q-71.5 42 -110 115.5t-38.5 166.5q0 89 40 162.5t112 116t163 42.5q95 0 166 -41.5t109.5 -114.5t38.5 -165q0 -91 -39.5 -165t-111 -116.5t-163.5 -42.5q-95 0 -166.5 42zM486 170.5q48 53.5 48 141.5t-47 141t-125 53t-126.5 -53t-48.5 -141t47.5 -141.5
t125.5 -53.5t126 53.5zM389 681q-17 7 -39 20q-16 10 -28 15t-24 5q-23 0 -37 -8.5t-29 -28.5l-56 49q47 76 120 76q25 0 43 -7t37 -19q17 -10 28.5 -15t26.5 -5q19 0 33 8.5t29 28.5l56 -50q-49 -76 -122 -76q-21 0 -38 7z" />
    <glyph glyph-name="OE" unicode="&#x152;" horiz-adv-x="1029" 
d="M192 31q-70 42 -108 116t-38 166q0 89 40 162.5t110.5 116t158.5 42.5q113 0 185 -80v70h446v-124h-318v-124h280v-118h-280v-134h327v-124h-455v73q-74 -84 -185 -84q-93 0 -163 42zM486 170.5q48 53.5 48 141.5t-47 141t-125 53t-126.5 -53t-48.5 -141t47.5 -141.5
t125.5 -53.5t126 53.5z" />
    <glyph glyph-name="P" unicode="P" horiz-adv-x="618" 
d="M327 624q121 0 186.5 -59.5t65.5 -161.5q0 -66 -32 -114.5t-88.5 -74.5t-126.5 -26q-55 0 -112 11v-199h-137v624h244zM407 333q32 26 32 73q0 48 -31.5 73t-87.5 25h-100v-189q43 -8 100 -8q55 0 87 26z" />
    <glyph glyph-name="Thorn" unicode="&#xde;" horiz-adv-x="617" 
d="M217 624v-90h109q120 0 185.5 -58.5t65.5 -159.5q0 -66 -32 -114t-88 -73.5t-126 -25.5q-57 0 -114 11v-114h-134v624h134zM405 246q32 26 32 73q0 48 -31.5 73t-87.5 25h-101v-190q38 -7 101 -7q55 0 87 26z" />
    <glyph glyph-name="Q" unicode="Q" horiz-adv-x="722" 
d="M719 -79q-44 -53 -95.5 -82t-118.5 -29q-91 0 -145.5 49t-70.5 137q-113 22 -178 108.5t-65 208.5q0 89 40 162.5t112 116t163 42.5q95 0 166 -41.5t109.5 -114.5t38.5 -165q0 -79 -30 -145.5t-85 -111.5t-128 -60q22 -65 87 -65q35 0 63 15.5t59 48.5zM234.5 170.5
q47.5 -53.5 125.5 -53.5t126 53.5t48 141.5t-47 141t-125 53t-126.5 -53t-48.5 -141t47.5 -141.5z" />
    <glyph glyph-name="R" unicode="R" horiz-adv-x="625" 
d="M329 624q77 0 133 -27t86 -74.5t30 -107.5q0 -61 -29.5 -108t-82.5 -75l147 -232h-159l-117 201h-37q-44 2 -84 9v-210h-133v624h246zM406 342.5q31 25.5 31 70.5t-31 70t-86 25h-104v-183q41 -8 104 -8q55 0 86 25.5z" />
    <glyph glyph-name="Racute" unicode="&#x154;" horiz-adv-x="625" 
d="M329 624q77 0 133 -27t86 -74.5t30 -107.5q0 -61 -29.5 -108t-82.5 -75l147 -232h-159l-117 201h-37q-44 2 -84 9v-210h-133v624h246zM406 342.5q31 25.5 31 70.5t-31 70t-86 25h-104v-183q41 -8 104 -8q55 0 86 25.5zM427 856l42 -91l-237 -93l-37 80z" />
    <glyph glyph-name="Rcaron" unicode="&#x158;" horiz-adv-x="625" 
d="M329 624q77 0 133 -27t86 -74.5t30 -107.5q0 -61 -29.5 -108t-82.5 -75l147 -232h-159l-117 201h-37q-44 2 -84 9v-210h-133v624h246zM406 342.5q31 25.5 31 70.5t-31 70t-86 25h-104v-183q41 -8 104 -8q55 0 86 25.5zM269 690l-122 103l49 57l116 -86l116 86l49 -58
l-125 -102q-19 -17 -41 -17q-23 0 -42 17z" />
    <glyph glyph-name="uni0156" unicode="&#x156;" horiz-adv-x="625" 
d="M329 624q77 0 133 -27t86 -74.5t30 -107.5q0 -61 -29.5 -108t-82.5 -75l147 -232h-159l-117 201h-37q-44 2 -84 9v-210h-133v624h246zM406 342.5q31 25.5 31 70.5t-31 70t-86 25h-104v-183q41 -8 104 -8q55 0 86 25.5zM256.5 -133q20.5 33 20.5 81h106q0 -66 -37 -119
t-100 -82l-53 59q43 28 63.5 61z" />
    <glyph glyph-name="S" unicode="S" horiz-adv-x="596" 
d="M143 21q-74 32 -125 96l75 85q90 -90 214 -90q108 0 108 63q0 32 -28.5 49.5t-99.5 31.5q-118 20 -175.5 63.5t-57.5 129.5q0 56 31.5 98t87 64.5t124.5 22.5q78 0 139.5 -25.5t111.5 -82.5l-75 -84q-42 39 -81.5 54.5t-89.5 15.5q-110 0 -110 -60q0 -22 13.5 -35.5
t40 -21.5t79.5 -19q114 -23 171.5 -67t57.5 -133q0 -91 -66.5 -139t-183.5 -48q-87 0 -161 32z" />
    <glyph glyph-name="Sacute" unicode="&#x15a;" horiz-adv-x="596" 
d="M143 21q-74 32 -125 96l75 85q90 -90 214 -90q108 0 108 63q0 32 -28.5 49.5t-99.5 31.5q-118 20 -175.5 63.5t-57.5 129.5q0 56 31.5 98t87 64.5t124.5 22.5q78 0 139.5 -25.5t111.5 -82.5l-75 -84q-42 39 -81.5 54.5t-89.5 15.5q-110 0 -110 -60q0 -22 13.5 -35.5
t40 -21.5t79.5 -19q114 -23 171.5 -67t57.5 -133q0 -91 -66.5 -139t-183.5 -48q-87 0 -161 32zM411 856l42 -91l-237 -93l-37 80z" />
    <glyph glyph-name="Scaron" unicode="&#x160;" horiz-adv-x="596" 
d="M143 21q-74 32 -125 96l75 85q90 -90 214 -90q108 0 108 63q0 32 -28.5 49.5t-99.5 31.5q-118 20 -175.5 63.5t-57.5 129.5q0 56 31.5 98t87 64.5t124.5 22.5q78 0 139.5 -25.5t111.5 -82.5l-75 -84q-42 39 -81.5 54.5t-89.5 15.5q-110 0 -110 -60q0 -22 13.5 -35.5
t40 -21.5t79.5 -19q114 -23 171.5 -67t57.5 -133q0 -91 -66.5 -139t-183.5 -48q-87 0 -161 32zM253 690l-122 103l49 57l116 -86l116 86l49 -58l-125 -102q-19 -17 -41 -17q-23 0 -42 17z" />
    <glyph glyph-name="Scedilla" unicode="&#x15e;" horiz-adv-x="596" 
d="M508.5 56q-45.5 -46 -127.5 -61q31 -33 31 -72q0 -47 -36 -76.5t-97 -29.5q-38 0 -71.5 14t-54.5 38l47 61q16 -12 30.5 -19t32.5 -7q22 0 35 9.5t13 30.5q0 37 -42 46q-76 6 -140.5 38t-110.5 89l75 85q90 -90 214 -90q108 0 108 63q0 32 -28.5 49.5t-99.5 31.5
q-118 20 -175.5 63.5t-57.5 129.5q0 56 31.5 98t87 64.5t124.5 22.5q78 0 139.5 -25.5t111.5 -82.5l-75 -84q-42 39 -81.5 54.5t-89.5 15.5q-110 0 -110 -60q0 -22 13.5 -35.5t40 -21.5t79.5 -19q114 -23 171.5 -67t57.5 -133q0 -74 -45.5 -120z" />
    <glyph glyph-name="Scircumflex" unicode="&#x15c;" horiz-adv-x="596" 
d="M143 21q-74 32 -125 96l75 85q90 -90 214 -90q108 0 108 63q0 32 -28.5 49.5t-99.5 31.5q-118 20 -175.5 63.5t-57.5 129.5q0 56 31.5 98t87 64.5t124.5 22.5q78 0 139.5 -25.5t111.5 -82.5l-75 -84q-42 39 -81.5 54.5t-89.5 15.5q-110 0 -110 -60q0 -22 13.5 -35.5
t40 -21.5t79.5 -19q114 -23 171.5 -67t57.5 -133q0 -91 -66.5 -139t-183.5 -48q-87 0 -161 32zM256 830q20 17 42 17t42 -17l122 -103l-49 -58l-116 86l-117 -86l-49 58z" />
    <glyph glyph-name="uni0218" unicode="&#x218;" horiz-adv-x="596" 
d="M143 21q-74 32 -125 96l75 85q90 -90 214 -90q108 0 108 63q0 32 -28.5 49.5t-99.5 31.5q-118 20 -175.5 63.5t-57.5 129.5q0 56 31.5 98t87 64.5t124.5 22.5q78 0 139.5 -25.5t111.5 -82.5l-75 -84q-42 39 -81.5 54.5t-89.5 15.5q-110 0 -110 -60q0 -22 13.5 -35.5
t40 -21.5t79.5 -19q114 -23 171.5 -67t57.5 -133q0 -91 -66.5 -139t-183.5 -48q-87 0 -161 32zM227.5 -133q20.5 33 20.5 81h106q0 -66 -37 -119t-100 -82l-53 59q43 28 63.5 61z" />
    <glyph glyph-name="uni1E9E" unicode="&#x1e9e;" horiz-adv-x="691" 
d="M340 8q-45 19 -84 57l65 81q47 -39 103 -39q97 0 97 74q0 42 -34.5 62t-103.5 20h-62v76l139 142q-15 17 -41 27t-62 10q-71 0 -112 -43t-41 -119v-356h-134v336q0 133 71 215.5t220 82.5q60 0 112 -20t88 -50.5t51 -60.5l-140 -144l-3 -3q84 -10 135.5 -55.5
t51.5 -121.5q0 -86 -57 -138t-158 -52q-56 0 -101 19z" />
    <glyph glyph-name="T" unicode="T" horiz-adv-x="619" 
d="M30 494v130h559v-130h-211v-494h-139v494h-209z" />
    <glyph glyph-name="Tbar" unicode="&#x166;" horiz-adv-x="619" 
d="M378 494v-165h115v-126h-115v-203h-139v203h-113v126h113v165h-209v130h559v-130h-211z" />
    <glyph glyph-name="Tcaron" unicode="&#x164;" horiz-adv-x="619" 
d="M30 494v130h559v-130h-211v-494h-139v494h-209zM266 690l-122 103l49 57l116 -86l116 86l49 -58l-125 -102q-19 -17 -41 -17q-23 0 -42 17z" />
    <glyph glyph-name="uni0162" unicode="&#x162;" horiz-adv-x="619" 
d="M378 494v-489q31 -33 31 -74q0 -47 -36 -76t-97 -29q-38 0 -71 13.5t-54 37.5l47 62q33 -27 62 -27q49 0 49 41q0 38 -46 47h-24v494h-209v130h559v-130h-211z" />
    <glyph glyph-name="uni021A" unicode="&#x21a;" horiz-adv-x="619" 
d="M30 494v130h559v-130h-211v-494h-139v494h-209zM234.5 -133q20.5 33 20.5 81h106q0 -66 -37 -119t-100 -82l-53 59q43 28 63.5 61z" />
    <glyph glyph-name="U" unicode="U" horiz-adv-x="707" 
d="M142 72q-70 83 -70 234v318h140v-321q0 -93 33.5 -139.5t107.5 -46.5t108.5 45.5t34.5 140.5v321h139v-318q0 -147 -72.5 -232t-208.5 -85q-142 0 -212 83z" />
    <glyph glyph-name="Uacute" unicode="&#xda;" horiz-adv-x="707" 
d="M142 72q-70 83 -70 234v318h140v-321q0 -93 33.5 -139.5t107.5 -46.5t108.5 45.5t34.5 140.5v321h139v-318q0 -147 -72.5 -232t-208.5 -85q-142 0 -212 83zM468 856l42 -91l-237 -93l-37 80z" />
    <glyph glyph-name="Ubreve" unicode="&#x16c;" horiz-adv-x="707" 
d="M142 72q-70 83 -70 234v318h140v-321q0 -93 33.5 -139.5t107.5 -46.5t108.5 45.5t34.5 140.5v321h139v-318q0 -147 -72.5 -232t-208.5 -85q-142 0 -212 83zM259.5 702.5q-44.5 26.5 -79.5 79.5l66 50q26 -35 50.5 -51t57.5 -16t57.5 16t50.5 51l66 -50
q-35 -53 -79.5 -79.5t-94.5 -26.5t-94.5 26.5z" />
    <glyph glyph-name="Ucircumflex" unicode="&#xdb;" horiz-adv-x="707" 
d="M142 72q-70 83 -70 234v318h140v-321q0 -93 33.5 -139.5t107.5 -46.5t108.5 45.5t34.5 140.5v321h139v-318q0 -147 -72.5 -232t-208.5 -85q-142 0 -212 83zM313 830q20 17 42 17t42 -17l122 -103l-49 -58l-116 86l-117 -86l-49 58z" />
    <glyph glyph-name="Udieresis" unicode="&#xdc;" horiz-adv-x="707" 
d="M142 72q-70 83 -70 234v318h140v-321q0 -93 33.5 -139.5t107.5 -46.5t108.5 45.5t34.5 140.5v321h139v-318q0 -147 -72.5 -232t-208.5 -85q-142 0 -212 83zM198 705q-20 21 -20 52q0 30 20 51t52 21q33 0 53 -21t20 -51q0 -31 -20.5 -52t-52.5 -21t-52 21zM405 705
q-20 21 -20 52q0 30 20.5 51t52.5 21t52 -21t20 -51q0 -31 -20.5 -52t-52.5 -21t-52 21z" />
    <glyph glyph-name="Ugrave" unicode="&#xd9;" horiz-adv-x="707" 
d="M142 72q-70 83 -70 234v318h140v-321q0 -93 33.5 -139.5t107.5 -46.5t108.5 45.5t34.5 140.5v321h139v-318q0 -147 -72.5 -232t-208.5 -85q-142 0 -212 83zM240 856l232 -104l-37 -80l-237 93z" />
    <glyph glyph-name="Uhungarumlaut" unicode="&#x170;" horiz-adv-x="707" 
d="M142 72q-70 83 -70 234v318h140v-321q0 -93 33.5 -139.5t107.5 -46.5t108.5 45.5t34.5 140.5v321h139v-318q0 -147 -72.5 -232t-208.5 -85q-142 0 -212 83zM340 863l56 -73l-174 -115l-51 66zM549 861l56 -73l-175 -115l-50 66z" />
    <glyph glyph-name="Umacron" unicode="&#x16a;" horiz-adv-x="707" 
d="M142 72q-70 83 -70 234v318h140v-321q0 -93 33.5 -139.5t107.5 -46.5t108.5 45.5t34.5 140.5v321h139v-318q0 -147 -72.5 -232t-208.5 -85q-142 0 -212 83zM509 790v-91h-310v91h310z" />
    <glyph glyph-name="Uogonek" unicode="&#x172;" horiz-adv-x="707" 
d="M635 624v-318q0 -111 -41.5 -187.5t-121.5 -108.5q-11 -7 -56 -34q-28 -17 -38.5 -26.5t-10.5 -21.5q0 -21 27 -21q24 0 50 24l48 -59q-21 -23 -52.5 -36.5t-66.5 -13.5q-50 0 -80 21.5t-30 59.5q0 49 56 87q-125 11 -186 93t-61 223v318h140v-321q0 -93 33.5 -139.5
t107.5 -46.5t108.5 45.5t34.5 140.5v321h139z" />
    <glyph glyph-name="Uring" unicode="&#x16e;" horiz-adv-x="707" 
d="M142 72q-70 83 -70 234v318h140v-321q0 -93 33.5 -139.5t107.5 -46.5t108.5 45.5t34.5 140.5v321h139v-318q0 -147 -72.5 -232t-208.5 -85q-142 0 -212 83zM269.5 694.5q-35.5 33.5 -35.5 84.5t35.5 84.5t84.5 33.5t84.5 -33.5t35.5 -84.5t-35.5 -84.5t-84.5 -33.5
t-84.5 33.5zM385.5 746.5q13.5 12.5 13.5 32.5t-13.5 33t-31.5 13t-31.5 -13t-13.5 -33t13.5 -32.5t31.5 -12.5t31.5 12.5z" />
    <glyph glyph-name="Utilde" unicode="&#x168;" horiz-adv-x="707" 
d="M142 72q-70 83 -70 234v318h140v-321q0 -93 33.5 -139.5t107.5 -46.5t108.5 45.5t34.5 140.5v321h139v-318q0 -147 -72.5 -232t-208.5 -85q-142 0 -212 83zM381 681q-17 7 -39 20q-16 10 -28 15t-24 5q-23 0 -37 -8.5t-29 -28.5l-56 49q47 76 120 76q25 0 43 -7t37 -19
q17 -10 28.5 -15t26.5 -5q19 0 33 8.5t29 28.5l56 -50q-49 -76 -122 -76q-21 0 -38 7z" />
    <glyph glyph-name="V" unicode="V" horiz-adv-x="662" 
d="M160 624l172 -481l172 481h152l-241 -624h-164l-245 624h154z" />
    <glyph glyph-name="W" unicode="W" horiz-adv-x="941" 
d="M173 624l103 -462l114 457h166l114 -457l103 462h154l-179 -624h-162l-117 471l-117 -471h-158l-180 624h159z" />
    <glyph glyph-name="Wacute" unicode="&#x1e82;" horiz-adv-x="941" 
d="M173 624l103 -462l114 457h166l114 -457l103 462h154l-179 -624h-162l-117 471l-117 -471h-158l-180 624h159zM585 856l42 -91l-237 -93l-37 80z" />
    <glyph glyph-name="Wcircumflex" unicode="&#x174;" horiz-adv-x="941" 
d="M173 624l103 -462l114 457h166l114 -457l103 462h154l-179 -624h-162l-117 471l-117 -471h-158l-180 624h159zM430 830q20 17 42 17t42 -17l122 -103l-49 -58l-116 86l-117 -86l-49 58z" />
    <glyph glyph-name="Wdieresis" unicode="&#x1e84;" horiz-adv-x="941" 
d="M173 624l103 -462l114 457h166l114 -457l103 462h154l-179 -624h-162l-117 471l-117 -471h-158l-180 624h159zM315 705q-20 21 -20 52q0 30 20 51t52 21q33 0 53 -21t20 -51q0 -31 -20.5 -52t-52.5 -21t-52 21zM522 705q-20 21 -20 52q0 30 20.5 51t52.5 21t52 -21
t20 -51q0 -31 -20.5 -52t-52.5 -21t-52 21z" />
    <glyph glyph-name="Wgrave" unicode="&#x1e80;" horiz-adv-x="941" 
d="M173 624l103 -462l114 457h166l114 -457l103 462h154l-179 -624h-162l-117 471l-117 -471h-158l-180 624h159zM357 856l232 -104l-37 -80l-237 93z" />
    <glyph glyph-name="X" unicode="X" horiz-adv-x="666" 
d="M22 624h173l142 -204l138 204h166l-216 -305l234 -319h-174l-155 223l-156 -223h-167l234 325z" />
    <glyph glyph-name="Y" unicode="Y" horiz-adv-x="606" 
d="M6 624h156l144 -264l140 264h155l-228 -399v-225h-140v224z" />
    <glyph glyph-name="Yacute" unicode="&#xdd;" horiz-adv-x="606" 
d="M6 624h156l144 -264l140 264h155l-228 -399v-225h-140v224zM418 856l42 -91l-237 -93l-37 80z" />
    <glyph glyph-name="Ycircumflex" unicode="&#x176;" horiz-adv-x="606" 
d="M6 624h156l144 -264l140 264h155l-228 -399v-225h-140v224zM262 830q20 17 42 17t42 -17l122 -103l-49 -58l-116 86l-117 -86l-49 58z" />
    <glyph glyph-name="Ydieresis" unicode="&#x178;" horiz-adv-x="606" 
d="M6 624h156l144 -264l140 264h155l-228 -399v-225h-140v224zM147 705q-20 21 -20 52q0 30 20 51t52 21q33 0 53 -21t20 -51q0 -31 -20.5 -52t-52.5 -21t-52 21zM354 705q-20 21 -20 52q0 30 20.5 51t52.5 21t52 -21t20 -51q0 -31 -20.5 -52t-52.5 -21t-52 21z" />
    <glyph glyph-name="Ygrave" unicode="&#x1ef2;" horiz-adv-x="606" 
d="M6 624h156l144 -264l140 264h155l-228 -399v-225h-140v224zM189 856l232 -104l-37 -80l-237 93z" />
    <glyph glyph-name="Z" unicode="Z" horiz-adv-x="599" 
d="M372 496h-330v128h513v-118l-330 -378h340v-128h-525v118z" />
    <glyph glyph-name="Zacute" unicode="&#x179;" horiz-adv-x="599" 
d="M372 496h-330v128h513v-118l-330 -378h340v-128h-525v118zM408 856l42 -91l-237 -93l-37 80z" />
    <glyph glyph-name="Zcaron" unicode="&#x17d;" horiz-adv-x="599" 
d="M372 496h-330v128h513v-118l-330 -378h340v-128h-525v118zM250 690l-122 103l49 57l116 -86l116 86l49 -58l-125 -102q-19 -17 -41 -17q-23 0 -42 17z" />
    <glyph glyph-name="Zdotaccent" unicode="&#x17b;" horiz-adv-x="599" 
d="M372 496h-330v128h513v-118l-330 -378h340v-128h-525v118zM236.5 701q-21.5 22 -21.5 55q0 32 22 54.5t57 22.5q36 0 57.5 -22.5t21.5 -54.5t-22 -54.5t-57 -22.5q-36 0 -57.5 22z" />
    <glyph glyph-name="K.ss01" horiz-adv-x="676" 
d="M222 624v-247h125l154 247h158l-201 -310l211 -314h-165l-161 248h-121v-248h-139v624h139z" />
    <glyph glyph-name="uni0136.ss01" horiz-adv-x="676" 
d="M222 624v-247h125l154 247h158l-201 -310l211 -314h-165l-161 248h-121v-248h-139v624h139zM277.5 -133q20.5 33 20.5 81h106q0 -66 -37 -119t-100 -82l-53 59q43 28 63.5 61z" />
    <glyph glyph-name="M.ss01" horiz-adv-x="832" 
d="M228 624l189 -326l193 326h139v-624h-133v427l-157 -274h-89l-154 266v-419h-133v624h145z" />
    <glyph glyph-name="P.ss01" horiz-adv-x="618" 
d="M327 624q121 0 186.5 -59t65.5 -160q0 -65 -32 -113.5t-88.5 -74t-126.5 -25.5h-112v-192h-137v624h244zM407 336.5q32 25.5 32 71.5q0 47 -31 71.5t-88 24.5h-100v-193h100q55 0 87 25.5z" />
    <glyph glyph-name="Thorn.ss01" horiz-adv-x="617" 
d="M217 624v-94h109q78 0 134.5 -26.5t86.5 -74t30 -110.5q0 -66 -34 -114t-91.5 -73.5t-126.5 -25.5h-108v-106h-134v624h134zM403.5 246q32.5 26 32.5 73q0 48 -31 73t-88 25h-100v-197h99q55 0 87.5 26z" />
    <glyph glyph-name="Q.ss01" horiz-adv-x="713" 
d="M361 -11q-95 0 -166.5 42t-110 115.5t-38.5 166.5q0 89 40 162.5t112 116t163 42.5q95 0 166 -41.5t109.5 -114.5t38.5 -165q0 -63 -20 -119t-56 -99l92 -109l-99 -76l-91 110q-64 -31 -140 -31zM416 123l-68 83l96 73l64 -77q30 45 30 110q0 58 -22.5 102t-62.5 68
t-91 24q-78 0 -126.5 -53t-48.5 -141q0 -58 22 -103.5t61 -71t90 -25.5q31 0 56 11z" />
    <glyph glyph-name="R.ss01" horiz-adv-x="625" 
d="M329 624q77 0 133 -26.5t86 -73.5t30 -107q0 -62 -30.5 -109t-83.5 -73l149 -235h-159l-119 205h-25h-94v-205h-133v624h246zM406.5 345.5q30.5 24.5 30.5 69.5t-31 69t-86 24h-104v-187h104q56 0 86.5 24.5z" />
    <glyph glyph-name="Racute.ss01" horiz-adv-x="625" 
d="M329 624q77 0 133 -26.5t86 -73.5t30 -107q0 -62 -30.5 -109t-83.5 -73l149 -235h-159l-119 205h-25h-94v-205h-133v624h246zM406.5 345.5q30.5 24.5 30.5 69.5t-31 69t-86 24h-104v-187h104q56 0 86.5 24.5zM426 856l42 -91l-237 -93l-37 80z" />
    <glyph glyph-name="Rcaron.ss01" horiz-adv-x="625" 
d="M329 624q77 0 133 -26.5t86 -73.5t30 -107q0 -62 -30.5 -109t-83.5 -73l149 -235h-159l-119 205h-25h-94v-205h-133v624h246zM406.5 345.5q30.5 24.5 30.5 69.5t-31 69t-86 24h-104v-187h104q56 0 86.5 24.5zM268 690l-122 103l49 57l116 -86l116 86l49 -58l-125 -102
q-19 -17 -41 -17q-23 0 -42 17z" />
    <glyph glyph-name="uni0156.ss01" horiz-adv-x="625" 
d="M329 624q77 0 133 -26.5t86 -73.5t30 -107q0 -62 -30.5 -109t-83.5 -73l149 -235h-159l-119 205h-25h-94v-205h-133v624h246zM406.5 345.5q30.5 24.5 30.5 69.5t-31 69t-86 24h-104v-187h104q56 0 86.5 24.5zM256.5 -133q20.5 33 20.5 81h106q0 -66 -37 -119t-100 -82
l-53 59q43 28 63.5 61z" />
    <glyph glyph-name="a" unicode="a" horiz-adv-x="562" 
d="M87 31q-43 42 -43 103q0 40 21 74t64.5 55t109.5 21q72 0 129 -21v6q0 54 -28 81t-78 27q-41 0 -73.5 -10t-67.5 -37l-63 78q50 43 101.5 60.5t120.5 17.5q97 0 157 -56t60 -168v-262h-102q-12 30 -14 67q-26 -36 -67 -57t-97 -21q-87 0 -130 42zM325 114q32 25 38 65
l1 6q-54 13 -102 13q-47 0 -69 -14t-22 -43q0 -26 18.5 -39t50.5 -13q53 0 85 25z" />
    <glyph glyph-name="aacute" unicode="&#xe1;" horiz-adv-x="562" 
d="M87 31q-43 42 -43 103q0 40 21 74t64.5 55t109.5 21q72 0 129 -21v6q0 54 -28 81t-78 27q-41 0 -73.5 -10t-67.5 -37l-63 78q50 43 101.5 60.5t120.5 17.5q97 0 157 -56t60 -168v-262h-102q-12 30 -14 67q-26 -36 -67 -57t-97 -21q-87 0 -130 42zM325 114q32 25 38 65
l1 6q-54 13 -102 13q-47 0 -69 -14t-22 -43q0 -26 18.5 -39t50.5 -13q53 0 85 25zM380 725l48 -85l-222 -111l-43 75z" />
    <glyph glyph-name="abreve" unicode="&#x103;" horiz-adv-x="562" 
d="M87 31q-43 42 -43 103q0 40 21 74t64.5 55t109.5 21q72 0 129 -21v6q0 54 -28 81t-78 27q-41 0 -73.5 -10t-67.5 -37l-63 78q50 43 101.5 60.5t120.5 17.5q97 0 157 -56t60 -168v-262h-102q-12 30 -14 67q-26 -36 -67 -57t-97 -21q-87 0 -130 42zM325 114q32 25 38 65
l1 6q-54 13 -102 13q-47 0 -69 -14t-22 -43q0 -26 18.5 -39t50.5 -13q53 0 85 25zM94 652l67 51q27 -36 51.5 -52t58.5 -16t58.5 16t51.5 52l67 -51q-70 -107 -177 -107t-177 107z" />
    <glyph glyph-name="acircumflex" unicode="&#xe2;" horiz-adv-x="562" 
d="M87 31q-43 42 -43 103q0 40 21 74t64.5 55t109.5 21q72 0 129 -21v6q0 54 -28 81t-78 27q-41 0 -73.5 -10t-67.5 -37l-63 78q50 43 101.5 60.5t120.5 17.5q97 0 157 -56t60 -168v-262h-102q-12 30 -14 67q-26 -36 -67 -57t-97 -21q-87 0 -130 42zM325 114q32 25 38 65
l1 6q-54 13 -102 13q-47 0 -69 -14t-22 -43q0 -26 18.5 -39t50.5 -13q53 0 85 25zM229 699q20 17 43 17t43 -17l124 -105l-50 -59l-118 88l-119 -88l-50 59z" />
    <glyph glyph-name="adieresis" unicode="&#xe4;" horiz-adv-x="562" 
d="M87 31q-43 42 -43 103q0 40 21 74t64.5 55t109.5 21q72 0 129 -21v6q0 54 -28 81t-78 27q-41 0 -73.5 -10t-67.5 -37l-63 78q50 43 101.5 60.5t120.5 17.5q97 0 157 -56t60 -168v-262h-102q-12 30 -14 67q-26 -36 -67 -57t-97 -21q-87 0 -130 42zM325 114q32 25 38 65
l1 6q-54 13 -102 13q-47 0 -69 -14t-22 -43q0 -26 18.5 -39t50.5 -13q53 0 85 25zM111 558.5q-20 20.5 -20 52.5q0 30 20.5 51t53.5 21t53.5 -21t20.5 -51q0 -31 -20.5 -52t-53.5 -21q-34 0 -54 20.5zM324 559q-20 21 -20 52q0 30 20 51t53 21t53.5 -21t20.5 -51
q0 -31 -20.5 -52t-53.5 -21t-53 21z" />
    <glyph glyph-name="agrave" unicode="&#xe0;" horiz-adv-x="562" 
d="M87 31q-43 42 -43 103q0 40 21 74t64.5 55t109.5 21q72 0 129 -21v6q0 54 -28 81t-78 27q-41 0 -73.5 -10t-67.5 -37l-63 78q50 43 101.5 60.5t120.5 17.5q97 0 157 -56t60 -168v-262h-102q-12 30 -14 67q-26 -36 -67 -57t-97 -21q-87 0 -130 42zM325 114q32 25 38 65
l1 6q-54 13 -102 13q-47 0 -69 -14t-22 -43q0 -26 18.5 -39t50.5 -13q53 0 85 25zM162 725l217 -121l-43 -75l-222 111z" />
    <glyph glyph-name="amacron" unicode="&#x101;" horiz-adv-x="562" 
d="M87 31q-43 42 -43 103q0 40 21 74t64.5 55t109.5 21q72 0 129 -21v6q0 54 -28 81t-78 27q-41 0 -73.5 -10t-67.5 -37l-63 78q50 43 101.5 60.5t120.5 17.5q97 0 157 -56t60 -168v-262h-102q-12 30 -14 67q-26 -36 -67 -57t-97 -21q-87 0 -130 42zM325 114q32 25 38 65
l1 6q-54 13 -102 13q-47 0 -69 -14t-22 -43q0 -26 18.5 -39t50.5 -13q53 0 85 25zM427 659v-93h-312v93h312z" />
    <glyph glyph-name="aogonek" unicode="&#x105;" horiz-adv-x="562" 
d="M516 -136q-20 -22 -50.5 -35t-64.5 -13q-47 0 -76 20.5t-29 57.5q0 52 64 91q11 7 33 19q-10 31 -12 63q-26 -36 -67 -57t-97 -21q-87 0 -130 42t-43 103q0 40 21 74t64.5 55t109.5 21q72 0 129 -21v6q0 54 -28 81t-78 27q-41 0 -73.5 -10t-67.5 -37l-63 78
q50 43 101.5 60.5t120.5 17.5q97 0 157 -56t60 -168v-261l1 -1q-39 -25 -62 -39q-22 -12 -31 -21.5t-9 -21.5q0 -20 26 -20q22 0 48 22zM364 185q-54 13 -102 13q-47 0 -69 -14t-22 -43q0 -26 18.5 -39t50.5 -13q53 0 85 25t38 65z" />
    <glyph glyph-name="aring" unicode="&#xe5;" horiz-adv-x="562" 
d="M87 31q-43 42 -43 103q0 40 21 74t64.5 55t109.5 21q72 0 129 -21v6q0 54 -28 81t-78 27q-41 0 -73.5 -10t-67.5 -37l-63 78q50 43 101.5 60.5t120.5 17.5q97 0 157 -56t60 -168v-262h-102q-12 30 -14 67q-26 -36 -67 -57t-97 -21q-87 0 -130 42zM325 114q32 25 38 65
l1 6q-54 13 -102 13q-47 0 -69 -14t-22 -43q0 -26 18.5 -39t50.5 -13q53 0 85 25zM194.5 571.5q-32.5 30.5 -32.5 76.5q0 47 32.5 77t76.5 30t76.5 -30t32.5 -77q0 -46 -32.5 -76.5t-76.5 -30.5t-76.5 30.5zM299.5 618.5q11.5 11.5 11.5 29.5q0 19 -11.5 30t-28.5 11
t-28.5 -11t-11.5 -30q0 -18 11.5 -29.5t28.5 -11.5t28.5 11.5z" />
    <glyph glyph-name="atilde" unicode="&#xe3;" horiz-adv-x="562" 
d="M87 31q-43 42 -43 103q0 40 21 74t64.5 55t109.5 21q72 0 129 -21v6q0 54 -28 81t-78 27q-41 0 -73.5 -10t-67.5 -37l-63 78q50 43 101.5 60.5t120.5 17.5q97 0 157 -56t60 -168v-262h-102q-12 30 -14 67q-26 -36 -67 -57t-97 -21q-87 0 -130 42zM325 114q32 25 38 65
l1 6q-54 13 -102 13q-47 0 -69 -14t-22 -43q0 -26 18.5 -39t50.5 -13q53 0 85 25zM299.5 551q-17.5 7 -39.5 20q-18 10 -29.5 15t-24.5 5q-23 0 -37.5 -8.5t-29.5 -28.5l-58 51q48 77 123 77q26 0 44.5 -7t37.5 -19q16 -11 28.5 -16t28.5 -5q19 0 33 9t30 29l57 -51
q-48 -78 -124 -78q-22 0 -39.5 7z" />
    <glyph glyph-name="ae" unicode="&#xe6;" horiz-adv-x="911" 
d="M88.5 31q-44.5 42 -44.5 103q0 40 21 74t64.5 55t109.5 21q72 0 129 -21v7q0 55 -29 81t-77 26q-41 0 -73.5 -10t-67.5 -37l-63 78q50 43 101.5 60.5t120.5 17.5q57 0 102.5 -20.5t72.5 -62.5q29 39 74.5 61t102.5 22q112 0 170 -68.5t58 -184.5v-27h-337q8 -49 42.5 -78
t85.5 -29q49 0 81 15t55 45l74 -61q-33 -55 -90 -82t-130 -27q-69 0 -123 27.5t-84 76.5q-28 -47 -80.5 -75.5t-131.5 -28.5q-89 0 -133.5 42zM705 361q-25 22 -68 22t-71.5 -22t-38.5 -66h207q-4 44 -29 66zM326 114.5q31 25.5 37 67.5l1 3q-54 13 -102 13q-47 0 -69 -14
t-22 -43q0 -26 18.5 -39t50.5 -13q55 0 86 25.5z" />
    <glyph glyph-name="b" unicode="b" horiz-adv-x="628" 
d="M268.5 8.5q-40.5 19.5 -69.5 54.5q-5 -36 -14 -63h-112v674h137v-255q30 32 69 49.5t85 17.5q66 0 115 -32t75 -89t26 -129t-27.5 -128t-77.5 -87.5t-116 -31.5q-50 0 -90.5 19.5zM411.5 137q31.5 31 31.5 98t-31 100.5t-79 33.5q-55 0 -89 -32t-34 -88v-17
q0 -63 34.5 -94.5t86.5 -31.5q49 0 80.5 31z" />
    <glyph glyph-name="c" unicode="c" horiz-adv-x="518" 
d="M161 21q-55 32 -84 88.5t-29 128.5q0 70 31 126.5t86 89t125 32.5q132 0 194 -110l-81 -61q-20 28 -43 41t-60 13q-55 0 -85 -36.5t-30 -94.5q0 -57 31 -94.5t86 -37.5q37 0 61.5 15t46.5 44l82 -60q-64 -116 -202 -116q-74 0 -129 32z" />
    <glyph glyph-name="cacute" unicode="&#x107;" horiz-adv-x="518" 
d="M161 21q-55 32 -84 88.5t-29 128.5q0 70 31 126.5t86 89t125 32.5q132 0 194 -110l-81 -61q-20 28 -43 41t-60 13q-55 0 -85 -36.5t-30 -94.5q0 -57 31 -94.5t86 -37.5q37 0 61.5 15t46.5 44l82 -60q-64 -116 -202 -116q-74 0 -129 32zM397 725l48 -85l-222 -111l-43 75z
" />
    <glyph glyph-name="ccaron" unicode="&#x10d;" horiz-adv-x="518" 
d="M161 21q-55 32 -84 88.5t-29 128.5q0 70 31 126.5t86 89t125 32.5q132 0 194 -110l-81 -61q-20 28 -43 41t-60 13q-55 0 -85 -36.5t-30 -94.5q0 -57 31 -94.5t86 -37.5q37 0 61.5 15t46.5 44l82 -60q-64 -116 -202 -116q-74 0 -129 32zM243 551l-124 105l50 58l118 -87
l119 87l50 -59l-127 -104q-20 -17 -43 -17t-43 17z" />
    <glyph glyph-name="ccedilla" unicode="&#xe7;" horiz-adv-x="518" 
d="M362 -2q32 -34 32 -73q0 -46 -34.5 -74.5t-94.5 -28.5q-37 0 -69 13.5t-53 37.5l46 59q33 -26 60 -26q22 0 35 10t13 31q0 33 -39 44q-98 10 -154 78t-56 169q0 70 31 126.5t86 89t125 32.5q132 0 194 -110l-81 -61q-20 28 -43 41t-60 13q-55 0 -85 -36.5t-30 -94.5
q0 -57 31 -94.5t86 -37.5q37 0 61.5 15t46.5 44l82 -60q-46 -83 -130 -107z" />
    <glyph glyph-name="ccircumflex" unicode="&#x109;" horiz-adv-x="518" 
d="M161 21q-55 32 -84 88.5t-29 128.5q0 70 31 126.5t86 89t125 32.5q132 0 194 -110l-81 -61q-20 28 -43 41t-60 13q-55 0 -85 -36.5t-30 -94.5q0 -57 31 -94.5t86 -37.5q37 0 61.5 15t46.5 44l82 -60q-64 -116 -202 -116q-74 0 -129 32zM246 699q20 17 43 17t43 -17
l124 -105l-50 -59l-118 88l-119 -88l-50 59z" />
    <glyph glyph-name="cdotaccent" unicode="&#x10b;" horiz-adv-x="518" 
d="M161 21q-55 32 -84 88.5t-29 128.5q0 70 31 126.5t86 89t125 32.5q132 0 194 -110l-81 -61q-20 28 -43 41t-60 13q-55 0 -85 -36.5t-30 -94.5q0 -57 31 -94.5t86 -37.5q37 0 61.5 15t46.5 44l82 -60q-64 -116 -202 -116q-74 0 -129 32zM230.5 557.5
q-21.5 21.5 -21.5 53.5t22 53.5t57 21.5q36 0 57.5 -21.5t21.5 -53.5t-22 -53.5t-57 -21.5q-36 0 -57.5 21.5z" />
    <glyph glyph-name="d" unicode="d" horiz-adv-x="627" 
d="M149 21q-49 32 -75 89t-26 129t28 128t78.5 87.5t117.5 31.5q88 0 146 -61v249h136v-674h-110q-12 27 -15 67q-31 -37 -73.5 -57.5t-91.5 -20.5q-66 0 -115 32zM383.5 138.5q34.5 32.5 34.5 88.5v17q0 63 -33.5 94t-85.5 31q-49 0 -81.5 -31.5t-32.5 -97.5
q0 -67 30.5 -100.5t78.5 -33.5q55 0 89.5 32.5z" />
    <glyph glyph-name="eth" unicode="&#xf0;" horiz-adv-x="603" 
d="M167.5 18.5q-57.5 29.5 -88.5 81t-31 116.5q0 63 29.5 113.5t82.5 80t121 29.5t115 -35q-19 58 -80 114l-130 -55l-38 76l87 37q-35 21 -78 36l78 83q69 -25 123 -65l111 47l39 -76l-78 -33q60 -64 92.5 -145.5t32.5 -169.5q0 -74 -31.5 -134t-89 -95t-132.5 -35
q-77 0 -134.5 29.5zM388 139q30 32 30 78q0 45 -31 77t-86 32q-57 0 -87 -32t-30 -77q0 -46 30 -78t87 -32t87 32z" />
    <glyph glyph-name="dcaron" unicode="&#x10f;" horiz-adv-x="724" 
d="M149 21q-49 32 -75 89t-26 129t28 128t78.5 87.5t117.5 31.5q88 0 146 -61v249h136v-674h-110q-12 27 -15 67q-31 -37 -73.5 -57.5t-91.5 -20.5q-66 0 -115 32zM724 674l-15 -155h-91v155h106zM383.5 138.5q34.5 32.5 34.5 88.5v17q0 63 -33.5 94t-85.5 31
q-49 0 -81.5 -31.5t-32.5 -97.5q0 -67 30.5 -100.5t78.5 -33.5q55 0 89.5 32.5z" />
    <glyph glyph-name="dcroat" unicode="&#x111;" horiz-adv-x="627" 
d="M150 21q-49 32 -75.5 87t-26.5 123q0 69 27 123.5t77.5 85t116.5 30.5q90 0 149 -59v108h-196v90h196v65h136v-65h75v-90h-75v-519h-110q-9 20 -15 64q-31 -35 -73.5 -55t-91.5 -20q-65 0 -114 32zM383.5 133q34.5 32 34.5 88v13q0 62 -34.5 93.5t-87.5 31.5
q-49 0 -80 -31t-31 -96t31 -98t78 -33q55 0 89.5 32z" />
    <glyph glyph-name="e" unicode="e" horiz-adv-x="564" 
d="M163 20.5q-56 31.5 -85.5 87.5t-29.5 129q0 67 29.5 124t83.5 91t126 34q111 0 168.5 -67.5t57.5 -181.5v-31h-336q8 -49 42.5 -78t86.5 -29q47 0 77.5 15.5t56.5 44.5l74 -61q-33 -55 -89.5 -82t-128.5 -27q-77 0 -133 31.5zM357.5 360.5q-24.5 22.5 -67.5 22.5
t-71.5 -22.5t-38.5 -65.5h207q-5 43 -29.5 65.5z" />
    <glyph glyph-name="eacute" unicode="&#xe9;" horiz-adv-x="564" 
d="M163 20.5q-56 31.5 -85.5 87.5t-29.5 129q0 67 29.5 124t83.5 91t126 34q111 0 168.5 -67.5t57.5 -181.5v-31h-336q8 -49 42.5 -78t86.5 -29q47 0 77.5 15.5t56.5 44.5l74 -61q-33 -55 -89.5 -82t-128.5 -27q-77 0 -133 31.5zM357.5 360.5q-24.5 22.5 -67.5 22.5
t-71.5 -22.5t-38.5 -65.5h207q-5 43 -29.5 65.5zM391 725l48 -85l-222 -111l-43 75z" />
    <glyph glyph-name="ebreve" unicode="&#x115;" horiz-adv-x="564" 
d="M163 20.5q-56 31.5 -85.5 87.5t-29.5 129q0 67 29.5 124t83.5 91t126 34q111 0 168.5 -67.5t57.5 -181.5v-31h-336q8 -49 42.5 -78t86.5 -29q47 0 77.5 15.5t56.5 44.5l74 -61q-33 -55 -89.5 -82t-128.5 -27q-77 0 -133 31.5zM357.5 360.5q-24.5 22.5 -67.5 22.5
t-71.5 -22.5t-38.5 -65.5h207q-5 43 -29.5 65.5zM105 652l67 51q27 -36 51.5 -52t58.5 -16t58.5 16t51.5 52l67 -51q-70 -107 -177 -107t-177 107z" />
    <glyph glyph-name="ecaron" unicode="&#x11b;" horiz-adv-x="564" 
d="M163 20.5q-56 31.5 -85.5 87.5t-29.5 129q0 67 29.5 124t83.5 91t126 34q111 0 168.5 -67.5t57.5 -181.5v-31h-336q8 -49 42.5 -78t86.5 -29q47 0 77.5 15.5t56.5 44.5l74 -61q-33 -55 -89.5 -82t-128.5 -27q-77 0 -133 31.5zM357.5 360.5q-24.5 22.5 -67.5 22.5
t-71.5 -22.5t-38.5 -65.5h207q-5 43 -29.5 65.5zM237 551l-124 105l50 58l118 -87l119 87l50 -59l-127 -104q-20 -17 -43 -17t-43 17z" />
    <glyph glyph-name="ecircumflex" unicode="&#xea;" horiz-adv-x="564" 
d="M163 20.5q-56 31.5 -85.5 87.5t-29.5 129q0 67 29.5 124t83.5 91t126 34q111 0 168.5 -67.5t57.5 -181.5v-31h-336q8 -49 42.5 -78t86.5 -29q47 0 77.5 15.5t56.5 44.5l74 -61q-33 -55 -89.5 -82t-128.5 -27q-77 0 -133 31.5zM357.5 360.5q-24.5 22.5 -67.5 22.5
t-71.5 -22.5t-38.5 -65.5h207q-5 43 -29.5 65.5zM240 699q20 17 43 17t43 -17l124 -105l-50 -59l-118 88l-119 -88l-50 59z" />
    <glyph glyph-name="edieresis" unicode="&#xeb;" horiz-adv-x="564" 
d="M163 20.5q-56 31.5 -85.5 87.5t-29.5 129q0 67 29.5 124t83.5 91t126 34q111 0 168.5 -67.5t57.5 -181.5v-31h-336q8 -49 42.5 -78t86.5 -29q47 0 77.5 15.5t56.5 44.5l74 -61q-33 -55 -89.5 -82t-128.5 -27q-77 0 -133 31.5zM357.5 360.5q-24.5 22.5 -67.5 22.5
t-71.5 -22.5t-38.5 -65.5h207q-5 43 -29.5 65.5zM122 558.5q-20 20.5 -20 52.5q0 30 20.5 51t53.5 21t53.5 -21t20.5 -51q0 -31 -20.5 -52t-53.5 -21q-34 0 -54 20.5zM335 559q-20 21 -20 52q0 30 20 51t53 21t53.5 -21t20.5 -51q0 -31 -20.5 -52t-53.5 -21t-53 21z" />
    <glyph glyph-name="edotaccent" unicode="&#x117;" horiz-adv-x="564" 
d="M163 20.5q-56 31.5 -85.5 87.5t-29.5 129q0 67 29.5 124t83.5 91t126 34q111 0 168.5 -67.5t57.5 -181.5v-31h-336q8 -49 42.5 -78t86.5 -29q47 0 77.5 15.5t56.5 44.5l74 -61q-33 -55 -89.5 -82t-128.5 -27q-77 0 -133 31.5zM357.5 360.5q-24.5 22.5 -67.5 22.5
t-71.5 -22.5t-38.5 -65.5h207q-5 43 -29.5 65.5zM224.5 557.5q-21.5 21.5 -21.5 53.5t22 53.5t57 21.5q36 0 57.5 -21.5t21.5 -53.5t-22 -53.5t-57 -21.5q-36 0 -57.5 21.5z" />
    <glyph glyph-name="egrave" unicode="&#xe8;" horiz-adv-x="564" 
d="M163 20.5q-56 31.5 -85.5 87.5t-29.5 129q0 67 29.5 124t83.5 91t126 34q111 0 168.5 -67.5t57.5 -181.5v-31h-336q8 -49 42.5 -78t86.5 -29q47 0 77.5 15.5t56.5 44.5l74 -61q-33 -55 -89.5 -82t-128.5 -27q-77 0 -133 31.5zM357.5 360.5q-24.5 22.5 -67.5 22.5
t-71.5 -22.5t-38.5 -65.5h207q-5 43 -29.5 65.5zM173 725l217 -121l-43 -75l-222 111z" />
    <glyph glyph-name="emacron" unicode="&#x113;" horiz-adv-x="564" 
d="M163 20.5q-56 31.5 -85.5 87.5t-29.5 129q0 67 29.5 124t83.5 91t126 34q111 0 168.5 -67.5t57.5 -181.5v-31h-336q8 -49 42.5 -78t86.5 -29q47 0 77.5 15.5t56.5 44.5l74 -61q-33 -55 -89.5 -82t-128.5 -27q-77 0 -133 31.5zM357.5 360.5q-24.5 22.5 -67.5 22.5
t-71.5 -22.5t-38.5 -65.5h207q-5 43 -29.5 65.5zM438 659v-93h-312v93h312z" />
    <glyph glyph-name="eogonek" unicode="&#x119;" horiz-adv-x="564" 
d="M370 -20.5q-9 -9.5 -9 -21.5q0 -20 26 -20q22 0 48 22l46 -56q-20 -22 -50.5 -35t-64.5 -13q-47 0 -76 20.5t-29 57.5q0 29 21 55q-109 4 -171.5 72t-62.5 176q0 67 29.5 124t83.5 91t126 34q111 0 168.5 -67.5t57.5 -181.5v-31h-336q8 -49 42.5 -78t86.5 -29
q47 0 77.5 15.5t56.5 44.5l74 -61q-33 -54 -86 -81l-27 -16q-22 -12 -31 -21.5zM218.5 360.5q-28.5 -22.5 -38.5 -65.5h207q-5 43 -29.5 65.5t-67.5 22.5t-71.5 -22.5z" />
    <glyph glyph-name="f" unicode="f" horiz-adv-x="473" 
d="M24 361v114h94v2q0 93 53.5 150.5t148.5 57.5q94 0 153 -62l-54 -80q-37 29 -76 29q-41 0 -64.5 -24t-23.5 -71v-2h188v-114h-188v-361h-137v361h-94z" />
    <glyph glyph-name="g" unicode="g" horiz-adv-x="570" 
d="M363.5 -106q19.5 11 19.5 31q0 24 -19 34t-75 10h-85q-68 0 -105.5 28.5t-37.5 84.5q0 65 64 99q-35 22 -53.5 55.5t-18.5 76.5q0 78 60 125.5t168 47.5q52 0 93.5 -13.5t70.5 -38.5q20 23 20 70h90v-24q0 -36 -16 -66t-47 -49q9 -24 9 -52q0 -78 -58 -123.5t-162 -45.5
q-64 0 -86 -7t-22 -26q0 -17 14.5 -23.5t44.5 -6.5h91q186 0 186 -140q0 -69 -54 -107t-153 -39v87q42 1 61.5 12zM345.5 258q22.5 21 22.5 57q0 35 -22.5 55.5t-66.5 20.5q-46 0 -69.5 -21t-23.5 -55q0 -35 23.5 -56.5t69.5 -21.5q44 0 66.5 21z" />
    <glyph glyph-name="gbreve" unicode="&#x11f;" horiz-adv-x="570" 
d="M363.5 -106q19.5 11 19.5 31q0 24 -19 34t-75 10h-85q-68 0 -105.5 28.5t-37.5 84.5q0 65 64 99q-35 22 -53.5 55.5t-18.5 76.5q0 78 60 125.5t168 47.5q52 0 93.5 -13.5t70.5 -38.5q20 23 20 70h90v-24q0 -36 -16 -66t-47 -49q9 -24 9 -52q0 -78 -58 -123.5t-162 -45.5
q-64 0 -86 -7t-22 -26q0 -17 14.5 -23.5t44.5 -6.5h91q186 0 186 -140q0 -69 -54 -107t-153 -39v87q42 1 61.5 12zM345.5 258q22.5 21 22.5 57q0 35 -22.5 55.5t-66.5 20.5q-46 0 -69.5 -21t-23.5 -55q0 -35 23.5 -56.5t69.5 -21.5q44 0 66.5 21zM108 652l67 51
q27 -36 51.5 -52t58.5 -16t58.5 16t51.5 52l67 -51q-70 -107 -177 -107t-177 107z" />
    <glyph glyph-name="gcircumflex" unicode="&#x11d;" horiz-adv-x="570" 
d="M363.5 -106q19.5 11 19.5 31q0 24 -19 34t-75 10h-85q-68 0 -105.5 28.5t-37.5 84.5q0 65 64 99q-35 22 -53.5 55.5t-18.5 76.5q0 78 60 125.5t168 47.5q52 0 93.5 -13.5t70.5 -38.5q20 23 20 70h90v-24q0 -36 -16 -66t-47 -49q9 -24 9 -52q0 -78 -58 -123.5t-162 -45.5
q-64 0 -86 -7t-22 -26q0 -17 14.5 -23.5t44.5 -6.5h91q186 0 186 -140q0 -69 -54 -107t-153 -39v87q42 1 61.5 12zM345.5 258q22.5 21 22.5 57q0 35 -22.5 55.5t-66.5 20.5q-46 0 -69.5 -21t-23.5 -55q0 -35 23.5 -56.5t69.5 -21.5q44 0 66.5 21zM243 699q20 17 43 17
t43 -17l124 -105l-50 -59l-118 88l-119 -88l-50 59z" />
    <glyph glyph-name="uni0123" unicode="&#x123;" horiz-adv-x="570" 
d="M363.5 -106q19.5 11 19.5 31q0 24 -19 34t-75 10h-85q-68 0 -105.5 28.5t-37.5 84.5q0 65 64 99q-35 22 -53.5 55.5t-18.5 76.5q0 78 60 125.5t168 47.5q52 0 93.5 -13.5t70.5 -38.5q20 23 20 70h90v-24q0 -36 -16 -66t-47 -49q9 -24 9 -52q0 -78 -58 -123.5t-162 -45.5
q-64 0 -86 -7t-22 -26q0 -17 14.5 -23.5t44.5 -6.5h91q186 0 186 -140q0 -69 -54 -107t-153 -39v87q42 1 61.5 12zM345.5 258q22.5 21 22.5 57q0 35 -22.5 55.5t-66.5 20.5q-46 0 -69.5 -21t-23.5 -55q0 -35 23.5 -56.5t69.5 -21.5q44 0 66.5 21zM260.5 675.5
q36.5 53.5 98.5 82.5l53 -60q-42 -28 -62 -61t-20 -81h-106q0 66 36.5 119.5z" />
    <glyph glyph-name="gdotaccent" unicode="&#x121;" horiz-adv-x="570" 
d="M363.5 -106q19.5 11 19.5 31q0 24 -19 34t-75 10h-85q-68 0 -105.5 28.5t-37.5 84.5q0 65 64 99q-35 22 -53.5 55.5t-18.5 76.5q0 78 60 125.5t168 47.5q52 0 93.5 -13.5t70.5 -38.5q20 23 20 70h90v-24q0 -36 -16 -66t-47 -49q9 -24 9 -52q0 -78 -58 -123.5t-162 -45.5
q-64 0 -86 -7t-22 -26q0 -17 14.5 -23.5t44.5 -6.5h91q186 0 186 -140q0 -69 -54 -107t-153 -39v87q42 1 61.5 12zM345.5 258q22.5 21 22.5 57q0 35 -22.5 55.5t-66.5 20.5q-46 0 -69.5 -21t-23.5 -55q0 -35 23.5 -56.5t69.5 -21.5q44 0 66.5 21zM227.5 557.5
q-21.5 21.5 -21.5 53.5t22 53.5t57 21.5q36 0 57.5 -21.5t21.5 -53.5t-22 -53.5t-57 -21.5q-36 0 -57.5 21.5z" />
    <glyph glyph-name="h" unicode="h" horiz-adv-x="610" 
d="M210 674v-253q57 65 147 65q91 0 139.5 -56t48.5 -164v-266h-137v271q0 49 -21.5 73.5t-62.5 24.5q-53 0 -83.5 -36.5t-30.5 -106.5v-226h-137v674h137z" />
    <glyph glyph-name="hbar" unicode="&#x127;" horiz-adv-x="600" 
d="M-1 519v90h74v65h137v-65h196v-90h-196v-113q58 64 147 64q91 0 139.5 -55.5t48.5 -163.5v-251h-137v255q0 49 -21.5 73.5t-62.5 24.5q-53 0 -83.5 -36.5t-30.5 -106.5v-210h-137v519h-74z" />
    <glyph glyph-name="hcircumflex" unicode="&#x125;" horiz-adv-x="608" 
d="M210 674v-253q57 65 147 65q91 0 139.5 -56t48.5 -164v-266h-137v271q0 49 -21.5 73.5t-62.5 24.5q-53 0 -83.5 -36.5t-30.5 -106.5v-226h-137v674h137zM101 862q20 17 42 17t42 -17l122 -103l-49 -58l-116 86l-117 -86l-49 58z" />
    <glyph glyph-name="i" unicode="i" horiz-adv-x="283" 
d="M210 475v-475h-137v475h137zM84.5 557.5q-21.5 21.5 -21.5 53.5t22 53.5t57 21.5q36 0 57.5 -21.5t21.5 -53.5t-22 -53.5t-57 -21.5q-36 0 -57.5 21.5z" />
    <glyph glyph-name="dotlessi" unicode="&#x131;" horiz-adv-x="283" 
d="M210 475v-475h-137v475h137z" />
    <glyph glyph-name="iacute" unicode="&#xed;" horiz-adv-x="283" 
d="M210 475v-475h-137v475h137zM251 725l48 -85l-222 -111l-43 75z" />
    <glyph glyph-name="ibreve" unicode="&#x12d;" horiz-adv-x="283" 
d="M210 475v-475h-137v475h137zM-35 652l67 51q27 -36 51.5 -52t58.5 -16t58.5 16t51.5 52l67 -51q-70 -107 -177 -107t-177 107z" />
    <glyph glyph-name="icircumflex" unicode="&#xee;" horiz-adv-x="283" 
d="M210 475v-475h-137v475h137zM100 699q20 17 43 17t43 -17l124 -105l-50 -59l-118 88l-119 -88l-50 59z" />
    <glyph glyph-name="idieresis" unicode="&#xef;" horiz-adv-x="283" 
d="M210 475v-475h-137v475h137zM-18 558.5q-20 20.5 -20 52.5q0 30 20.5 51t53.5 21t53.5 -21t20.5 -51q0 -31 -20.5 -52t-53.5 -21q-34 0 -54 20.5zM195 559q-20 21 -20 52q0 30 20 51t53 21t53.5 -21t20.5 -51q0 -31 -20.5 -52t-53.5 -21t-53 21z" />
    <glyph glyph-name="i.loclTRK" horiz-adv-x="283" 
d="M210 475v-475h-137v475h137zM84.5 557.5q-21.5 21.5 -21.5 53.5t22 53.5t57 21.5q36 0 57.5 -21.5t21.5 -53.5t-22 -53.5t-57 -21.5q-36 0 -57.5 21.5z" />
    <glyph glyph-name="igrave" unicode="&#xec;" horiz-adv-x="283" 
d="M210 475v-475h-137v475h137zM33 725l217 -121l-43 -75l-222 111z" />
    <glyph glyph-name="ij" unicode="&#x133;" horiz-adv-x="564" 
d="M210 475v-475h-137v475h137zM84.5 557.5q-21.5 21.5 -21.5 53.5t22 53.5t57 21.5q36 0 57.5 -21.5t21.5 -53.5t-22 -53.5t-57 -21.5q-36 0 -57.5 21.5zM147 -145l58 84q35 -27 72 -27q35 0 56.5 23.5t21.5 69.5v470h137v-466q0 -107 -51.5 -160.5t-141.5 -53.5
q-95 0 -152 60zM365.5 557.5q-21.5 21.5 -21.5 53.5t22 53.5t57 21.5q36 0 57.5 -21.5t21.5 -53.5t-22 -53.5t-57 -21.5q-36 0 -57.5 21.5z" />
    <glyph glyph-name="imacron" unicode="&#x12b;" horiz-adv-x="283" 
d="M210 475v-475h-137v475h137zM298 659v-93h-312v93h312z" />
    <glyph glyph-name="iogonek" unicode="&#x12f;" horiz-adv-x="283" 
d="M84.5 557.5q-21.5 21.5 -21.5 53.5t22 53.5t57 21.5q36 0 57.5 -21.5t21.5 -53.5t-22 -53.5t-57 -21.5q-36 0 -57.5 21.5zM228 -136q-20 -22 -50.5 -35t-64.5 -13q-47 0 -76 20.5t-29 57.5q0 52 64 91l25 15h-24v475h137v-475q-39 -25 -62 -39q-22 -12 -31 -21.5
t-9 -21.5q0 -20 26 -20q22 0 48 22z" />
    <glyph glyph-name="itilde" unicode="&#x129;" horiz-adv-x="283" 
d="M210 475v-475h-137v475h137zM170.5 551q-17.5 7 -39.5 20q-18 10 -29.5 15t-24.5 5q-23 0 -37.5 -8.5t-29.5 -28.5l-58 51q48 77 123 77q26 0 44.5 -7t37.5 -19q16 -11 28.5 -16t28.5 -5q19 0 33 9t30 29l57 -51q-48 -78 -124 -78q-22 0 -39.5 7z" />
    <glyph glyph-name="j" unicode="j" horiz-adv-x="281" 
d="M-136 -145l58 84q35 -27 72 -27q35 0 56.5 23.5t21.5 69.5v470h137v-466q0 -107 -51.5 -160.5t-141.5 -53.5q-95 0 -152 60zM82.5 557.5q-21.5 21.5 -21.5 53.5t22 53.5t57 21.5q36 0 57.5 -21.5t21.5 -53.5t-22 -53.5t-57 -21.5q-36 0 -57.5 21.5z" />
    <glyph glyph-name="uni0237" unicode="&#x237;" horiz-adv-x="281" 
d="M-136 -145l58 84q35 -27 72 -27q35 0 56.5 23.5t21.5 69.5v470h137v-466q0 -107 -51.5 -160.5t-141.5 -53.5q-95 0 -152 60z" />
    <glyph glyph-name="jcircumflex" unicode="&#x135;" horiz-adv-x="281" 
d="M-136 -145l58 84q35 -27 72 -27q35 0 56.5 23.5t21.5 69.5v470h137v-466q0 -107 -51.5 -160.5t-141.5 -53.5q-95 0 -152 60zM98 699q20 17 43 17t43 -17l124 -105l-50 -59l-118 88l-119 -88l-50 59z" />
    <glyph glyph-name="k" unicode="k" horiz-adv-x="572" 
d="M207 674v-364q24 -3 49 -3q72 0 107 37.5t48 130.5h122q-4 -85 -34 -144.5t-83 -92.5l148 -238h-155l-116 199q-12 -2 -37 -2q-24 0 -49 3v-200h-134v674h134z" />
    <glyph glyph-name="uni0137" unicode="&#x137;" horiz-adv-x="572" 
d="M207 674v-364q24 -3 49 -3q72 0 107 37.5t48 130.5h122q-4 -85 -34 -144.5t-83 -92.5l148 -238h-155l-116 199q-12 -2 -37 -2q-24 0 -49 3v-200h-134v674h134zM234 -129.5q20 32.5 20 81.5h106q0 -66 -36.5 -119.5t-98.5 -82.5l-53 59q42 29 62 61.5z" />
    <glyph glyph-name="kgreenlandic" unicode="&#x138;" horiz-adv-x="572" 
d="M207 475v-180q32 -2 49 -2q49 0 79.5 16.5t49 56t26.5 109.5h122q-7 -176 -118 -249l149 -226h-155l-114 185q-19 -3 -39 -3q-26 0 -49 4v-186h-134v475h134z" />
    <glyph glyph-name="l" unicode="l" horiz-adv-x="283" 
d="M210 674v-674h-137v674h137z" />
    <glyph glyph-name="lacute" unicode="&#x13a;" horiz-adv-x="283" 
d="M210 674v-674h-137v674h137zM257 906l42 -91l-237 -93l-37 80z" />
    <glyph glyph-name="lcaron" unicode="&#x13e;" horiz-adv-x="380" 
d="M210 674v-674h-137v674h137zM380 674l-15 -155h-91v155h106z" />
    <glyph glyph-name="uni013C" unicode="&#x13c;" horiz-adv-x="283" 
d="M210 674v-674h-137v674h137zM72 -129.5q20 32.5 20 81.5h106q0 -66 -36.5 -119.5t-98.5 -82.5l-53 59q42 29 62 61.5z" />
    <glyph glyph-name="ldot" unicode="&#x140;" horiz-adv-x="474" 
d="M210 674v-674h-137v674h137zM300 311.5q-21 21.5 -21 55.5q0 32 21.5 54t57.5 22q35 0 56.5 -22t21.5 -54q0 -34 -21.5 -55.5t-57.5 -21.5t-57 21.5z" />
    <glyph glyph-name="lslash" unicode="&#x142;" horiz-adv-x="427" 
d="M281 323v-323h-136v257l-97 -47l-42 92l139 68v304h136v-238l97 47l43 -92z" />
    <glyph glyph-name="m" unicode="m" horiz-adv-x="925" 
d="M185 475q10 -24 15 -64q57 75 153 75q110 0 155 -86q55 86 171 86q89 0 135.5 -56.5t46.5 -164.5v-265h-137v271q0 48 -20 73t-60 25q-52 0 -80 -36t-28 -107v-226h-137v271q0 48 -20.5 73t-60.5 25q-51 0 -79.5 -36t-28.5 -107v-226h-137v475h112z" />
    <glyph glyph-name="n" unicode="n" horiz-adv-x="610" 
d="M185 475q11 -24 15 -65q28 36 68 56t89 20q91 0 139.5 -56t48.5 -164v-266h-137v271q0 49 -21.5 73.5t-62.5 24.5q-53 0 -83.5 -36.5t-30.5 -106.5v-226h-137v475h112z" />
    <glyph glyph-name="nacute" unicode="&#x144;" horiz-adv-x="610" 
d="M185 475q11 -24 15 -65q28 36 68 56t89 20q91 0 139.5 -56t48.5 -164v-266h-137v271q0 49 -21.5 73.5t-62.5 24.5q-53 0 -83.5 -36.5t-30.5 -106.5v-226h-137v475h112zM436 725l48 -85l-222 -111l-43 75z" />
    <glyph glyph-name="napostrophe" unicode="&#x149;" horiz-adv-x="610" 
d="M57 630.5q16 30.5 18 65.5h103q-1 -57 -30.5 -103.5t-79.5 -72.5l-57 60q30 20 46 50.5zM185 475q11 -24 15 -65q28 36 68 56t89 20q91 0 139.5 -56t48.5 -164v-266h-137v271q0 49 -21.5 73.5t-62.5 24.5q-53 0 -83.5 -36.5t-30.5 -106.5v-226h-137v475h112z" />
    <glyph glyph-name="ncaron" unicode="&#x148;" horiz-adv-x="610" 
d="M185 475q11 -24 15 -65q28 36 68 56t89 20q91 0 139.5 -56t48.5 -164v-266h-137v271q0 49 -21.5 73.5t-62.5 24.5q-53 0 -83.5 -36.5t-30.5 -106.5v-226h-137v475h112zM282 551l-124 105l50 58l118 -87l119 87l50 -59l-127 -104q-20 -17 -43 -17t-43 17z" />
    <glyph glyph-name="uni0146" unicode="&#x146;" horiz-adv-x="610" 
d="M185 475q11 -24 15 -65q28 36 68 56t89 20q91 0 139.5 -56t48.5 -164v-266h-137v271q0 49 -21.5 73.5t-62.5 24.5q-53 0 -83.5 -36.5t-30.5 -106.5v-226h-137v475h112zM235 -129.5q20 32.5 20 81.5h106q0 -66 -36.5 -119.5t-98.5 -82.5l-53 59q42 29 62 61.5z" />
    <glyph glyph-name="eng" unicode="&#x14b;" horiz-adv-x="610" 
d="M496.5 430q48.5 -56 48.5 -164v-266q-2 -102 -53 -153.5t-137 -51.5q-92 0 -147 57l58 84q30 -24 67 -24q34 0 54.5 23t20.5 67v269q0 49 -21.5 73.5t-62.5 24.5q-53 0 -83.5 -36.5t-30.5 -106.5v-226h-137v475h112q11 -24 15 -65q28 36 68 56t89 20q91 0 139.5 -56z" />
    <glyph glyph-name="ntilde" unicode="&#xf1;" horiz-adv-x="610" 
d="M185 475q11 -24 15 -65q28 36 68 56t89 20q91 0 139.5 -56t48.5 -164v-266h-137v271q0 49 -21.5 73.5t-62.5 24.5q-53 0 -83.5 -36.5t-30.5 -106.5v-226h-137v475h112zM355.5 551q-17.5 7 -39.5 20q-18 10 -29.5 15t-24.5 5q-23 0 -37.5 -8.5t-29.5 -28.5l-58 51
q48 77 123 77q26 0 44.5 -7t37.5 -19q16 -11 28.5 -16t28.5 -5q19 0 33 9t30 29l57 -51q-48 -78 -124 -78q-22 0 -39.5 7z" />
    <glyph glyph-name="o" unicode="o" horiz-adv-x="602" 
d="M167.5 22q-57.5 33 -88.5 89.5t-31 126.5q0 67 31.5 123.5t89.5 90.5t133 34q76 0 133 -33t88 -89.5t31 -125.5q0 -66 -31.5 -123.5t-89 -91.5t-131.5 -34q-77 0 -134.5 33zM387.5 144.5q29.5 38.5 29.5 93.5t-29.5 93t-85.5 38q-57 0 -87 -38t-30 -93t30 -93.5t86 -38.5
q57 0 86.5 38.5z" />
    <glyph glyph-name="oacute" unicode="&#xf3;" horiz-adv-x="602" 
d="M167.5 22q-57.5 33 -88.5 89.5t-31 126.5q0 67 31.5 123.5t89.5 90.5t133 34q76 0 133 -33t88 -89.5t31 -125.5q0 -66 -31.5 -123.5t-89 -91.5t-131.5 -34q-77 0 -134.5 33zM387.5 144.5q29.5 38.5 29.5 93.5t-29.5 93t-85.5 38q-57 0 -87 -38t-30 -93t30 -93.5t86 -38.5
q57 0 86.5 38.5zM411 725l48 -85l-222 -111l-43 75z" />
    <glyph glyph-name="obreve" unicode="&#x14f;" horiz-adv-x="602" 
d="M167.5 22q-57.5 33 -88.5 89.5t-31 126.5q0 67 31.5 123.5t89.5 90.5t133 34q76 0 133 -33t88 -89.5t31 -125.5q0 -66 -31.5 -123.5t-89 -91.5t-131.5 -34q-77 0 -134.5 33zM387.5 144.5q29.5 38.5 29.5 93.5t-29.5 93t-85.5 38q-57 0 -87 -38t-30 -93t30 -93.5t86 -38.5
q57 0 86.5 38.5zM125 652l67 51q27 -36 51.5 -52t58.5 -16t58.5 16t51.5 52l67 -51q-70 -107 -177 -107t-177 107z" />
    <glyph glyph-name="ocircumflex" unicode="&#xf4;" horiz-adv-x="602" 
d="M167.5 22q-57.5 33 -88.5 89.5t-31 126.5q0 67 31.5 123.5t89.5 90.5t133 34q76 0 133 -33t88 -89.5t31 -125.5q0 -66 -31.5 -123.5t-89 -91.5t-131.5 -34q-77 0 -134.5 33zM387.5 144.5q29.5 38.5 29.5 93.5t-29.5 93t-85.5 38q-57 0 -87 -38t-30 -93t30 -93.5t86 -38.5
q57 0 86.5 38.5zM260 699q20 17 43 17t43 -17l124 -105l-50 -59l-118 88l-119 -88l-50 59z" />
    <glyph glyph-name="odieresis" unicode="&#xf6;" horiz-adv-x="602" 
d="M167.5 22q-57.5 33 -88.5 89.5t-31 126.5q0 67 31.5 123.5t89.5 90.5t133 34q76 0 133 -33t88 -89.5t31 -125.5q0 -66 -31.5 -123.5t-89 -91.5t-131.5 -34q-77 0 -134.5 33zM387.5 144.5q29.5 38.5 29.5 93.5t-29.5 93t-85.5 38q-57 0 -87 -38t-30 -93t30 -93.5t86 -38.5
q57 0 86.5 38.5zM142 558.5q-20 20.5 -20 52.5q0 30 20.5 51t53.5 21t53.5 -21t20.5 -51q0 -31 -20.5 -52t-53.5 -21q-34 0 -54 20.5zM355 559q-20 21 -20 52q0 30 20 51t53 21t53.5 -21t20.5 -51q0 -31 -20.5 -52t-53.5 -21t-53 21z" />
    <glyph glyph-name="ograve" unicode="&#xf2;" horiz-adv-x="602" 
d="M167.5 22q-57.5 33 -88.5 89.5t-31 126.5q0 67 31.5 123.5t89.5 90.5t133 34q76 0 133 -33t88 -89.5t31 -125.5q0 -66 -31.5 -123.5t-89 -91.5t-131.5 -34q-77 0 -134.5 33zM387.5 144.5q29.5 38.5 29.5 93.5t-29.5 93t-85.5 38q-57 0 -87 -38t-30 -93t30 -93.5t86 -38.5
q57 0 86.5 38.5zM193 725l217 -121l-43 -75l-222 111z" />
    <glyph glyph-name="ohungarumlaut" unicode="&#x151;" horiz-adv-x="602" 
d="M167.5 22q-57.5 33 -88.5 89.5t-31 126.5q0 67 31.5 123.5t89.5 90.5t133 34q76 0 133 -33t88 -89.5t31 -125.5q0 -66 -31.5 -123.5t-89 -91.5t-131.5 -34q-77 0 -134.5 33zM387.5 144.5q29.5 38.5 29.5 93.5t-29.5 93t-85.5 38q-57 0 -87 -38t-30 -93t30 -93.5t86 -38.5
q57 0 86.5 38.5zM283 725l68 -66l-155 -130l-61 59zM477 724l69 -66l-156 -130l-61 59z" />
    <glyph glyph-name="omacron" unicode="&#x14d;" horiz-adv-x="602" 
d="M167.5 22q-57.5 33 -88.5 89.5t-31 126.5q0 67 31.5 123.5t89.5 90.5t133 34q76 0 133 -33t88 -89.5t31 -125.5q0 -66 -31.5 -123.5t-89 -91.5t-131.5 -34q-77 0 -134.5 33zM387.5 144.5q29.5 38.5 29.5 93.5t-29.5 93t-85.5 38q-57 0 -87 -38t-30 -93t30 -93.5t86 -38.5
q57 0 86.5 38.5zM458 659v-93h-312v93h312z" />
    <glyph glyph-name="oslash" unicode="&#xf8;" horiz-adv-x="602" 
d="M98 81q-50 65 -50 157q0 67 31.5 123.5t89.5 90.5t133 34q78 0 135 -34l64 69l66 -63l-61 -67q48 -65 48 -153q0 -66 -31.5 -123.5t-89 -91.5t-131.5 -34q-72 0 -133 32l-68 -76l-70 63zM302 378q-61 0 -93 -41t-32 -99q0 -29 12 -58l168 184q-23 14 -55 14zM392.5 138.5
q31.5 40.5 31.5 99.5q0 31 -10 52l-164 -181q24 -11 51 -11q60 0 91.5 40.5z" />
    <glyph glyph-name="otilde" unicode="&#xf5;" horiz-adv-x="602" 
d="M167.5 22q-57.5 33 -88.5 89.5t-31 126.5q0 67 31.5 123.5t89.5 90.5t133 34q76 0 133 -33t88 -89.5t31 -125.5q0 -66 -31.5 -123.5t-89 -91.5t-131.5 -34q-77 0 -134.5 33zM387.5 144.5q29.5 38.5 29.5 93.5t-29.5 93t-85.5 38q-57 0 -87 -38t-30 -93t30 -93.5t86 -38.5
q57 0 86.5 38.5zM330.5 551q-17.5 7 -39.5 20q-18 10 -29.5 15t-24.5 5q-23 0 -37.5 -8.5t-29.5 -28.5l-58 51q48 77 123 77q26 0 44.5 -7t37.5 -19q16 -11 28.5 -16t28.5 -5q19 0 33 9t30 29l57 -51q-48 -78 -124 -78q-22 0 -39.5 7z" />
    <glyph glyph-name="oe" unicode="&#x153;" horiz-adv-x="958" 
d="M166.5 22q-57.5 33 -88 89.5t-30.5 126.5q0 67 31.5 123.5t89.5 90.5t133 34q67 0 116 -27.5t78 -76.5q31 48 81 76t114 28q103 0 159.5 -68t56.5 -181v-31h-336q8 -49 42.5 -78t86.5 -29q47 0 77.5 15.5t56.5 44.5l74 -61q-65 -109 -209 -109q-69 0 -122 28t-84 78
q-31 -49 -80 -77.5t-113 -28.5q-76 0 -133.5 33zM751.5 360.5q-24.5 22.5 -67.5 22.5t-71.5 -22.5t-38.5 -65.5h207q-5 43 -29.5 65.5zM387.5 144.5q29.5 38.5 29.5 93.5t-29.5 93t-85.5 38q-57 0 -87 -38t-30 -93t30 -93.5t86 -38.5q57 0 86.5 38.5z" />
    <glyph glyph-name="p" unicode="p" horiz-adv-x="626" 
d="M184 475q10 -25 15 -65q31 36 72.5 56t90.5 20q66 0 115 -32t75.5 -88.5t26.5 -128.5q0 -73 -27.5 -129t-77.5 -87.5t-116 -31.5q-91 0 -149 63v-246h-137v669h112zM410 137.5q32 31.5 32 97.5q0 68 -31 101t-80 33q-54 0 -88 -32t-34 -88v-17q0 -62 34.5 -94t86.5 -32
q48 0 80 31.5z" />
    <glyph glyph-name="thorn" unicode="&#xfe;" horiz-adv-x="626" 
d="M209 674v-255q30 32 69 49.5t84 17.5q66 0 115 -32t75.5 -88.5t26.5 -128.5q0 -73 -27 -129t-77 -87.5t-116 -31.5q-92 0 -150 64v-247h-137v868h137zM411 137.5q31 31.5 31 97.5q0 68 -31 101t-80 33q-54 0 -88 -32t-34 -88v-17q0 -62 35 -94t87 -32q49 0 80 31.5z" />
    <glyph glyph-name="q" unicode="q" horiz-adv-x="627" 
d="M348 6.5q-39 -17.5 -84 -17.5q-66 0 -115 32t-75 89t-26 129t28 128.5t78.5 87.5t117.5 31q49 0 88 -18t67 -52q5 36 14 59h113v-669h-136v250q-31 -32 -70 -49.5zM383 139q35 33 35 88v17q0 63 -33.5 94t-85.5 31q-49 0 -81.5 -31.5t-32.5 -97.5q0 -67 30.5 -100.5
t78.5 -33.5q54 0 89 33z" />
    <glyph glyph-name="r" unicode="r" horiz-adv-x="449" 
d="M185 475q12 -29 15 -67q26 37 62.5 57.5t83.5 20.5q29 0 48 -6.5t36 -17.5l-44 -109q-21 13 -54 13q-52 0 -87 -35.5t-35 -106.5v-224h-137v475h112z" />
    <glyph glyph-name="racute" unicode="&#x155;" horiz-adv-x="449" 
d="M185 475q12 -29 15 -67q26 37 62.5 57.5t83.5 20.5q29 0 48 -6.5t36 -17.5l-44 -109q-21 13 -54 13q-52 0 -87 -35.5t-35 -106.5v-224h-137v475h112zM360 725l48 -85l-222 -111l-43 75z" />
    <glyph glyph-name="rcaron" unicode="&#x159;" horiz-adv-x="449" 
d="M185 475q12 -29 15 -67q26 37 62.5 57.5t83.5 20.5q29 0 48 -6.5t36 -17.5l-44 -109q-21 13 -54 13q-52 0 -87 -35.5t-35 -106.5v-224h-137v475h112zM206 551l-124 105l50 58l118 -87l119 87l50 -59l-127 -104q-20 -17 -43 -17t-43 17z" />
    <glyph glyph-name="uni0157" unicode="&#x157;" horiz-adv-x="449" 
d="M185 475q12 -29 15 -67q26 37 62.5 57.5t83.5 20.5q29 0 48 -6.5t36 -17.5l-44 -109q-21 13 -54 13q-52 0 -87 -35.5t-35 -106.5v-224h-137v475h112zM70 -129.5q20 32.5 20 81.5h106q0 -66 -36.5 -119.5t-98.5 -82.5l-53 59q42 29 62 61.5z" />
    <glyph glyph-name="s" unicode="s" horiz-adv-x="490" 
d="M125.5 8.5q-52.5 19.5 -95.5 60.5l60 78q31 -26 66.5 -37.5t82.5 -11.5q37 0 56 9t19 32q0 21 -19.5 31t-69.5 17q-86 12 -128 49t-42 103q0 43 25 76.5t70 52t103 18.5q60 0 105.5 -18.5t85.5 -56.5l-62 -74q-28 25 -55.5 34.5t-66.5 9.5q-72 0 -72 -40q0 -20 18 -28.5
t73 -18.5q84 -15 126.5 -50.5t42.5 -104.5q0 -42 -23.5 -76t-67.5 -54t-103 -20q-76 0 -128.5 19.5z" />
    <glyph glyph-name="sacute" unicode="&#x15b;" horiz-adv-x="490" 
d="M125.5 8.5q-52.5 19.5 -95.5 60.5l60 78q31 -26 66.5 -37.5t82.5 -11.5q37 0 56 9t19 32q0 21 -19.5 31t-69.5 17q-86 12 -128 49t-42 103q0 43 25 76.5t70 52t103 18.5q60 0 105.5 -18.5t85.5 -56.5l-62 -74q-28 25 -55.5 34.5t-66.5 9.5q-72 0 -72 -40q0 -20 18 -28.5
t73 -18.5q84 -15 126.5 -50.5t42.5 -104.5q0 -42 -23.5 -76t-67.5 -54t-103 -20q-76 0 -128.5 19.5zM364 725l48 -85l-222 -111l-43 75z" />
    <glyph glyph-name="scaron" unicode="&#x161;" horiz-adv-x="490" 
d="M125.5 8.5q-52.5 19.5 -95.5 60.5l60 78q31 -26 66.5 -37.5t82.5 -11.5q37 0 56 9t19 32q0 21 -19.5 31t-69.5 17q-86 12 -128 49t-42 103q0 43 25 76.5t70 52t103 18.5q60 0 105.5 -18.5t85.5 -56.5l-62 -74q-28 25 -55.5 34.5t-66.5 9.5q-72 0 -72 -40q0 -20 18 -28.5
t73 -18.5q84 -15 126.5 -50.5t42.5 -104.5q0 -42 -23.5 -76t-67.5 -54t-103 -20q-76 0 -128.5 19.5zM210 551l-124 105l50 58l118 -87l119 87l50 -59l-127 -104q-20 -17 -43 -17t-43 17z" />
    <glyph glyph-name="scedilla" unicode="&#x15f;" horiz-adv-x="490" 
d="M416 52q-32 -38 -89 -54q32 -34 32 -73q0 -46 -34.5 -74.5t-94.5 -28.5q-37 0 -69 13.5t-53 37.5l46 59q33 -26 60 -26q22 0 35 10t13 31q0 32 -36 43q-64 3 -110.5 22.5t-85.5 56.5l60 78q31 -26 66.5 -37.5t82.5 -11.5q37 0 56 9t19 32q0 21 -19.5 31t-69.5 17
q-86 12 -128 49t-42 103q0 43 25 76.5t70 52t103 18.5q60 0 105.5 -18.5t85.5 -56.5l-62 -74q-28 25 -55.5 34.5t-66.5 9.5q-72 0 -72 -40q0 -20 18 -28.5t73 -18.5q84 -15 126.5 -50.5t42.5 -104.5q0 -49 -32 -87z" />
    <glyph glyph-name="scircumflex" unicode="&#x15d;" horiz-adv-x="490" 
d="M125.5 8.5q-52.5 19.5 -95.5 60.5l60 78q31 -26 66.5 -37.5t82.5 -11.5q37 0 56 9t19 32q0 21 -19.5 31t-69.5 17q-86 12 -128 49t-42 103q0 43 25 76.5t70 52t103 18.5q60 0 105.5 -18.5t85.5 -56.5l-62 -74q-28 25 -55.5 34.5t-66.5 9.5q-72 0 -72 -40q0 -20 18 -28.5
t73 -18.5q84 -15 126.5 -50.5t42.5 -104.5q0 -42 -23.5 -76t-67.5 -54t-103 -20q-76 0 -128.5 19.5zM213 699q20 17 43 17t43 -17l124 -105l-50 -59l-118 88l-119 -88l-50 59z" />
    <glyph glyph-name="uni0219" unicode="&#x219;" horiz-adv-x="490" 
d="M125.5 8.5q-52.5 19.5 -95.5 60.5l60 78q31 -26 66.5 -37.5t82.5 -11.5q37 0 56 9t19 32q0 21 -19.5 31t-69.5 17q-86 12 -128 49t-42 103q0 43 25 76.5t70 52t103 18.5q60 0 105.5 -18.5t85.5 -56.5l-62 -74q-28 25 -55.5 34.5t-66.5 9.5q-72 0 -72 -40q0 -20 18 -28.5
t73 -18.5q84 -15 126.5 -50.5t42.5 -104.5q0 -42 -23.5 -76t-67.5 -54t-103 -20q-76 0 -128.5 19.5zM176 -129.5q20 32.5 20 81.5h106q0 -66 -36.5 -119.5t-98.5 -82.5l-53 59q42 29 62 61.5z" />
    <glyph glyph-name="germandbls" unicode="&#xdf;" horiz-adv-x="643" 
d="M313 6q-40 16 -73 49l60 78q21 -17 42 -24.5t46 -7.5q41 0 65.5 24t24.5 63q0 102 -134 102h-63v106h45q45 0 72.5 26t27.5 67q0 39 -26 62t-75 23q-53 0 -86.5 -33t-33.5 -93v-448h-132v450q0 70 32 123t87.5 82t125.5 29q73 0 126 -23.5t80.5 -64t27.5 -91.5
q0 -48 -21 -85t-59 -59q62 -19 98.5 -65.5t36.5 -111.5q0 -54 -25 -98.5t-71 -70t-106 -25.5q-52 0 -92 16z" />
    <glyph glyph-name="t" unicode="t" horiz-adv-x="486" 
d="M167 43q-51 54 -51 168v150h-94v114h94v128h137v-128h188v-114h-188v-155q0 -50 22 -75t63 -25t79 28l57 -85q-29 -28 -69 -44t-88 -16q-99 0 -150 54z" />
    <glyph glyph-name="tbar" unicode="&#x167;" horiz-adv-x="504" 
d="M183 42q-52 53 -52 160v8h-93v91h93v66h-93v108h93v128h137v-128h188v-108h-188v-66h189v-91h-189v-9q0 -46 22 -70.5t64 -24.5q39 0 79 28l57 -85q-29 -28 -69.5 -44t-88.5 -16q-97 0 -149 53z" />
    <glyph glyph-name="tcaron" unicode="&#x165;" horiz-adv-x="486" 
d="M418 692l-15 -166h-85v166h100zM167 43q-51 54 -51 168v150h-94v114h94v128h137v-128h188v-114h-188v-155q0 -50 22 -75t63 -25t79 28l57 -85q-29 -28 -69 -44t-88 -16q-99 0 -150 54z" />
    <glyph glyph-name="uni0163" unicode="&#x163;" horiz-adv-x="486" 
d="M358 -8q20 -28 20 -58q0 -46 -35 -74.5t-95 -28.5q-36 0 -69 14t-53 37l46 59q16 -12 29.5 -19t30.5 -7q22 0 35 10t13 30q0 29 -27 41q-137 31 -137 215v150h-94v114h94v128h137v-128h188v-114h-188v-155q0 -50 22 -75t63 -25t79 28l57 -85q-47 -46 -116 -57z" />
    <glyph glyph-name="uni021B" unicode="&#x21b;" horiz-adv-x="486" 
d="M167 43q-51 54 -51 168v150h-94v114h94v128h137v-128h188v-114h-188v-155q0 -50 22 -75t63 -25t79 28l57 -85q-29 -28 -69 -44t-88 -16q-99 0 -150 54zM174 -129.5q20 32.5 20 81.5h106q0 -66 -36.5 -119.5t-98.5 -82.5l-53 59q42 29 62 61.5z" />
    <glyph glyph-name="u" unicode="u" horiz-adv-x="606" 
d="M117 45q-48 56 -48 163v267h137v-272q0 -48 21 -72.5t60 -24.5q52 0 81.5 36t29.5 106v227h137v-475h-111q-11 24 -16 64q-28 -36 -67 -55.5t-87 -19.5q-89 0 -137 56z" />
    <glyph glyph-name="uacute" unicode="&#xfa;" horiz-adv-x="606" 
d="M117 45q-48 56 -48 163v267h137v-272q0 -48 21 -72.5t60 -24.5q52 0 81.5 36t29.5 106v227h137v-475h-111q-11 24 -16 64q-28 -36 -67 -55.5t-87 -19.5q-89 0 -137 56zM410 725l48 -85l-222 -111l-43 75z" />
    <glyph glyph-name="ubreve" unicode="&#x16d;" horiz-adv-x="606" 
d="M117 45q-48 56 -48 163v267h137v-272q0 -48 21 -72.5t60 -24.5q52 0 81.5 36t29.5 106v227h137v-475h-111q-11 24 -16 64q-28 -36 -67 -55.5t-87 -19.5q-89 0 -137 56zM124 652l67 51q27 -36 51.5 -52t58.5 -16t58.5 16t51.5 52l67 -51q-70 -107 -177 -107t-177 107z" />
    <glyph glyph-name="ucircumflex" unicode="&#xfb;" horiz-adv-x="606" 
d="M117 45q-48 56 -48 163v267h137v-272q0 -48 21 -72.5t60 -24.5q52 0 81.5 36t29.5 106v227h137v-475h-111q-11 24 -16 64q-28 -36 -67 -55.5t-87 -19.5q-89 0 -137 56zM259 699q20 17 43 17t43 -17l124 -105l-50 -59l-118 88l-119 -88l-50 59z" />
    <glyph glyph-name="udieresis" unicode="&#xfc;" horiz-adv-x="606" 
d="M117 45q-48 56 -48 163v267h137v-272q0 -48 21 -72.5t60 -24.5q52 0 81.5 36t29.5 106v227h137v-475h-111q-11 24 -16 64q-28 -36 -67 -55.5t-87 -19.5q-89 0 -137 56zM141 558.5q-20 20.5 -20 52.5q0 30 20.5 51t53.5 21t53.5 -21t20.5 -51q0 -31 -20.5 -52t-53.5 -21
q-34 0 -54 20.5zM354 559q-20 21 -20 52q0 30 20 51t53 21t53.5 -21t20.5 -51q0 -31 -20.5 -52t-53.5 -21t-53 21z" />
    <glyph glyph-name="ugrave" unicode="&#xf9;" horiz-adv-x="606" 
d="M117 45q-48 56 -48 163v267h137v-272q0 -48 21 -72.5t60 -24.5q52 0 81.5 36t29.5 106v227h137v-475h-111q-11 24 -16 64q-28 -36 -67 -55.5t-87 -19.5q-89 0 -137 56zM192 725l217 -121l-43 -75l-222 111z" />
    <glyph glyph-name="uhungarumlaut" unicode="&#x171;" horiz-adv-x="606" 
d="M117 45q-48 56 -48 163v267h137v-272q0 -48 21 -72.5t60 -24.5q52 0 81.5 36t29.5 106v227h137v-475h-111q-11 24 -16 64q-28 -36 -67 -55.5t-87 -19.5q-89 0 -137 56zM282 725l68 -66l-155 -130l-61 59zM476 724l69 -66l-156 -130l-61 59z" />
    <glyph glyph-name="umacron" unicode="&#x16b;" horiz-adv-x="606" 
d="M117 45q-48 56 -48 163v267h137v-272q0 -48 21 -72.5t60 -24.5q52 0 81.5 36t29.5 106v227h137v-475h-111q-11 24 -16 64q-28 -36 -67 -55.5t-87 -19.5q-89 0 -137 56zM457 659v-93h-312v93h312z" />
    <glyph glyph-name="uogonek" unicode="&#x173;" horiz-adv-x="606" 
d="M553 -136q-20 -22 -50.5 -35t-64.5 -13q-47 0 -76 20.5t-29 57.5q0 52 64 91l27 16q-11 25 -16 63q-28 -36 -67 -55.5t-87 -19.5q-89 0 -137 56t-48 163v267h137v-272q0 -48 21 -72.5t60 -24.5q52 0 81.5 36t29.5 106v227h137v-475q-39 -25 -62 -39q-22 -12 -31 -21.5
t-9 -21.5q0 -20 26 -20q22 0 48 22z" />
    <glyph glyph-name="uring" unicode="&#x16f;" horiz-adv-x="606" 
d="M117 45q-48 56 -48 163v267h137v-272q0 -48 21 -72.5t60 -24.5q52 0 81.5 36t29.5 106v227h137v-475h-111q-11 24 -16 64q-28 -36 -67 -55.5t-87 -19.5q-89 0 -137 56zM224.5 571.5q-32.5 30.5 -32.5 76.5q0 47 32.5 77t76.5 30t76.5 -30t32.5 -77q0 -46 -32.5 -76.5
t-76.5 -30.5t-76.5 30.5zM329.5 618.5q11.5 11.5 11.5 29.5q0 19 -11.5 30t-28.5 11t-28.5 -11t-11.5 -30q0 -18 11.5 -29.5t28.5 -11.5t28.5 11.5z" />
    <glyph glyph-name="utilde" unicode="&#x169;" horiz-adv-x="606" 
d="M117 45q-48 56 -48 163v267h137v-272q0 -48 21 -72.5t60 -24.5q52 0 81.5 36t29.5 106v227h137v-475h-111q-11 24 -16 64q-28 -36 -67 -55.5t-87 -19.5q-89 0 -137 56zM329.5 551q-17.5 7 -39.5 20q-18 10 -29.5 15t-24.5 5q-23 0 -37.5 -8.5t-29.5 -28.5l-58 51
q48 77 123 77q26 0 44.5 -7t37.5 -19q16 -11 28.5 -16t28.5 -5q19 0 33 9t30 29l57 -51q-48 -78 -124 -78q-22 0 -39.5 7z" />
    <glyph glyph-name="v" unicode="v" horiz-adv-x="561" 
d="M166 475l117 -334l116 334h148l-196 -475h-143l-194 475h152z" />
    <glyph glyph-name="w" unicode="w" horiz-adv-x="817" 
d="M167 475l78 -333l92 329h146l93 -329l77 333h145l-152 -475h-146l-93 336l-93 -336h-143l-152 475h148z" />
    <glyph glyph-name="wacute" unicode="&#x1e83;" horiz-adv-x="817" 
d="M167 475l78 -333l92 329h146l93 -329l77 333h145l-152 -475h-146l-93 336l-93 -336h-143l-152 475h148zM518 725l48 -85l-222 -111l-43 75z" />
    <glyph glyph-name="wcircumflex" unicode="&#x175;" horiz-adv-x="817" 
d="M167 475l78 -333l92 329h146l93 -329l77 333h145l-152 -475h-146l-93 336l-93 -336h-143l-152 475h148zM367 699q20 17 43 17t43 -17l124 -105l-50 -59l-118 88l-119 -88l-50 59z" />
    <glyph glyph-name="wdieresis" unicode="&#x1e85;" horiz-adv-x="817" 
d="M167 475l78 -333l92 329h146l93 -329l77 333h145l-152 -475h-146l-93 336l-93 -336h-143l-152 475h148zM249 558.5q-20 20.5 -20 52.5q0 30 20.5 51t53.5 21t53.5 -21t20.5 -51q0 -31 -20.5 -52t-53.5 -21q-34 0 -54 20.5zM462 559q-20 21 -20 52q0 30 20 51t53 21
t53.5 -21t20.5 -51q0 -31 -20.5 -52t-53.5 -21t-53 21z" />
    <glyph glyph-name="wgrave" unicode="&#x1e81;" horiz-adv-x="817" 
d="M167 475l78 -333l92 329h146l93 -329l77 333h145l-152 -475h-146l-93 336l-93 -336h-143l-152 475h148zM300 725l217 -121l-43 -75l-222 111z" />
    <glyph glyph-name="x" unicode="x" horiz-adv-x="550" 
d="M22 475h154l100 -149l101 149h149l-168 -229l182 -246h-154l-113 163l-112 -163h-150l180 246z" />
    <glyph glyph-name="y" unicode="y" horiz-adv-x="557" 
d="M69.5 -185.5q-36.5 19.5 -64.5 61.5l72 69q16 -19 30 -27t34 -8q25 0 42 20.5t33 63.5l5 14l-210 467h151l124 -321l109 321h149l-202 -502q-32 -81 -73.5 -129.5t-108.5 -48.5q-54 0 -90.5 19.5z" />
    <glyph glyph-name="yacute" unicode="&#xfd;" horiz-adv-x="557" 
d="M69.5 -185.5q-36.5 19.5 -64.5 61.5l72 69q16 -19 30 -27t34 -8q25 0 42 20.5t33 63.5l5 14l-210 467h151l124 -321l109 321h149l-202 -502q-32 -81 -73.5 -129.5t-108.5 -48.5q-54 0 -90.5 19.5zM388 725l48 -85l-222 -111l-43 75z" />
    <glyph glyph-name="ycircumflex" unicode="&#x177;" horiz-adv-x="557" 
d="M69.5 -185.5q-36.5 19.5 -64.5 61.5l72 69q16 -19 30 -27t34 -8q25 0 42 20.5t33 63.5l5 14l-210 467h151l124 -321l109 321h149l-202 -502q-32 -81 -73.5 -129.5t-108.5 -48.5q-54 0 -90.5 19.5zM237 699q20 17 43 17t43 -17l124 -105l-50 -59l-118 88l-119 -88l-50 59z
" />
    <glyph glyph-name="ydieresis" unicode="&#xff;" horiz-adv-x="557" 
d="M69.5 -185.5q-36.5 19.5 -64.5 61.5l72 69q16 -19 30 -27t34 -8q25 0 42 20.5t33 63.5l5 14l-210 467h151l124 -321l109 321h149l-202 -502q-32 -81 -73.5 -129.5t-108.5 -48.5q-54 0 -90.5 19.5zM119 558.5q-20 20.5 -20 52.5q0 30 20.5 51t53.5 21t53.5 -21t20.5 -51
q0 -31 -20.5 -52t-53.5 -21q-34 0 -54 20.5zM332 559q-20 21 -20 52q0 30 20 51t53 21t53.5 -21t20.5 -51q0 -31 -20.5 -52t-53.5 -21t-53 21z" />
    <glyph glyph-name="ygrave" unicode="&#x1ef3;" horiz-adv-x="557" 
d="M69.5 -185.5q-36.5 19.5 -64.5 61.5l72 69q16 -19 30 -27t34 -8q25 0 42 20.5t33 63.5l5 14l-210 467h151l124 -321l109 321h149l-202 -502q-32 -81 -73.5 -129.5t-108.5 -48.5q-54 0 -90.5 19.5zM170 725l217 -121l-43 -75l-222 111z" />
    <glyph glyph-name="z" unicode="z" horiz-adv-x="492" 
d="M282 361h-236v114h406v-96l-242 -265h253v-114h-423v96z" />
    <glyph glyph-name="zacute" unicode="&#x17a;" horiz-adv-x="492" 
d="M282 361h-236v114h406v-96l-242 -265h253v-114h-423v96zM357 725l48 -85l-222 -111l-43 75z" />
    <glyph glyph-name="zcaron" unicode="&#x17e;" horiz-adv-x="492" 
d="M282 361h-236v114h406v-96l-242 -265h253v-114h-423v96zM203 551l-124 105l50 58l118 -87l119 87l50 -59l-127 -104q-20 -17 -43 -17t-43 17z" />
    <glyph glyph-name="zdotaccent" unicode="&#x17c;" horiz-adv-x="492" 
d="M282 361h-236v114h406v-96l-242 -265h253v-114h-423v96zM190.5 557.5q-21.5 21.5 -21.5 53.5t22 53.5t57 21.5q36 0 57.5 -21.5t21.5 -53.5t-22 -53.5t-57 -21.5q-36 0 -57.5 21.5z" />
    <glyph glyph-name="a.ss01" horiz-adv-x="625" 
d="M148.5 21q-48.5 32 -74.5 89t-26 129q0 73 27.5 129t78 87.5t117.5 31.5q95 0 155 -70q3 33 13 58h114v-475h-111q-12 27 -15 67q-31 -37 -73 -57.5t-91 -20.5q-66 0 -114.5 32zM382 139q34 33 34 88v17q0 63 -33 94t-85 31q-49 0 -81 -31t-32 -98t30.5 -100.5
t78.5 -33.5q54 0 88 33z" />
    <glyph glyph-name="aacute.ss01" horiz-adv-x="625" 
d="M148.5 21q-48.5 32 -74.5 89t-26 129q0 73 27.5 129t78 87.5t117.5 31.5q95 0 155 -70q3 33 13 58h114v-475h-111q-12 27 -15 67q-31 -37 -73 -57.5t-91 -20.5q-66 0 -114.5 32zM382 139q34 33 34 88v17q0 63 -33 94t-85 31q-49 0 -81 -31t-32 -98t30.5 -100.5
t78.5 -33.5q54 0 88 33zM418 725l48 -85l-222 -111l-43 75z" />
    <glyph glyph-name="abreve.ss01" horiz-adv-x="625" 
d="M148.5 21q-48.5 32 -74.5 89t-26 129q0 73 27.5 129t78 87.5t117.5 31.5q95 0 155 -70q3 33 13 58h114v-475h-111q-12 27 -15 67q-31 -37 -73 -57.5t-91 -20.5q-66 0 -114.5 32zM382 139q34 33 34 88v17q0 63 -33 94t-85 31q-49 0 -81 -31t-32 -98t30.5 -100.5
t78.5 -33.5q54 0 88 33zM132 652l67 51q27 -36 51.5 -52t58.5 -16t58.5 16t51.5 52l67 -51q-70 -107 -177 -107t-177 107z" />
    <glyph glyph-name="acircumflex.ss01" horiz-adv-x="625" 
d="M148.5 21q-48.5 32 -74.5 89t-26 129q0 73 27.5 129t78 87.5t117.5 31.5q95 0 155 -70q3 33 13 58h114v-475h-111q-12 27 -15 67q-31 -37 -73 -57.5t-91 -20.5q-66 0 -114.5 32zM382 139q34 33 34 88v17q0 63 -33 94t-85 31q-49 0 -81 -31t-32 -98t30.5 -100.5
t78.5 -33.5q54 0 88 33zM267 699q20 17 43 17t43 -17l124 -105l-50 -59l-118 88l-119 -88l-50 59z" />
    <glyph glyph-name="adieresis.ss01" horiz-adv-x="625" 
d="M148.5 21q-48.5 32 -74.5 89t-26 129q0 73 27.5 129t78 87.5t117.5 31.5q95 0 155 -70q3 33 13 58h114v-475h-111q-12 27 -15 67q-31 -37 -73 -57.5t-91 -20.5q-66 0 -114.5 32zM382 139q34 33 34 88v17q0 63 -33 94t-85 31q-49 0 -81 -31t-32 -98t30.5 -100.5
t78.5 -33.5q54 0 88 33zM149 558.5q-20 20.5 -20 52.5q0 30 20.5 51t53.5 21t53.5 -21t20.5 -51q0 -31 -20.5 -52t-53.5 -21q-34 0 -54 20.5zM362 559q-20 21 -20 52q0 30 20 51t53 21t53.5 -21t20.5 -51q0 -31 -20.5 -52t-53.5 -21t-53 21z" />
    <glyph glyph-name="agrave.ss01" horiz-adv-x="625" 
d="M148.5 21q-48.5 32 -74.5 89t-26 129q0 73 27.5 129t78 87.5t117.5 31.5q95 0 155 -70q3 33 13 58h114v-475h-111q-12 27 -15 67q-31 -37 -73 -57.5t-91 -20.5q-66 0 -114.5 32zM382 139q34 33 34 88v17q0 63 -33 94t-85 31q-49 0 -81 -31t-32 -98t30.5 -100.5
t78.5 -33.5q54 0 88 33zM200 725l217 -121l-43 -75l-222 111z" />
    <glyph glyph-name="amacron.ss01" horiz-adv-x="625" 
d="M148.5 21q-48.5 32 -74.5 89t-26 129q0 73 27.5 129t78 87.5t117.5 31.5q95 0 155 -70q3 33 13 58h114v-475h-111q-12 27 -15 67q-31 -37 -73 -57.5t-91 -20.5q-66 0 -114.5 32zM382 139q34 33 34 88v17q0 63 -33 94t-85 31q-49 0 -81 -31t-32 -98t30.5 -100.5
t78.5 -33.5q54 0 88 33zM465 659v-93h-312v93h312z" />
    <glyph glyph-name="aogonek.ss01" horiz-adv-x="625" 
d="M571 -136q-20 -22 -50.5 -35t-64.5 -13q-47 0 -76 20.5t-29 57.5q0 52 64 91l27 16q-12 28 -15 66q-31 -37 -73 -57.5t-91 -20.5q-66 0 -114.5 32t-74.5 89t-26 129q0 73 27.5 129t78 87.5t117.5 31.5q95 0 155 -70q3 33 13 58h114v-475q-39 -25 -62 -39
q-22 -12 -31 -21.5t-9 -21.5q0 -20 26 -20q22 0 48 22zM416 244q0 63 -33 94t-85 31q-49 0 -81 -31t-32 -98t30.5 -100.5t78.5 -33.5q54 0 88 33t34 88v17z" />
    <glyph glyph-name="aring.ss01" horiz-adv-x="625" 
d="M148.5 21q-48.5 32 -74.5 89t-26 129q0 73 27.5 129t78 87.5t117.5 31.5q95 0 155 -70q3 33 13 58h114v-475h-111q-12 27 -15 67q-31 -37 -73 -57.5t-91 -20.5q-66 0 -114.5 32zM382 139q34 33 34 88v17q0 63 -33 94t-85 31q-49 0 -81 -31t-32 -98t30.5 -100.5
t78.5 -33.5q54 0 88 33zM232.5 571.5q-32.5 30.5 -32.5 76.5q0 47 32.5 77t76.5 30t76.5 -30t32.5 -77q0 -46 -32.5 -76.5t-76.5 -30.5t-76.5 30.5zM337.5 618.5q11.5 11.5 11.5 29.5q0 19 -11.5 30t-28.5 11t-28.5 -11t-11.5 -30q0 -18 11.5 -29.5t28.5 -11.5t28.5 11.5z
" />
    <glyph glyph-name="atilde.ss01" horiz-adv-x="625" 
d="M148.5 21q-48.5 32 -74.5 89t-26 129q0 73 27.5 129t78 87.5t117.5 31.5q95 0 155 -70q3 33 13 58h114v-475h-111q-12 27 -15 67q-31 -37 -73 -57.5t-91 -20.5q-66 0 -114.5 32zM382 139q34 33 34 88v17q0 63 -33 94t-85 31q-49 0 -81 -31t-32 -98t30.5 -100.5
t78.5 -33.5q54 0 88 33zM337.5 551q-17.5 7 -39.5 20q-18 10 -29.5 15t-24.5 5q-23 0 -37.5 -8.5t-29.5 -28.5l-58 51q48 77 123 77q26 0 44.5 -7t37.5 -19q16 -11 28.5 -16t28.5 -5q19 0 33 9t30 29l57 -51q-48 -78 -124 -78q-22 0 -39.5 7z" />
    <glyph glyph-name="ae.ss01" horiz-adv-x="958" 
d="M154.5 21.5q-50.5 32.5 -78.5 89.5t-28 128q0 72 29.5 128.5t81 88t115.5 31.5q92 0 152 -68q3 31 13 56h101v-51q55 62 151 62q108 0 162 -67t54 -182v-31h-336q8 -49 42.5 -78t86.5 -29q47 0 77.5 15.5t56.5 44.5l74 -61q-65 -109 -209 -109q-103 0 -159 61v-50h-98
q-9 19 -15 63q-30 -35 -70.5 -54.5t-87.5 -19.5q-64 0 -114.5 32.5zM684 383q-43 0 -71.5 -22.5t-38.5 -65.5h206q-9 88 -96 88zM382 139q34 33 34 88v17q0 63 -33 94t-85 31q-48 0 -80.5 -31.5t-32.5 -97.5q0 -67 30.5 -100.5t78.5 -33.5q54 0 88 33z" />
    <glyph glyph-name="g.ss01" horiz-adv-x="627" 
d="M153 -185q-61 20 -110 67l61 90q38 -31 77 -45t92 -14q71 0 108.5 32.5t37.5 95.5v35q-59 -64 -154 -64q-63 0 -112.5 29t-77 82t-27.5 123q0 71 29.5 125.5t81 84.5t113.5 30q96 0 156 -70q5 34 14 59h112v-429q0 -71 -32 -128t-92 -90t-139 -33q-77 0 -138 20z
M384 153.5q35 31.5 35 86.5v8q0 61 -34.5 91.5t-85.5 30.5q-49 0 -81.5 -30t-32.5 -92q0 -61 31 -93.5t78 -32.5q55 0 90 31.5z" />
    <glyph glyph-name="gbreve.ss01" horiz-adv-x="627" 
d="M153 -185q-61 20 -110 67l61 90q38 -31 77 -45t92 -14q71 0 108.5 32.5t37.5 95.5v35q-59 -64 -154 -64q-63 0 -112.5 29t-77 82t-27.5 123q0 71 29.5 125.5t81 84.5t113.5 30q96 0 156 -70q5 34 14 59h112v-429q0 -71 -32 -128t-92 -90t-139 -33q-77 0 -138 20z
M384 153.5q35 31.5 35 86.5v8q0 61 -34.5 91.5t-85.5 30.5q-49 0 -81.5 -30t-32.5 -92q0 -61 31 -93.5t78 -32.5q55 0 90 31.5zM137 652l67 51q27 -36 51.5 -52t58.5 -16t58.5 16t51.5 52l67 -51q-70 -107 -177 -107t-177 107z" />
    <glyph glyph-name="gcircumflex.ss01" horiz-adv-x="627" 
d="M153 -185q-61 20 -110 67l61 90q38 -31 77 -45t92 -14q71 0 108.5 32.5t37.5 95.5v35q-59 -64 -154 -64q-63 0 -112.5 29t-77 82t-27.5 123q0 71 29.5 125.5t81 84.5t113.5 30q96 0 156 -70q5 34 14 59h112v-429q0 -71 -32 -128t-92 -90t-139 -33q-77 0 -138 20z
M384 153.5q35 31.5 35 86.5v8q0 61 -34.5 91.5t-85.5 30.5q-49 0 -81.5 -30t-32.5 -92q0 -61 31 -93.5t78 -32.5q55 0 90 31.5zM272 699q20 17 43 17t43 -17l124 -105l-50 -59l-118 88l-119 -88l-50 59z" />
    <glyph glyph-name="uni0123.ss01" horiz-adv-x="627" 
d="M153 -185q-61 20 -110 67l61 90q38 -31 77 -45t92 -14q71 0 108.5 32.5t37.5 95.5v35q-59 -64 -154 -64q-63 0 -112.5 29t-77 82t-27.5 123q0 71 29.5 125.5t81 84.5t113.5 30q96 0 156 -70q5 34 14 59h112v-429q0 -71 -32 -128t-92 -90t-139 -33q-77 0 -138 20z
M384 153.5q35 31.5 35 86.5v8q0 61 -34.5 91.5t-85.5 30.5q-49 0 -81.5 -30t-32.5 -92q0 -61 31 -93.5t78 -32.5q55 0 90 31.5zM289.5 675.5q36.5 53.5 98.5 82.5l53 -60q-42 -28 -62 -61t-20 -81h-106q0 66 36.5 119.5z" />
    <glyph glyph-name="gdotaccent.ss01" horiz-adv-x="627" 
d="M153 -185q-61 20 -110 67l61 90q38 -31 77 -45t92 -14q71 0 108.5 32.5t37.5 95.5v35q-59 -64 -154 -64q-63 0 -112.5 29t-77 82t-27.5 123q0 71 29.5 125.5t81 84.5t113.5 30q96 0 156 -70q5 34 14 59h112v-429q0 -71 -32 -128t-92 -90t-139 -33q-77 0 -138 20z
M384 153.5q35 31.5 35 86.5v8q0 61 -34.5 91.5t-85.5 30.5q-49 0 -81.5 -30t-32.5 -92q0 -61 31 -93.5t78 -32.5q55 0 90 31.5zM256.5 557.5q-21.5 21.5 -21.5 53.5t22 53.5t57 21.5q36 0 57.5 -21.5t21.5 -53.5t-22 -53.5t-57 -21.5q-36 0 -57.5 21.5z" />
    <glyph glyph-name="k.ss01" horiz-adv-x="575" 
d="M207 674v-366h98l106 167h143l-138 -217l154 -258h-152l-113 196h-98v-196h-134v674h134z" />
    <glyph glyph-name="uni0137.ss01" horiz-adv-x="575" 
d="M207 674v-366h98l106 167h143l-138 -217l154 -258h-152l-113 196h-98v-196h-134v674h134zM219 -129.5q20 32.5 20 81.5h106q0 -66 -36.5 -119.5t-98.5 -82.5l-53 59q42 29 62 61.5z" />
    <glyph glyph-name="kgreenlandic.ss01" horiz-adv-x="575" 
d="M207 475v-182h98l105 182h144l-138 -233l154 -242h-152l-113 181h-98v-181h-134v475h134z" />
    <glyph glyph-name="y.ss01" horiz-adv-x="557" 
d="M11 475h151l122 -321l111 321h149l-271 -669h-136l79 204z" />
    <glyph glyph-name="yacute.ss01" horiz-adv-x="557" 
d="M11 475h151l122 -321l111 321h149l-271 -669h-136l79 204zM388 725l48 -85l-222 -111l-43 75z" />
    <glyph glyph-name="ycircumflex.ss01" horiz-adv-x="557" 
d="M11 475h151l122 -321l111 321h149l-271 -669h-136l79 204zM237 699q20 17 43 17t43 -17l124 -105l-50 -59l-118 88l-119 -88l-50 59z" />
    <glyph glyph-name="ydieresis.ss01" horiz-adv-x="557" 
d="M11 475h151l122 -321l111 321h149l-271 -669h-136l79 204zM119 558.5q-20 20.5 -20 52.5q0 30 20.5 51t53.5 21t53.5 -21t20.5 -51q0 -31 -20.5 -52t-53.5 -21q-34 0 -54 20.5zM332 559q-20 21 -20 52q0 30 20 51t53 21t53.5 -21t20.5 -51q0 -31 -20.5 -52t-53.5 -21
t-53 21z" />
    <glyph glyph-name="ygrave.ss01" horiz-adv-x="557" 
d="M11 475h151l122 -321l111 321h149l-271 -669h-136l79 204zM170 725l217 -121l-43 -75l-222 111z" />
    <glyph glyph-name="ordfeminine" unicode="&#xaa;" horiz-adv-x="425" 
d="M62.5 298q-32.5 31 -32.5 76t37 77.5t110 32.5q53 0 98 -14v3q0 38 -21.5 57t-58.5 19q-30 0 -54 -7t-51 -27l-49 62q38 31 78 44t91 13q75 0 121 -42t46 -127v-190h-81q-9 22 -11 50q-44 -58 -124 -58q-66 0 -98.5 31zM242.5 362q22.5 18 27.5 43l1 4q-38 10 -75 10
q-66 0 -66 -39q0 -17 14 -26.5t37 -9.5q39 0 61.5 18z" />
    <glyph glyph-name="ordmasculine" unicode="&#xba;" horiz-adv-x="459" 
d="M127.5 291.5q-44.5 24.5 -68 66.5t-23.5 93q0 49 24 91t68.5 67t101.5 25q58 0 102 -24.5t67.5 -66t23.5 -92.5q0 -49 -24 -91t-68 -67.5t-101 -25.5q-58 0 -102.5 24.5zM292 385.5q21 26.5 21 65.5q0 37 -20.5 64t-61.5 27q-42 0 -63.5 -27t-21.5 -64q0 -38 21.5 -65
t62.5 -27t62 26.5z" />
    <glyph glyph-name="ordfeminine.ss01" horiz-adv-x="472" 
d="M117 291q-38 24 -59.5 66t-21.5 94q0 53 22 94.5t61 64.5t89 23q72 0 116 -50q3 26 11 41h89v-349h-87q-9 19 -11 48q-50 -56 -123 -56q-48 0 -86 24zM293.5 380.5q23.5 22.5 23.5 60.5v14q0 44 -23.5 65.5t-62.5 21.5q-37 0 -61.5 -21.5t-24.5 -68.5t24 -70.5t60 -23.5
q41 0 64.5 22.5z" />
    <glyph glyph-name="uni0394" unicode="&#x394;" horiz-adv-x="653" 
d="M246 624h160l207 -524v-100h-574v100zM324 515l-144 -397h289z" />
    <glyph glyph-name="uni03A9" unicode="&#x3a9;" horiz-adv-x="727" 
d="M158 117q-51 41 -80 97t-29 126q0 83 41 150.5t113 105.5t161 38q94 0 165.5 -38.5t110.5 -105.5t39 -150q0 -68 -29.5 -124.5t-81.5 -98.5h117v-117h-273v117q60 32 93 85t33 122q0 82 -47.5 132t-125.5 50t-126.5 -50t-48.5 -132q0 -72 33 -124.5t92 -82.5v-117h-272
v117h115z" />
    <glyph glyph-name="uni03BC" unicode="&#x3bc;" horiz-adv-x="610" 
d="M209 475v-272q0 -48 21 -73t61 -25q52 0 81 36.5t29 106.5v227h137v-475h-111q-11 26 -14 58q-24 -33 -58 -51t-73 -18q-42 0 -73 25v-208h-137v669h137z" />
    <glyph glyph-name="pi" unicode="&#x3c0;" horiz-adv-x="689" 
d="M444.5 33.5q-37.5 44.5 -37.5 131.5v196h-154v-361h-137v361h-94v114h616v-114h-94v-202q0 -26 10.5 -40.5t30.5 -14.5q15 0 25 3.5t22 12.5l50 -83q-46 -48 -128 -48q-72 0 -109.5 44.5z" />
    <glyph glyph-name="zero" unicode="0" 
d="M98 76.5q-65 87.5 -65 231.5q0 90 29.5 161.5t87.5 113t140 41.5q127 0 192 -87t65 -229q0 -91 -29.5 -163.5t-87.5 -114t-140 -41.5q-127 0 -192 87.5zM379 167q29 50 29 140q0 189 -116 189q-62 0 -91 -49.5t-29 -139.5q0 -190 118 -190q60 0 89 50z" />
    <glyph glyph-name="one" unicode="1" 
d="M269 119v360l-175 -74l-46 105l230 104h130v-495h138v-119h-454v119h177z" />
    <glyph glyph-name="two" unicode="2" 
d="M235 251q76 66 105 100t29 71q0 36 -24.5 56.5t-65.5 20.5q-45 0 -79.5 -18t-73.5 -69l-90 67q44 71 108.5 108t144.5 37q95 0 157 -50.5t62 -145.5q0 -44 -18 -80t-47.5 -67t-81.5 -75l-102 -87h259v-119h-460v98z" />
    <glyph glyph-name="three" unicode="3" 
d="M144 23q-64 34 -109 103l89 67q38 -50 78.5 -68t87.5 -18q46 0 73.5 20t27.5 53q0 37 -24.5 57.5t-72.5 20.5h-87v106h91q42 0 62.5 19t20.5 52q0 34 -25.5 52.5t-68.5 18.5q-45 0 -81.5 -17t-74.5 -66l-87 66q88 135 249 135q102 0 160 -49.5t58 -134.5q0 -42 -21 -74.5
t-58 -51.5q41 -23 65 -60.5t24 -83.5q0 -54 -27.5 -95t-78.5 -63.5t-119 -22.5q-88 0 -152 34z" />
    <glyph glyph-name="four" unicode="4" 
d="M40 140v114l267 379l101 -58l-228 -324h163v137h120v-137h79v-111h-79v-140h-124v140h-299z" />
    <glyph glyph-name="five" unicode="5" 
d="M141.5 17q-61.5 28 -106.5 95l89 70q33 -42 69.5 -56t85.5 -14q41 0 68.5 22.5t27.5 58.5q0 48 -33.5 68t-109.5 20h-151l45 333h346v-115h-246l-15 -113h67q112 0 173 -53t61 -147q0 -61 -30.5 -105.5t-81.5 -68t-112 -23.5q-85 0 -146.5 28z" />
    <glyph glyph-name="six" unicode="6" 
d="M162 16.5q-56 27.5 -86 77.5t-30 116q0 74 36.5 141.5t107.5 135.5l152 149l87 -68l-193 -187q40 20 99 20q54 0 99.5 -23.5t72.5 -68t27 -104.5q0 -64 -31 -113t-86 -76t-125 -27q-74 0 -130 27.5zM377.5 131.5q30.5 24.5 30.5 70.5t-28 70t-83 24t-89 -24.5t-34 -69.5
q0 -46 30 -70.5t86 -24.5q57 0 87.5 24.5z" />
    <glyph glyph-name="seven" unicode="7" 
d="M362 492h-306v122h467v-97l-253 -529l-128 45z" />
    <glyph glyph-name="eight" unicode="8" 
d="M113 39.5q-62 50.5 -62 134.5q0 45 25.5 82.5t68.5 62.5q-38 22 -59 56t-21 76q0 49 28 88.5t78.5 62t117.5 22.5q105 0 165 -47t60 -123q0 -41 -21 -74.5t-57 -57.5q44 -24 69.5 -62t25.5 -86q0 -53 -28.5 -95t-83 -66t-128.5 -24q-116 0 -178 50.5zM359 391
q25 21 25 56q0 34 -24.5 54t-70.5 20q-45 0 -69.5 -20t-24.5 -54q0 -35 24.5 -56t69.5 -21t70 21zM370.5 115.5q27.5 22.5 27.5 62.5t-28 64t-79 24t-79.5 -24t-28.5 -64t28 -62.5t80 -22.5t79.5 22.5z" />
    <glyph glyph-name="nine" unicode="9" 
d="M345 233q-42 -21 -100 -21q-55 0 -100.5 23t-72.5 67t-27 106q0 64 31.5 113t86.5 76t125 27q74 0 130 -27.5t86 -77.5t30 -116q0 -75 -35.5 -143t-105.5 -134l-154 -149l-88 69zM372.5 341.5q33.5 24.5 33.5 69.5q0 46 -30 70.5t-86 24.5q-57 0 -87.5 -24.5t-30.5 -70.5
q0 -94 111 -94q56 0 89.5 24.5z" />
    <glyph glyph-name="zero.lf" horiz-adv-x="601" 
d="M109 76.5q-65 87.5 -65 231.5q0 90 29.5 161.5t87.5 113t140 41.5q127 0 192 -87t65 -229q0 -91 -29.5 -163.5t-87.5 -114t-140 -41.5q-127 0 -192 87.5zM390 167q29 50 29 140q0 189 -116 189q-62 0 -91 -49.5t-29 -139.5q0 -190 118 -190q60 0 89 50z" />
    <glyph glyph-name="one.lf" horiz-adv-x="541" 
d="M242 119v360l-175 -74l-46 105l230 104h130v-495h138v-119h-454v119h177z" />
    <glyph glyph-name="two.lf" 
d="M235 251q76 66 105 100t29 71q0 36 -24.5 56.5t-65.5 20.5q-45 0 -79.5 -18t-73.5 -69l-90 67q44 71 108.5 108t144.5 37q95 0 157 -50.5t62 -145.5q0 -44 -18 -80t-47.5 -67t-81.5 -75l-102 -87h259v-119h-460v98z" />
    <glyph glyph-name="three.lf" horiz-adv-x="572" 
d="M140 23q-64 34 -109 103l89 67q38 -50 78.5 -68t87.5 -18q46 0 73.5 20t27.5 53q0 37 -24.5 57.5t-72.5 20.5h-87v106h91q42 0 62.5 19t20.5 52q0 34 -25.5 52.5t-68.5 18.5q-45 0 -81.5 -17t-74.5 -66l-87 66q88 135 249 135q102 0 160 -49.5t58 -134.5q0 -42 -21 -74.5
t-58 -51.5q41 -23 65 -60.5t24 -83.5q0 -54 -27.5 -95t-78.5 -63.5t-119 -22.5q-88 0 -152 34z" />
    <glyph glyph-name="four.lf" horiz-adv-x="586" 
d="M43 140v114l267 379l101 -58l-228 -324h163v137h120v-137h79v-111h-79v-140h-124v140h-299z" />
    <glyph glyph-name="five.lf" 
d="M141.5 17q-61.5 28 -106.5 95l89 70q33 -42 69.5 -56t85.5 -14q41 0 68.5 22.5t27.5 58.5q0 48 -33.5 68t-109.5 20h-151l45 333h346v-115h-246l-15 -113h67q112 0 173 -53t61 -147q0 -61 -30.5 -105.5t-81.5 -68t-112 -23.5q-85 0 -146.5 28z" />
    <glyph glyph-name="six.lf" 
d="M162 16.5q-56 27.5 -86 77.5t-30 116q0 74 36.5 141.5t107.5 135.5l152 149l87 -68l-193 -187q40 20 99 20q54 0 99.5 -23.5t72.5 -68t27 -104.5q0 -64 -31 -113t-86 -76t-125 -27q-74 0 -130 27.5zM377.5 131.5q30.5 24.5 30.5 70.5t-28 70t-83 24t-89 -24.5t-34 -69.5
q0 -46 30 -70.5t86 -24.5q57 0 87.5 24.5z" />
    <glyph glyph-name="seven.lf" horiz-adv-x="552" 
d="M348 492h-306v122h467v-97l-253 -529l-128 45z" />
    <glyph glyph-name="eight.lf" horiz-adv-x="588" 
d="M117 39.5q-62 50.5 -62 134.5q0 45 25.5 82.5t68.5 62.5q-38 22 -59 56t-21 76q0 49 28 88.5t78.5 62t117.5 22.5q105 0 165 -47t60 -123q0 -41 -21 -74.5t-57 -57.5q44 -24 69.5 -62t25.5 -86q0 -53 -28.5 -95t-83 -66t-128.5 -24q-116 0 -178 50.5zM363 391
q25 21 25 56q0 34 -24.5 54t-70.5 20q-45 0 -69.5 -20t-24.5 -54q0 -35 24.5 -56t69.5 -21t70 21zM374.5 115.5q27.5 22.5 27.5 62.5t-28 64t-79 24t-79.5 -24t-28.5 -64t28 -62.5t80 -22.5t79.5 22.5z" />
    <glyph glyph-name="nine.lf" horiz-adv-x="588" 
d="M345 233q-42 -21 -100 -21q-55 0 -100.5 23t-72.5 67t-27 106q0 64 31.5 113t86.5 76t125 27q74 0 130 -27.5t86 -77.5t30 -116q0 -75 -35.5 -143t-105.5 -134l-154 -149l-88 69zM372.5 341.5q33.5 24.5 33.5 69.5q0 46 -30 70.5t-86 24.5q-57 0 -87.5 -24.5t-30.5 -70.5
q0 -94 111 -94q56 0 89.5 24.5z" />
    <glyph glyph-name="zero.tf" 
d="M98 76.5q-65 87.5 -65 231.5q0 90 29.5 161.5t87.5 113t140 41.5q127 0 192 -87t65 -229q0 -91 -29.5 -163.5t-87.5 -114t-140 -41.5q-127 0 -192 87.5zM379 167q29 50 29 140q0 189 -116 189q-62 0 -91 -49.5t-29 -139.5q0 -190 118 -190q60 0 89 50z" />
    <glyph glyph-name="one.tf" 
d="M269 119v360l-175 -74l-46 105l230 104h130v-495h138v-119h-454v119h177z" />
    <glyph glyph-name="two.tf" 
d="M235 251q76 66 105 100t29 71q0 36 -24.5 56.5t-65.5 20.5q-45 0 -79.5 -18t-73.5 -69l-90 67q44 71 108.5 108t144.5 37q95 0 157 -50.5t62 -145.5q0 -44 -18 -80t-47.5 -67t-81.5 -75l-102 -87h259v-119h-460v98z" />
    <glyph glyph-name="three.tf" 
d="M144 23q-64 34 -109 103l89 67q38 -50 78.5 -68t87.5 -18q46 0 73.5 20t27.5 53q0 37 -24.5 57.5t-72.5 20.5h-87v106h91q42 0 62.5 19t20.5 52q0 34 -25.5 52.5t-68.5 18.5q-45 0 -81.5 -17t-74.5 -66l-87 66q88 135 249 135q102 0 160 -49.5t58 -134.5q0 -42 -21 -74.5
t-58 -51.5q41 -23 65 -60.5t24 -83.5q0 -54 -27.5 -95t-78.5 -63.5t-119 -22.5q-88 0 -152 34z" />
    <glyph glyph-name="four.tf" 
d="M40 140v114l267 379l101 -58l-228 -324h163v137h120v-137h79v-111h-79v-140h-124v140h-299z" />
    <glyph glyph-name="five.tf" 
d="M141.5 17q-61.5 28 -106.5 95l89 70q33 -42 69.5 -56t85.5 -14q41 0 68.5 22.5t27.5 58.5q0 48 -33.5 68t-109.5 20h-151l45 333h346v-115h-246l-15 -113h67q112 0 173 -53t61 -147q0 -61 -30.5 -105.5t-81.5 -68t-112 -23.5q-85 0 -146.5 28z" />
    <glyph glyph-name="six.tf" 
d="M162 16.5q-56 27.5 -86 77.5t-30 116q0 74 36.5 141.5t107.5 135.5l152 149l87 -68l-193 -187q40 20 99 20q54 0 99.5 -23.5t72.5 -68t27 -104.5q0 -64 -31 -113t-86 -76t-125 -27q-74 0 -130 27.5zM377.5 131.5q30.5 24.5 30.5 70.5t-28 70t-83 24t-89 -24.5t-34 -69.5
q0 -46 30 -70.5t86 -24.5q57 0 87.5 24.5z" />
    <glyph glyph-name="seven.tf" 
d="M362 492h-306v122h467v-97l-253 -529l-128 45z" />
    <glyph glyph-name="eight.tf" 
d="M113 39.5q-62 50.5 -62 134.5q0 45 25.5 82.5t68.5 62.5q-38 22 -59 56t-21 76q0 49 28 88.5t78.5 62t117.5 22.5q105 0 165 -47t60 -123q0 -41 -21 -74.5t-57 -57.5q44 -24 69.5 -62t25.5 -86q0 -53 -28.5 -95t-83 -66t-128.5 -24q-116 0 -178 50.5zM359 391
q25 21 25 56q0 34 -24.5 54t-70.5 20q-45 0 -69.5 -20t-24.5 -54q0 -35 24.5 -56t69.5 -21t70 21zM370.5 115.5q27.5 22.5 27.5 62.5t-28 64t-79 24t-79.5 -24t-28.5 -64t28 -62.5t80 -22.5t79.5 22.5z" />
    <glyph glyph-name="nine.tf" horiz-adv-x="588" 
d="M345 233q-42 -21 -100 -21q-55 0 -100.5 23t-72.5 67t-27 106q0 64 31.5 113t86.5 76t125 27q74 0 130 -27.5t86 -77.5t30 -116q0 -75 -35.5 -143t-105.5 -134l-154 -149l-88 69zM372.5 341.5q33.5 24.5 33.5 69.5q0 46 -30 70.5t-86 24.5q-57 0 -87.5 -24.5t-30.5 -70.5
q0 -94 111 -94q56 0 89.5 24.5z" />
    <glyph glyph-name="zero.subs" horiz-adv-x="445" 
d="M89 -43.5q-46 53.5 -46 138.5q0 53 21 96t61.5 68t97.5 25q87 0 133 -52.5t46 -136.5q0 -83 -47 -137.5t-132 -54.5q-88 0 -134 53.5zM298 94q0 94 -74 94q-76 0 -76 -94q0 -46 17.5 -70t57.5 -24q75 0 75 94z" />
    <glyph glyph-name="one.subs" horiz-adv-x="445" 
d="M205 -1v178l-119 -43l-35 79l160 65h98v-279h93v-89h-319v89h122z" />
    <glyph glyph-name="two.subs" horiz-adv-x="445" 
d="M183 65q53 36 73.5 54.5t20.5 36.5t-15 28.5t-43 10.5q-30 0 -55.5 -12t-52.5 -43l-66 48q31 46 77.5 71t102.5 25q66 0 109.5 -29t43.5 -86q0 -43 -29.5 -74.5t-86.5 -67.5l-48 -32h171v-85h-324v73z" />
    <glyph glyph-name="three.subs" horiz-adv-x="446" 
d="M43 -7l60 46q27 -30 56 -40t64 -10q33 0 52 9.5t19 25.5q0 35 -57 35h-71v73h69q27 0 39 8.5t12 25.5q0 16 -18 25t-49 9t-57 -10.5t-53 -39.5l-60 46q60 88 177 88q71 0 112.5 -29t41.5 -80q0 -49 -52 -78q28 -15 44 -37t16 -49q0 -49 -44 -78.5t-116 -29.5
q-123 0 -185 90z" />
    <glyph glyph-name="four.subs" horiz-adv-x="445" 
d="M48 -10v88l187 214l74 -45l-161 -179h116v73h83v-73h54v-78h-54v-80h-89v80h-210z" />
    <glyph glyph-name="five.subs" horiz-adv-x="445" 
d="M121.5 -79q-43.5 18 -74.5 61l58 49q23 -23 49.5 -32.5t60.5 -9.5q29 0 47 11t18 30q0 24 -19.5 33.5t-69.5 9.5h-115l29 205h246v-80h-175l-8 -55h56q76 0 115.5 -30.5t39.5 -88.5q0 -55 -45.5 -88t-109.5 -33q-59 0 -102.5 18z" />
    <glyph glyph-name="six.subs" horiz-adv-x="445" 
d="M100 -59q-47 38 -47 104q0 56 25 96.5t86 82.5l98 72l62 -53l-155 -108l1 -2q38 19 91 19q55 0 94.5 -30.5t39.5 -86.5q0 -60 -49 -96t-120 -36q-79 0 -126 38zM282 1q20 12 20 34q0 45 -75 45q-37 0 -58 -11.5t-21 -33.5t20 -34t57 -12t57 12z" />
    <glyph glyph-name="seven.subs" horiz-adv-x="445" 
d="M265 186h-207v92h329v-71l-174 -305l-99 33z" />
    <glyph glyph-name="eight.subs" horiz-adv-x="447" 
d="M98.5 -65.5q-43.5 31.5 -43.5 82.5q0 27 16 48.5t43 36.5q-50 30 -50 77q0 46 43.5 76t114.5 30q74 0 116.5 -28.5t42.5 -75.5q0 -23 -13.5 -43t-36.5 -34q29 -15 45 -37t16 -50q0 -50 -44.5 -82t-123.5 -32q-82 0 -125.5 31.5zM268.5 147.5q16.5 10.5 16.5 27.5
t-16.5 27t-46.5 10q-29 0 -45.5 -10t-16.5 -27t16.5 -27.5t45.5 -10.5q30 0 46.5 10.5zM276.5 -9.5q17.5 10.5 17.5 29.5t-18 31t-52 12q-35 0 -53 -11.5t-18 -31.5q0 -19 18 -29.5t53 -10.5t52.5 10.5z" />
    <glyph glyph-name="nine.subs" horiz-adv-x="448" 
d="M273 48l-1 2q-35 -15 -87 -15q-55 0 -94 30.5t-39 86.5q0 60 49 96t120 36q78 0 125 -38t47 -104q0 -55 -25 -96t-84 -82l-99 -73l-63 53zM278 118.5q21 11.5 21 33.5t-19.5 34t-57.5 12q-37 0 -57.5 -12t-20.5 -34t19 -33.5t56 -11.5q38 0 59 11.5z" />
    <glyph glyph-name="zero.dnom" horiz-adv-x="445" 
d="M89 46.5q-46 53.5 -46 138.5q0 53 21 96t61.5 68t97.5 25q87 0 133 -52.5t46 -136.5q0 -83 -47 -137.5t-132 -54.5q-88 0 -134 53.5zM298 184q0 94 -74 94q-76 0 -76 -94q0 -46 17.5 -70t57.5 -24q75 0 75 94z" />
    <glyph glyph-name="one.dnom" horiz-adv-x="445" 
d="M205 89v178l-119 -43l-35 79l160 65h98v-279h93v-89h-319v89h122z" />
    <glyph glyph-name="two.dnom" horiz-adv-x="445" 
d="M183 155q53 36 73.5 54.5t20.5 36.5t-15 28.5t-43 10.5q-30 0 -55.5 -12t-52.5 -43l-66 48q31 46 77.5 71t102.5 25q66 0 109.5 -29t43.5 -86q0 -43 -29.5 -74.5t-86.5 -67.5l-48 -32h171v-85h-324v73z" />
    <glyph glyph-name="three.dnom" horiz-adv-x="446" 
d="M43 83l60 46q27 -30 56 -40t64 -10q33 0 52 9.5t19 25.5q0 35 -57 35h-71v73h69q27 0 39 8.5t12 25.5q0 16 -18 25t-49 9t-57 -10.5t-53 -39.5l-60 46q60 88 177 88q71 0 112.5 -29t41.5 -80q0 -49 -52 -78q28 -15 44 -37t16 -49q0 -49 -44 -78.5t-116 -29.5
q-123 0 -185 90z" />
    <glyph glyph-name="four.dnom" horiz-adv-x="445" 
d="M48 80v88l187 214l74 -45l-161 -179h116v73h83v-73h54v-78h-54v-80h-89v80h-210z" />
    <glyph glyph-name="five.dnom" horiz-adv-x="445" 
d="M121.5 11q-43.5 18 -74.5 61l58 49q23 -23 49.5 -32.5t60.5 -9.5q29 0 47 11t18 30q0 24 -19.5 33.5t-69.5 9.5h-115l29 205h246v-80h-175l-8 -55h56q76 0 115.5 -30.5t39.5 -88.5q0 -55 -45.5 -88t-109.5 -33q-59 0 -102.5 18z" />
    <glyph glyph-name="six.dnom" horiz-adv-x="445" 
d="M100 31q-47 38 -47 104q0 56 25 96.5t86 82.5l98 72l62 -53l-155 -108l1 -2q38 19 91 19q55 0 94.5 -30.5t39.5 -86.5q0 -60 -49 -96t-120 -36q-79 0 -126 38zM282 91q20 12 20 34q0 45 -75 45q-37 0 -58 -11.5t-21 -33.5t20 -34t57 -12t57 12z" />
    <glyph glyph-name="seven.dnom" horiz-adv-x="445" 
d="M265 276h-207v92h329v-71l-174 -305l-99 33z" />
    <glyph glyph-name="eight.dnom" horiz-adv-x="447" 
d="M98.5 24.5q-43.5 31.5 -43.5 82.5q0 27 16 48.5t43 36.5q-50 30 -50 77q0 46 43.5 76t114.5 30q74 0 116.5 -28.5t42.5 -75.5q0 -23 -13.5 -43t-36.5 -34q29 -15 45 -37t16 -50q0 -50 -44.5 -82t-123.5 -32q-82 0 -125.5 31.5zM268.5 237.5q16.5 10.5 16.5 27.5t-16.5 27
t-46.5 10q-29 0 -45.5 -10t-16.5 -27t16.5 -27.5t45.5 -10.5q30 0 46.5 10.5zM276.5 80.5q17.5 10.5 17.5 29.5t-18 31t-52 12q-35 0 -53 -11.5t-18 -31.5q0 -19 18 -29.5t53 -10.5t52.5 10.5z" />
    <glyph glyph-name="nine.dnom" horiz-adv-x="448" 
d="M273 138l-1 2q-35 -15 -87 -15q-55 0 -94 30.5t-39 86.5q0 60 49 96t120 36q78 0 125 -38t47 -104q0 -55 -25 -96t-84 -82l-99 -73l-63 53zM278 208.5q21 11.5 21 33.5t-19.5 34t-57.5 12q-37 0 -57.5 -12t-20.5 -34t19 -33.5t56 -11.5q38 0 59 11.5z" />
    <glyph glyph-name="zero.numr" horiz-adv-x="445" 
d="M89 296.5q-46 53.5 -46 138.5q0 53 21 96t61.5 68t97.5 25q87 0 133 -52.5t46 -136.5q0 -83 -47 -137.5t-132 -54.5q-88 0 -134 53.5zM298 434q0 94 -74 94q-76 0 -76 -94q0 -46 17.5 -70t57.5 -24q75 0 75 94z" />
    <glyph glyph-name="one.numr" horiz-adv-x="445" 
d="M205 339v178l-119 -43l-35 79l160 65h98v-279h93v-89h-319v89h122z" />
    <glyph glyph-name="two.numr" horiz-adv-x="445" 
d="M183 405q53 36 73.5 54.5t20.5 36.5t-15 28.5t-43 10.5q-30 0 -55.5 -12t-52.5 -43l-66 48q31 46 77.5 71t102.5 25q66 0 109.5 -29t43.5 -86q0 -43 -29.5 -74.5t-86.5 -67.5l-48 -32h171v-85h-324v73z" />
    <glyph glyph-name="three.numr" horiz-adv-x="446" 
d="M43 333l60 46q27 -30 56 -40t64 -10q33 0 52 9.5t19 25.5q0 35 -57 35h-71v73h69q27 0 39 8.5t12 25.5q0 16 -18 25t-49 9t-57 -10.5t-53 -39.5l-60 46q60 88 177 88q71 0 112.5 -29t41.5 -80q0 -49 -52 -78q28 -15 44 -37t16 -49q0 -49 -44 -78.5t-116 -29.5
q-123 0 -185 90z" />
    <glyph glyph-name="four.numr" horiz-adv-x="445" 
d="M48 330v88l187 214l74 -45l-161 -179h116v73h83v-73h54v-78h-54v-80h-89v80h-210z" />
    <glyph glyph-name="five.numr" horiz-adv-x="445" 
d="M121.5 261q-43.5 18 -74.5 61l58 49q23 -23 49.5 -32.5t60.5 -9.5q29 0 47 11t18 30q0 24 -19.5 33.5t-69.5 9.5h-115l29 205h246v-80h-175l-8 -55h56q76 0 115.5 -30.5t39.5 -88.5q0 -55 -45.5 -88t-109.5 -33q-59 0 -102.5 18z" />
    <glyph glyph-name="six.numr" horiz-adv-x="445" 
d="M100 281q-47 38 -47 104q0 56 25 96.5t86 82.5l98 72l62 -53l-155 -108l1 -2q38 19 91 19q55 0 94.5 -30.5t39.5 -86.5q0 -60 -49 -96t-120 -36q-79 0 -126 38zM282 341q20 12 20 34q0 45 -75 45q-37 0 -58 -11.5t-21 -33.5t20 -34t57 -12t57 12z" />
    <glyph glyph-name="seven.numr" horiz-adv-x="445" 
d="M265 526h-207v92h329v-71l-174 -305l-99 33z" />
    <glyph glyph-name="eight.numr" horiz-adv-x="447" 
d="M98.5 274.5q-43.5 31.5 -43.5 82.5q0 27 16 48.5t43 36.5q-50 30 -50 77q0 46 43.5 76t114.5 30q74 0 116.5 -28.5t42.5 -75.5q0 -23 -13.5 -43t-36.5 -34q29 -15 45 -37t16 -50q0 -50 -44.5 -82t-123.5 -32q-82 0 -125.5 31.5zM268.5 487.5q16.5 10.5 16.5 27.5
t-16.5 27t-46.5 10q-29 0 -45.5 -10t-16.5 -27t16.5 -27.5t45.5 -10.5q30 0 46.5 10.5zM276.5 330.5q17.5 10.5 17.5 29.5t-18 31t-52 12q-35 0 -53 -11.5t-18 -31.5q0 -19 18 -29.5t53 -10.5t52.5 10.5z" />
    <glyph glyph-name="nine.numr" horiz-adv-x="448" 
d="M273 388l-1 2q-35 -15 -87 -15q-55 0 -94 30.5t-39 86.5q0 60 49 96t120 36q78 0 125 -38t47 -104q0 -55 -25 -96t-84 -82l-99 -73l-63 53zM278 458.5q21 11.5 21 33.5t-19.5 34t-57.5 12q-37 0 -57.5 -12t-20.5 -34t19 -33.5t56 -11.5q38 0 59 11.5z" />
    <glyph glyph-name="uni2070" unicode="&#x2070;" horiz-adv-x="445" 
d="M89 296.5q-46 53.5 -46 138.5q0 53 21 96t61.5 68t97.5 25q87 0 133 -52.5t46 -136.5q0 -83 -47 -137.5t-132 -54.5q-88 0 -134 53.5zM298 434q0 94 -74 94q-76 0 -76 -94q0 -46 17.5 -70t57.5 -24q75 0 75 94z" />
    <glyph glyph-name="uni00B9" unicode="&#xb9;" horiz-adv-x="445" 
d="M205 339v178l-119 -43l-35 79l160 65h98v-279h93v-89h-319v89h122z" />
    <glyph glyph-name="uni00B2" unicode="&#xb2;" horiz-adv-x="445" 
d="M183 405q53 36 73.5 54.5t20.5 36.5t-15 28.5t-43 10.5q-30 0 -55.5 -12t-52.5 -43l-66 48q31 46 77.5 71t102.5 25q66 0 109.5 -29t43.5 -86q0 -43 -29.5 -74.5t-86.5 -67.5l-48 -32h171v-85h-324v73z" />
    <glyph glyph-name="uni00B3" unicode="&#xb3;" horiz-adv-x="446" 
d="M43 333l60 46q27 -30 56 -40t64 -10q33 0 52 9.5t19 25.5q0 35 -57 35h-71v73h69q27 0 39 8.5t12 25.5q0 16 -18 25t-49 9t-57 -10.5t-53 -39.5l-60 46q60 88 177 88q71 0 112.5 -29t41.5 -80q0 -49 -52 -78q28 -15 44 -37t16 -49q0 -49 -44 -78.5t-116 -29.5
q-123 0 -185 90z" />
    <glyph glyph-name="uni2074" unicode="&#x2074;" horiz-adv-x="445" 
d="M48 330v88l187 214l74 -45l-161 -179h116v73h83v-73h54v-78h-54v-80h-89v80h-210z" />
    <glyph glyph-name="uni2075" unicode="&#x2075;" horiz-adv-x="445" 
d="M121.5 261q-43.5 18 -74.5 61l58 49q23 -23 49.5 -32.5t60.5 -9.5q29 0 47 11t18 30q0 24 -19.5 33.5t-69.5 9.5h-115l29 205h246v-80h-175l-8 -55h56q76 0 115.5 -30.5t39.5 -88.5q0 -55 -45.5 -88t-109.5 -33q-59 0 -102.5 18z" />
    <glyph glyph-name="uni2076" unicode="&#x2076;" horiz-adv-x="445" 
d="M100 281q-47 38 -47 104q0 56 25 96.5t86 82.5l98 72l62 -53l-155 -108l1 -2q38 19 91 19q55 0 94.5 -30.5t39.5 -86.5q0 -60 -49 -96t-120 -36q-79 0 -126 38zM282 341q20 12 20 34q0 45 -75 45q-37 0 -58 -11.5t-21 -33.5t20 -34t57 -12t57 12z" />
    <glyph glyph-name="uni2077" unicode="&#x2077;" horiz-adv-x="445" 
d="M265 526h-207v92h329v-71l-174 -305l-99 33z" />
    <glyph glyph-name="uni2078" unicode="&#x2078;" horiz-adv-x="447" 
d="M98.5 274.5q-43.5 31.5 -43.5 82.5q0 27 16 48.5t43 36.5q-50 30 -50 77q0 46 43.5 76t114.5 30q74 0 116.5 -28.5t42.5 -75.5q0 -23 -13.5 -43t-36.5 -34q29 -15 45 -37t16 -50q0 -50 -44.5 -82t-123.5 -32q-82 0 -125.5 31.5zM268.5 487.5q16.5 10.5 16.5 27.5
t-16.5 27t-46.5 10q-29 0 -45.5 -10t-16.5 -27t16.5 -27.5t45.5 -10.5q30 0 46.5 10.5zM276.5 330.5q17.5 10.5 17.5 29.5t-18 31t-52 12q-35 0 -53 -11.5t-18 -31.5q0 -19 18 -29.5t53 -10.5t52.5 10.5z" />
    <glyph glyph-name="uni2079" unicode="&#x2079;" horiz-adv-x="448" 
d="M273 388l-1 2q-35 -15 -87 -15q-55 0 -94 30.5t-39 86.5q0 60 49 96t120 36q78 0 125 -38t47 -104q0 -55 -25 -96t-84 -82l-99 -73l-63 53zM278 458.5q21 11.5 21 33.5t-19.5 34t-57.5 12q-37 0 -57.5 -12t-20.5 -34t19 -33.5t56 -11.5q38 0 59 11.5z" />
    <glyph glyph-name="zero.sups" horiz-adv-x="445" 
d="M89 396.5q-46 53.5 -46 138.5q0 53 21 96t61.5 68t97.5 25q87 0 133 -52.5t46 -136.5q0 -83 -47 -137.5t-132 -54.5q-88 0 -134 53.5zM298 534q0 94 -74 94q-76 0 -76 -94q0 -46 17.5 -70t57.5 -24q75 0 75 94z" />
    <glyph glyph-name="one.sups" horiz-adv-x="445" 
d="M205 439v178l-119 -43l-35 79l160 65h98v-279h93v-89h-319v89h122z" />
    <glyph glyph-name="two.sups" horiz-adv-x="445" 
d="M183 505q53 36 73.5 54.5t20.5 36.5t-15 28.5t-43 10.5q-30 0 -55.5 -12t-52.5 -43l-66 48q31 46 77.5 71t102.5 25q66 0 109.5 -29t43.5 -86q0 -43 -29.5 -74.5t-86.5 -67.5l-48 -32h171v-85h-324v73z" />
    <glyph glyph-name="three.sups" horiz-adv-x="446" 
d="M43 433l60 46q27 -30 56 -40t64 -10q33 0 52 9.5t19 25.5q0 35 -57 35h-71v73h69q27 0 39 8.5t12 25.5q0 16 -18 25t-49 9t-57 -10.5t-53 -39.5l-60 46q60 88 177 88q71 0 112.5 -29t41.5 -80q0 -49 -52 -78q28 -15 44 -37t16 -49q0 -49 -44 -78.5t-116 -29.5
q-123 0 -185 90z" />
    <glyph glyph-name="four.sups" horiz-adv-x="445" 
d="M48 430v88l187 214l74 -45l-161 -179h116v73h83v-73h54v-78h-54v-80h-89v80h-210z" />
    <glyph glyph-name="five.sups" horiz-adv-x="445" 
d="M121.5 361q-43.5 18 -74.5 61l58 49q23 -23 49.5 -32.5t60.5 -9.5q29 0 47 11t18 30q0 24 -19.5 33.5t-69.5 9.5h-115l29 205h246v-80h-175l-8 -55h56q76 0 115.5 -30.5t39.5 -88.5q0 -55 -45.5 -88t-109.5 -33q-59 0 -102.5 18z" />
    <glyph glyph-name="six.sups" horiz-adv-x="445" 
d="M100 381q-47 38 -47 104q0 56 25 96.5t86 82.5l98 72l62 -53l-155 -108l1 -2q38 19 91 19q55 0 94.5 -30.5t39.5 -86.5q0 -60 -49 -96t-120 -36q-79 0 -126 38zM282 441q20 12 20 34q0 45 -75 45q-37 0 -58 -11.5t-21 -33.5t20 -34t57 -12t57 12z" />
    <glyph glyph-name="seven.sups" horiz-adv-x="445" 
d="M265 626h-207v92h329v-71l-174 -305l-99 33z" />
    <glyph glyph-name="eight.sups" horiz-adv-x="447" 
d="M98.5 374.5q-43.5 31.5 -43.5 82.5q0 27 16 48.5t43 36.5q-50 30 -50 77q0 46 43.5 76t114.5 30q74 0 116.5 -28.5t42.5 -75.5q0 -23 -13.5 -43t-36.5 -34q29 -15 45 -37t16 -50q0 -50 -44.5 -82t-123.5 -32q-82 0 -125.5 31.5zM268.5 587.5q16.5 10.5 16.5 27.5
t-16.5 27t-46.5 10q-29 0 -45.5 -10t-16.5 -27t16.5 -27.5t45.5 -10.5q30 0 46.5 10.5zM276.5 430.5q17.5 10.5 17.5 29.5t-18 31t-52 12q-35 0 -53 -11.5t-18 -31.5q0 -19 18 -29.5t53 -10.5t52.5 10.5z" />
    <glyph glyph-name="nine.sups" horiz-adv-x="448" 
d="M273 488l-1 2q-35 -15 -87 -15q-55 0 -94 30.5t-39 86.5q0 60 49 96t120 36q78 0 125 -38t47 -104q0 -55 -25 -96t-84 -82l-99 -73l-63 53zM278 558.5q21 11.5 21 33.5t-19.5 34t-57.5 12q-37 0 -57.5 -12t-20.5 -34t19 -33.5t56 -11.5q38 0 59 11.5z" />
    <glyph glyph-name="fraction" unicode="&#x2044;" horiz-adv-x="205" 
d="M296 681l87 -56l-477 -692l-87 56z" />
    <glyph glyph-name="onehalf" unicode="&#xbd;" horiz-adv-x="1095" 
d="M205 339v178l-119 -43l-35 79l160 65h98v-279h93v-89h-319v89h122zM752 681l87 -56l-477 -692l-87 56zM833 155q53 36 73.5 54.5t20.5 36.5t-15 28.5t-43 10.5q-30 0 -55.5 -12t-52.5 -43l-66 48q31 46 77.5 71t102.5 25q66 0 109.5 -29t43.5 -86q0 -43 -29.5 -74.5
t-86.5 -67.5l-48 -32h171v-85h-324v73z" />
    <glyph glyph-name="uni2153" unicode="&#x2153;" horiz-adv-x="1096" 
d="M205 339v178l-119 -43l-35 79l160 65h98v-279h93v-89h-319v89h122zM755 681l87 -56l-477 -692l-87 56zM693 83l60 46q27 -30 56 -40t64 -10q33 0 52 9.5t19 25.5q0 35 -57 35h-71v73h69q27 0 39 8.5t12 25.5q0 16 -18 25t-49 9t-57 -10.5t-53 -39.5l-60 46q60 88 177 88
q71 0 112.5 -29t41.5 -80q0 -49 -52 -78q28 -15 44 -37t16 -49q0 -49 -44 -78.5t-116 -29.5q-123 0 -185 90z" />
    <glyph glyph-name="uni2154" unicode="&#x2154;" horiz-adv-x="1096" 
d="M183 405q53 36 73.5 54.5t20.5 36.5t-15 28.5t-43 10.5q-30 0 -55.5 -12t-52.5 -43l-66 48q31 46 77.5 71t102.5 25q66 0 109.5 -29t43.5 -86q0 -43 -29.5 -74.5t-86.5 -67.5l-48 -32h171v-85h-324v73zM751 681l87 -56l-477 -692l-87 56zM694 83l60 46q27 -30 56 -40
t64 -10q33 0 52 9.5t19 25.5q0 35 -57 35h-71v73h69q27 0 39 8.5t12 25.5q0 16 -18 25t-49 9t-57 -10.5t-53 -39.5l-60 46q60 88 177 88q71 0 112.5 -29t41.5 -80q0 -49 -52 -78q28 -15 44 -37t16 -49q0 -49 -44 -78.5t-116 -29.5q-123 0 -185 90z" />
    <glyph glyph-name="onequarter" unicode="&#xbc;" horiz-adv-x="1087" 
d="M205 339v178l-119 -43l-35 79l160 65h98v-279h93v-89h-319v89h122zM765 681l87 -56l-477 -692l-87 56zM690 80v88l187 214l74 -45l-161 -179h116v73h83v-73h54v-78h-54v-80h-89v80h-210z" />
    <glyph glyph-name="threequarters" unicode="&#xbe;" horiz-adv-x="1088" 
d="M43 333l60 46q27 -30 56 -40t64 -10q33 0 52 9.5t19 25.5q0 35 -57 35h-71v73h69q27 0 39 8.5t12 25.5q0 16 -18 25t-49 9t-57 -10.5t-53 -39.5l-60 46q60 88 177 88q71 0 112.5 -29t41.5 -80q0 -49 -52 -78q28 -15 44 -37t16 -49q0 -49 -44 -78.5t-116 -29.5
q-123 0 -185 90zM765 681l87 -56l-477 -692l-87 56zM691 80v88l187 214l74 -45l-161 -179h116v73h83v-73h54v-78h-54v-80h-89v80h-210z" />
    <glyph glyph-name="uni2155" unicode="&#x2155;" horiz-adv-x="1095" 
d="M205 339v178l-119 -43l-35 79l160 65h98v-279h93v-89h-319v89h122zM750 681l87 -56l-477 -692l-87 56zM771.5 11q-43.5 18 -74.5 61l58 49q23 -23 49.5 -32.5t60.5 -9.5q29 0 47 11t18 30q0 24 -19.5 33.5t-69.5 9.5h-115l29 205h246v-80h-175l-8 -55h56
q76 0 115.5 -30.5t39.5 -88.5q0 -55 -45.5 -88t-109.5 -33q-59 0 -102.5 18z" />
    <glyph glyph-name="uni2156" unicode="&#x2156;" horiz-adv-x="1096" 
d="M183 405q53 36 73.5 54.5t20.5 36.5t-15 28.5t-43 10.5q-30 0 -55.5 -12t-52.5 -43l-66 48q31 46 77.5 71t102.5 25q66 0 109.5 -29t43.5 -86q0 -43 -29.5 -74.5t-86.5 -67.5l-48 -32h171v-85h-324v73zM755 681l87 -56l-477 -692l-87 56zM772.5 11q-43.5 18 -74.5 61
l58 49q23 -23 49.5 -32.5t60.5 -9.5q29 0 47 11t18 30q0 24 -19.5 33.5t-69.5 9.5h-115l29 205h246v-80h-175l-8 -55h56q76 0 115.5 -30.5t39.5 -88.5q0 -55 -45.5 -88t-109.5 -33q-59 0 -102.5 18z" />
    <glyph glyph-name="uni2157" unicode="&#x2157;" horiz-adv-x="1096" 
d="M43 333l60 46q27 -30 56 -40t64 -10q33 0 52 9.5t19 25.5q0 35 -57 35h-71v73h69q27 0 39 8.5t12 25.5q0 16 -18 25t-49 9t-57 -10.5t-53 -39.5l-60 46q60 88 177 88q71 0 112.5 -29t41.5 -80q0 -49 -52 -78q28 -15 44 -37t16 -49q0 -49 -44 -78.5t-116 -29.5
q-123 0 -185 90zM742 681l87 -56l-477 -692l-87 56zM772.5 11q-43.5 18 -74.5 61l58 49q23 -23 49.5 -32.5t60.5 -9.5q29 0 47 11t18 30q0 24 -19.5 33.5t-69.5 9.5h-115l29 205h246v-80h-175l-8 -55h56q76 0 115.5 -30.5t39.5 -88.5q0 -55 -45.5 -88t-109.5 -33
q-59 0 -102.5 18z" />
    <glyph glyph-name="uni2158" unicode="&#x2158;" horiz-adv-x="1095" 
d="M48 330v88l187 214l74 -45l-161 -179h116v73h83v-73h54v-78h-54v-80h-89v80h-210zM741 681l87 -56l-477 -692l-87 56zM771.5 11q-43.5 18 -74.5 61l58 49q23 -23 49.5 -32.5t60.5 -9.5q29 0 47 11t18 30q0 24 -19.5 33.5t-69.5 9.5h-115l29 205h246v-80h-175l-8 -55h56
q76 0 115.5 -30.5t39.5 -88.5q0 -55 -45.5 -88t-109.5 -33q-59 0 -102.5 18z" />
    <glyph glyph-name="uni2159" unicode="&#x2159;" horiz-adv-x="1078" 
d="M205 339v178l-119 -43l-35 79l160 65h98v-279h93v-89h-319v89h122zM753 681l87 -56l-477 -692l-87 56zM733 31q-47 38 -47 104q0 56 25 96.5t86 82.5l98 72l62 -53l-155 -108l1 -2q38 19 91 19q55 0 94.5 -30.5t39.5 -86.5q0 -60 -49 -96t-120 -36q-79 0 -126 38zM915 91
q20 12 20 34q0 45 -75 45q-37 0 -58 -11.5t-21 -33.5t20 -34t57 -12t57 12z" />
    <glyph glyph-name="uni215A" unicode="&#x215a;" horiz-adv-x="1078" 
d="M121.5 261q-43.5 18 -74.5 61l58 49q23 -23 49.5 -32.5t60.5 -9.5q29 0 47 11t18 30q0 24 -19.5 33.5t-69.5 9.5h-115l29 205h246v-80h-175l-8 -55h56q76 0 115.5 -30.5t39.5 -88.5q0 -55 -45.5 -88t-109.5 -33q-59 0 -102.5 18zM745 681l87 -56l-477 -692l-87 56z
M733 31q-47 38 -47 104q0 56 25 96.5t86 82.5l98 72l62 -53l-155 -108l1 -2q38 19 91 19q55 0 94.5 -30.5t39.5 -86.5q0 -60 -49 -96t-120 -36q-79 0 -126 38zM915 91q20 12 20 34q0 45 -75 45q-37 0 -58 -11.5t-21 -33.5t20 -34t57 -12t57 12z" />
    <glyph glyph-name="uni2150" unicode="&#x2150;" horiz-adv-x="1095" 
d="M205 339v178l-119 -43l-35 79l160 65h98v-279h93v-89h-319v89h122zM741 681l87 -56l-477 -692l-87 56zM915 276h-207v92h329v-71l-174 -305l-99 33z" />
    <glyph glyph-name="two_fraction_seven" horiz-adv-x="1096" 
d="M183 405q53 36 73.5 54.5t20.5 36.5t-15 28.5t-43 10.5q-30 0 -55.5 -12t-52.5 -43l-66 48q31 46 77.5 71t102.5 25q66 0 109.5 -29t43.5 -86q0 -43 -29.5 -74.5t-86.5 -67.5l-48 -32h171v-85h-324v73zM741 681l87 -56l-477 -692l-87 56zM916 276h-207v92h329v-71
l-174 -305l-99 33z" />
    <glyph glyph-name="three_fraction_seven" horiz-adv-x="1096" 
d="M43 333l60 46q27 -30 56 -40t64 -10q33 0 52 9.5t19 25.5q0 35 -57 35h-71v73h69q27 0 39 8.5t12 25.5q0 16 -18 25t-49 9t-57 -10.5t-53 -39.5l-60 46q60 88 177 88q71 0 112.5 -29t41.5 -80q0 -49 -52 -78q28 -15 44 -37t16 -49q0 -49 -44 -78.5t-116 -29.5
q-123 0 -185 90zM742 681l87 -56l-477 -692l-87 56zM916 276h-207v92h329v-71l-174 -305l-99 33z" />
    <glyph glyph-name="four_fraction_seven" horiz-adv-x="1095" 
d="M48 330v88l187 214l74 -45l-161 -179h116v73h83v-73h54v-78h-54v-80h-89v80h-210zM741 681l87 -56l-477 -692l-87 56zM915 276h-207v92h329v-71l-174 -305l-99 33z" />
    <glyph glyph-name="five_fraction_seven" horiz-adv-x="1096" 
d="M121.5 261q-43.5 18 -74.5 61l58 49q23 -23 49.5 -32.5t60.5 -9.5q29 0 47 11t18 30q0 24 -19.5 33.5t-69.5 9.5h-115l29 205h246v-80h-175l-8 -55h56q76 0 115.5 -30.5t39.5 -88.5q0 -55 -45.5 -88t-109.5 -33q-59 0 -102.5 18zM711 681l87 -56l-477 -692l-87 56z
M916 276h-207v92h329v-71l-174 -305l-99 33z" />
    <glyph glyph-name="six_fraction_seven" horiz-adv-x="1096" 
d="M100 281q-47 38 -47 104q0 56 25 96.5t86 82.5l98 72l62 -53l-155 -108l1 -2q38 19 91 19q55 0 94.5 -30.5t39.5 -86.5q0 -60 -49 -96t-120 -36q-79 0 -126 38zM282 341q20 12 20 34q0 45 -75 45q-37 0 -58 -11.5t-21 -33.5t20 -34t57 -12t57 12zM741 681l87 -56
l-477 -692l-87 56zM916 276h-207v92h329v-71l-174 -305l-99 33z" />
    <glyph glyph-name="oneeighth" unicode="&#x215b;" horiz-adv-x="1097" 
d="M205 339v178l-119 -43l-35 79l160 65h98v-279h93v-89h-319v89h122zM749 681l87 -56l-477 -692l-87 56zM748.5 24.5q-43.5 31.5 -43.5 82.5q0 27 16 48.5t43 36.5q-50 30 -50 77q0 46 43.5 76t114.5 30q74 0 116.5 -28.5t42.5 -75.5q0 -23 -13.5 -43t-36.5 -34
q29 -15 45 -37t16 -50q0 -50 -44.5 -82t-123.5 -32q-82 0 -125.5 31.5zM918.5 237.5q16.5 10.5 16.5 27.5t-16.5 27t-46.5 10q-29 0 -45.5 -10t-16.5 -27t16.5 -27.5t45.5 -10.5q30 0 46.5 10.5zM926.5 80.5q17.5 10.5 17.5 29.5t-18 31t-52 12q-35 0 -53 -11.5t-18 -31.5
q0 -19 18 -29.5t53 -10.5t52.5 10.5z" />
    <glyph glyph-name="threeeighths" unicode="&#x215c;" horiz-adv-x="1098" 
d="M43 333l60 46q27 -30 56 -40t64 -10q33 0 52 9.5t19 25.5q0 35 -57 35h-71v73h69q27 0 39 8.5t12 25.5q0 16 -18 25t-49 9t-57 -10.5t-53 -39.5l-60 46q60 88 177 88q71 0 112.5 -29t41.5 -80q0 -49 -52 -78q28 -15 44 -37t16 -49q0 -49 -44 -78.5t-116 -29.5
q-123 0 -185 90zM742 681l87 -56l-477 -692l-87 56zM749.5 24.5q-43.5 31.5 -43.5 82.5q0 27 16 48.5t43 36.5q-50 30 -50 77q0 46 43.5 76t114.5 30q74 0 116.5 -28.5t42.5 -75.5q0 -23 -13.5 -43t-36.5 -34q29 -15 45 -37t16 -50q0 -50 -44.5 -82t-123.5 -32
q-82 0 -125.5 31.5zM919.5 237.5q16.5 10.5 16.5 27.5t-16.5 27t-46.5 10q-29 0 -45.5 -10t-16.5 -27t16.5 -27.5t45.5 -10.5q30 0 46.5 10.5zM927.5 80.5q17.5 10.5 17.5 29.5t-18 31t-52 12q-35 0 -53 -11.5t-18 -31.5q0 -19 18 -29.5t53 -10.5t52.5 10.5z" />
    <glyph glyph-name="fiveeighths" unicode="&#x215d;" horiz-adv-x="1098" 
d="M121.5 261q-43.5 18 -74.5 61l58 49q23 -23 49.5 -32.5t60.5 -9.5q29 0 47 11t18 30q0 24 -19.5 33.5t-69.5 9.5h-115l29 205h246v-80h-175l-8 -55h56q76 0 115.5 -30.5t39.5 -88.5q0 -55 -45.5 -88t-109.5 -33q-59 0 -102.5 18zM741 681l87 -56l-477 -692l-87 56z
M749.5 24.5q-43.5 31.5 -43.5 82.5q0 27 16 48.5t43 36.5q-50 30 -50 77q0 46 43.5 76t114.5 30q74 0 116.5 -28.5t42.5 -75.5q0 -23 -13.5 -43t-36.5 -34q29 -15 45 -37t16 -50q0 -50 -44.5 -82t-123.5 -32q-82 0 -125.5 31.5zM919.5 237.5q16.5 10.5 16.5 27.5t-16.5 27
t-46.5 10q-29 0 -45.5 -10t-16.5 -27t16.5 -27.5t45.5 -10.5q30 0 46.5 10.5zM927.5 80.5q17.5 10.5 17.5 29.5t-18 31t-52 12q-35 0 -53 -11.5t-18 -31.5q0 -19 18 -29.5t53 -10.5t52.5 10.5z" />
    <glyph glyph-name="seveneighths" unicode="&#x215e;" horiz-adv-x="1089" 
d="M265 526h-207v92h329v-71l-174 -305l-99 33zM697 681l87 -56l-477 -692l-87 56zM740.5 24.5q-43.5 31.5 -43.5 82.5q0 27 16 48.5t43 36.5q-50 30 -50 77q0 46 43.5 76t114.5 30q74 0 116.5 -28.5t42.5 -75.5q0 -23 -13.5 -43t-36.5 -34q29 -15 45 -37t16 -50
q0 -50 -44.5 -82t-123.5 -32q-82 0 -125.5 31.5zM910.5 237.5q16.5 10.5 16.5 27.5t-16.5 27t-46.5 10q-29 0 -45.5 -10t-16.5 -27t16.5 -27.5t45.5 -10.5q30 0 46.5 10.5zM918.5 80.5q17.5 10.5 17.5 29.5t-18 31t-52 12q-35 0 -53 -11.5t-18 -31.5q0 -19 18 -29.5
t53 -10.5t52.5 10.5z" />
    <glyph glyph-name="uni2151" unicode="&#x2151;" horiz-adv-x="1098" 
d="M205 339v178l-119 -43l-35 79l160 65h98v-279h93v-89h-319v89h122zM759 681l87 -56l-477 -692l-87 56zM923 138l-1 2q-35 -15 -87 -15q-55 0 -94 30.5t-39 86.5q0 60 49 96t120 36q78 0 125 -38t47 -104q0 -55 -25 -96t-84 -82l-99 -73l-63 53zM928 208.5
q21 11.5 21 33.5t-19.5 34t-57.5 12q-37 0 -57.5 -12t-20.5 -34t19 -33.5t56 -11.5q38 0 59 11.5z" />
    <glyph glyph-name="two_fraction_nine" horiz-adv-x="1099" 
d="M183 405q53 36 73.5 54.5t20.5 36.5t-15 28.5t-43 10.5q-30 0 -55.5 -12t-52.5 -43l-66 48q31 46 77.5 71t102.5 25q66 0 109.5 -29t43.5 -86q0 -43 -29.5 -74.5t-86.5 -67.5l-48 -32h171v-85h-324v73zM741 681l87 -56l-477 -692l-87 56zM924 138l-1 2q-35 -15 -87 -15
q-55 0 -94 30.5t-39 86.5q0 60 49 96t120 36q78 0 125 -38t47 -104q0 -55 -25 -96t-84 -82l-99 -73l-63 53zM929 208.5q21 11.5 21 33.5t-19.5 34t-57.5 12q-37 0 -57.5 -12t-20.5 -34t19 -33.5t56 -11.5q38 0 59 11.5z" />
    <glyph glyph-name="four_fraction_nine" horiz-adv-x="1098" 
d="M48 330v88l187 214l74 -45l-161 -179h116v73h83v-73h54v-78h-54v-80h-89v80h-210zM741 681l87 -56l-477 -692l-87 56zM923 138l-1 2q-35 -15 -87 -15q-55 0 -94 30.5t-39 86.5q0 60 49 96t120 36q78 0 125 -38t47 -104q0 -55 -25 -96t-84 -82l-99 -73l-63 53zM928 208.5
q21 11.5 21 33.5t-19.5 34t-57.5 12q-37 0 -57.5 -12t-20.5 -34t19 -33.5t56 -11.5q38 0 59 11.5z" />
    <glyph glyph-name="five_fraction_nine" horiz-adv-x="1099" 
d="M121.5 261q-43.5 18 -74.5 61l58 49q23 -23 49.5 -32.5t60.5 -9.5q29 0 47 11t18 30q0 24 -19.5 33.5t-69.5 9.5h-115l29 205h246v-80h-175l-8 -55h56q76 0 115.5 -30.5t39.5 -88.5q0 -55 -45.5 -88t-109.5 -33q-59 0 -102.5 18zM741 681l87 -56l-477 -692l-87 56z
M924 138l-1 2q-35 -15 -87 -15q-55 0 -94 30.5t-39 86.5q0 60 49 96t120 36q78 0 125 -38t47 -104q0 -55 -25 -96t-84 -82l-99 -73l-63 53zM929 208.5q21 11.5 21 33.5t-19.5 34t-57.5 12q-37 0 -57.5 -12t-20.5 -34t19 -33.5t56 -11.5q38 0 59 11.5z" />
    <glyph glyph-name="seven_fraction_nine" horiz-adv-x="1090" 
d="M265 526h-207v92h329v-71l-174 -305l-99 33zM689 681l87 -56l-477 -692l-87 56zM915 138l-1 2q-35 -15 -87 -15q-55 0 -94 30.5t-39 86.5q0 60 49 96t120 36q78 0 125 -38t47 -104q0 -55 -25 -96t-84 -82l-99 -73l-63 53zM920 208.5q21 11.5 21 33.5t-19.5 34t-57.5 12
q-37 0 -57.5 -12t-20.5 -34t19 -33.5t56 -11.5q38 0 59 11.5z" />
    <glyph glyph-name="eight_fraction_nine" horiz-adv-x="1100" 
d="M98.5 274.5q-43.5 31.5 -43.5 82.5q0 27 16 48.5t43 36.5q-50 30 -50 77q0 46 43.5 76t114.5 30q74 0 116.5 -28.5t42.5 -75.5q0 -23 -13.5 -43t-36.5 -34q29 -15 45 -37t16 -50q0 -50 -44.5 -82t-123.5 -32q-82 0 -125.5 31.5zM268.5 487.5q16.5 10.5 16.5 27.5
t-16.5 27t-46.5 10q-29 0 -45.5 -10t-16.5 -27t16.5 -27.5t45.5 -10.5q30 0 46.5 10.5zM276.5 330.5q17.5 10.5 17.5 29.5t-18 31t-52 12q-35 0 -53 -11.5t-18 -31.5q0 -19 18 -29.5t53 -10.5t52.5 10.5zM743 681l87 -56l-477 -692l-87 56zM925 138l-1 2q-35 -15 -87 -15
q-55 0 -94 30.5t-39 86.5q0 60 49 96t120 36q78 0 125 -38t47 -104q0 -55 -25 -96t-84 -82l-99 -73l-63 53zM930 208.5q21 11.5 21 33.5t-19.5 34t-57.5 12q-37 0 -57.5 -12t-20.5 -34t19 -33.5t56 -11.5q38 0 59 11.5z" />
    <glyph glyph-name="period" unicode="." horiz-adv-x="265" 
d="M75 11q-22 22 -22 55t22 55t58 22t57.5 -21.5t21.5 -55.5q0 -33 -22 -55t-58 -22q-35 0 -57 22z" />
    <glyph glyph-name="comma" unicode="," horiz-adv-x="265" 
d="M62.5 4.5q24.5 52.5 24.5 124.5h125q0 -89 -44.5 -169t-116.5 -112l-62 77q49 27 73.5 79.5z" />
    <glyph glyph-name="colon" unicode=":" horiz-adv-x="265" 
d="M75 349q-22 22 -22 55t22 55t58 22t57.5 -21.5t21.5 -55.5q0 -33 -22 -55t-58 -22q-35 0 -57 22zM75 11q-22 22 -22 55t22 55t58 22t57.5 -21.5t21.5 -55.5q0 -33 -22 -55t-58 -22q-35 0 -57 22z" />
    <glyph glyph-name="semicolon" unicode=";" horiz-adv-x="265" 
d="M88 349q-22 22 -22 55t22 55t58 22t57.5 -21.5t21.5 -55.5q0 -33 -22 -55t-58 -22q-35 0 -57 22zM62.5 4.5q24.5 52.5 24.5 124.5h125q0 -89 -44.5 -169t-116.5 -112l-62 77q49 27 73.5 79.5z" />
    <glyph glyph-name="ellipsis" unicode="&#x2026;" horiz-adv-x="758" 
d="M568 11q-22 22 -22 55t22 55t58 22t57.5 -21.5t21.5 -55.5q0 -33 -22 -55t-58 -22q-35 0 -57 22zM322 11q-22 22 -22 55t22 55t58 22t57.5 -21.5t21.5 -55.5q0 -33 -22 -55t-58 -22q-35 0 -57 22zM75 11q-22 22 -22 55t22 55t58 22t57.5 -21.5t21.5 -55.5q0 -33 -22 -55
t-58 -22q-35 0 -57 22z" />
    <glyph glyph-name="exclam" unicode="!" horiz-adv-x="294" 
d="M220 624l-11 -422h-125l-11 422h147zM89 11q-22 22 -22 55t22.5 55t57.5 22q36 0 57.5 -21.5t21.5 -55.5q0 -33 -22 -55t-57 -22q-36 0 -58 22z" />
    <glyph glyph-name="exclamdown" unicode="&#xa1;" horiz-adv-x="294" 
d="M204 464q22 -22 22 -55t-22 -55t-57 -22t-57.5 22t-22.5 55t22 55t58 22q35 0 57 -22zM220 -149h-147l11 422h125z" />
    <glyph glyph-name="question" unicode="?" horiz-adv-x="505" 
d="M202 304.5q22 31.5 72 67.5q27 19 41 36.5t14 40.5q0 29 -22.5 45t-63.5 16q-40 0 -76.5 -18.5t-59.5 -50.5l-91 73q37 58 100 89t135 31q103 0 161.5 -47t58.5 -123q0 -45 -22.5 -77.5t-61.5 -62.5t-60.5 -54.5t-21.5 -52.5v-15h-125v22q0 49 22 80.5zM187 11
q-22 22 -22 55t22 55t58 22q35 0 57 -22t22 -55t-22 -55t-58 -22q-35 0 -57 22z" />
    <glyph glyph-name="questiondown" unicode="&#xbf;" horiz-adv-x="505" 
d="M332.5 459.5q21.5 -21.5 21.5 -55.5q0 -33 -22 -55t-58 -22q-35 0 -57 22t-22 55t22 55t58 22t57.5 -21.5zM317 165.5q-22 -31.5 -72 -67.5q-27 -20 -41 -37t-14 -40q0 -29 22.5 -45t63.5 -16t77 18.5t59 50.5l91 -73q-37 -58 -99.5 -89t-135.5 -31q-103 0 -161.5 47
t-58.5 123q0 46 22.5 78t62.5 62q39 30 60 54.5t21 52.5v15h125v-22q0 -49 -22 -80.5z" />
    <glyph glyph-name="periodcentered" unicode="&#xb7;" horiz-adv-x="265" 
d="M75 260q-22 22 -22 55t22 55t58 22t57.5 -21.5t21.5 -55.5q0 -33 -22 -55t-58 -22q-35 0 -57 22z" />
    <glyph glyph-name="bullet" unicode="&#x2022;" horiz-adv-x="407" 
d="M115.5 235.5q-32.5 34.5 -32.5 86.5q0 31 15 58.5t42.5 44.5t63.5 17q55 0 87 -34.5t32 -85.5q0 -49 -33 -85t-86 -36q-56 0 -88.5 34.5z" />
    <glyph glyph-name="asterisk" unicode="*" horiz-adv-x="443" 
d="M85 321l-50 87l101 50l-101 49l50 87l95 -63l-8 113h100l-8 -113l94 63l50 -87l-101 -49l101 -50l-50 -87l-94 64l8 -113h-100l8 113z" />
    <glyph glyph-name="numbersign" unicode="#" 
d="M28 135v105h87l17 132h-104v105h117l15 127h115l-15 -127h99l15 127h115l-15 -127h75v-105h-88l-17 -132h105v-105h-118l-15 -125h-115l15 125h-99l-15 -125h-115l15 125h-74zM346 372h-99l-17 -132h99z" />
    <glyph glyph-name="slash" unicode="/" horiz-adv-x="513" 
d="M384 731l121 -58l-378 -829l-120 58z" />
    <glyph glyph-name="backslash" unicode="\" horiz-adv-x="513" 
d="M129 731l378 -829l-121 -58l-378 829z" />
    <glyph glyph-name="exclamdown.case" horiz-adv-x="294" 
d="M204 613q22 -22 22 -55t-22 -55t-57 -22t-57.5 22t-22.5 55t22 55t58 22q35 0 57 -22zM220 0h-147l11 422h125z" />
    <glyph glyph-name="questiondown.case" horiz-adv-x="505" 
d="M318.5 607.5q21.5 -21.5 21.5 -55.5q0 -33 -22 -55t-58 -22q-35 0 -57 22t-22 55t22 55t58 22t57.5 -21.5zM303 313.5q-22 -31.5 -72 -67.5q-27 -20 -41 -37t-14 -40q0 -29 22.5 -45t63.5 -16t77 18.5t59 50.5l91 -73q-37 -58 -99.5 -89t-135.5 -31q-103 0 -161.5 47
t-58.5 123q0 46 22.5 78t62.5 62q39 30 60 54.5t21 52.5v15h125v-22q0 -49 -22 -80.5z" />
    <glyph glyph-name="bullet.case" horiz-adv-x="407" 
d="M115.5 235.5q-32.5 34.5 -32.5 86.5q0 31 15 58.5t42.5 44.5t63.5 17q55 0 87 -34.5t32 -85.5q0 -49 -33 -85t-86 -36q-56 0 -88.5 34.5z" />
    <glyph glyph-name="slash.case" horiz-adv-x="513" 
d="M384 751l121 -58l-378 -829l-120 58z" />
    <glyph glyph-name="backslash.case" horiz-adv-x="513" 
d="M129 751l378 -829l-121 -58l-378 829z" />
    <glyph glyph-name="parenleft" unicode="(" horiz-adv-x="367" 
d="M114.5 13q-51.5 118 -51.5 247t51.5 247t139.5 194l99 -72q-74 -83 -111.5 -166t-37.5 -203t37.5 -203t111.5 -166l-99 -72q-88 76 -139.5 194z" />
    <glyph glyph-name="parenright" unicode=")" horiz-adv-x="367" 
d="M126.5 57q37.5 83 37.5 203t-37.5 203t-112.5 166l99 72q88 -77 140 -195t52 -246t-52 -246t-140 -195l-99 72q75 83 112.5 166z" />
    <glyph glyph-name="braceleft" unicode="{" horiz-adv-x="390" 
d="M185.5 -116q-64.5 54 -64.5 156v105q0 30 -18 47t-55 21v94q37 4 55 21t18 47v105q0 102 64.5 156t166.5 54l29 -111q-62 -2 -94.5 -31.5t-32.5 -85.5v-97q0 -37 -15 -63t-50 -42q35 -16 50 -42t15 -63v-97q0 -56 32.5 -86t94.5 -31l-29 -111q-102 0 -166.5 54z" />
    <glyph glyph-name="braceright" unicode="}" horiz-adv-x="392" 
d="M103.5 -28q32.5 30 32.5 86v97q0 37 15 63t50 42q-35 16 -50 42t-15 63v97q0 56 -32.5 85.5t-94.5 31.5l29 111q102 0 166.5 -54t64.5 -156v-105q0 -30 18 -47t55 -21v-94q-37 -4 -55 -21t-18 -47v-105q0 -102 -64.5 -156t-166.5 -54l-29 111q62 1 94.5 31z" />
    <glyph glyph-name="bracketleft" unicode="[" horiz-adv-x="418" 
d="M405 678v-122h-184v-592h184v-122h-321v836h321z" />
    <glyph glyph-name="bracketright" unicode="]" horiz-adv-x="418" 
d="M197 -36v592h-184v122h320v-836h-320v122h184z" />
    <glyph glyph-name="parenleft.case" horiz-adv-x="367" 
d="M114.5 65q-51.5 118 -51.5 247t51.5 247t139.5 194l99 -72q-74 -83 -111.5 -166t-37.5 -203t37.5 -203t111.5 -166l-99 -72q-88 76 -139.5 194z" />
    <glyph glyph-name="parenright.case" horiz-adv-x="367" 
d="M126.5 109q37.5 83 37.5 203t-37.5 203t-112.5 166l99 72q88 -77 140 -195t52 -246t-52 -246t-140 -195l-99 72q75 83 112.5 166z" />
    <glyph glyph-name="braceleft.case" horiz-adv-x="390" 
d="M185.5 -66q-64.5 54 -64.5 156v105q0 30 -18 47t-55 21v94q37 4 55 21t18 47v105q0 102 64.5 156t166.5 54l29 -111q-62 -2 -94.5 -31.5t-32.5 -85.5v-97q0 -37 -15 -63t-50 -42q35 -16 50 -42t15 -63v-97q0 -56 32.5 -86t94.5 -31l-29 -111q-102 0 -166.5 54z" />
    <glyph glyph-name="braceright.case" horiz-adv-x="392" 
d="M103.5 22q32.5 30 32.5 86v97q0 37 15 63t50 42q-35 16 -50 42t-15 63v97q0 56 -32.5 85.5t-94.5 31.5l29 111q102 0 166.5 -54t64.5 -156v-105q0 -30 18 -47t55 -21v-94q-37 -4 -55 -21t-18 -47v-105q0 -102 -64.5 -156t-166.5 -54l-29 111q62 1 94.5 31z" />
    <glyph glyph-name="bracketleft.case" horiz-adv-x="418" 
d="M405 730v-122h-184v-592h184v-122h-321v836h321z" />
    <glyph glyph-name="bracketright.case" horiz-adv-x="418" 
d="M197 16v592h-184v122h320v-836h-320v122h184z" />
    <glyph glyph-name="hyphen" unicode="-" horiz-adv-x="500" 
d="M436 328v-123h-372v123h372z" />
    <glyph glyph-name="uni00AD" unicode="&#xad;" horiz-adv-x="500" 
d="M436 328v-123h-372v123h372z" />
    <glyph glyph-name="endash" unicode="&#x2013;" horiz-adv-x="500" 
d="M500 328v-123h-500v123h500z" />
    <glyph glyph-name="emdash" unicode="&#x2014;" horiz-adv-x="1000" 
d="M1000 328v-123h-1000v123h1000z" />
    <glyph glyph-name="uni2010" unicode="&#x2010;" horiz-adv-x="500" 
d="M436 328v-123h-372v123h372z" />
    <glyph glyph-name="underscore" unicode="_" horiz-adv-x="500" 
d="M500 -60v-114h-500v114h500z" />
    <glyph glyph-name="hyphen.case" horiz-adv-x="500" 
d="M436 375v-123h-372v123h372z" />
    <glyph glyph-name="endash.case" horiz-adv-x="500" 
d="M500 375v-123h-500v123h500z" />
    <glyph glyph-name="emdash.case" horiz-adv-x="1000" 
d="M1000 375v-123h-1000v123h1000z" />
    <glyph glyph-name="quotesinglbase" unicode="&#x201a;" horiz-adv-x="256" 
d="M55 11q23 51 23 118h124q0 -85 -43 -163t-109 -111l-61 77q43 28 66 79z" />
    <glyph glyph-name="quotedblbase" unicode="&#x201e;" horiz-adv-x="463" 
d="M55 11q23 51 23 118h124q0 -85 -43 -163t-109 -111l-61 77q43 28 66 79zM261.5 10.5q22.5 50.5 22.5 118.5h125q0 -85 -43 -163t-109 -111l-61 77q43 28 65.5 78.5z" />
    <glyph glyph-name="quotedblleft" unicode="&#x201c;" horiz-adv-x="489" 
d="M86 538.5q43 78.5 109 111.5l61 -77q-43 -28 -65.5 -79t-22.5 -118h-125q0 84 43 162.5zM293 538.5q43 78.5 109 111.5l61 -77q-43 -28 -65.5 -79t-22.5 -118h-125q0 84 43 162.5z" />
    <glyph glyph-name="quotedblright" unicode="&#x201d;" horiz-adv-x="489" 
d="M92 506q23 51 23 118h124q0 -85 -43 -163t-109 -111l-61 77q43 28 66 79zM298.5 505.5q22.5 50.5 22.5 118.5h125q0 -85 -43 -163t-109 -111l-61 77q43 28 65.5 78.5z" />
    <glyph glyph-name="quoteleft" unicode="&#x2018;" horiz-adv-x="282" 
d="M86 538.5q43 78.5 109 111.5l61 -77q-43 -28 -65.5 -79t-22.5 -118h-125q0 84 43 162.5z" />
    <glyph glyph-name="quoteright" unicode="&#x2019;" horiz-adv-x="282" 
d="M92 506q23 51 23 118h124q0 -85 -43 -163t-109 -111l-61 77q43 28 66 79z" />
    <glyph glyph-name="guillemotleft" unicode="&#xab;" horiz-adv-x="537" 
d="M164 417h132l-123 -182l123 -182h-132l-122 182zM374 417h131l-123 -182l123 -182h-131l-122 182z" />
    <glyph glyph-name="guillemotright" unicode="&#xbb;" horiz-adv-x="537" 
d="M32 417h132l122 -182l-122 -182h-132l123 182zM242 417h131l122 -182l-122 -182h-131l123 182z" />
    <glyph glyph-name="guilsinglleft" unicode="&#x2039;" horiz-adv-x="335" 
d="M164 417h139l-123 -182l123 -182h-139l-122 182z" />
    <glyph glyph-name="guilsinglright" unicode="&#x203a;" horiz-adv-x="335" 
d="M32 417h139l122 -182l-122 -182h-139l123 182z" />
    <glyph glyph-name="quotedbl" unicode="&#x22;" horiz-adv-x="444" 
d="M194 624l-7 -263h-115l-7 263h129zM379 624l-7 -263h-115l-7 263h129z" />
    <glyph glyph-name="quotesingle" unicode="'" horiz-adv-x="259" 
d="M194 624l-7 -263h-115l-7 263h129z" />
    <glyph glyph-name="guillemotleft.case" horiz-adv-x="537" 
d="M164 489h132l-123 -182l123 -182h-132l-122 182zM374 489h131l-123 -182l123 -182h-131l-122 182z" />
    <glyph glyph-name="guillemotright.case" horiz-adv-x="537" 
d="M32 489h132l122 -182l-122 -182h-132l123 182zM242 489h131l122 -182l-122 -182h-131l123 182z" />
    <glyph glyph-name="guilsinglleft.case" horiz-adv-x="335" 
d="M164 489h139l-123 -182l123 -182h-139l-122 182z" />
    <glyph glyph-name="guilsinglright.case" horiz-adv-x="335" 
d="M32 489h139l122 -182l-122 -182h-139l123 182z" />
    <glyph glyph-name="uni2001" unicode="&#x2001;" horiz-adv-x="1000" 
 />
    <glyph glyph-name="uni2003" unicode="&#x2003;" horiz-adv-x="1000" 
 />
    <glyph glyph-name="uni2000" unicode="&#x2000;" horiz-adv-x="500" 
 />
    <glyph glyph-name="uni2002" unicode="&#x2002;" horiz-adv-x="500" 
 />
    <glyph glyph-name="uni2007" unicode="&#x2007;" horiz-adv-x="610" 
 />
    <glyph glyph-name="uni2005" unicode="&#x2005;" horiz-adv-x="250" 
 />
    <glyph glyph-name="uni200A" unicode="&#x200a;" horiz-adv-x="125" 
 />
    <glyph glyph-name="uni2008" unicode="&#x2008;" horiz-adv-x="265" 
 />
    <glyph glyph-name="uni2006" unicode="&#x2006;" horiz-adv-x="166" 
 />
    <glyph glyph-name="uni00A0" unicode="&#xa0;" horiz-adv-x="232" 
 />
    <glyph glyph-name="uni2009" unicode="&#x2009;" horiz-adv-x="150" 
 />
    <glyph glyph-name="uni2004" unicode="&#x2004;" horiz-adv-x="335" 
 />
    <glyph glyph-name="uni200B" unicode="&#x200b;" horiz-adv-x="0" 
 />
    <glyph glyph-name="cent" unicode="&#xa2;" 
d="M123 169.5q-45 59.5 -45 143.5q0 80 46.5 139.5t123.5 78.5v93h119v-91q88 -16 135 -99l-80 -61q-20 28 -42.5 40.5t-58.5 12.5q-53 0 -82.5 -32.5t-29.5 -80.5q0 -49 30 -82t84 -33q35 0 59.5 15t46.5 43l81 -60q-49 -87 -143 -105v-91h-119v93q-80 17 -125 76.5z" />
    <glyph glyph-name="currency" unicode="&#xa4;" 
d="M106 212q-24 42 -24 94t25 97l-76 77l86 87l78 -78q43 23 93 23q52 0 96 -24l79 79l86 -87l-78 -78q25 -45 25 -96q0 -49 -24 -92l78 -78l-86 -86l-78 76q-44 -26 -98 -26q-51 0 -96 25l-76 -75l-86 86zM360 234q28 28 28 72q0 45 -28 73t-73 28q-43 0 -70.5 -28
t-27.5 -73q0 -44 27.5 -72t70.5 -28q45 0 73 28z" />
    <glyph glyph-name="dollar" unicode="$" 
d="M119 50.5q-53 28.5 -91 76.5l71 80q83 -83 200 -83q99 0 99 57q0 30 -26 46.5t-92 28.5q-110 19 -164 59.5t-54 120.5q0 66 47.5 111t125.5 57v97h120v-98q101 -15 170 -96l-70 -78q-40 36 -77 50t-84 14q-101 0 -101 -54q0 -21 12.5 -33t36.5 -19.5t73 -17.5
q107 -20 161.5 -62t54.5 -125q0 -73 -46.5 -116t-129.5 -54v-102h-120v103q-63 9 -116 37.5z" />
    <glyph glyph-name="Euro" unicode="&#x20ac;" 
d="M176 44.5q-66 55.5 -90 153.5h-67v79h55q-1 10 -1 30q0 19 1 28h-55v79h69q25 93 89.5 151.5t161.5 58.5q149 0 216 -129l-90 -62q-26 39 -52.5 55t-70.5 16t-75 -24t-47 -66h171l-23 -79h-167q-1 -9 -1 -27q0 -11 2 -31h157l-24 -79h-113q17 -41 48 -64.5t72 -23.5
q45 0 73 18.5t55 58.5l90 -64q-36 -67 -93 -100.5t-130 -33.5q-95 0 -161 55.5z" />
    <glyph glyph-name="florin" unicode="&#x192;" horiz-adv-x="473" 
d="M255 469h188v-115h-188v-354q-2 -103 -53.5 -154t-140.5 -51q-47 0 -85.5 15.5t-65.5 44.5l58 84q35 -27 72 -27q35 0 56.5 23.5t21.5 69.5v349h-94v115h94v4q1 104 55 159t147 55q94 0 153 -62l-54 -80q-37 29 -76 29q-41 0 -64.5 -24t-23.5 -74v-7z" />
    <glyph glyph-name="uni20B9" unicode="&#x20b9;" 
d="M70 302h113q60 0 95 15.5t48 48.5h-256v88h258q-18 72 -122 72h-136v88h461v-88h-107q22 -29 28 -72h79v-88h-81q-25 -120 -189 -147l-10 -1l238 -218h-190l-229 209v93z" />
    <glyph glyph-name="sterling" unicode="&#xa3;" 
d="M20 237v117h70v17q0 71 27.5 128.5t83 91t135.5 33.5q71 0 121 -31.5t86 -92.5l-85 -68q-24 37 -50.5 53t-65.5 16q-58 0 -86 -34t-28 -95v-18h177v-117h-177v-119h303v-118h-441v237h-70z" />
    <glyph glyph-name="yen" unicode="&#xa5;" 
d="M91 90v84h131v60h-131v84h89l-165 296h147l130 -256l128 256h145l-165 -296h94v-84h-136v-60h136v-84h-136v-90h-136v90h-131z" />
    <glyph glyph-name="plus" unicode="+" 
d="M63 244v128h165v168h126v-168h164v-128h-164v-168h-126v168h-165z" />
    <glyph glyph-name="minus" unicode="&#x2212;" 
d="M504 372v-129h-428v129h428z" />
    <glyph glyph-name="multiply" unicode="&#xd7;" 
d="M193 308l-118 117l88 88l117 -118l117 118l88 -88l-117 -117l117 -118l-88 -88l-117 118l-117 -118l-88 88z" />
    <glyph glyph-name="divide" unicode="&#xf7;" 
d="M238 440.5q-20 19.5 -20 49.5t20 50t52 20t52 -20t20 -50t-20 -49.5t-53 -19.5q-31 0 -51 19.5zM504 370v-125h-428v125h428zM238 75q-20 20 -20 50t20 49.5t52 19.5t52 -19.5t20 -49.5t-20 -50t-53 -20q-31 0 -51 20z" />
    <glyph glyph-name="equal" unicode="=" 
d="M504 482v-123h-428v123h428zM504 256v-123h-428v123h428z" />
    <glyph glyph-name="notequal" unicode="&#x2260;" 
d="M148 135h-72v123h132l50 99h-182v123h242l60 121l92 -44l-38 -77h72v-123h-132l-50 -99h182v-123h-242l-60 -121l-92 44z" />
    <glyph glyph-name="greater" unicode="&#x3e;" 
d="M332 307l-240 119l55 118l337 -177v-119l-337 -178l-55 118z" />
    <glyph glyph-name="less" unicode="&#x3c;" 
d="M95 366l336 178l56 -118l-241 -119l241 -119l-56 -118l-336 177v119z" />
    <glyph glyph-name="greaterequal" unicode="&#x2265;" 
d="M333 372l-244 95l40 111l351 -151v-109l-351 -152l-40 111zM484 119v-119h-397v119h397z" />
    <glyph glyph-name="lessequal" unicode="&#x2264;" 
d="M92 427l351 151l40 -111l-244 -95l244 -95l-40 -111l-351 152v109zM485 119v-119h-397v119h397z" />
    <glyph glyph-name="plusminus" unicode="&#xb1;" 
d="M63 317v120h165v147h126v-147h164v-120h-164v-146h-126v146h-165zM504 121v-121h-428v121h428z" />
    <glyph glyph-name="approxequal" unicode="&#x2248;" 
d="M327.5 335q-25.5 10 -54.5 28q-39 25 -65 25q-30 0 -49.5 -12t-42.5 -45l-79 65q28 52 69 83t91 31q31 0 55 -9.5t51 -27.5q22 -14 37.5 -20.5t32.5 -6.5q30 0 49.5 12t42.5 44l78 -63q-28 -52 -68 -83t-90 -31q-32 0 -57.5 10zM327 111q-26 10 -53 28q-21 13 -35.5 19
t-30.5 6q-30 0 -49 -12t-43 -45l-79 65q28 51 69 82t91 31q30 0 54.5 -9.5t51.5 -25.5q23 -14 38 -21t32 -7q30 0 49.5 12t42.5 44l78 -64q-28 -52 -68.5 -82.5t-89.5 -30.5q-32 0 -58 10z" />
    <glyph glyph-name="asciitilde" unicode="~" 
d="M327.5 236q-25.5 10 -54.5 29q-39 25 -65 25q-30 0 -48.5 -12t-42.5 -45l-80 67q28 52 69 83t91 31q31 0 55.5 -10t51.5 -27q20 -13 36 -19.5t33 -6.5q30 0 49 11.5t42 44.5l79 -66q-28 -53 -68.5 -84t-89.5 -31q-32 0 -57.5 10z" />
    <glyph glyph-name="logicalnot" unicode="&#xac;" 
d="M70 320v128h429v-295h-126v167h-303z" />
    <glyph glyph-name="asciicircum" unicode="^" horiz-adv-x="588" 
d="M230 466q30 30 66 30q38 0 66 -30l163 -164l-84 -74l-147 134l-147 -134l-84 75z" />
    <glyph glyph-name="infinity" unicode="&#x221e;" horiz-adv-x="715" 
d="M117 160.5q-40 23.5 -62 64t-22 89.5t22 89.5t62 64t92 23.5q44 0 83 -20.5t65 -54.5q26 34 65 55t84 21q52 0 92 -23t62 -63.5t22 -90.5q0 -48 -22 -88.5t-62 -64.5t-91 -24q-45 0 -84.5 20t-64.5 54q-26 -34 -65 -54.5t-85 -20.5q-51 0 -91 23.5zM551 262.5
q20 19.5 20 52.5t-20 52.5t-53 19.5t-55.5 -20t-22.5 -52t22.5 -52t55.5 -20t53 19.5zM272.5 262q22.5 20 22.5 52t-22.5 52t-55.5 20t-52.5 -19t-19.5 -53q0 -33 19.5 -52.5t52.5 -19.5t55.5 20z" />
    <glyph glyph-name="emptyset" unicode="&#x2205;" 
d="M106 174q-42 58 -42 134q0 64 30.5 114t82.5 78.5t114 28.5q77 0 136 -40l62 61l50 -46l-63 -62q42 -56 42 -134q0 -64 -30 -114.5t-82 -79t-115 -28.5q-74 0 -135 40l-65 -63l-50 47zM291 429q-50 0 -85 -33t-35 -88q0 -32 13 -58l167 165q-26 14 -60 14zM377 219.5
q35 33.5 35 88.5q0 26 -13 58l-167 -165q28 -15 59 -15q51 0 86 33.5z" />
    <glyph glyph-name="integral" unicode="&#x222b;" horiz-adv-x="457" 
d="M58 -109.5q-33 14.5 -63 43.5l52 87q17 -14 30.5 -20t30.5 -6q28 0 45 17.5t17 48.5l-1 18l-37 345q-2 24 -2 36q0 51 21.5 90.5t60 61.5t86.5 22q46 0 79 -14.5t63 -43.5l-53 -87q-18 14 -31 20.5t-30 6.5q-27 0 -44.5 -18.5t-17.5 -48.5q0 -5 2 -19l36 -344
q2 -24 2 -35q0 -78 -47 -126.5t-120 -48.5q-46 0 -79 14.5z" />
    <glyph glyph-name="product" unicode="&#x220f;" horiz-adv-x="687" 
d="M607 624v-718h-140v590h-247v-590h-139v718h526z" />
    <glyph glyph-name="summation" unicode="&#x2211;" horiz-adv-x="551" 
d="M273 269l-238 240v115h477v-124h-292l219 -230l-231 -240h317v-124h-499v114z" />
    <glyph glyph-name="radical" unicode="&#x221a;" horiz-adv-x="625" 
d="M45 308v121h199l81 -290l194 563h141l-254 -702h-167l-100 308h-94z" />
    <glyph glyph-name="partialdiff" unicode="&#x2202;" 
d="M140.5 14q-49.5 25 -77.5 69.5t-28 98.5q0 65 29.5 114t82 76t117.5 27q39 0 67.5 -8.5t56.5 -24.5q-17 59 -76 113t-125 82l88 74q87 -38 143.5 -100t82 -132t25.5 -137q0 -129 -73.5 -203t-200.5 -74q-62 0 -111.5 25zM359 134.5q35 27.5 35 79.5q0 37 -29.5 58
t-78.5 21q-60 0 -93 -27t-33 -79q0 -35 28 -57.5t76 -22.5q60 0 95 27.5z" />
    <glyph glyph-name="uni00B5" unicode="&#xb5;" horiz-adv-x="610" 
d="M209 475v-272q0 -48 21 -73t61 -25q52 0 81 36.5t29 106.5v227h137v-475h-111q-11 26 -14 58q-24 -33 -58 -51t-73 -18q-42 0 -73 25v-208h-137v669h137z" />
    <glyph glyph-name="percent" unicode="%" horiz-adv-x="984" 
d="M89 296.5q-46 53.5 -46 138.5q0 53 21 96t61.5 68t97.5 25q87 0 133 -52.5t46 -136.5q0 -83 -47 -137.5t-132 -54.5q-88 0 -134 53.5zM298 434q0 94 -74 94q-76 0 -76 -94q0 -46 17.5 -70t57.5 -24q75 0 75 94zM628 46.5q-46 53.5 -46 138.5q0 53 21 96t61.5 68t97.5 25
q87 0 133 -52.5t46 -136.5q0 -83 -47 -137.5t-132 -54.5q-88 0 -134 53.5zM837 184q0 94 -74 94q-76 0 -76 -94q0 -46 17.5 -70t57.5 -24q75 0 75 94zM686 681l87 -56l-477 -692l-87 56z" />
    <glyph glyph-name="perthousand" unicode="&#x2030;" horiz-adv-x="1398" 
d="M89 296.5q-46 53.5 -46 138.5q0 53 21 96t61.5 68t97.5 25q87 0 133 -52.5t46 -136.5q0 -83 -47 -137.5t-132 -54.5q-88 0 -134 53.5zM298 434q0 94 -74 94q-76 0 -76 -94q0 -46 17.5 -70t57.5 -24q75 0 75 94zM628 46.5q-46 53.5 -46 138.5q0 53 21 96t61.5 68t97.5 25
q87 0 133 -52.5t46 -136.5q0 -83 -47 -137.5t-132 -54.5q-88 0 -134 53.5zM837 184q0 94 -74 94q-76 0 -76 -94q0 -46 17.5 -70t57.5 -24q75 0 75 94zM1041 46.5q-46 53.5 -46 138.5q0 53 21 96t61.5 68t97.5 25q87 0 133 -52.5t46 -136.5q0 -83 -47 -137.5t-132 -54.5
q-88 0 -134 53.5zM1250 184q0 94 -74 94q-76 0 -76 -94q0 -46 17.5 -70t57.5 -24q75 0 75 94zM686 681l87 -56l-477 -692l-87 56z" />
    <glyph glyph-name="lozenge" unicode="&#x25ca;" horiz-adv-x="585" 
d="M224 624h136l193 -312l-193 -312h-135l-193 312zM292 516l-125 -204l125 -204l126 204z" />
    <glyph glyph-name="at" unicode="@" horiz-adv-x="955" 
d="M138 -17.5q-85 105.5 -85 260.5q0 114 56 209.5t155.5 151.5t225.5 56t220.5 -45t144.5 -122t50 -171q0 -81 -39.5 -143t-103 -96t-132.5 -34h-39q-9 22 -12 51q-52 -60 -131 -60q-80 0 -128 56t-48 146q0 57 23 102.5t65 71t95 25.5q74 0 123 -55q4 31 10 46h95v-280
q49 15 79.5 59t30.5 114q0 114 -83.5 173.5t-219.5 59.5q-99 0 -172.5 -43t-112.5 -115t-39 -158q0 -116 65.5 -198.5t204.5 -117.5l-46 -91q-167 42 -252 147.5zM542.5 167q24.5 23 24.5 67v11q0 49 -24.5 71t-65.5 22q-36 0 -60.5 -24.5t-24.5 -70.5q0 -48 22.5 -73.5
t59.5 -25.5q44 0 68.5 23z" />
    <glyph glyph-name="ampersand" unicode="&#x26;" horiz-adv-x="641" 
d="M301 -11q-123 0 -193 51.5t-70 141.5q0 59 33.5 105t86.5 71q-16 24 -24 47.5t-8 53.5q0 48 26 88t71.5 63.5t100.5 23.5q65 0 112 -25t82 -75l-83 -68q-24 28 -44 38.5t-55 10.5q-36 0 -59.5 -18t-23.5 -49q0 -23 19 -49.5t71 -87.5l125 -143q18 26 18 56q0 32 -16 58
t-46 49l76 59q49 -30 74 -74.5t25 -95.5q0 -77 -58 -137l46 -54l-91 -68l-50 58q-68 -30 -145 -30zM369 108l-125 144q-16 20 -25 29q-26 -11 -40.5 -33t-14.5 -50q0 -49 40.5 -74.5t104.5 -25.5q30 0 60 10z" />
    <glyph glyph-name="paragraph" unicode="&#xb6;" horiz-adv-x="636" 
d="M234 3v235q-58 0 -102 25.5t-68 69.5t-24 97q0 54 24 98.5t68 70t102 25.5h122v-615q0 -61 -24.5 -114.5t-77.5 -85.5l-85 70q65 53 65 124zM553 624v-624h-123v624h123z" />
    <glyph glyph-name="section" unicode="&#xa7;" horiz-adv-x="569" 
d="M155.5 -169.5q-57.5 24.5 -104.5 79.5l74 83q40 -37 76.5 -51.5t82.5 -14.5q48 0 69.5 16.5t21.5 41.5q0 29 -24 42t-87 27q-109 25 -165 67t-56 119q0 68 55 115q-36 37 -36 101q0 50 28.5 91t78.5 64t113 23q72 0 127.5 -24t102.5 -79l-74 -83q-40 37 -74 51t-79 14
q-46 0 -68 -17t-22 -41q0 -28 23 -40t85 -26q109 -25 166 -67.5t57 -119.5q0 -70 -55 -115q38 -39 38 -103q0 -51 -28.5 -91.5t-79.5 -63.5t-115 -23q-73 0 -130.5 24.5zM394 190q0 34 -25.5 51t-93.5 32q-59 14 -80 23q-19 -15 -19 -45q0 -25 12 -39.5t38 -24.5t74 -20
q44 -10 73 -22q21 15 21 45z" />
    <glyph glyph-name="copyright" unicode="&#xa9;" horiz-adv-x="729" 
d="M194 30.5q-75 41.5 -117 115.5t-42 167q0 90 43.5 163.5t119 115.5t166.5 42q95 0 170 -41.5t117 -114.5t42 -165q0 -90 -43 -164.5t-118.5 -117t-167.5 -42.5q-95 0 -170 41.5zM491 99.5q57 32.5 89.5 88.5t32.5 125t-32 124.5t-89 87t-128 31.5q-69 0 -126 -32
t-89.5 -88t-32.5 -123q0 -70 32 -126t88.5 -88t127.5 -32q70 0 127 32.5zM245.5 187.5q-45.5 44.5 -45.5 123.5q0 44 21 83t60.5 63t92.5 24q44 0 80 -20t56 -59l-61 -44q-27 42 -74 42q-40 0 -61.5 -23.5t-21.5 -64.5q0 -40 21 -63.5t59 -23.5q25 0 46 11.5t34 30.5l59 -44
q-20 -40 -56 -60t-84 -20q-80 0 -125.5 44.5z" />
    <glyph glyph-name="registered" unicode="&#xae;" horiz-adv-x="546" 
d="M156 238.5q-52 29.5 -81.5 81.5t-29.5 117q0 64 30 115.5t82 81.5t116 30q65 0 117 -29t81.5 -81t29.5 -117q0 -64 -30 -116t-82 -82t-116 -30q-65 0 -117 29.5zM364 280.5q41 23.5 64 64.5t23 92t-23 92t-63.5 64t-91.5 23q-50 0 -90.5 -23.5t-64 -64.5t-23.5 -91
q0 -52 23 -93t63.5 -64t91.5 -23q50 0 91 23.5zM279 553q46 0 71.5 -21t25.5 -59q0 -42 -39 -63l59 -83h-71l-48 69q-6 -1 -19 -1h-14v-68h-60v226h95zM313 473q0 13 -8.5 18.5t-30.5 5.5h-30v-46h30q39 0 39 22z" />
    <glyph glyph-name="trademark" unicode="&#x2122;" horiz-adv-x="901" 
d="M26 538v86h343v-86h-124v-287h-95v287h-124zM533 624l102 -179l99 179h93l23 -373h-91l-14 235l-77 -152h-67l-77 147l-13 -230h-93l24 373h91z" />
    <glyph glyph-name="degree" unicode="&#xb0;" horiz-adv-x="389" 
d="M115 364q-36 21 -57.5 57t-21.5 80t21.5 80t57.5 57t79 21t79.5 -21t58 -57t21.5 -80t-21.5 -80t-58 -57t-79.5 -21t-79 21zM236.5 457q16.5 17 16.5 44q0 28 -16.5 44.5t-42.5 16.5q-25 0 -42 -16.5t-17 -43.5q0 -28 17 -45t42 -17q26 0 42.5 17z" />
    <glyph glyph-name="minute" unicode="&#x2032;" horiz-adv-x="259" 
d="M194 624l-7 -263h-115l-7 263h129z" />
    <glyph glyph-name="second" unicode="&#x2033;" horiz-adv-x="444" 
d="M194 624l-7 -263h-115l-7 263h129zM379 624l-7 -263h-115l-7 263h129z" />
    <glyph glyph-name="bar" unicode="|" horiz-adv-x="305" 
d="M223 706v-834h-140v834h140z" />
    <glyph glyph-name="brokenbar" unicode="&#xa6;" horiz-adv-x="305" 
d="M223 706v-305h-140v305h140zM223 177v-305h-140v305h140z" />
    <glyph glyph-name="dagger" unicode="&#x2020;" horiz-adv-x="531" 
d="M20 342v129h177v175h137v-175h177v-129h-177v-418h-137v418h-177z" />
    <glyph glyph-name="daggerdbl" unicode="&#x2021;" horiz-adv-x="541" 
d="M28 87v124h174v148h-174v124h174v163h137v-163h174v-124h-174v-148h174v-124h-174v-163h-137v163h-174z" />
    <glyph glyph-name="at.case" horiz-adv-x="955" 
d="M138 29.5q-85 105.5 -85 260.5q0 114 56 209.5t155.5 151.5t225.5 56t220.5 -45t144.5 -122t50 -171q0 -81 -39.5 -143t-103 -96t-132.5 -34h-39q-9 22 -12 51q-52 -60 -131 -60q-80 0 -128 56t-48 146q0 57 23 102.5t65 71t95 25.5q74 0 123 -55q4 31 10 46h95v-280
q49 15 79.5 59t30.5 114q0 114 -83.5 173.5t-219.5 59.5q-99 0 -172.5 -43t-112.5 -115t-39 -158q0 -116 65.5 -198.5t204.5 -117.5l-46 -91q-167 42 -252 147.5zM542.5 214q24.5 23 24.5 67v11q0 49 -24.5 71t-65.5 22q-36 0 -60.5 -24.5t-24.5 -70.5q0 -48 22.5 -73.5
t59.5 -25.5q44 0 68.5 23z" />
    <glyph glyph-name="uni0308" unicode="&#x308;" horiz-adv-x="0" 
d="M-160 558.5q-20 20.5 -20 52.5q0 30 20.5 51t53.5 21t53.5 -21t20.5 -51q0 -31 -20.5 -52t-53.5 -21q-34 0 -54 20.5zM53 559q-20 21 -20 52q0 30 20 51t53 21t53.5 -21t20.5 -51q0 -31 -20.5 -52t-53.5 -21t-53 21z" />
    <glyph glyph-name="uni0307" unicode="&#x307;" horiz-adv-x="0" 
d="M-57.5 557.5q-21.5 21.5 -21.5 53.5t22 53.5t57 21.5q36 0 57.5 -21.5t21.5 -53.5t-22 -53.5t-57 -21.5q-36 0 -57.5 21.5z" />
    <glyph glyph-name="gravecomb" unicode="&#x300;" horiz-adv-x="0" 
d="M-109 725l217 -121l-43 -75l-222 111z" />
    <glyph glyph-name="acutecomb" unicode="&#x301;" horiz-adv-x="0" 
d="M109 725l48 -85l-222 -111l-43 75z" />
    <glyph glyph-name="uni030B" unicode="&#x30b;" horiz-adv-x="0" 
d="M-19 725l68 -66l-155 -130l-61 59zM175 724l69 -66l-156 -130l-61 59z" />
    <glyph glyph-name="uni0302" unicode="&#x302;" horiz-adv-x="0" 
d="M-42 699q20 17 43 17t43 -17l124 -105l-50 -59l-118 88l-119 -88l-50 59z" />
    <glyph glyph-name="uni030C" unicode="&#x30c;" horiz-adv-x="0" 
d="M-45 551l-124 105l50 58l118 -87l119 87l50 -59l-127 -104q-20 -17 -43 -17t-43 17z" />
    <glyph glyph-name="uni0306" unicode="&#x306;" horiz-adv-x="0" 
d="M-177 652l67 51q27 -36 51.5 -52t58.5 -16t58.5 16t51.5 52l67 -51q-70 -107 -177 -107t-177 107z" />
    <glyph glyph-name="uni030A" unicode="&#x30a;" horiz-adv-x="0" 
d="M-76.5 571.5q-32.5 30.5 -32.5 76.5q0 47 32.5 77t76.5 30t76.5 -30t32.5 -77q0 -46 -32.5 -76.5t-76.5 -30.5t-76.5 30.5zM28.5 618.5q11.5 11.5 11.5 29.5q0 19 -11.5 30t-28.5 11t-28.5 -11t-11.5 -30q0 -18 11.5 -29.5t28.5 -11.5t28.5 11.5z" />
    <glyph glyph-name="tildecomb" unicode="&#x303;" horiz-adv-x="0" 
d="M28.5 551q-17.5 7 -39.5 20q-18 10 -29.5 15t-24.5 5q-23 0 -37.5 -8.5t-29.5 -28.5l-58 51q48 77 123 77q26 0 44.5 -7t37.5 -19q16 -11 28.5 -16t28.5 -5q19 0 33 9t30 29l57 -51q-48 -78 -124 -78q-22 0 -39.5 7z" />
    <glyph glyph-name="uni0304" unicode="&#x304;" horiz-adv-x="0" 
d="M156 659v-93h-312v93h312z" />
    <glyph glyph-name="uni0312" unicode="&#x312;" horiz-adv-x="0" 
d="M-24.5 675.5q36.5 53.5 98.5 82.5l53 -60q-42 -28 -62 -61t-20 -81h-106q0 66 36.5 119.5z" />
    <glyph glyph-name="uni0326" unicode="&#x326;" horiz-adv-x="0" 
d="M-70 -129.5q20 32.5 20 81.5h106q0 -66 -36.5 -119.5t-98.5 -82.5l-53 59q42 29 62 61.5z" />
    <glyph glyph-name="uni0327" unicode="&#x327;" horiz-adv-x="0" 
d="M-85 -164.5q-32 13.5 -53 37.5l46 59q33 -26 60 -26q22 0 35 10t13 31q0 36 -45 45l48 48q39 -16 66.5 -46.5t27.5 -68.5q0 -46 -34.5 -74.5t-94.5 -28.5q-37 0 -69 13.5z" />
    <glyph glyph-name="uni0328" unicode="&#x328;" horiz-adv-x="0" 
d="M-38 -166.5q-29 20.5 -29 57.5q0 52 64 91q35 21 86 47l52 -32q-39 -25 -62 -39q-22 -12 -31 -21.5t-9 -21.5q0 -20 26 -20q22 0 48 22l46 -56q-20 -22 -50.5 -35t-64.5 -13q-47 0 -76 20.5z" />
    <glyph glyph-name="uni0335" unicode="&#x335;" horiz-adv-x="0" 
d="M209 475v-103h-419v103h419z" />
    <glyph glyph-name="uni0336" unicode="&#x336;" horiz-adv-x="0" 
d="M358 514v-126h-715v126h715z" />
    <glyph glyph-name="uni0337" unicode="&#x337;" horiz-adv-x="0" 
d="M165 579l43 -92l-373 -181l-43 92z" />
    <glyph glyph-name="acute" unicode="&#xb4;" horiz-adv-x="500" 
d="M334 725l48 -85l-222 -111l-43 75z" />
    <glyph glyph-name="breve" unicode="&#x2d8;" horiz-adv-x="500" 
d="M73 652l67 51q27 -36 51.5 -52t58.5 -16t58.5 16t51.5 52l67 -51q-70 -107 -177 -107t-177 107z" />
    <glyph glyph-name="caron" unicode="&#x2c7;" horiz-adv-x="500" 
d="M205 551l-124 105l50 58l118 -87l119 87l50 -59l-127 -104q-20 -17 -43 -17t-43 17z" />
    <glyph glyph-name="cedilla" unicode="&#xb8;" horiz-adv-x="500" 
d="M178 -164.5q-32 13.5 -53 37.5l46 59q33 -26 60 -26q22 0 35 10t13 31q0 36 -45 45l48 48q39 -16 66.5 -46.5t27.5 -68.5q0 -46 -34.5 -74.5t-94.5 -28.5q-37 0 -69 13.5z" />
    <glyph glyph-name="circumflex" unicode="&#x2c6;" horiz-adv-x="500" 
d="M208 699q20 17 43 17t43 -17l124 -105l-50 -59l-118 88l-119 -88l-50 59z" />
    <glyph glyph-name="dieresis" unicode="&#xa8;" horiz-adv-x="500" 
d="M90 558.5q-20 20.5 -20 52.5q0 30 20.5 51t53.5 21t53.5 -21t20.5 -51q0 -31 -20.5 -52t-53.5 -21q-34 0 -54 20.5zM303 559q-20 21 -20 52q0 30 20 51t53 21t53.5 -21t20.5 -51q0 -31 -20.5 -52t-53.5 -21t-53 21z" />
    <glyph glyph-name="dotaccent" unicode="&#x2d9;" horiz-adv-x="500" 
d="M192.5 557.5q-21.5 21.5 -21.5 53.5t22 53.5t57 21.5q36 0 57.5 -21.5t21.5 -53.5t-22 -53.5t-57 -21.5q-36 0 -57.5 21.5z" />
    <glyph glyph-name="grave" unicode="`" horiz-adv-x="500" 
d="M165 725l217 -121l-43 -75l-222 111z" />
    <glyph glyph-name="hungarumlaut" unicode="&#x2dd;" horiz-adv-x="500" 
d="M193 725l68 -66l-155 -130l-61 59zM387 724l69 -66l-156 -130l-61 59z" />
    <glyph glyph-name="macron" unicode="&#xaf;" horiz-adv-x="500" 
d="M406 659v-93h-312v93h312z" />
    <glyph glyph-name="ogonek" unicode="&#x2db;" horiz-adv-x="500" 
d="M169 -166.5q-29 20.5 -29 57.5q0 52 64 91q35 21 86 47l52 -32q-39 -25 -62 -39q-22 -12 -31 -21.5t-9 -21.5q0 -20 26 -20q22 0 48 22l46 -56q-20 -22 -50.5 -35t-64.5 -13q-47 0 -76 20.5z" />
    <glyph glyph-name="ring" unicode="&#x2da;" horiz-adv-x="500" 
d="M173.5 571.5q-32.5 30.5 -32.5 76.5q0 47 32.5 77t76.5 30t76.5 -30t32.5 -77q0 -46 -32.5 -76.5t-76.5 -30.5t-76.5 30.5zM278.5 618.5q11.5 11.5 11.5 29.5q0 19 -11.5 30t-28.5 11t-28.5 -11t-11.5 -30q0 -18 11.5 -29.5t28.5 -11.5t28.5 11.5z" />
    <glyph glyph-name="tilde" unicode="&#x2dc;" horiz-adv-x="500" 
d="M277.5 551q-17.5 7 -39.5 20q-18 10 -29.5 15t-24.5 5q-23 0 -37.5 -8.5t-29.5 -28.5l-58 51q48 77 123 77q26 0 44.5 -7t37.5 -19q16 -11 28.5 -16t28.5 -5q19 0 33 9t30 29l57 -51q-48 -78 -124 -78q-22 0 -39.5 7z" />
    <glyph glyph-name="uni0308.case" horiz-adv-x="0" 
d="M-156 705q-20 21 -20 52q0 30 20 51t52 21q33 0 53 -21t20 -51q0 -31 -20.5 -52t-52.5 -21t-52 21zM51 705q-20 21 -20 52q0 30 20.5 51t52.5 21t52 -21t20 -51q0 -31 -20.5 -52t-52.5 -21t-52 21z" />
    <glyph glyph-name="uni0307.case" horiz-adv-x="0" 
d="M-57.5 701q-21.5 22 -21.5 55q0 32 22 54.5t57 22.5q36 0 57.5 -22.5t21.5 -54.5t-22 -54.5t-57 -22.5q-36 0 -57.5 22z" />
    <glyph glyph-name="gravecomb.case" horiz-adv-x="0" 
d="M-114 856l232 -104l-37 -80l-237 93z" />
    <glyph glyph-name="acutecomb.case" horiz-adv-x="0" 
d="M114 856l42 -91l-237 -93l-37 80z" />
    <glyph glyph-name="uni030B.case" horiz-adv-x="0" 
d="M-14 863l56 -73l-174 -115l-51 66zM195 861l56 -73l-175 -115l-50 66z" />
    <glyph glyph-name="uni0302.case" horiz-adv-x="0" 
d="M-41 830q20 17 42 17t42 -17l122 -103l-49 -58l-116 86l-117 -86l-49 58z" />
    <glyph glyph-name="uni030C.case" horiz-adv-x="0" 
d="M-43 690l-122 103l49 57l116 -86l116 86l49 -58l-125 -102q-19 -17 -41 -17q-23 0 -42 17z" />
    <glyph glyph-name="uni0306.case" horiz-adv-x="0" 
d="M-94.5 702.5q-44.5 26.5 -79.5 79.5l66 50q26 -35 50.5 -51t57.5 -16t57.5 16t50.5 51l66 -50q-35 -53 -79.5 -79.5t-94.5 -26.5t-94.5 26.5z" />
    <glyph glyph-name="uni030A.case" horiz-adv-x="0" 
d="M-84.5 694.5q-35.5 33.5 -35.5 84.5t35.5 84.5t84.5 33.5t84.5 -33.5t35.5 -84.5t-35.5 -84.5t-84.5 -33.5t-84.5 33.5zM31.5 746.5q13.5 12.5 13.5 32.5t-13.5 33t-31.5 13t-31.5 -13t-13.5 -33t13.5 -32.5t31.5 -12.5t31.5 12.5z" />
    <glyph glyph-name="tildecomb.case" horiz-adv-x="0" 
d="M27 681q-17 7 -39 20q-16 10 -28 15t-24 5q-23 0 -37 -8.5t-29 -28.5l-56 49q47 76 120 76q25 0 43 -7t37 -19q17 -10 28.5 -15t26.5 -5q19 0 33 8.5t29 28.5l56 -50q-49 -76 -122 -76q-21 0 -38 7z" />
    <glyph glyph-name="uni0304.case" horiz-adv-x="0" 
d="M155 790v-91h-310v91h310z" />
    <glyph glyph-name="uni0326.case" horiz-adv-x="0" 
d="M-76.5 -133q20.5 33 20.5 81h106q0 -66 -37 -119t-100 -82l-53 59q43 28 63.5 61z" />
    <glyph glyph-name="uni0327.case" horiz-adv-x="0" 
d="M-95.5 -169q-33.5 14 -54.5 38l47 61q16 -12 30.5 -19t32.5 -7q22 0 35 9.5t13 30.5q0 38 -46 47l50 50q40 -17 68.5 -48t28.5 -70q0 -47 -36 -76.5t-97 -29.5q-38 0 -71.5 14z" />
    <glyph glyph-name="uni0328.case" horiz-adv-x="0" 
d="M-179 -169.5q-30 21.5 -30 59.5q0 33 23 58t68 51q29 17 62 34l56 -36q-11 -7 -56 -34q-28 -17 -38.5 -26.5t-10.5 -21.5q0 -21 27 -21q24 0 50 24l48 -59q-22 -23 -53 -36.5t-66 -13.5q-50 0 -80 21.5z" />
    <glyph glyph-name="uni0335.case" horiz-adv-x="0" 
d="M183 466v-126h-367v126h367z" />
    <glyph glyph-name="uni0337.case" horiz-adv-x="0" 
d="M183 604l48 -110l-415 -192l-47 110z" />
    </font>
</defs>
</svg>
