<?xml version="1.0" standalone="no"?>
<!DOCTYPE svg PUBLIC "-//W3C//DTD SVG 1.1//EN" "http://www.w3.org/Graphics/SVG/1.1/DTD/svg11.dtd" >
<svg xmlns="http://www.w3.org/2000/svg" xmlns:xlink="http://www.w3.org/1999/xlink" version="1.1">
<metadata>
Created by FontForge 20170924 at Thu Jul 25 18:40:33 2019
 By www-data
Copyright (c) 2017 by Fabio Haag Type. All rights reserved. Fabio Haag Type is a registered trademark of VLF Design Ltda
</metadata>
<defs>
<font id="MargemTest-Medium" horiz-adv-x="580" >
  <font-face 
    font-family="Margem Test Medium"
    font-weight="500"
    font-stretch="normal"
    units-per-em="1000"
    panose-1="2 1 6 3 4 2 1 2 2 3"
    ascent="800"
    descent="-200"
    x-height="471"
    cap-height="624"
    bbox="-350 -251 1340 900"
    underline-thickness="50"
    underline-position="-100"
    unicode-range="U+0020-FB02"
  />
<missing-glyph horiz-adv-x="434" 
d="M81 -194v868h275v-868h-275zM146 587h56v-32h-57v-29h144v29h-57v32h57v29h-143v-29zM145 414h144v29h-57v61h-87v-90zM174 443v31h28v-31h-28zM145 362h57v-33h-57v-28h87v61h57v28h-144v-28zM260 281h-115v-30h144v87h-29v-57zM202 184h30v20h28v-41h-86v69h-29v-98
h144v98h-87v-48zM145 -16h144v98h-144v-98zM174 13v40h86v-40h-86zM145 -65h61l-61 -40v-29h144v29h-88l60 40h28v29h-144v-29z" />
    <glyph glyph-name="f_f" unicode="ff" horiz-adv-x="845" 
d="M27 377v94h95v5q0 101 51 155t139 54q84 0 139 -57l-45 -67q-40 30 -79 30q-45 0 -70 -28t-25 -85v-7h279v5q0 101 52 155t142 54q85 0 140 -57l-45 -67q-38 30 -81 30q-46 0 -72 -28.5t-26 -84.5v-7h193v-94h-193v-380h-110v380h-279v-380h-110v380h-95z" />
    <glyph glyph-name="fi" unicode="fi" horiz-adv-x="722" 
d="M27 377v94h95v5q0 99 51 154t143 55q85 0 140 -57l-45 -67q-38 30 -81 30q-47 0 -72.5 -28.5t-25.5 -84.5v-7h194v-94h-194v-377h-110v377h-95zM644 471v-471h-110v471h110zM540.5 566.5q-18.5 18.5 -18.5 46.5t18.5 46.5t48.5 18.5t48.5 -18.5t18.5 -46.5t-18.5 -46.5
t-48.5 -18.5t-48.5 18.5z" />
    <glyph glyph-name="fl" unicode="fl" horiz-adv-x="722" 
d="M27 377v94h95v5q0 99 51 154t143 55q85 0 140 -57l-45 -67q-38 30 -81 30q-47 0 -72.5 -28.5t-25.5 -84.5v-7h194v-94h-194v-377h-110v377h-95zM644 674v-674h-110v674h110z" />
    <glyph glyph-name=".notdef" horiz-adv-x="434" 
d="M81 -194v868h275v-868h-275zM146 587h56v-32h-57v-29h144v29h-57v32h57v29h-143v-29zM145 414h144v29h-57v61h-87v-90zM174 443v31h28v-31h-28zM145 362h57v-33h-57v-28h87v61h57v28h-144v-28zM260 281h-115v-30h144v87h-29v-57zM202 184h30v20h28v-41h-86v69h-29v-98
h144v98h-87v-48zM145 -16h144v98h-144v-98zM174 13v40h86v-40h-86zM145 -65h61l-61 -40v-29h144v29h-88l60 40h28v29h-144v-29z" />
    <glyph glyph-name="space" unicode=" " horiz-adv-x="232" 
 />
    <glyph glyph-name="A" unicode="A" horiz-adv-x="634" 
d="M382 624l247 -624h-118l-62 164h-268l-61 -164h-115l248 624h129zM315 524l-101 -262h202z" />
    <glyph glyph-name="Aacute" unicode="&#xc1;" horiz-adv-x="634" 
d="M382 624l247 -624h-118l-62 164h-268l-61 -164h-115l248 624h129zM315 524l-101 -262h202zM427 850l40 -77l-218 -99l-35 69z" />
    <glyph glyph-name="Abreve" unicode="&#x102;" horiz-adv-x="634" 
d="M382 624l247 -624h-118l-62 164h-268l-61 -164h-115l248 624h129zM315 524l-101 -262h202zM149 776l57 45q25 -34 50.5 -50.5t60.5 -16.5t60.5 16.5t50.5 50.5l57 -45q-68 -101 -168 -101t-168 101z" />
    <glyph glyph-name="Acircumflex" unicode="&#xc2;" horiz-adv-x="634" 
d="M382 624l247 -624h-118l-62 164h-268l-61 -164h-115l248 624h129zM315 524l-101 -262h202zM279 821q20 16 39 16t39 -16l119 -101l-45 -52l-114 88l-115 -88l-45 52z" />
    <glyph glyph-name="Adieresis" unicode="&#xc4;" horiz-adv-x="634" 
d="M382 624l247 -624h-118l-62 164h-268l-61 -164h-115l248 624h129zM315 524l-101 -262h202zM174.5 707.5q-17.5 18.5 -17.5 45.5t18 45.5t45 18.5q28 0 46 -18.5t18 -45.5t-18 -45.5t-46 -18.5t-45.5 18.5zM368 707.5q-18 18.5 -18 45.5t18.5 45.5t46.5 18.5
q27 0 44.5 -18.5t17.5 -45.5t-17.5 -45.5t-45.5 -18.5t-46 18.5z" />
    <glyph glyph-name="Agrave" unicode="&#xc0;" horiz-adv-x="634" 
d="M382 624l247 -624h-118l-62 164h-268l-61 -164h-115l248 624h129zM315 524l-101 -262h202zM207 850l214 -107l-35 -69l-218 99z" />
    <glyph glyph-name="Amacron" unicode="&#x100;" horiz-adv-x="634" 
d="M382 624l247 -624h-118l-62 164h-268l-61 -164h-115l248 624h129zM315 524l-101 -262h202zM468 781v-81h-302v81h302z" />
    <glyph glyph-name="Aogonek" unicode="&#x104;" horiz-adv-x="634" 
d="M648 -127q-20 -21 -48 -34t-61 -13q-45 0 -71.5 20.5t-26.5 55.5q0 29 20.5 51.5t60.5 46.5h-11l-62 164h-268l-61 -164h-115l248 624h129l247 -624q-12 -7 -51 -32q-24 -16 -34 -25t-10 -19q0 -21 25 -21q22 0 47 23zM416 262l-101 262l-101 -262h202z" />
    <glyph glyph-name="Aring" unicode="&#xc5;" horiz-adv-x="634" 
d="M629 0h-118l-62 164h-268l-61 -164h-115l245 616q-21 16 -33 38.5t-12 50.5q0 47 33.5 78t78.5 31t78 -31t33 -78q0 -27 -11.5 -49.5t-31.5 -38.5zM284.5 737.5q-13.5 -12.5 -13.5 -32.5t13.5 -33t32.5 -13q18 0 31.5 13t13.5 33t-13.5 32.5t-31.5 12.5
q-19 0 -32.5 -12.5zM416 262l-101 262l-101 -262h202z" />
    <glyph glyph-name="Atilde" unicode="&#xc3;" horiz-adv-x="634" 
d="M382 624l247 -624h-118l-62 164h-268l-61 -164h-115l248 624h129zM315 524l-101 -262h202zM344 684q-17 7 -37 19q-31 19 -52 19q-23 0 -37.5 -8t-31.5 -28l-48 43q47 71 114 71q23 0 40.5 -7t35.5 -19q18 -11 29.5 -15.5t25.5 -4.5q21 0 35.5 8.5t30.5 28.5l49 -44
q-46 -70 -115 -70q-22 0 -39 7z" />
    <glyph glyph-name="AE" unicode="&#xc6;" horiz-adv-x="968" 
d="M925 624v-102h-326v-155h289v-100h-289v-164h337v-103h-446v166h-241l-116 -166h-127l445 624h474zM490 517l-179 -254h179v254z" />
    <glyph glyph-name="B" unicode="B" horiz-adv-x="607" 
d="M329 624q106 0 165 -42t59 -123q0 -99 -92 -136q114 -38 114 -150q0 -87 -63 -130t-171 -43h-254v624h242zM449 448q0 46 -33 65t-99 19h-123v-173h125q130 0 130 89zM432 111.5q35 19.5 35 65.5q0 48 -36 69.5t-104 21.5h-133v-176h135q68 0 103 19.5z" />
    <glyph glyph-name="C" unicode="C" horiz-adv-x="625" 
d="M192 29.5q-70 40.5 -107 114t-37 169.5q0 87 36 160t106.5 117t167.5 44q77 0 136.5 -30t95.5 -93l-76 -60q-55 79 -156 79q-64 0 -108.5 -29.5t-66.5 -79t-22 -108.5q0 -62 23.5 -112t68 -79t104.5 -29q53 0 94.5 22t68.5 61l75 -60q-36 -63 -97.5 -95t-140.5 -32
q-95 0 -165 40.5z" />
    <glyph glyph-name="Cacute" unicode="&#x106;" horiz-adv-x="625" 
d="M192 29.5q-70 40.5 -107 114t-37 169.5q0 87 36 160t106.5 117t167.5 44q77 0 136.5 -30t95.5 -93l-76 -60q-55 79 -156 79q-64 0 -108.5 -29.5t-66.5 -79t-22 -108.5q0 -62 23.5 -112t68 -79t104.5 -29q53 0 94.5 22t68.5 61l75 -60q-36 -63 -97.5 -95t-140.5 -32
q-95 0 -165 40.5zM459 850l40 -77l-218 -99l-35 69z" />
    <glyph glyph-name="Ccaron" unicode="&#x10c;" horiz-adv-x="625" 
d="M192 29.5q-70 40.5 -107 114t-37 169.5q0 87 36 160t106.5 117t167.5 44q77 0 136.5 -30t95.5 -93l-76 -60q-55 79 -156 79q-64 0 -108.5 -29.5t-66.5 -79t-22 -108.5q0 -62 23.5 -112t68 -79t104.5 -29q53 0 94.5 22t68.5 61l75 -60q-36 -63 -97.5 -95t-140.5 -32
q-95 0 -165 40.5zM308 688l-118 102l44 51l114 -88l115 88l45 -52l-122 -101q-20 -16 -39 -16t-39 16z" />
    <glyph glyph-name="Ccedilla" unicode="&#xc7;" horiz-adv-x="625" 
d="M519 34q-46 -31 -104 -40q28 -31 28 -69q0 -44 -33.5 -72.5t-90.5 -28.5q-34 0 -65 13t-51 35l42 55q30 -26 62 -26q21 0 34 10.5t13 31.5q0 39 -40 48q-82 9 -142 51.5t-92 112t-32 158.5q0 87 36 160t106.5 117t167.5 44q77 0 136.5 -30t95.5 -93l-76 -60
q-55 79 -156 79q-64 0 -108.5 -29.5t-66.5 -79t-22 -108.5q0 -62 23.5 -112t68 -79t104.5 -29q53 0 94.5 22t68.5 61l75 -60q-30 -51 -76 -82z" />
    <glyph glyph-name="Ccircumflex" unicode="&#x108;" horiz-adv-x="625" 
d="M192 29.5q-70 40.5 -107 114t-37 169.5q0 87 36 160t106.5 117t167.5 44q77 0 136.5 -30t95.5 -93l-76 -60q-55 79 -156 79q-64 0 -108.5 -29.5t-66.5 -79t-22 -108.5q0 -62 23.5 -112t68 -79t104.5 -29q53 0 94.5 22t68.5 61l75 -60q-36 -63 -97.5 -95t-140.5 -32
q-95 0 -165 40.5zM311 821q20 16 39 16t39 -16l119 -101l-45 -52l-114 88l-115 -88l-45 52z" />
    <glyph glyph-name="Cdotaccent" unicode="&#x10a;" horiz-adv-x="625" 
d="M192 29.5q-70 40.5 -107 114t-37 169.5q0 87 36 160t106.5 117t167.5 44q77 0 136.5 -30t95.5 -93l-76 -60q-55 79 -156 79q-64 0 -108.5 -29.5t-66.5 -79t-22 -108.5q0 -62 23.5 -112t68 -79t104.5 -29q53 0 94.5 22t68.5 61l75 -60q-36 -63 -97.5 -95t-140.5 -32
q-95 0 -165 40.5zM301 705.5q-19 19.5 -19 47.5t19 47t48 19q30 0 48.5 -19t18.5 -47t-19 -47.5t-48 -19.5t-48 19.5z" />
    <glyph glyph-name="D" unicode="D" horiz-adv-x="690" 
d="M318 624q101 0 174.5 -39.5t111.5 -110t38 -161.5t-39.5 -162t-113 -111t-171.5 -40h-231v624h231zM473 160q55 55 55 153q0 97 -54.5 152t-155.5 55h-118v-415h117q101 0 156 55z" />
    <glyph glyph-name="Eth" unicode="&#xd0;" horiz-adv-x="706" 
d="M509 584.5q73 -39.5 111 -109.5t38 -162q0 -91 -39.5 -162t-113 -111t-171.5 -40h-230v266h-74v104h74v254h230q102 0 175 -39.5zM489.5 160q54.5 55 54.5 153q0 97 -54.5 152t-155.5 55h-118v-150h176v-104h-176v-161h118q101 0 155.5 55z" />
    <glyph glyph-name="Dcaron" unicode="&#x10e;" horiz-adv-x="690" 
d="M318 624q101 0 174.5 -39.5t111.5 -110t38 -161.5t-39.5 -162t-113 -111t-171.5 -40h-231v624h231zM473 160q55 55 55 153q0 97 -54.5 152t-155.5 55h-118v-415h117q101 0 156 55zM272 688l-118 102l44 51l114 -88l115 88l45 -52l-122 -101q-20 -16 -39 -16t-39 16z" />
    <glyph glyph-name="Dcroat" unicode="&#x110;" horiz-adv-x="706" 
d="M509 584.5q73 -39.5 111 -109.5t38 -162q0 -91 -39.5 -162t-113 -111t-171.5 -40h-230v266h-74v104h74v254h230q102 0 175 -39.5zM489.5 160q54.5 55 54.5 153q0 97 -54.5 152t-155.5 55h-118v-150h176v-104h-176v-161h118q101 0 155.5 55z" />
    <glyph glyph-name="E" unicode="E" horiz-adv-x="568" 
d="M525 624v-102h-326v-155h289v-100h-289v-164h336v-103h-448v624h438z" />
    <glyph glyph-name="Eacute" unicode="&#xc9;" horiz-adv-x="568" 
d="M525 624v-102h-326v-155h289v-100h-289v-164h336v-103h-448v624h438zM422 850l40 -77l-218 -99l-35 69z" />
    <glyph glyph-name="Ebreve" unicode="&#x114;" horiz-adv-x="568" 
d="M525 624v-102h-326v-155h289v-100h-289v-164h336v-103h-448v624h438zM145 776l57 45q25 -34 50.5 -50.5t60.5 -16.5t60.5 16.5t50.5 50.5l57 -45q-68 -101 -168 -101t-168 101z" />
    <glyph glyph-name="Ecaron" unicode="&#x11a;" horiz-adv-x="568" 
d="M525 624v-102h-326v-155h289v-100h-289v-164h336v-103h-448v624h438zM271 688l-118 102l44 51l114 -88l115 88l45 -52l-122 -101q-20 -16 -39 -16t-39 16z" />
    <glyph glyph-name="Ecircumflex" unicode="&#xca;" horiz-adv-x="568" 
d="M525 624v-102h-326v-155h289v-100h-289v-164h336v-103h-448v624h438zM275 821q20 16 39 16t39 -16l119 -101l-45 -52l-114 88l-115 -88l-45 52z" />
    <glyph glyph-name="Edieresis" unicode="&#xcb;" horiz-adv-x="568" 
d="M525 624v-102h-326v-155h289v-100h-289v-164h336v-103h-448v624h438zM170.5 707.5q-17.5 18.5 -17.5 45.5t18 45.5t45 18.5q28 0 46 -18.5t18 -45.5t-18 -45.5t-46 -18.5t-45.5 18.5zM364 707.5q-18 18.5 -18 45.5t18.5 45.5t46.5 18.5q27 0 44.5 -18.5t17.5 -45.5
t-17.5 -45.5t-45.5 -18.5t-46 18.5z" />
    <glyph glyph-name="Edotaccent" unicode="&#x116;" horiz-adv-x="568" 
d="M525 624v-102h-326v-155h289v-100h-289v-164h336v-103h-448v624h438zM265 705.5q-19 19.5 -19 47.5t19 47t48 19q30 0 48.5 -19t18.5 -47t-19 -47.5t-48 -19.5t-48 19.5z" />
    <glyph glyph-name="Egrave" unicode="&#xc8;" horiz-adv-x="568" 
d="M525 624v-102h-326v-155h289v-100h-289v-164h336v-103h-448v624h438zM203 850l214 -107l-35 -69l-218 99z" />
    <glyph glyph-name="Emacron" unicode="&#x112;" horiz-adv-x="568" 
d="M525 624v-102h-326v-155h289v-100h-289v-164h336v-103h-448v624h438zM464 781v-81h-302v81h302z" />
    <glyph glyph-name="Eogonek" unicode="&#x118;" horiz-adv-x="568" 
d="M554 -127q-20 -21 -48 -34t-61 -13q-45 0 -71.5 20.5t-26.5 55.5q0 29 20.5 51.5t60.5 46.5h-341v624h438v-102h-326v-155h289v-100h-289v-164h336v-103q-12 -7 -51 -32q-24 -16 -34 -25t-10 -19q0 -21 25 -21q22 0 47 23z" />
    <glyph glyph-name="F" unicode="F" horiz-adv-x="561" 
d="M529 624v-105h-329v-164h290v-105h-290v-250h-113v624h442z" />
    <glyph glyph-name="G" unicode="G" horiz-adv-x="699" 
d="M190.5 30q-69.5 41 -106 114t-36.5 169q0 89 39 162t112.5 116t171.5 43q82 0 144.5 -32t99.5 -95l-75 -58q-58 84 -171 84q-101 0 -154.5 -62.5t-53.5 -159.5q0 -98 52 -160t149 -62q71 0 120.5 37t56.5 109h-161v95h272v-43q0 -92 -36 -159t-102 -103t-154 -36
q-98 0 -167.5 41z" />
    <glyph glyph-name="Gbreve" unicode="&#x11e;" horiz-adv-x="699" 
d="M190.5 30q-69.5 41 -106 114t-36.5 169q0 89 39 162t112.5 116t171.5 43q82 0 144.5 -32t99.5 -95l-75 -58q-58 84 -171 84q-101 0 -154.5 -62.5t-53.5 -159.5q0 -98 52 -160t149 -62q71 0 120.5 37t56.5 109h-161v95h272v-43q0 -92 -36 -159t-102 -103t-154 -36
q-98 0 -167.5 41zM197 776l57 45q25 -34 50.5 -50.5t60.5 -16.5t60.5 16.5t50.5 50.5l57 -45q-68 -101 -168 -101t-168 101z" />
    <glyph glyph-name="Gcircumflex" unicode="&#x11c;" horiz-adv-x="699" 
d="M190.5 30q-69.5 41 -106 114t-36.5 169q0 89 39 162t112.5 116t171.5 43q82 0 144.5 -32t99.5 -95l-75 -58q-58 84 -171 84q-101 0 -154.5 -62.5t-53.5 -159.5q0 -98 52 -160t149 -62q71 0 120.5 37t56.5 109h-161v95h272v-43q0 -92 -36 -159t-102 -103t-154 -36
q-98 0 -167.5 41zM327 821q20 16 39 16t39 -16l119 -101l-45 -52l-114 88l-115 -88l-45 52z" />
    <glyph glyph-name="uni0122" unicode="&#x122;" horiz-adv-x="699" 
d="M190.5 30q-69.5 41 -106 114t-36.5 169q0 89 39 162t112.5 116t171.5 43q82 0 144.5 -32t99.5 -95l-75 -58q-58 84 -171 84q-101 0 -154.5 -62.5t-53.5 -159.5q0 -98 52 -160t149 -62q71 0 120.5 37t56.5 109h-161v95h272v-43q0 -92 -36 -159t-102 -103t-154 -36
q-98 0 -167.5 41zM293.5 -136q20.5 35 20.5 83h92q0 -64 -35.5 -118t-93.5 -80l-46 54q42 26 62.5 61z" />
    <glyph glyph-name="Gdotaccent" unicode="&#x120;" horiz-adv-x="699" 
d="M190.5 30q-69.5 41 -106 114t-36.5 169q0 89 39 162t112.5 116t171.5 43q82 0 144.5 -32t99.5 -95l-75 -58q-58 84 -171 84q-101 0 -154.5 -62.5t-53.5 -159.5q0 -98 52 -160t149 -62q71 0 120.5 37t56.5 109h-161v95h272v-43q0 -92 -36 -159t-102 -103t-154 -36
q-98 0 -167.5 41zM317 705.5q-19 19.5 -19 47.5t19 47t48 19q30 0 48.5 -19t18.5 -47t-19 -47.5t-48 -19.5t-48 19.5z" />
    <glyph glyph-name="H" unicode="H" horiz-adv-x="721" 
d="M200 624v-254h321v254h113v-624h-113v264h-321v-264h-113v624h113z" />
    <glyph glyph-name="Hbar" unicode="&#x126;" horiz-adv-x="721" 
d="M10 442v93h77v89h113v-89h321v89h113v-89h77v-93h-77v-442h-113v256h-321v-256h-113v442h-77zM521 442h-321v-83h321v83z" />
    <glyph glyph-name="Hcircumflex" unicode="&#x124;" horiz-adv-x="721" 
d="M200 624v-254h321v254h113v-624h-113v264h-321v-264h-113v624h113zM323 821q20 16 39 16t39 -16l119 -101l-45 -52l-114 88l-115 -88l-45 52z" />
    <glyph glyph-name="I" unicode="I" horiz-adv-x="288" 
d="M200 624v-624h-113v624h113z" />
    <glyph glyph-name="IJ" unicode="&#x132;" horiz-adv-x="851" 
d="M200 624v-624h-113v624h113zM380 20.5q-60 31.5 -95 94.5l75 59q56 -81 156 -81q74 0 110.5 51.5t36.5 139.5v340h113v-338q0 -140 -65.5 -218.5t-192.5 -78.5q-78 0 -138 31.5z" />
    <glyph glyph-name="Iacute" unicode="&#xcd;" horiz-adv-x="288" 
d="M200 624v-624h-113v624h113zM254 850l40 -77l-218 -99l-35 69z" />
    <glyph glyph-name="Ibreve" unicode="&#x12c;" horiz-adv-x="288" 
d="M200 624v-624h-113v624h113zM-24 776l57 45q25 -34 50.5 -50.5t60.5 -16.5t60.5 16.5t50.5 50.5l57 -45q-68 -101 -168 -101t-168 101z" />
    <glyph glyph-name="Icircumflex" unicode="&#xce;" horiz-adv-x="288" 
d="M200 624v-624h-113v624h113zM106 821q20 16 39 16t39 -16l119 -101l-45 -52l-114 88l-115 -88l-45 52z" />
    <glyph glyph-name="Idieresis" unicode="&#xcf;" horiz-adv-x="288" 
d="M200 624v-624h-113v624h113zM1.5 707.5q-17.5 18.5 -17.5 45.5t18 45.5t45 18.5q28 0 46 -18.5t18 -45.5t-18 -45.5t-46 -18.5t-45.5 18.5zM195 707.5q-18 18.5 -18 45.5t18.5 45.5t46.5 18.5q27 0 44.5 -18.5t17.5 -45.5t-17.5 -45.5t-45.5 -18.5t-46 18.5z" />
    <glyph glyph-name="Idotaccent" unicode="&#x130;" horiz-adv-x="288" 
d="M200 624v-624h-113v624h113zM96 705.5q-19 19.5 -19 47.5t19 47t48 19q30 0 48.5 -19t18.5 -47t-19 -47.5t-48 -19.5t-48 19.5z" />
    <glyph glyph-name="Igrave" unicode="&#xcc;" horiz-adv-x="288" 
d="M200 624v-624h-113v624h113zM34 850l214 -107l-35 -69l-218 99z" />
    <glyph glyph-name="Imacron" unicode="&#x12a;" horiz-adv-x="288" 
d="M200 624v-624h-113v624h113zM295 781v-81h-302v81h302z" />
    <glyph glyph-name="Iogonek" unicode="&#x12e;" horiz-adv-x="288" 
d="M219 -127q-20 -21 -48 -34t-61 -13q-45 0 -71.5 20.5t-26.5 55.5q0 29 20.5 51.5t60.5 46.5h-6v624h113v-624q-12 -7 -51 -32q-24 -16 -34 -25t-10 -19q0 -21 25 -21q22 0 47 23z" />
    <glyph glyph-name="Itilde" unicode="&#x128;" horiz-adv-x="288" 
d="M200 624v-624h-113v624h113zM171 684q-17 7 -37 19q-31 19 -52 19q-23 0 -37.5 -8t-31.5 -28l-48 43q47 71 114 71q23 0 40.5 -7t35.5 -19q18 -11 29.5 -15.5t25.5 -4.5q21 0 35.5 8.5t30.5 28.5l49 -44q-46 -70 -115 -70q-22 0 -39 7z" />
    <glyph glyph-name="J" unicode="J" horiz-adv-x="585" 
d="M114 20.5q-60 31.5 -95 94.5l75 59q56 -81 156 -81q74 0 110.5 51.5t36.5 139.5v340h113v-338q0 -140 -65.5 -218.5t-192.5 -78.5q-78 0 -138 31.5z" />
    <glyph glyph-name="Jcircumflex" unicode="&#x134;" horiz-adv-x="585" 
d="M114 20.5q-60 31.5 -95 94.5l75 59q56 -81 156 -81q74 0 110.5 51.5t36.5 139.5v340h113v-338q0 -140 -65.5 -218.5t-192.5 -78.5q-78 0 -138 31.5zM416 821q20 16 39 16t39 -16l119 -101l-45 -52l-114 88l-115 -88l-45 52z" />
    <glyph glyph-name="K" unicode="K" horiz-adv-x="643" 
d="M200 624v-258q35 -4 77 -4q96 0 145.5 63.5t63.5 198.5h108q-5 -111 -45.5 -194t-111.5 -127l203 -303h-135l-172 265q-27 -3 -57 -3q-34 0 -76 5v-267h-113v624h113z" />
    <glyph glyph-name="uni0136" unicode="&#x136;" horiz-adv-x="643" 
d="M200 624v-258q35 -4 77 -4q96 0 145.5 63.5t63.5 198.5h108q-5 -111 -45.5 -194t-111.5 -127l203 -303h-135l-172 265q-27 -3 -57 -3q-34 0 -76 5v-267h-113v624h113zM281.5 -136q20.5 35 20.5 83h92q0 -64 -35.5 -118t-93.5 -80l-46 54q42 26 62.5 61z" />
    <glyph glyph-name="L" unicode="L" horiz-adv-x="535" 
d="M199 624v-518h323v-106h-435v624h112z" />
    <glyph glyph-name="Lacute" unicode="&#x139;" horiz-adv-x="535" 
d="M199 624v-518h323v-106h-435v624h112zM252 850l40 -77l-218 -99l-35 69z" />
    <glyph glyph-name="Lcaron" unicode="&#x13d;" horiz-adv-x="535" 
d="M372 674l-17 -189h-72v189h89zM199 624v-518h323v-106h-435v624h112z" />
    <glyph glyph-name="uni013B" unicode="&#x13b;" horiz-adv-x="535" 
d="M199 624v-518h323v-106h-435v624h112zM257.5 -136q20.5 35 20.5 83h92q0 -64 -35.5 -118t-93.5 -80l-46 54q42 26 62.5 61z" />
    <glyph glyph-name="Ldot" unicode="&#x13f;" horiz-adv-x="535" 
d="M199 624v-518h323v-106h-435v624h112zM358 300.5q-19 19.5 -19 47.5t19 47t48 19q30 0 48.5 -19t18.5 -47t-19 -47.5t-48 -19.5t-48 19.5z" />
    <glyph glyph-name="Lslash" unicode="&#x141;" horiz-adv-x="557" 
d="M544 106v-106h-435v227l-76 -35l-39 90l115 53v289h112v-237l161 75l40 -90l-201 -93v-173h323z" />
    <glyph glyph-name="M" unicode="M" horiz-adv-x="816" 
d="M222 624l186 -356l188 356h112l38 -624h-109l-27 451l-161 -295h-84l-160 285l-26 -441h-109l38 624h114z" />
    <glyph glyph-name="N" unicode="N" horiz-adv-x="720" 
d="M199 624l324 -453v453h110v-624h-112l-325 451v-451h-109v624h112z" />
    <glyph glyph-name="Nacute" unicode="&#x143;" horiz-adv-x="720" 
d="M199 624l324 -453v453h110v-624h-112l-325 451v-451h-109v624h112zM470 850l40 -77l-218 -99l-35 69z" />
    <glyph glyph-name="Ncaron" unicode="&#x147;" horiz-adv-x="720" 
d="M199 624l324 -453v453h110v-624h-112l-325 451v-451h-109v624h112zM319 688l-118 102l44 51l114 -88l115 88l45 -52l-122 -101q-20 -16 -39 -16t-39 16z" />
    <glyph glyph-name="uni0145" unicode="&#x145;" horiz-adv-x="720" 
d="M199 624l324 -453v453h110v-624h-112l-325 451v-451h-109v624h112zM291.5 -136q20.5 35 20.5 83h92q0 -64 -35.5 -118t-93.5 -80l-46 54q42 26 62.5 61z" />
    <glyph glyph-name="Eng" unicode="&#x14a;" horiz-adv-x="720" 
d="M633 624v-624q-1 -103 -50.5 -154t-133.5 -51q-45 0 -81.5 15t-62.5 41l48 74q40 -31 81 -31t64.5 26t23.5 78v2h-1l-325 451v-451h-109v624h112l323 -452v187h1v265h110z" />
    <glyph glyph-name="Ntilde" unicode="&#xd1;" horiz-adv-x="720" 
d="M199 624l324 -453v453h110v-624h-112l-325 451v-451h-109v624h112zM386 684q-17 7 -37 19q-31 19 -52 19q-23 0 -37.5 -8t-31.5 -28l-48 43q47 71 114 71q23 0 40.5 -7t35.5 -19q18 -11 29.5 -15.5t25.5 -4.5q21 0 35.5 8.5t30.5 28.5l49 -44q-46 -70 -115 -70
q-22 0 -39 7z" />
    <glyph glyph-name="O" unicode="O" horiz-adv-x="715" 
d="M194 31q-70 42 -108 116t-38 166q0 89 39.5 162.5t110 116t160.5 42.5q93 0 163 -42t107.5 -115t37.5 -164q0 -90 -39.5 -164t-109.5 -117t-159 -43q-94 0 -164 42zM459.5 121q44.5 28 69 78t24.5 114t-24 113t-68.5 76.5t-102.5 27.5q-59 0 -103.5 -27.5t-69 -76.5
t-24.5 -113q0 -65 24 -114.5t68.5 -77.5t103.5 -28q58 0 102.5 28z" />
    <glyph glyph-name="Oacute" unicode="&#xd3;" horiz-adv-x="715" 
d="M194 31q-70 42 -108 116t-38 166q0 89 39.5 162.5t110 116t160.5 42.5q93 0 163 -42t107.5 -115t37.5 -164q0 -90 -39.5 -164t-109.5 -117t-159 -43q-94 0 -164 42zM459.5 121q44.5 28 69 78t24.5 114t-24 113t-68.5 76.5t-102.5 27.5q-59 0 -103.5 -27.5t-69 -76.5
t-24.5 -113q0 -65 24 -114.5t68.5 -77.5t103.5 -28q58 0 102.5 28zM467 850l40 -77l-218 -99l-35 69z" />
    <glyph glyph-name="Obreve" unicode="&#x14e;" horiz-adv-x="715" 
d="M194 31q-70 42 -108 116t-38 166q0 89 39.5 162.5t110 116t160.5 42.5q93 0 163 -42t107.5 -115t37.5 -164q0 -90 -39.5 -164t-109.5 -117t-159 -43q-94 0 -164 42zM459.5 121q44.5 28 69 78t24.5 114t-24 113t-68.5 76.5t-102.5 27.5q-59 0 -103.5 -27.5t-69 -76.5
t-24.5 -113q0 -65 24 -114.5t68.5 -77.5t103.5 -28q58 0 102.5 28zM190 776l57 45q25 -34 50.5 -50.5t60.5 -16.5t60.5 16.5t50.5 50.5l57 -45q-68 -101 -168 -101t-168 101z" />
    <glyph glyph-name="Ocircumflex" unicode="&#xd4;" horiz-adv-x="715" 
d="M194 31q-70 42 -108 116t-38 166q0 89 39.5 162.5t110 116t160.5 42.5q93 0 163 -42t107.5 -115t37.5 -164q0 -90 -39.5 -164t-109.5 -117t-159 -43q-94 0 -164 42zM459.5 121q44.5 28 69 78t24.5 114t-24 113t-68.5 76.5t-102.5 27.5q-59 0 -103.5 -27.5t-69 -76.5
t-24.5 -113q0 -65 24 -114.5t68.5 -77.5t103.5 -28q58 0 102.5 28zM320 821q20 16 39 16t39 -16l119 -101l-45 -52l-114 88l-115 -88l-45 52z" />
    <glyph glyph-name="Odieresis" unicode="&#xd6;" horiz-adv-x="715" 
d="M194 31q-70 42 -108 116t-38 166q0 89 39.5 162.5t110 116t160.5 42.5q93 0 163 -42t107.5 -115t37.5 -164q0 -90 -39.5 -164t-109.5 -117t-159 -43q-94 0 -164 42zM459.5 121q44.5 28 69 78t24.5 114t-24 113t-68.5 76.5t-102.5 27.5q-59 0 -103.5 -27.5t-69 -76.5
t-24.5 -113q0 -65 24 -114.5t68.5 -77.5t103.5 -28q58 0 102.5 28zM215.5 707.5q-17.5 18.5 -17.5 45.5t18 45.5t45 18.5q28 0 46 -18.5t18 -45.5t-18 -45.5t-46 -18.5t-45.5 18.5zM409 707.5q-18 18.5 -18 45.5t18.5 45.5t46.5 18.5q27 0 44.5 -18.5t17.5 -45.5
t-17.5 -45.5t-45.5 -18.5t-46 18.5z" />
    <glyph glyph-name="Ograve" unicode="&#xd2;" horiz-adv-x="715" 
d="M194 31q-70 42 -108 116t-38 166q0 89 39.5 162.5t110 116t160.5 42.5q93 0 163 -42t107.5 -115t37.5 -164q0 -90 -39.5 -164t-109.5 -117t-159 -43q-94 0 -164 42zM459.5 121q44.5 28 69 78t24.5 114t-24 113t-68.5 76.5t-102.5 27.5q-59 0 -103.5 -27.5t-69 -76.5
t-24.5 -113q0 -65 24 -114.5t68.5 -77.5t103.5 -28q58 0 102.5 28zM248 850l214 -107l-35 -69l-218 99z" />
    <glyph glyph-name="Ohungarumlaut" unicode="&#x150;" horiz-adv-x="715" 
d="M194 31q-70 42 -108 116t-38 166q0 89 39.5 162.5t110 116t160.5 42.5q93 0 163 -42t107.5 -115t37.5 -164q0 -90 -39.5 -164t-109.5 -117t-159 -43q-94 0 -164 42zM459.5 121q44.5 28 69 78t24.5 114t-24 113t-68.5 76.5t-102.5 27.5q-59 0 -103.5 -27.5t-69 -76.5
t-24.5 -113q0 -65 24 -114.5t68.5 -77.5t103.5 -28q58 0 102.5 28zM360 855l48 -65l-176 -112l-42 59zM556 854l48 -65l-176 -111l-41 58z" />
    <glyph glyph-name="Omacron" unicode="&#x14c;" horiz-adv-x="715" 
d="M194 31q-70 42 -108 116t-38 166q0 89 39.5 162.5t110 116t160.5 42.5q93 0 163 -42t107.5 -115t37.5 -164q0 -90 -39.5 -164t-109.5 -117t-159 -43q-94 0 -164 42zM459.5 121q44.5 28 69 78t24.5 114t-24 113t-68.5 76.5t-102.5 27.5q-59 0 -103.5 -27.5t-69 -76.5
t-24.5 -113q0 -65 24 -114.5t68.5 -77.5t103.5 -28q58 0 102.5 28zM509 781v-81h-302v81h302z" />
    <glyph glyph-name="Oslash" unicode="&#xd8;" horiz-adv-x="715" 
d="M666 313q0 -90 -39.5 -164t-109.5 -117t-159 -43q-107 0 -185 57l-73 -77l-67 63l74 79q-59 85 -59 202q0 89 39.5 162.5t110 116t160.5 42.5q107 0 187 -59l71 76l65 -63l-72 -77q57 -83 57 -198zM188 197l281 298q-48 35 -111 35q-59 0 -103.5 -27.5t-69 -76.5
t-24.5 -113q0 -66 27 -116zM528 424l-280 -297q45 -34 109 -34q58 0 102.5 28t69 78t24.5 114q0 61 -25 111z" />
    <glyph glyph-name="Otilde" unicode="&#xd5;" horiz-adv-x="715" 
d="M194 31q-70 42 -108 116t-38 166q0 89 39.5 162.5t110 116t160.5 42.5q93 0 163 -42t107.5 -115t37.5 -164q0 -90 -39.5 -164t-109.5 -117t-159 -43q-94 0 -164 42zM459.5 121q44.5 28 69 78t24.5 114t-24 113t-68.5 76.5t-102.5 27.5q-59 0 -103.5 -27.5t-69 -76.5
t-24.5 -113q0 -65 24 -114.5t68.5 -77.5t103.5 -28q58 0 102.5 28zM384 684q-17 7 -37 19q-31 19 -52 19q-23 0 -37.5 -8t-31.5 -28l-48 43q47 71 114 71q23 0 40.5 -7t35.5 -19q18 -11 29.5 -15.5t25.5 -4.5q21 0 35.5 8.5t30.5 28.5l49 -44q-46 -70 -115 -70q-22 0 -39 7z
" />
    <glyph glyph-name="OE" unicode="&#x152;" horiz-adv-x="1032" 
d="M193 31q-70 42 -107.5 116t-37.5 166q0 89 39.5 162.5t109.5 116t158 42.5q64 0 114.5 -24.5t86.5 -68.5v83h433v-102h-326v-155h288v-100h-288v-164h336v-103h-443v87q-37 -46 -88 -72t-113 -26q-92 0 -162 42zM459.5 121q44.5 28 69 78t24.5 114t-24 113t-68.5 76.5
t-102.5 27.5q-59 0 -103.5 -27.5t-69 -76.5t-24.5 -113q0 -65 24 -114.5t68.5 -77.5t103.5 -28q58 0 102.5 28z" />
    <glyph glyph-name="P" unicode="P" horiz-adv-x="600" 
d="M315 624q116 0 181 -57.5t65 -154.5q0 -63 -31.5 -110.5t-87.5 -73t-126 -25.5q-66 0 -117 11v-214h-112v624h228zM410.5 330.5q37.5 29.5 37.5 83.5q0 55 -37 83.5t-103 28.5h-109v-217q48 -8 109 -8q65 0 102.5 29.5z" />
    <glyph glyph-name="Thorn" unicode="&#xde;" horiz-adv-x="603" 
d="M198 624v-96h116q116 0 181 -57t65 -154q0 -63 -31.5 -110t-87 -72.5t-126.5 -25.5q-59 0 -117 11v-120h-111v624h111zM409.5 235.5q37.5 29.5 37.5 83.5q0 55 -37 83.5t-103 28.5h-109v-216q45 -9 109 -9q65 0 102.5 29.5z" />
    <glyph glyph-name="Q" unicode="Q" horiz-adv-x="715" 
d="M701 -92q-43 -47 -90 -71.5t-109 -24.5q-83 0 -134.5 48t-65.5 133q-78 12 -135.5 56.5t-88 112.5t-30.5 151q0 89 39.5 162.5t110 116t160.5 42.5q93 0 163 -42t107.5 -115t37.5 -164q0 -80 -31.5 -148t-88.5 -113t-131 -58q11 -40 35.5 -61.5t61.5 -21.5t65.5 14.5
t60.5 46.5zM185 198.5q24 -49.5 68.5 -77.5t103.5 -28q58 0 102.5 28t69 78t24.5 114t-24 113t-68.5 76.5t-102.5 27.5q-59 0 -103.5 -27.5t-69 -76.5t-24.5 -113q0 -65 24 -114.5z" />
    <glyph glyph-name="R" unicode="R" horiz-adv-x="608" 
d="M316 624q75 0 130.5 -26t85 -72.5t29.5 -105.5q0 -62 -32 -108.5t-88 -71.5l152 -240h-130l-128 215q-11 -1 -34 -1q-53 2 -105 11v-225h-109v624h229zM410.5 338.5q36.5 28.5 36.5 80.5q0 53 -36 81t-102 28h-113v-209q49 -9 113 -9q65 0 101.5 28.5z" />
    <glyph glyph-name="Racute" unicode="&#x154;" horiz-adv-x="608" 
d="M316 624q75 0 130.5 -26t85 -72.5t29.5 -105.5q0 -62 -32 -108.5t-88 -71.5l152 -240h-130l-128 215q-11 -1 -34 -1q-53 2 -105 11v-225h-109v624h229zM410.5 338.5q36.5 28.5 36.5 80.5q0 53 -36 81t-102 28h-113v-209q49 -9 113 -9q65 0 101.5 28.5zM414 850l40 -77
l-218 -99l-35 69z" />
    <glyph glyph-name="Rcaron" unicode="&#x158;" horiz-adv-x="608" 
d="M316 624q75 0 130.5 -26t85 -72.5t29.5 -105.5q0 -62 -32 -108.5t-88 -71.5l152 -240h-130l-128 215q-11 -1 -34 -1q-53 2 -105 11v-225h-109v624h229zM410.5 338.5q36.5 28.5 36.5 80.5q0 53 -36 81t-102 28h-113v-209q49 -9 113 -9q65 0 101.5 28.5zM263 688l-118 102
l44 51l114 -88l115 88l45 -52l-122 -101q-20 -16 -39 -16t-39 16z" />
    <glyph glyph-name="uni0156" unicode="&#x156;" horiz-adv-x="608" 
d="M316 624q75 0 130.5 -26t85 -72.5t29.5 -105.5q0 -62 -32 -108.5t-88 -71.5l152 -240h-130l-128 215q-11 -1 -34 -1q-53 2 -105 11v-225h-109v624h229zM410.5 338.5q36.5 28.5 36.5 80.5q0 53 -36 81t-102 28h-113v-209q49 -9 113 -9q65 0 101.5 28.5zM259.5 -136
q20.5 35 20.5 83h92q0 -64 -35.5 -118t-93.5 -80l-46 54q42 26 62.5 61z" />
    <glyph glyph-name="S" unicode="S" horiz-adv-x="585" 
d="M143.5 21.5q-72.5 32.5 -122.5 95.5l64 69q45 -49 99 -72.5t120 -23.5q129 0 129 79q0 28 -13 45.5t-44 29.5t-88 23q-80 15 -129 35t-76.5 56.5t-27.5 97.5q0 53 31 93.5t84.5 62.5t120.5 22q78 0 138.5 -26.5t107.5 -82.5l-65 -66q-43 44 -83 59.5t-95 15.5
q-63 0 -95.5 -20t-32.5 -56q0 -28 15.5 -44t44.5 -25t91 -22q75 -15 124 -36.5t77 -60.5t28 -102q0 -85 -65.5 -132t-179.5 -47q-85 0 -157.5 32.5z" />
    <glyph glyph-name="Sacute" unicode="&#x15a;" horiz-adv-x="585" 
d="M143.5 21.5q-72.5 32.5 -122.5 95.5l64 69q45 -49 99 -72.5t120 -23.5q129 0 129 79q0 28 -13 45.5t-44 29.5t-88 23q-80 15 -129 35t-76.5 56.5t-27.5 97.5q0 53 31 93.5t84.5 62.5t120.5 22q78 0 138.5 -26.5t107.5 -82.5l-65 -66q-43 44 -83 59.5t-95 15.5
q-63 0 -95.5 -20t-32.5 -56q0 -28 15.5 -44t44.5 -25t91 -22q75 -15 124 -36.5t77 -60.5t28 -102q0 -85 -65.5 -132t-179.5 -47q-85 0 -157.5 32.5zM401 850l40 -77l-218 -99l-35 69z" />
    <glyph glyph-name="Scaron" unicode="&#x160;" horiz-adv-x="585" 
d="M143.5 21.5q-72.5 32.5 -122.5 95.5l64 69q45 -49 99 -72.5t120 -23.5q129 0 129 79q0 28 -13 45.5t-44 29.5t-88 23q-80 15 -129 35t-76.5 56.5t-27.5 97.5q0 53 31 93.5t84.5 62.5t120.5 22q78 0 138.5 -26.5t107.5 -82.5l-65 -66q-43 44 -83 59.5t-95 15.5
q-63 0 -95.5 -20t-32.5 -56q0 -28 15.5 -44t44.5 -25t91 -22q75 -15 124 -36.5t77 -60.5t28 -102q0 -85 -65.5 -132t-179.5 -47q-85 0 -157.5 32.5zM250 688l-118 102l44 51l114 -88l115 88l45 -52l-122 -101q-20 -16 -39 -16t-39 16z" />
    <glyph glyph-name="Scedilla" unicode="&#x15e;" horiz-adv-x="585" 
d="M498.5 52q-47.5 -45 -131.5 -58q29 -32 29 -69q0 -44 -33.5 -72.5t-90.5 -28.5q-34 0 -65 13t-51 35l42 55q30 -26 62 -26q21 0 34 10.5t13 31.5q0 37 -35 47q-77 5 -141.5 37.5t-109.5 89.5l64 69q45 -49 99 -72.5t120 -23.5q129 0 129 79q0 28 -13 45.5t-44 29.5
t-88 23q-80 15 -129 35t-76.5 56.5t-27.5 97.5q0 53 31 93.5t84.5 62.5t120.5 22q78 0 138.5 -26.5t107.5 -82.5l-65 -66q-43 44 -83 59.5t-95 15.5q-63 0 -95.5 -20t-32.5 -56q0 -28 15.5 -44t44.5 -25t91 -22q75 -15 124 -36.5t77 -60.5t28 -102q0 -71 -47.5 -116z" />
    <glyph glyph-name="Scircumflex" unicode="&#x15c;" horiz-adv-x="585" 
d="M143.5 21.5q-72.5 32.5 -122.5 95.5l64 69q45 -49 99 -72.5t120 -23.5q129 0 129 79q0 28 -13 45.5t-44 29.5t-88 23q-80 15 -129 35t-76.5 56.5t-27.5 97.5q0 53 31 93.5t84.5 62.5t120.5 22q78 0 138.5 -26.5t107.5 -82.5l-65 -66q-43 44 -83 59.5t-95 15.5
q-63 0 -95.5 -20t-32.5 -56q0 -28 15.5 -44t44.5 -25t91 -22q75 -15 124 -36.5t77 -60.5t28 -102q0 -85 -65.5 -132t-179.5 -47q-85 0 -157.5 32.5zM253 821q20 16 39 16t39 -16l119 -101l-45 -52l-114 88l-115 -88l-45 52z" />
    <glyph glyph-name="uni0218" unicode="&#x218;" horiz-adv-x="585" 
d="M143.5 21.5q-72.5 32.5 -122.5 95.5l64 69q45 -49 99 -72.5t120 -23.5q129 0 129 79q0 28 -13 45.5t-44 29.5t-88 23q-80 15 -129 35t-76.5 56.5t-27.5 97.5q0 53 31 93.5t84.5 62.5t120.5 22q78 0 138.5 -26.5t107.5 -82.5l-65 -66q-43 44 -83 59.5t-95 15.5
q-63 0 -95.5 -20t-32.5 -56q0 -28 15.5 -44t44.5 -25t91 -22q75 -15 124 -36.5t77 -60.5t28 -102q0 -85 -65.5 -132t-179.5 -47q-85 0 -157.5 32.5zM234.5 -136q20.5 35 20.5 83h92q0 -64 -35.5 -118t-93.5 -80l-46 54q42 26 62.5 61z" />
    <glyph glyph-name="uni1E9E" unicode="&#x1e9e;" horiz-adv-x="677" 
d="M327 8q-44 19 -82 58l58 67q50 -46 115 -46q53 0 81.5 22.5t28.5 67.5q0 96 -154 96h-58v68l154 153q-39 43 -117 43q-80 0 -124.5 -47.5t-44.5 -128.5v-361h-109v339q0 134 69.5 214.5t210.5 80.5q57 0 106 -19t83.5 -48t51.5 -59l-155 -153l-2 -2q89 -7 144.5 -53
t55.5 -125q0 -83 -56.5 -134.5t-154.5 -51.5q-57 0 -101 19z" />
    <glyph glyph-name="T" unicode="T" horiz-adv-x="605" 
d="M30 518v106h545v-106h-217v-518h-113v518h-215z" />
    <glyph glyph-name="Tbar" unicode="&#x166;" horiz-adv-x="605" 
d="M358 518v-187h126v-103h-126v-228h-113v228h-123v103h123v187h-215v106h545v-106h-217z" />
    <glyph glyph-name="Tcaron" unicode="&#x164;" horiz-adv-x="605" 
d="M30 518v106h545v-106h-217v-518h-113v518h-215zM262 688l-118 102l44 51l114 -88l115 88l45 -52l-122 -101q-20 -16 -39 -16t-39 16z" />
    <glyph glyph-name="uni0162" unicode="&#x162;" horiz-adv-x="605" 
d="M358 518v-512q32 -32 32 -73q0 -44 -33.5 -72t-91.5 -28q-34 0 -64.5 13t-50.5 34l42 55q30 -26 62 -26q21 0 34 10.5t13 31.5q0 40 -43 49h-13v518h-215v106h545v-106h-217z" />
    <glyph glyph-name="uni021A" unicode="&#x21a;" horiz-adv-x="605" 
d="M30 518v106h545v-106h-217v-518h-113v518h-215zM235.5 -136q20.5 35 20.5 83h92q0 -64 -35.5 -118t-93.5 -80l-46 54q42 26 62.5 61z" />
    <glyph glyph-name="U" unicode="U" horiz-adv-x="698" 
d="M144 71q-68 82 -68 228v325h113v-327q0 -100 38 -152t122 -52q85 0 122.5 50t37.5 154v327h113v-325q0 -143 -70.5 -226.5t-201.5 -83.5q-138 0 -206 82z" />
    <glyph glyph-name="Uacute" unicode="&#xda;" horiz-adv-x="698" 
d="M144 71q-68 82 -68 228v325h113v-327q0 -100 38 -152t122 -52q85 0 122.5 50t37.5 154v327h113v-325q0 -143 -70.5 -226.5t-201.5 -83.5q-138 0 -206 82zM459 850l40 -77l-218 -99l-35 69z" />
    <glyph glyph-name="Ubreve" unicode="&#x16c;" horiz-adv-x="698" 
d="M144 71q-68 82 -68 228v325h113v-327q0 -100 38 -152t122 -52q85 0 122.5 50t37.5 154v327h113v-325q0 -143 -70.5 -226.5t-201.5 -83.5q-138 0 -206 82zM181 776l57 45q25 -34 50.5 -50.5t60.5 -16.5t60.5 16.5t50.5 50.5l57 -45q-68 -101 -168 -101t-168 101z" />
    <glyph glyph-name="Ucircumflex" unicode="&#xdb;" horiz-adv-x="698" 
d="M144 71q-68 82 -68 228v325h113v-327q0 -100 38 -152t122 -52q85 0 122.5 50t37.5 154v327h113v-325q0 -143 -70.5 -226.5t-201.5 -83.5q-138 0 -206 82zM311 821q20 16 39 16t39 -16l119 -101l-45 -52l-114 88l-115 -88l-45 52z" />
    <glyph glyph-name="Udieresis" unicode="&#xdc;" horiz-adv-x="698" 
d="M144 71q-68 82 -68 228v325h113v-327q0 -100 38 -152t122 -52q85 0 122.5 50t37.5 154v327h113v-325q0 -143 -70.5 -226.5t-201.5 -83.5q-138 0 -206 82zM206.5 707.5q-17.5 18.5 -17.5 45.5t18 45.5t45 18.5q28 0 46 -18.5t18 -45.5t-18 -45.5t-46 -18.5t-45.5 18.5z
M400 707.5q-18 18.5 -18 45.5t18.5 45.5t46.5 18.5q27 0 44.5 -18.5t17.5 -45.5t-17.5 -45.5t-45.5 -18.5t-46 18.5z" />
    <glyph glyph-name="Ugrave" unicode="&#xd9;" horiz-adv-x="698" 
d="M144 71q-68 82 -68 228v325h113v-327q0 -100 38 -152t122 -52q85 0 122.5 50t37.5 154v327h113v-325q0 -143 -70.5 -226.5t-201.5 -83.5q-138 0 -206 82zM239 850l214 -107l-35 -69l-218 99z" />
    <glyph glyph-name="Uhungarumlaut" unicode="&#x170;" horiz-adv-x="698" 
d="M144 71q-68 82 -68 228v325h113v-327q0 -100 38 -152t122 -52q85 0 122.5 50t37.5 154v327h113v-325q0 -143 -70.5 -226.5t-201.5 -83.5q-138 0 -206 82zM351 855l48 -65l-176 -112l-42 59zM547 854l48 -65l-176 -111l-41 58z" />
    <glyph glyph-name="Umacron" unicode="&#x16a;" horiz-adv-x="698" 
d="M144 71q-68 82 -68 228v325h113v-327q0 -100 38 -152t122 -52q85 0 122.5 50t37.5 154v327h113v-325q0 -143 -70.5 -226.5t-201.5 -83.5q-138 0 -206 82zM500 781v-81h-302v81h302z" />
    <glyph glyph-name="Uogonek" unicode="&#x172;" horiz-adv-x="698" 
d="M622 624v-325q0 -108 -41 -183.5t-119 -106.5l-49 -31q-24 -16 -34 -25t-10 -19q0 -21 25 -21q22 0 47 23l42 -53q-20 -21 -48 -34t-61 -13q-45 0 -71.5 20.5t-26.5 55.5q0 22 12.5 41t37.5 37q-126 7 -188 88t-62 221v325h113v-327q0 -100 38 -152t122 -52
q85 0 122.5 50t37.5 154v327h113z" />
    <glyph glyph-name="Uring" unicode="&#x16e;" horiz-adv-x="698" 
d="M144 71q-68 82 -68 228v325h113v-327q0 -100 38 -152t122 -52q85 0 122.5 50t37.5 154v327h113v-325q0 -143 -70.5 -226.5t-201.5 -83.5q-138 0 -206 82zM271 693q-33 31 -33 79q0 47 33 78.5t78 31.5t78 -31.5t33 -78.5q0 -48 -33 -79t-78 -31t-78 31zM381 739
q13 13 13 33t-13 33t-32 13t-32 -13t-13 -33t13 -33t32 -13t32 13z" />
    <glyph glyph-name="Utilde" unicode="&#x168;" horiz-adv-x="698" 
d="M144 71q-68 82 -68 228v325h113v-327q0 -100 38 -152t122 -52q85 0 122.5 50t37.5 154v327h113v-325q0 -143 -70.5 -226.5t-201.5 -83.5q-138 0 -206 82zM375 684q-17 7 -37 19q-31 19 -52 19q-23 0 -37.5 -8t-31.5 -28l-48 43q47 71 114 71q23 0 40.5 -7t35.5 -19
q18 -11 29.5 -15.5t25.5 -4.5q21 0 35.5 8.5t30.5 28.5l49 -44q-46 -70 -115 -70q-22 0 -39 7z" />
    <glyph glyph-name="V" unicode="V" horiz-adv-x="641" 
d="M132 624l188 -509l189 509h125l-247 -624h-132l-249 624h126z" />
    <glyph glyph-name="W" unicode="W" horiz-adv-x="910" 
d="M141 624l122 -491l127 485h134l126 -485l122 491h123l-181 -624h-130l-130 495l-131 -495h-127l-181 624h126z" />
    <glyph glyph-name="Wacute" unicode="&#x1e82;" horiz-adv-x="910" 
d="M141 624l122 -491l127 485h134l126 -485l122 491h123l-181 -624h-130l-130 495l-131 -495h-127l-181 624h126zM565 850l40 -77l-218 -99l-35 69z" />
    <glyph glyph-name="Wcircumflex" unicode="&#x174;" horiz-adv-x="910" 
d="M141 624l122 -491l127 485h134l126 -485l122 491h123l-181 -624h-130l-130 495l-131 -495h-127l-181 624h126zM417 821q20 16 39 16t39 -16l119 -101l-45 -52l-114 88l-115 -88l-45 52z" />
    <glyph glyph-name="Wdieresis" unicode="&#x1e84;" horiz-adv-x="910" 
d="M141 624l122 -491l127 485h134l126 -485l122 491h123l-181 -624h-130l-130 495l-131 -495h-127l-181 624h126zM312.5 707.5q-17.5 18.5 -17.5 45.5t18 45.5t45 18.5q28 0 46 -18.5t18 -45.5t-18 -45.5t-46 -18.5t-45.5 18.5zM506 707.5q-18 18.5 -18 45.5t18.5 45.5
t46.5 18.5q27 0 44.5 -18.5t17.5 -45.5t-17.5 -45.5t-45.5 -18.5t-46 18.5z" />
    <glyph glyph-name="Wgrave" unicode="&#x1e80;" horiz-adv-x="910" 
d="M141 624l122 -491l127 485h134l126 -485l122 491h123l-181 -624h-130l-130 495l-131 -495h-127l-181 624h126zM345 850l214 -107l-35 -69l-218 99z" />
    <glyph glyph-name="X" unicode="X" horiz-adv-x="644" 
d="M30 624h139l157 -220l153 220h134l-217 -305l237 -319h-140l-174 241l-173 -241h-135l238 327z" />
    <glyph glyph-name="Y" unicode="Y" horiz-adv-x="575" 
d="M7 624h126l157 -285l154 285h124l-224 -391v-233h-113v232z" />
    <glyph glyph-name="Yacute" unicode="&#xdd;" horiz-adv-x="575" 
d="M7 624h126l157 -285l154 285h124l-224 -391v-233h-113v232zM397 850l40 -77l-218 -99l-35 69z" />
    <glyph glyph-name="Ycircumflex" unicode="&#x176;" horiz-adv-x="575" 
d="M7 624h126l157 -285l154 285h124l-224 -391v-233h-113v232zM250 821q20 16 39 16t39 -16l119 -101l-45 -52l-114 88l-115 -88l-45 52z" />
    <glyph glyph-name="Ydieresis" unicode="&#x178;" horiz-adv-x="575" 
d="M7 624h126l157 -285l154 285h124l-224 -391v-233h-113v232zM145.5 707.5q-17.5 18.5 -17.5 45.5t18 45.5t45 18.5q28 0 46 -18.5t18 -45.5t-18 -45.5t-46 -18.5t-45.5 18.5zM339 707.5q-18 18.5 -18 45.5t18.5 45.5t46.5 18.5q27 0 44.5 -18.5t17.5 -45.5t-17.5 -45.5
t-45.5 -18.5t-46 18.5z" />
    <glyph glyph-name="Ygrave" unicode="&#x1ef2;" horiz-adv-x="575" 
d="M7 624h126l157 -285l154 285h124l-224 -391v-233h-113v232zM178 850l214 -107l-35 -69l-218 99z" />
    <glyph glyph-name="Z" unicode="Z" horiz-adv-x="582" 
d="M393 519h-352v105h498v-95l-352 -424h362v-105h-509v95z" />
    <glyph glyph-name="Zacute" unicode="&#x179;" horiz-adv-x="582" 
d="M393 519h-352v105h498v-95l-352 -424h362v-105h-509v95zM395 850l40 -77l-218 -99l-35 69z" />
    <glyph glyph-name="Zcaron" unicode="&#x17d;" horiz-adv-x="582" 
d="M393 519h-352v105h498v-95l-352 -424h362v-105h-509v95zM244 688l-118 102l44 51l114 -88l115 88l45 -52l-122 -101q-20 -16 -39 -16t-39 16z" />
    <glyph glyph-name="Zdotaccent" unicode="&#x17b;" horiz-adv-x="582" 
d="M393 519h-352v105h498v-95l-352 -424h362v-105h-509v95zM237 705.5q-19 19.5 -19 47.5t19 47t48 19q30 0 48.5 -19t18.5 -47t-19 -47.5t-48 -19.5t-48 19.5z" />
    <glyph glyph-name="K.ss01" horiz-adv-x="651" 
d="M200 624v-258h138l168 258h127l-206 -308l221 -316h-135l-178 261h-135v-261h-113v624h113z" />
    <glyph glyph-name="uni0136.ss01" horiz-adv-x="651" 
d="M200 624v-258h138l168 258h127l-206 -308l221 -316h-135l-178 261h-135v-261h-113v624h113zM281.5 -136q20.5 35 20.5 83h92q0 -64 -35.5 -118t-93.5 -80l-46 54q42 26 62.5 61z" />
    <glyph glyph-name="M.ss01" horiz-adv-x="816" 
d="M202 624l207 -356l209 356h111v-624h-109v452l-172 -296h-82l-170 286v-442h-109v624h115z" />
    <glyph glyph-name="P.ss01" horiz-adv-x="600" 
d="M315 624q116 0 181 -57t65 -153q0 -63 -31.5 -110t-87 -72t-126.5 -25h-117v-207h-112v624h228zM410.5 334q37.5 29 37.5 82q0 54 -37 82t-103 28h-109v-221h109q65 0 102.5 29z" />
    <glyph glyph-name="Thorn.ss01" horiz-adv-x="603" 
d="M198 624v-98h116q76 0 131.5 -26t85 -73t29.5 -108q0 -63 -32.5 -110.5t-89 -73t-126.5 -25.5h-114v-110h-111v624h111zM408.5 235.5q37.5 29.5 37.5 83.5q0 55 -37 83.5t-103 28.5h-108v-225h108q65 0 102.5 29.5z" />
    <glyph glyph-name="Q.ss01" horiz-adv-x="710" 
d="M358 -11q-94 0 -164 42t-108 116t-38 166q0 89 39.5 162.5t110 116t160.5 42.5q93 0 163 -42t107.5 -115t37.5 -164q0 -66 -21.5 -124t-60.5 -102l95 -112l-82 -63l-93 113q-67 -36 -146 -36zM436 108l-77 92l79 60l74 -88q43 59 43 141q0 63 -24.5 112.5t-69.5 77
t-103 27.5q-59 0 -103.5 -27.5t-69 -76.5t-24.5 -113q0 -65 24.5 -115.5t68.5 -79t103 -28.5q41 0 79 18z" />
    <glyph glyph-name="R.ss01" horiz-adv-x="608" 
d="M316 624q75 0 130.5 -26t85 -71.5t29.5 -104.5q0 -62 -32.5 -108t-89.5 -71l154 -243h-130l-130 219q-9 -1 -27 -1h-110v-218h-109v624h229zM410.5 342q36.5 28 36.5 79q0 53 -36 80t-102 27h-113v-214h113q65 0 101.5 28z" />
    <glyph glyph-name="Racute.ss01" horiz-adv-x="608" 
d="M316 624q75 0 130.5 -26t85 -71.5t29.5 -104.5q0 -62 -32.5 -108t-89.5 -71l154 -243h-130l-130 219q-9 -1 -27 -1h-110v-218h-109v624h229zM410.5 342q36.5 28 36.5 79q0 53 -36 80t-102 27h-113v-214h113q65 0 101.5 28zM413 850l40 -77l-218 -99l-35 69z" />
    <glyph glyph-name="Rcaron.ss01" horiz-adv-x="608" 
d="M316 624q75 0 130.5 -26t85 -71.5t29.5 -104.5q0 -62 -32.5 -108t-89.5 -71l154 -243h-130l-130 219q-9 -1 -27 -1h-110v-218h-109v624h229zM410.5 342q36.5 28 36.5 79q0 53 -36 80t-102 27h-113v-214h113q65 0 101.5 28zM262 688l-118 102l44 51l114 -88l115 88l45 -52
l-122 -101q-20 -16 -39 -16t-39 16z" />
    <glyph glyph-name="uni0156.ss01" horiz-adv-x="608" 
d="M316 624q75 0 130.5 -26t85 -71.5t29.5 -104.5q0 -62 -32.5 -108t-89.5 -71l154 -243h-130l-130 219q-9 -1 -27 -1h-110v-218h-109v624h229zM410.5 342q36.5 28 36.5 79q0 53 -36 80t-102 27h-113v-214h113q65 0 101.5 28zM259.5 -136q20.5 35 20.5 83h92
q0 -64 -35.5 -118t-93.5 -80l-46 54q42 26 62.5 61z" />
    <glyph glyph-name="a" unicode="a" horiz-adv-x="553" 
d="M93 29.5q-44 40.5 -44 102.5q0 64 50 106.5t146 42.5q75 0 134 -22v9q0 63 -31 93t-84 30q-43 0 -77 -10.5t-70 -39.5l-54 65q47 42 96.5 59t116.5 17q91 0 149.5 -54t58.5 -158v-270h-83q-10 28 -14 69q-25 -36 -67 -58t-100 -22q-83 0 -127 40.5zM335.5 105
q36.5 30 40.5 79l1 6q-55 16 -115 16q-57 0 -83 -18t-26 -52q0 -32 22.5 -46.5t60.5 -14.5q63 0 99.5 30z" />
    <glyph glyph-name="aacute" unicode="&#xe1;" horiz-adv-x="553" 
d="M93 29.5q-44 40.5 -44 102.5q0 64 50 106.5t146 42.5q75 0 134 -22v9q0 63 -31 93t-84 30q-43 0 -77 -10.5t-70 -39.5l-54 65q47 42 96.5 59t116.5 17q91 0 149.5 -54t58.5 -158v-270h-83q-10 28 -14 69q-25 -36 -67 -58t-100 -22q-83 0 -127 40.5zM335.5 105
q36.5 30 40.5 79l1 6q-55 16 -115 16q-57 0 -83 -18t-26 -52q0 -32 22.5 -46.5t60.5 -14.5q63 0 99.5 30zM366 716l44 -71l-201 -113l-40 63z" />
    <glyph glyph-name="abreve" unicode="&#x103;" horiz-adv-x="553" 
d="M93 29.5q-44 40.5 -44 102.5q0 64 50 106.5t146 42.5q75 0 134 -22v9q0 63 -31 93t-84 30q-43 0 -77 -10.5t-70 -39.5l-54 65q47 42 96.5 59t116.5 17q91 0 149.5 -54t58.5 -158v-270h-83q-10 28 -14 69q-25 -36 -67 -58t-100 -22q-83 0 -127 40.5zM335.5 105
q36.5 30 40.5 79l1 6q-55 16 -115 16q-57 0 -83 -18t-26 -52q0 -32 22.5 -46.5t60.5 -14.5q63 0 99.5 30zM100 646l58 46q25 -35 50 -51.5t60 -16.5t60 16.5t50 51.5l58 -46q-69 -101 -168 -101t-168 101z" />
    <glyph glyph-name="acircumflex" unicode="&#xe2;" horiz-adv-x="553" 
d="M93 29.5q-44 40.5 -44 102.5q0 64 50 106.5t146 42.5q75 0 134 -22v9q0 63 -31 93t-84 30q-43 0 -77 -10.5t-70 -39.5l-54 65q47 42 96.5 59t116.5 17q91 0 149.5 -54t58.5 -158v-270h-83q-10 28 -14 69q-25 -36 -67 -58t-100 -22q-83 0 -127 40.5zM335.5 105
q36.5 30 40.5 79l1 6q-55 16 -115 16q-57 0 -83 -18t-26 -52q0 -32 22.5 -46.5t60.5 -14.5q63 0 99.5 30zM230 691q20 16 39 16t39 -16l119 -101l-45 -52l-114 87l-115 -87l-45 52z" />
    <glyph glyph-name="adieresis" unicode="&#xe4;" horiz-adv-x="553" 
d="M93 29.5q-44 40.5 -44 102.5q0 64 50 106.5t146 42.5q75 0 134 -22v9q0 63 -31 93t-84 30q-43 0 -77 -10.5t-70 -39.5l-54 65q47 42 96.5 59t116.5 17q91 0 149.5 -54t58.5 -158v-270h-83q-10 28 -14 69q-25 -36 -67 -58t-100 -22q-83 0 -127 40.5zM335.5 105
q36.5 30 40.5 79l1 6q-55 16 -115 16q-57 0 -83 -18t-26 -52q0 -32 22.5 -46.5t60.5 -14.5q63 0 99.5 30zM120 567.5q-18 18.5 -18 45.5t18 45.5t47 18.5q28 0 46 -18.5t18 -45.5t-18 -45.5t-46 -18.5q-29 0 -47 18.5zM323.5 567q-17.5 18 -17.5 46q0 27 17.5 45.5
t46.5 18.5t46.5 -18.5t17.5 -45.5t-18 -45.5t-46 -18.5q-29 0 -46.5 18z" />
    <glyph glyph-name="agrave" unicode="&#xe0;" horiz-adv-x="553" 
d="M93 29.5q-44 40.5 -44 102.5q0 64 50 106.5t146 42.5q75 0 134 -22v9q0 63 -31 93t-84 30q-43 0 -77 -10.5t-70 -39.5l-54 65q47 42 96.5 59t116.5 17q91 0 149.5 -54t58.5 -158v-270h-83q-10 28 -14 69q-25 -36 -67 -58t-100 -22q-83 0 -127 40.5zM335.5 105
q36.5 30 40.5 79l1 6q-55 16 -115 16q-57 0 -83 -18t-26 -52q0 -32 22.5 -46.5t60.5 -14.5q63 0 99.5 30zM170 716l197 -121l-40 -63l-201 113z" />
    <glyph glyph-name="amacron" unicode="&#x101;" horiz-adv-x="553" 
d="M93 29.5q-44 40.5 -44 102.5q0 64 50 106.5t146 42.5q75 0 134 -22v9q0 63 -31 93t-84 30q-43 0 -77 -10.5t-70 -39.5l-54 65q47 42 96.5 59t116.5 17q91 0 149.5 -54t58.5 -158v-270h-83q-10 28 -14 69q-25 -36 -67 -58t-100 -22q-83 0 -127 40.5zM335.5 105
q36.5 30 40.5 79l1 6q-55 16 -115 16q-57 0 -83 -18t-26 -52q0 -32 22.5 -46.5t60.5 -14.5q63 0 99.5 30zM418 649v-80h-300v80h300z" />
    <glyph glyph-name="aogonek" unicode="&#x105;" horiz-adv-x="553" 
d="M502 -125q-19 -20 -46 -32.5t-59 -12.5q-43 0 -68.5 19.5t-25.5 52.5q0 25 15.5 45t44.5 39q17 10 36 21q-8 23 -12 62q-25 -36 -67 -58t-100 -22q-83 0 -127 40.5t-44 102.5q0 64 50 106.5t146 42.5q75 0 134 -22v9q0 63 -31 93t-84 30q-43 0 -77 -10.5t-70 -39.5
l-54 65q47 42 96.5 59t116.5 17q91 0 149.5 -54t58.5 -158v-270q-29 -19 -55 -36q-20 -12 -28.5 -21t-8.5 -20q0 -19 24 -19q21 0 46 22zM377 190q-55 16 -115 16q-57 0 -83 -18t-26 -52q0 -32 22.5 -46.5t60.5 -14.5q63 0 99.5 30t40.5 79z" />
    <glyph glyph-name="aring" unicode="&#xe5;" horiz-adv-x="553" 
d="M93 29.5q-44 40.5 -44 102.5q0 64 50 106.5t146 42.5q75 0 134 -22v9q0 63 -31 93t-84 30q-43 0 -77 -10.5t-70 -39.5l-54 65q47 42 96.5 59t116.5 17q91 0 149.5 -54t58.5 -158v-270h-83q-10 28 -14 69q-25 -36 -67 -58t-100 -22q-83 0 -127 40.5zM335.5 105
q36.5 30 40.5 79l1 6q-55 16 -115 16q-57 0 -83 -18t-26 -52q0 -32 22.5 -46.5t60.5 -14.5q63 0 99.5 30zM194 572q-31 29 -31 74q0 44 31.5 73.5t73.5 29.5t73.5 -29.5t31.5 -73.5q0 -45 -31 -74t-74 -29t-74 29zM298.5 614.5q12.5 11.5 12.5 31.5t-12.5 31.5t-30.5 11.5
t-30.5 -11.5t-12.5 -31.5t12.5 -31.5t30.5 -11.5t30.5 11.5z" />
    <glyph glyph-name="atilde" unicode="&#xe3;" horiz-adv-x="553" 
d="M93 29.5q-44 40.5 -44 102.5q0 64 50 106.5t146 42.5q75 0 134 -22v9q0 63 -31 93t-84 30q-43 0 -77 -10.5t-70 -39.5l-54 65q47 42 96.5 59t116.5 17q91 0 149.5 -54t58.5 -158v-270h-83q-10 28 -14 69q-25 -36 -67 -58t-100 -22q-83 0 -127 40.5zM335.5 105
q36.5 30 40.5 79l1 6q-55 16 -115 16q-57 0 -83 -18t-26 -52q0 -32 22.5 -46.5t60.5 -14.5q63 0 99.5 30zM296 553.5q-17 6.5 -39 19.5q-16 10 -28 15.5t-25 5.5q-23 0 -37.5 -8.5t-31.5 -28.5l-49 44q47 72 115 72q24 0 41.5 -7t36.5 -19q30 -21 55 -21q21 0 35.5 8.5
t31.5 28.5l50 -44q-49 -72 -117 -72q-21 0 -38 6.5z" />
    <glyph glyph-name="ae" unicode="&#xe6;" horiz-adv-x="899" 
d="M93.5 29.5q-44.5 40.5 -44.5 102.5q0 64 50.5 107t145.5 43q73 0 134 -23v10q0 63 -31.5 92.5t-83.5 29.5q-43 0 -77 -11t-70 -39l-54 65q47 42 96.5 59t116.5 17q57 0 103 -22.5t72 -66.5q28 42 72 65.5t103 23.5q106 0 162.5 -65.5t56.5 -177.5v-30h-346
q7 -57 44.5 -92.5t96.5 -35.5q50 0 83 16t57 47l63 -52q-65 -103 -208 -103q-66 0 -120.5 28t-82.5 77q-28 -49 -80.5 -77t-129.5 -28q-84 0 -128.5 40.5zM706 366.5q-28 27.5 -77 27.5q-50 0 -83 -27.5t-44 -78.5h237q-5 51 -33 78.5zM337 106q37 31 39 81l1 3
q-59 15 -115 15q-57 0 -82.5 -17.5t-25.5 -51.5q0 -61 82 -61q64 0 101 31z" />
    <glyph glyph-name="b" unicode="b" horiz-adv-x="614" 
d="M250.5 10.5q-41.5 21.5 -70.5 60.5q-3 -34 -14 -71h-88v674h110v-267q29 36 70 55.5t90 19.5q65 0 114 -32t76 -88t27 -128q0 -71 -27.5 -127t-77.5 -87t-116 -31q-52 0 -93.5 21.5zM419 121.5q35 36.5 35 110.5q0 75 -34.5 114.5t-90.5 39.5q-63 0 -102 -36.5
t-39 -101.5v-22q0 -68 38.5 -104.5t100.5 -36.5q57 0 92 36.5z" />
    <glyph glyph-name="c" unicode="c" horiz-adv-x="506" 
d="M159.5 20.5q-53.5 31.5 -82 87.5t-28.5 128q0 69 30 125.5t83.5 88.5t121.5 32q61 0 107.5 -24t78.5 -78l-66 -52q-23 30 -49 44t-66 14q-60 0 -94.5 -41.5t-34.5 -108.5q0 -65 36 -108t96 -43q40 0 67.5 16t51.5 46l66 -52q-63 -106 -191 -106q-73 0 -126.5 31.5z" />
    <glyph glyph-name="cacute" unicode="&#x107;" horiz-adv-x="506" 
d="M159.5 20.5q-53.5 31.5 -82 87.5t-28.5 128q0 69 30 125.5t83.5 88.5t121.5 32q61 0 107.5 -24t78.5 -78l-66 -52q-23 30 -49 44t-66 14q-60 0 -94.5 -41.5t-34.5 -108.5q0 -65 36 -108t96 -43q40 0 67.5 16t51.5 46l66 -52q-63 -106 -191 -106q-73 0 -126.5 31.5z
M380 716l44 -71l-201 -113l-40 63z" />
    <glyph glyph-name="ccaron" unicode="&#x10d;" horiz-adv-x="506" 
d="M159.5 20.5q-53.5 31.5 -82 87.5t-28.5 128q0 69 30 125.5t83.5 88.5t121.5 32q61 0 107.5 -24t78.5 -78l-66 -52q-23 30 -49 44t-66 14q-60 0 -94.5 -41.5t-34.5 -108.5q0 -65 36 -108t96 -43q40 0 67.5 16t51.5 46l66 -52q-63 -106 -191 -106q-73 0 -126.5 31.5z
M241 551l-119 102l45 52l114 -88l115 88l45 -52l-122 -102q-18 -15 -39 -15t-39 15z" />
    <glyph glyph-name="ccedilla" unicode="&#xe7;" horiz-adv-x="506" 
d="M349 -4q29 -31 29 -68q0 -43 -32.5 -70t-88.5 -27q-33 0 -62.5 12.5t-48.5 33.5l40 53q31 -25 60 -25q21 0 33.5 10.5t12.5 30.5q0 35 -35 44q-96 10 -152 77t-56 169q0 69 30 125.5t83.5 88.5t121.5 32q61 0 107.5 -24t78.5 -78l-66 -52q-23 30 -49 44t-66 14
q-60 0 -94.5 -41.5t-34.5 -108.5q0 -65 36 -108t96 -43q40 0 67.5 16t51.5 46l66 -52q-47 -78 -128 -99z" />
    <glyph glyph-name="ccircumflex" unicode="&#x109;" horiz-adv-x="506" 
d="M159.5 20.5q-53.5 31.5 -82 87.5t-28.5 128q0 69 30 125.5t83.5 88.5t121.5 32q61 0 107.5 -24t78.5 -78l-66 -52q-23 30 -49 44t-66 14q-60 0 -94.5 -41.5t-34.5 -108.5q0 -65 36 -108t96 -43q40 0 67.5 16t51.5 46l66 -52q-63 -106 -191 -106q-73 0 -126.5 31.5z
M244 691q20 16 39 16t39 -16l119 -101l-45 -52l-114 87l-115 -87l-45 52z" />
    <glyph glyph-name="cdotaccent" unicode="&#x10b;" horiz-adv-x="506" 
d="M159.5 20.5q-53.5 31.5 -82 87.5t-28.5 128q0 69 30 125.5t83.5 88.5t121.5 32q61 0 107.5 -24t78.5 -78l-66 -52q-23 30 -49 44t-66 14q-60 0 -94.5 -41.5t-34.5 -108.5q0 -65 36 -108t96 -43q40 0 67.5 16t51.5 46l66 -52q-63 -106 -191 -106q-73 0 -126.5 31.5z
M233.5 566.5q-18.5 18.5 -18.5 46.5t18.5 46.5t48.5 18.5t48.5 -18.5t18.5 -46.5t-18.5 -46.5t-48.5 -18.5t-48.5 18.5z" />
    <glyph glyph-name="d" unicode="d" horiz-adv-x="614" 
d="M151.5 20.5q-49.5 31.5 -76 87.5t-26.5 128t28 128t79 87t117 31q47 0 86 -18.5t67 -51.5v262h110v-674h-87q-12 31 -14 73q-30 -40 -73.5 -62t-95.5 -22q-65 0 -114.5 31.5zM386.5 122q39.5 37 39.5 102v21q0 69 -37.5 105t-98.5 36q-58 0 -94 -36.5t-36 -111.5t34 -114
t91 -39q62 0 101.5 37z" />
    <glyph glyph-name="eth" unicode="&#xf0;" horiz-adv-x="591" 
d="M166 18q-56 29 -86.5 81t-30.5 117q0 64 29.5 115t82.5 80.5t122 29.5q73 0 124 -41q-19 63 -82 124l-136 -53l-33 69l100 38q-44 30 -82 43l64 68q62 -24 120 -68l114 44l33 -69l-85 -33q59 -66 90.5 -149t31.5 -169q0 -73 -31 -131.5t-87 -91.5t-128 -33q-74 0 -130 29
zM394 123q36 38 36 94q0 55 -37 93t-100 38q-64 0 -99 -37.5t-35 -94.5q0 -56 36 -93.5t100 -37.5q63 0 99 38z" />
    <glyph glyph-name="dcaron" unicode="&#x10f;" horiz-adv-x="693" 
d="M151.5 20.5q-49.5 31.5 -76 87.5t-26.5 128t28 128t79 87t117 31q47 0 86 -18.5t67 -51.5v262h110v-674h-87q-12 31 -14 73q-30 -40 -73.5 -62t-95.5 -22q-65 0 -114.5 31.5zM693 674l-13 -155h-76v155h89zM386.5 122q39.5 37 39.5 102v21q0 69 -37.5 105t-98.5 36
q-58 0 -94 -36.5t-36 -111.5t34 -114t91 -39q62 0 101.5 37z" />
    <glyph glyph-name="dcroat" unicode="&#x111;" horiz-adv-x="614" 
d="M151.5 20q-49.5 31 -76 86t-26.5 124t27.5 123t77.5 85t115 31q48 0 88.5 -18.5t68.5 -51.5v126h-205v80h205v69h110v-69h77v-80h-77v-525h-87q-11 30 -14 72q-30 -39 -73.5 -61t-95.5 -22q-65 0 -114.5 31zM386.5 119q39.5 37 39.5 102v14q0 68 -39.5 104.5t-101.5 36.5
q-56 0 -90.5 -36t-34.5 -108q0 -73 34 -111.5t91 -38.5q62 0 101.5 37z" />
    <glyph glyph-name="e" unicode="e" horiz-adv-x="554" 
d="M161.5 20q-54.5 31 -83.5 87t-29 128q0 67 29 123.5t82 90t122 33.5q105 0 161.5 -64.5t56.5 -176.5v-32h-346q7 -58 44.5 -93t97.5 -35q49 0 81.5 16.5t57.5 46.5l62 -52q-32 -52 -84.5 -77.5t-121.5 -25.5q-75 0 -129.5 31zM361.5 366.5q-27.5 27.5 -77.5 27.5
t-83 -27.5t-44 -78.5h237q-5 51 -32.5 78.5z" />
    <glyph glyph-name="eacute" unicode="&#xe9;" horiz-adv-x="554" 
d="M161.5 20q-54.5 31 -83.5 87t-29 128q0 67 29 123.5t82 90t122 33.5q105 0 161.5 -64.5t56.5 -176.5v-32h-346q7 -58 44.5 -93t97.5 -35q49 0 81.5 16.5t57.5 46.5l62 -52q-32 -52 -84.5 -77.5t-121.5 -25.5q-75 0 -129.5 31zM361.5 366.5q-27.5 27.5 -77.5 27.5
t-83 -27.5t-44 -78.5h237q-5 51 -32.5 78.5zM375 716l44 -71l-201 -113l-40 63z" />
    <glyph glyph-name="ebreve" unicode="&#x115;" horiz-adv-x="554" 
d="M161.5 20q-54.5 31 -83.5 87t-29 128q0 67 29 123.5t82 90t122 33.5q105 0 161.5 -64.5t56.5 -176.5v-32h-346q7 -58 44.5 -93t97.5 -35q49 0 81.5 16.5t57.5 46.5l62 -52q-32 -52 -84.5 -77.5t-121.5 -25.5q-75 0 -129.5 31zM361.5 366.5q-27.5 27.5 -77.5 27.5
t-83 -27.5t-44 -78.5h237q-5 51 -32.5 78.5zM109 646l58 46q25 -35 50 -51.5t60 -16.5t60 16.5t50 51.5l58 -46q-69 -101 -168 -101t-168 101z" />
    <glyph glyph-name="ecaron" unicode="&#x11b;" horiz-adv-x="554" 
d="M161.5 20q-54.5 31 -83.5 87t-29 128q0 67 29 123.5t82 90t122 33.5q105 0 161.5 -64.5t56.5 -176.5v-32h-346q7 -58 44.5 -93t97.5 -35q49 0 81.5 16.5t57.5 46.5l62 -52q-32 -52 -84.5 -77.5t-121.5 -25.5q-75 0 -129.5 31zM361.5 366.5q-27.5 27.5 -77.5 27.5
t-83 -27.5t-44 -78.5h237q-5 51 -32.5 78.5zM236 551l-119 102l45 52l114 -88l115 88l45 -52l-122 -102q-18 -15 -39 -15t-39 15z" />
    <glyph glyph-name="ecircumflex" unicode="&#xea;" horiz-adv-x="554" 
d="M161.5 20q-54.5 31 -83.5 87t-29 128q0 67 29 123.5t82 90t122 33.5q105 0 161.5 -64.5t56.5 -176.5v-32h-346q7 -58 44.5 -93t97.5 -35q49 0 81.5 16.5t57.5 46.5l62 -52q-32 -52 -84.5 -77.5t-121.5 -25.5q-75 0 -129.5 31zM361.5 366.5q-27.5 27.5 -77.5 27.5
t-83 -27.5t-44 -78.5h237q-5 51 -32.5 78.5zM239 691q20 16 39 16t39 -16l119 -101l-45 -52l-114 87l-115 -87l-45 52z" />
    <glyph glyph-name="edieresis" unicode="&#xeb;" horiz-adv-x="554" 
d="M161.5 20q-54.5 31 -83.5 87t-29 128q0 67 29 123.5t82 90t122 33.5q105 0 161.5 -64.5t56.5 -176.5v-32h-346q7 -58 44.5 -93t97.5 -35q49 0 81.5 16.5t57.5 46.5l62 -52q-32 -52 -84.5 -77.5t-121.5 -25.5q-75 0 -129.5 31zM361.5 366.5q-27.5 27.5 -77.5 27.5
t-83 -27.5t-44 -78.5h237q-5 51 -32.5 78.5zM129 567.5q-18 18.5 -18 45.5t18 45.5t47 18.5q28 0 46 -18.5t18 -45.5t-18 -45.5t-46 -18.5q-29 0 -47 18.5zM332.5 567q-17.5 18 -17.5 46q0 27 17.5 45.5t46.5 18.5t46.5 -18.5t17.5 -45.5t-18 -45.5t-46 -18.5
q-29 0 -46.5 18z" />
    <glyph glyph-name="edotaccent" unicode="&#x117;" horiz-adv-x="554" 
d="M161.5 20q-54.5 31 -83.5 87t-29 128q0 67 29 123.5t82 90t122 33.5q105 0 161.5 -64.5t56.5 -176.5v-32h-346q7 -58 44.5 -93t97.5 -35q49 0 81.5 16.5t57.5 46.5l62 -52q-32 -52 -84.5 -77.5t-121.5 -25.5q-75 0 -129.5 31zM361.5 366.5q-27.5 27.5 -77.5 27.5
t-83 -27.5t-44 -78.5h237q-5 51 -32.5 78.5zM228.5 566.5q-18.5 18.5 -18.5 46.5t18.5 46.5t48.5 18.5t48.5 -18.5t18.5 -46.5t-18.5 -46.5t-48.5 -18.5t-48.5 18.5z" />
    <glyph glyph-name="egrave" unicode="&#xe8;" horiz-adv-x="554" 
d="M161.5 20q-54.5 31 -83.5 87t-29 128q0 67 29 123.5t82 90t122 33.5q105 0 161.5 -64.5t56.5 -176.5v-32h-346q7 -58 44.5 -93t97.5 -35q49 0 81.5 16.5t57.5 46.5l62 -52q-32 -52 -84.5 -77.5t-121.5 -25.5q-75 0 -129.5 31zM361.5 366.5q-27.5 27.5 -77.5 27.5
t-83 -27.5t-44 -78.5h237q-5 51 -32.5 78.5zM179 716l197 -121l-40 -63l-201 113z" />
    <glyph glyph-name="emacron" unicode="&#x113;" horiz-adv-x="554" 
d="M161.5 20q-54.5 31 -83.5 87t-29 128q0 67 29 123.5t82 90t122 33.5q105 0 161.5 -64.5t56.5 -176.5v-32h-346q7 -58 44.5 -93t97.5 -35q49 0 81.5 16.5t57.5 46.5l62 -52q-32 -52 -84.5 -77.5t-121.5 -25.5q-75 0 -129.5 31zM361.5 366.5q-27.5 27.5 -77.5 27.5
t-83 -27.5t-44 -78.5h237q-5 51 -32.5 78.5zM427 649v-80h-300v80h300z" />
    <glyph glyph-name="eogonek" unicode="&#x119;" horiz-adv-x="554" 
d="M500 209h-346q7 -58 44.5 -93t97.5 -35q49 0 81.5 16.5t57.5 46.5l62 -52q-20 -34 -52 -58l-2 -2l-12 -7q-15 -11 -41 -27q-20 -12 -28.5 -21t-8.5 -20q0 -19 24 -19q21 0 46 22l40 -51q-19 -20 -46 -32.5t-59 -12.5q-43 0 -68.5 19.5t-25.5 52.5q0 29 22 53
q-74 1 -127.5 32.5t-81.5 87t-28 126.5q0 67 29 123.5t82 90t122 33.5q105 0 161.5 -64.5t56.5 -176.5v-32zM394 288q-5 51 -32.5 78.5t-77.5 27.5t-83 -27.5t-44 -78.5h237z" />
    <glyph glyph-name="f" unicode="f" horiz-adv-x="456" 
d="M27 377v94h95v5q0 99 51 154t143 55q85 0 140 -57l-45 -67q-38 30 -81 30q-47 0 -72.5 -28.5t-25.5 -84.5v-7h194v-94h-194v-377h-110v377h-95z" />
    <glyph glyph-name="g" unicode="g" horiz-adv-x="558" 
d="M387 -76q0 29 -21.5 41t-81.5 12h-83q-65 0 -99.5 27t-34.5 78q0 62 68 93q-38 22 -58 56.5t-20 79.5q0 77 58.5 124t160.5 47q103 0 162 -53q22 25 22 70h78v-22q0 -34 -15 -63t-44 -47q10 -24 10 -56q0 -77 -57.5 -123t-155.5 -46q-67 0 -90.5 -8.5t-23.5 -29.5
q0 -18 15.5 -25.5t50.5 -7.5h81q91 0 137.5 -32.5t46.5 -105.5q0 -64 -51.5 -100.5t-141.5 -37.5v76q87 3 87 53zM355 247q28 24 28 65t-28 64.5t-80 23.5q-54 0 -82.5 -23.5t-28.5 -64.5t28.5 -65t82.5 -24q52 0 80 24z" />
    <glyph glyph-name="gbreve" unicode="&#x11f;" horiz-adv-x="558" 
d="M387 -76q0 29 -21.5 41t-81.5 12h-83q-65 0 -99.5 27t-34.5 78q0 62 68 93q-38 22 -58 56.5t-20 79.5q0 77 58.5 124t160.5 47q103 0 162 -53q22 25 22 70h78v-22q0 -34 -15 -63t-44 -47q10 -24 10 -56q0 -77 -57.5 -123t-155.5 -46q-67 0 -90.5 -8.5t-23.5 -29.5
q0 -18 15.5 -25.5t50.5 -7.5h81q91 0 137.5 -32.5t46.5 -105.5q0 -64 -51.5 -100.5t-141.5 -37.5v76q87 3 87 53zM355 247q28 24 28 65t-28 64.5t-80 23.5q-54 0 -82.5 -23.5t-28.5 -64.5t28.5 -65t82.5 -24q52 0 80 24zM111 646l58 46q25 -35 50 -51.5t60 -16.5t60 16.5
t50 51.5l58 -46q-69 -101 -168 -101t-168 101z" />
    <glyph glyph-name="gcircumflex" unicode="&#x11d;" horiz-adv-x="558" 
d="M387 -76q0 29 -21.5 41t-81.5 12h-83q-65 0 -99.5 27t-34.5 78q0 62 68 93q-38 22 -58 56.5t-20 79.5q0 77 58.5 124t160.5 47q103 0 162 -53q22 25 22 70h78v-22q0 -34 -15 -63t-44 -47q10 -24 10 -56q0 -77 -57.5 -123t-155.5 -46q-67 0 -90.5 -8.5t-23.5 -29.5
q0 -18 15.5 -25.5t50.5 -7.5h81q91 0 137.5 -32.5t46.5 -105.5q0 -64 -51.5 -100.5t-141.5 -37.5v76q87 3 87 53zM355 247q28 24 28 65t-28 64.5t-80 23.5q-54 0 -82.5 -23.5t-28.5 -64.5t28.5 -65t82.5 -24q52 0 80 24zM241 691q20 16 39 16t39 -16l119 -101l-45 -52
l-114 87l-115 -87l-45 52z" />
    <glyph glyph-name="uni0123" unicode="&#x123;" horiz-adv-x="558" 
d="M387 -76q0 29 -21.5 41t-81.5 12h-83q-65 0 -99.5 27t-34.5 78q0 62 68 93q-38 22 -58 56.5t-20 79.5q0 77 58.5 124t160.5 47q103 0 162 -53q22 25 22 70h78v-22q0 -34 -15 -63t-44 -47q10 -24 10 -56q0 -77 -57.5 -123t-155.5 -46q-67 0 -90.5 -8.5t-23.5 -29.5
q0 -18 15.5 -25.5t50.5 -7.5h81q91 0 137.5 -32.5t46.5 -105.5q0 -64 -51.5 -100.5t-141.5 -37.5v76q87 3 87 53zM355 247q28 24 28 65t-28 64.5t-80 23.5q-54 0 -82.5 -23.5t-28.5 -64.5t28.5 -65t82.5 -24q52 0 80 24zM262 672.5q35 52.5 93 79.5l45 -53
q-41 -26 -61 -60.5t-20 -82.5h-92q0 64 35 116.5z" />
    <glyph glyph-name="gdotaccent" unicode="&#x121;" horiz-adv-x="558" 
d="M387 -76q0 29 -21.5 41t-81.5 12h-83q-65 0 -99.5 27t-34.5 78q0 62 68 93q-38 22 -58 56.5t-20 79.5q0 77 58.5 124t160.5 47q103 0 162 -53q22 25 22 70h78v-22q0 -34 -15 -63t-44 -47q10 -24 10 -56q0 -77 -57.5 -123t-155.5 -46q-67 0 -90.5 -8.5t-23.5 -29.5
q0 -18 15.5 -25.5t50.5 -7.5h81q91 0 137.5 -32.5t46.5 -105.5q0 -64 -51.5 -100.5t-141.5 -37.5v76q87 3 87 53zM355 247q28 24 28 65t-28 64.5t-80 23.5q-54 0 -82.5 -23.5t-28.5 -64.5t28.5 -65t82.5 -24q52 0 80 24zM230.5 566.5q-18.5 18.5 -18.5 46.5t18.5 46.5
t48.5 18.5t48.5 -18.5t18.5 -46.5t-18.5 -46.5t-48.5 -18.5t-48.5 18.5z" />
    <glyph glyph-name="h" unicode="h" horiz-adv-x="598" 
d="M188 674v-264q27 35 65.5 53.5t87.5 18.5q89 0 138 -54.5t49 -160.5v-267h-110v271q0 57 -25.5 86t-72.5 29q-61 0 -96.5 -39.5t-35.5 -112.5v-234h-110v674h110z" />
    <glyph glyph-name="hbar" unicode="&#x127;" horiz-adv-x="600" 
d="M1 525v80h77v69h110v-69h205v-80h-205v-128q27 35 65.5 53.5t87.5 18.5q89 0 138 -54.5t49 -160.5v-254h-110v258q0 57 -25.5 86t-72.5 29q-61 0 -96.5 -39.5t-35.5 -112.5v-221h-110v525h-77z" />
    <glyph glyph-name="hcircumflex" unicode="&#x125;" horiz-adv-x="597" 
d="M188 674v-264q27 35 65.5 53.5t87.5 18.5q89 0 138 -54.5t49 -160.5v-267h-110v271q0 57 -25.5 86t-72.5 29q-61 0 -96.5 -39.5t-35.5 -112.5v-234h-110v674h110zM96 852q20 16 39 16t39 -16l119 -101l-45 -52l-114 88l-115 -88l-45 52z" />
    <glyph glyph-name="i" unicode="i" horiz-adv-x="266" 
d="M188 471v-471h-110v471h110zM84.5 566.5q-18.5 18.5 -18.5 46.5t18.5 46.5t48.5 18.5t48.5 -18.5t18.5 -46.5t-18.5 -46.5t-48.5 -18.5t-48.5 18.5z" />
    <glyph glyph-name="dotlessi" unicode="&#x131;" horiz-adv-x="266" 
d="M188 471v-471h-110v471h110z" />
    <glyph glyph-name="iacute" unicode="&#xed;" horiz-adv-x="266" 
d="M188 471v-471h-110v471h110zM231 716l44 -71l-201 -113l-40 63z" />
    <glyph glyph-name="ibreve" unicode="&#x12d;" horiz-adv-x="266" 
d="M188 471v-471h-110v471h110zM-35 646l58 46q25 -35 50 -51.5t60 -16.5t60 16.5t50 51.5l58 -46q-69 -101 -168 -101t-168 101z" />
    <glyph glyph-name="icircumflex" unicode="&#xee;" horiz-adv-x="266" 
d="M188 471v-471h-110v471h110zM95 691q20 16 39 16t39 -16l119 -101l-45 -52l-114 87l-115 -87l-45 52z" />
    <glyph glyph-name="idieresis" unicode="&#xef;" horiz-adv-x="266" 
d="M188 471v-471h-110v471h110zM-15 567.5q-18 18.5 -18 45.5t18 45.5t47 18.5q28 0 46 -18.5t18 -45.5t-18 -45.5t-46 -18.5q-29 0 -47 18.5zM188.5 567q-17.5 18 -17.5 46q0 27 17.5 45.5t46.5 18.5t46.5 -18.5t17.5 -45.5t-18 -45.5t-46 -18.5q-29 0 -46.5 18z" />
    <glyph glyph-name="i.loclTRK" horiz-adv-x="266" 
d="M188 471v-471h-110v471h110zM84.5 566.5q-18.5 18.5 -18.5 46.5t18.5 46.5t48.5 18.5t48.5 -18.5t18.5 -46.5t-18.5 -46.5t-48.5 -18.5t-48.5 18.5z" />
    <glyph glyph-name="igrave" unicode="&#xec;" horiz-adv-x="266" 
d="M188 471v-471h-110v471h110zM35 716l197 -121l-40 -63l-201 113z" />
    <glyph glyph-name="ij" unicode="&#x133;" horiz-adv-x="531" 
d="M188 471v-471h-110v471h110zM84.5 566.5q-18.5 18.5 -18.5 46.5t18.5 46.5t48.5 18.5t48.5 -18.5t18.5 -46.5t-18.5 -46.5t-48.5 -18.5t-48.5 18.5zM192 -191q-36 14 -62 40l48 69q36 -28 77 -28t64.5 27.5t23.5 80.5v473h111v-468q0 -104 -49.5 -156t-134.5 -52
q-42 0 -78 14zM349.5 566.5q-18.5 18.5 -18.5 46.5t18.5 46.5t48.5 18.5t48.5 -18.5t18.5 -46.5t-18.5 -46.5t-48.5 -18.5t-48.5 18.5z" />
    <glyph glyph-name="imacron" unicode="&#x12b;" horiz-adv-x="266" 
d="M188 471v-471h-110v471h110zM283 649v-80h-300v80h300z" />
    <glyph glyph-name="iogonek" unicode="&#x12f;" horiz-adv-x="266" 
d="M84.5 566.5q-18.5 18.5 -18.5 46.5t19 46.5t48 18.5q30 0 48.5 -18.5t18.5 -46.5t-18.5 -46.5t-48.5 -18.5t-48.5 18.5zM206 -125q-19 -20 -46 -32.5t-59 -12.5q-43 0 -68.5 19.5t-25.5 52.5q0 25 15.5 45t44.5 39q7 5 12.5 8t10.5 6h-12v471h110v-471q-29 -19 -55 -36
q-20 -12 -28.5 -21t-8.5 -20q0 -19 24 -19q21 0 46 22z" />
    <glyph glyph-name="itilde" unicode="&#x129;" horiz-adv-x="266" 
d="M188 471v-471h-110v471h110zM161 553.5q-17 6.5 -39 19.5q-16 10 -28 15.5t-25 5.5q-23 0 -37.5 -8.5t-31.5 -28.5l-49 44q47 72 115 72q24 0 41.5 -7t36.5 -19q30 -21 55 -21q21 0 35.5 8.5t31.5 28.5l50 -44q-49 -72 -117 -72q-21 0 -38 6.5z" />
    <glyph glyph-name="j" unicode="j" horiz-adv-x="265" 
d="M-74 -191q-36 14 -62 40l48 69q36 -28 77 -28t64.5 27.5t23.5 80.5v473h111v-468q0 -104 -49.5 -156t-134.5 -52q-42 0 -78 14zM83.5 566.5q-18.5 18.5 -18.5 46.5t18.5 46.5t48.5 18.5t48.5 -18.5t18.5 -46.5t-18.5 -46.5t-48.5 -18.5t-48.5 18.5z" />
    <glyph glyph-name="uni0237" unicode="&#x237;" horiz-adv-x="265" 
d="M-74 -191q-36 14 -62 40l48 69q36 -28 77 -28t64.5 27.5t23.5 80.5v473h111v-468q0 -104 -49.5 -156t-134.5 -52q-42 0 -78 14z" />
    <glyph glyph-name="jcircumflex" unicode="&#x135;" horiz-adv-x="265" 
d="M-74 -191q-36 14 -62 40l48 69q36 -28 77 -28t64.5 27.5t23.5 80.5v473h111v-468q0 -104 -49.5 -156t-134.5 -52q-42 0 -78 14zM94 691q20 16 39 16t39 -16l119 -101l-45 -52l-114 87l-115 -87l-45 52z" />
    <glyph glyph-name="k" unicode="k" horiz-adv-x="551" 
d="M186 674v-375q30 -3 56 -3q79 0 118.5 38.5t51.5 136.5h96q-7 -167 -121 -232l154 -239h-129l-126 208q-14 -3 -45 -3q-27 0 -55 3v-208h-108v674h108z" />
    <glyph glyph-name="uni0137" unicode="&#x137;" horiz-adv-x="551" 
d="M186 674v-375q30 -3 56 -3q79 0 118.5 38.5t51.5 136.5h96q-7 -167 -121 -232l154 -239h-129l-126 208q-14 -3 -45 -3q-27 0 -55 3v-208h-108v674h108zM231.5 -133q20.5 35 20.5 82h91q0 -64 -34.5 -116.5t-92.5 -79.5l-46 53q41 26 61.5 61z" />
    <glyph glyph-name="kgreenlandic" unicode="&#x138;" horiz-adv-x="551" 
d="M186 471v-187q30 -3 56 -3q53 0 87 16.5t54.5 58t28.5 115.5h96q-4 -90 -35 -151.5t-86 -93.5l154 -226h-129l-124 193q-20 -4 -47 -4q-17 0 -55 4v-193h-108v471h108z" />
    <glyph glyph-name="l" unicode="l" horiz-adv-x="266" 
d="M188 674v-674h-110v674h110z" />
    <glyph glyph-name="lacute" unicode="&#x13a;" horiz-adv-x="266" 
d="M188 674v-674h-110v674h110zM243 900l40 -77l-218 -99l-35 69z" />
    <glyph glyph-name="lcaron" unicode="&#x13e;" horiz-adv-x="345" 
d="M188 674v-674h-110v674h110zM345 674l-13 -155h-76v155h89z" />
    <glyph glyph-name="uni013C" unicode="&#x13c;" horiz-adv-x="266" 
d="M188 674v-674h-110v674h110zM68.5 -133q20.5 35 20.5 82h91q0 -64 -34.5 -116.5t-92.5 -79.5l-46 53q41 26 61.5 61z" />
    <glyph glyph-name="ldot" unicode="&#x140;" horiz-adv-x="433" 
d="M188 674v-674h-110v674h110zM279.5 313.5q-18.5 18.5 -18.5 47.5q0 28 18.5 47t48.5 19q29 0 47.5 -19t18.5 -47q0 -29 -18 -47.5t-48 -18.5t-48.5 18.5z" />
    <glyph glyph-name="lslash" unicode="&#x142;" horiz-adv-x="404" 
d="M256 328v-328h-110v275l-104 -51l-37 78l141 68v304h110v-250l106 51l36 -78z" />
    <glyph glyph-name="m" unicode="m" horiz-adv-x="917" 
d="M167 471q10 -26 14 -69q27 38 66.5 59t89.5 21q113 0 157 -91q26 44 70.5 67.5t102.5 23.5q88 0 134.5 -55t46.5 -162v-265h-110v270q0 116 -93 116q-60 0 -93.5 -39.5t-33.5 -112.5v-234h-110v270q0 57 -24 86.5t-70 29.5q-59 0 -92.5 -39.5t-33.5 -112.5v-234h-110v471
h89z" />
    <glyph glyph-name="n" unicode="n" horiz-adv-x="598" 
d="M167 471q12 -29 15 -69q27 38 67.5 59t91.5 21q89 0 138 -54.5t49 -160.5v-267h-110v271q0 57 -25.5 86t-72.5 29q-61 0 -96.5 -39.5t-35.5 -112.5v-234h-110v471h89z" />
    <glyph glyph-name="nacute" unicode="&#x144;" horiz-adv-x="598" 
d="M167 471q12 -29 15 -69q27 38 67.5 59t91.5 21q89 0 138 -54.5t49 -160.5v-267h-110v271q0 57 -25.5 86t-72.5 29q-61 0 -96.5 -39.5t-35.5 -112.5v-234h-110v471h89zM420 716l44 -71l-201 -113l-40 63z" />
    <glyph glyph-name="napostrophe" unicode="&#x149;" horiz-adv-x="598" 
d="M62.5 621q16.5 30 18.5 64h89q-2 -53 -29.5 -97.5t-73.5 -70.5l-48 54q27 20 43.5 50zM167 471q12 -29 15 -69q27 38 67.5 59t91.5 21q89 0 138 -54.5t49 -160.5v-267h-110v271q0 57 -25.5 86t-72.5 29q-61 0 -96.5 -39.5t-35.5 -112.5v-234h-110v471h89z" />
    <glyph glyph-name="ncaron" unicode="&#x148;" horiz-adv-x="598" 
d="M167 471q12 -29 15 -69q27 38 67.5 59t91.5 21q89 0 138 -54.5t49 -160.5v-267h-110v271q0 57 -25.5 86t-72.5 29q-61 0 -96.5 -39.5t-35.5 -112.5v-234h-110v471h89zM281 551l-119 102l45 52l114 -88l115 88l45 -52l-122 -102q-18 -15 -39 -15t-39 15z" />
    <glyph glyph-name="uni0146" unicode="&#x146;" horiz-adv-x="598" 
d="M167 471q12 -29 15 -69q27 38 67.5 59t91.5 21q89 0 138 -54.5t49 -160.5v-267h-110v271q0 57 -25.5 86t-72.5 29q-61 0 -96.5 -39.5t-35.5 -112.5v-234h-110v471h89zM234.5 -133q20.5 35 20.5 82h91q0 -64 -34.5 -116.5t-92.5 -79.5l-46 53q41 26 61.5 61z" />
    <glyph glyph-name="eng" unicode="&#x14b;" horiz-adv-x="598" 
d="M479 427.5q49 -54.5 49 -160.5v-267q0 -102 -49 -153.5t-133 -51.5q-85 0 -137 52l48 70q33 -27 75 -27q40 0 63 27.5t23 79.5v274q0 57 -25.5 86t-72.5 29q-61 0 -96.5 -39.5t-35.5 -112.5v-234h-110v471h89q12 -29 15 -69q27 38 67.5 59t91.5 21q89 0 138 -54.5z" />
    <glyph glyph-name="ntilde" unicode="&#xf1;" horiz-adv-x="598" 
d="M167 471q12 -29 15 -69q27 38 67.5 59t91.5 21q89 0 138 -54.5t49 -160.5v-267h-110v271q0 57 -25.5 86t-72.5 29q-61 0 -96.5 -39.5t-35.5 -112.5v-234h-110v471h89zM350 553.5q-17 6.5 -39 19.5q-16 10 -28 15.5t-25 5.5q-23 0 -37.5 -8.5t-31.5 -28.5l-49 44
q47 72 115 72q24 0 41.5 -7t36.5 -19q30 -21 55 -21q21 0 35.5 8.5t31.5 28.5l50 -44q-49 -72 -117 -72q-21 0 -38 6.5z" />
    <glyph glyph-name="o" unicode="o" horiz-adv-x="589" 
d="M166 21q-56 32 -86.5 88.5t-30.5 126.5q0 67 31 123.5t87.5 89.5t128.5 33q73 0 128.5 -32t85.5 -88t30 -126q0 -67 -31 -123.5t-86.5 -90t-126.5 -33.5q-74 0 -130 32zM393.5 128.5q35.5 43.5 35.5 107.5t-35.5 107t-97.5 43q-64 0 -100 -43t-36 -107q0 -65 36 -108
t99 -43t98.5 43.5z" />
    <glyph glyph-name="oacute" unicode="&#xf3;" horiz-adv-x="589" 
d="M166 21q-56 32 -86.5 88.5t-30.5 126.5q0 67 31 123.5t87.5 89.5t128.5 33q73 0 128.5 -32t85.5 -88t30 -126q0 -67 -31 -123.5t-86.5 -90t-126.5 -33.5q-74 0 -130 32zM393.5 128.5q35.5 43.5 35.5 107.5t-35.5 107t-97.5 43q-64 0 -100 -43t-36 -107q0 -65 36 -108
t99 -43t98.5 43.5zM394 716l44 -71l-201 -113l-40 63z" />
    <glyph glyph-name="obreve" unicode="&#x14f;" horiz-adv-x="589" 
d="M166 21q-56 32 -86.5 88.5t-30.5 126.5q0 67 31 123.5t87.5 89.5t128.5 33q73 0 128.5 -32t85.5 -88t30 -126q0 -67 -31 -123.5t-86.5 -90t-126.5 -33.5q-74 0 -130 32zM393.5 128.5q35.5 43.5 35.5 107.5t-35.5 107t-97.5 43q-64 0 -100 -43t-36 -107q0 -65 36 -108
t99 -43t98.5 43.5zM128 646l58 46q25 -35 50 -51.5t60 -16.5t60 16.5t50 51.5l58 -46q-69 -101 -168 -101t-168 101z" />
    <glyph glyph-name="ocircumflex" unicode="&#xf4;" horiz-adv-x="589" 
d="M166 21q-56 32 -86.5 88.5t-30.5 126.5q0 67 31 123.5t87.5 89.5t128.5 33q73 0 128.5 -32t85.5 -88t30 -126q0 -67 -31 -123.5t-86.5 -90t-126.5 -33.5q-74 0 -130 32zM393.5 128.5q35.5 43.5 35.5 107.5t-35.5 107t-97.5 43q-64 0 -100 -43t-36 -107q0 -65 36 -108
t99 -43t98.5 43.5zM258 691q20 16 39 16t39 -16l119 -101l-45 -52l-114 87l-115 -87l-45 52z" />
    <glyph glyph-name="odieresis" unicode="&#xf6;" horiz-adv-x="589" 
d="M166 21q-56 32 -86.5 88.5t-30.5 126.5q0 67 31 123.5t87.5 89.5t128.5 33q73 0 128.5 -32t85.5 -88t30 -126q0 -67 -31 -123.5t-86.5 -90t-126.5 -33.5q-74 0 -130 32zM393.5 128.5q35.5 43.5 35.5 107.5t-35.5 107t-97.5 43q-64 0 -100 -43t-36 -107q0 -65 36 -108
t99 -43t98.5 43.5zM148 567.5q-18 18.5 -18 45.5t18 45.5t47 18.5q28 0 46 -18.5t18 -45.5t-18 -45.5t-46 -18.5q-29 0 -47 18.5zM351.5 567q-17.5 18 -17.5 46q0 27 17.5 45.5t46.5 18.5t46.5 -18.5t17.5 -45.5t-18 -45.5t-46 -18.5q-29 0 -46.5 18z" />
    <glyph glyph-name="ograve" unicode="&#xf2;" horiz-adv-x="589" 
d="M166 21q-56 32 -86.5 88.5t-30.5 126.5q0 67 31 123.5t87.5 89.5t128.5 33q73 0 128.5 -32t85.5 -88t30 -126q0 -67 -31 -123.5t-86.5 -90t-126.5 -33.5q-74 0 -130 32zM393.5 128.5q35.5 43.5 35.5 107.5t-35.5 107t-97.5 43q-64 0 -100 -43t-36 -107q0 -65 36 -108
t99 -43t98.5 43.5zM198 716l197 -121l-40 -63l-201 113z" />
    <glyph glyph-name="ohungarumlaut" unicode="&#x151;" horiz-adv-x="589" 
d="M166 21q-56 32 -86.5 88.5t-30.5 126.5q0 67 31 123.5t87.5 89.5t128.5 33q73 0 128.5 -32t85.5 -88t30 -126q0 -67 -31 -123.5t-86.5 -90t-126.5 -33.5q-74 0 -130 32zM393.5 128.5q35.5 43.5 35.5 107.5t-35.5 107t-97.5 43q-64 0 -100 -43t-36 -107q0 -65 36 -108
t99 -43t98.5 43.5zM294 716l56 -59l-159 -126l-50 54zM477 715l56 -58l-160 -126l-49 53z" />
    <glyph glyph-name="omacron" unicode="&#x14d;" horiz-adv-x="589" 
d="M166 21q-56 32 -86.5 88.5t-30.5 126.5q0 67 31 123.5t87.5 89.5t128.5 33q73 0 128.5 -32t85.5 -88t30 -126q0 -67 -31 -123.5t-86.5 -90t-126.5 -33.5q-74 0 -130 32zM393.5 128.5q35.5 43.5 35.5 107.5t-35.5 107t-97.5 43q-64 0 -100 -43t-36 -107q0 -65 36 -108
t99 -43t98.5 43.5zM446 649v-80h-300v80h300z" />
    <glyph glyph-name="oslash" unicode="&#xf8;" horiz-adv-x="590" 
d="M99 78q-50 66 -50 158q0 67 31 123.5t87.5 89.5t128.5 33q80 0 138 -39l64 70l58 -55l-63 -69q47 -64 47 -153q0 -67 -31 -123.5t-86.5 -90t-126.5 -33.5q-76 0 -136 35l-68 -75l-60 55zM296 391q-66 0 -103 -44.5t-37 -110.5q0 -43 17 -77l194 211q-28 21 -71 21z
M396.5 125q36.5 45 36.5 111q0 42 -15 71l-191 -209q33 -18 68 -18q65 0 101.5 45z" />
    <glyph glyph-name="otilde" unicode="&#xf5;" horiz-adv-x="589" 
d="M166 21q-56 32 -86.5 88.5t-30.5 126.5q0 67 31 123.5t87.5 89.5t128.5 33q73 0 128.5 -32t85.5 -88t30 -126q0 -67 -31 -123.5t-86.5 -90t-126.5 -33.5q-74 0 -130 32zM393.5 128.5q35.5 43.5 35.5 107.5t-35.5 107t-97.5 43q-64 0 -100 -43t-36 -107q0 -65 36 -108
t99 -43t98.5 43.5zM324 553.5q-17 6.5 -39 19.5q-16 10 -28 15.5t-25 5.5q-23 0 -37.5 -8.5t-31.5 -28.5l-49 44q47 72 115 72q24 0 41.5 -7t36.5 -19q30 -21 55 -21q21 0 35.5 8.5t31.5 28.5l50 -44q-49 -72 -117 -72q-21 0 -38 6.5z" />
    <glyph glyph-name="oe" unicode="&#x153;" horiz-adv-x="952" 
d="M165 21q-56 32 -86 88.5t-30 126.5q0 67 31 123.5t87.5 89.5t128.5 33q68 0 117.5 -29t77.5 -81q30 51 79.5 80.5t114.5 29.5q101 0 157 -65t56 -176v-32h-346q7 -58 44.5 -93t97.5 -35q49 0 81.5 16.5t57.5 46.5l62 -52q-62 -103 -202 -103q-70 0 -122.5 29t-81.5 81
q-30 -51 -79.5 -80.5t-114.5 -29.5q-74 0 -130 32zM759.5 366.5q-27.5 27.5 -77.5 27.5t-83 -27.5t-44 -78.5h237q-5 51 -32.5 78.5zM394 128.5q36 43.5 36 107.5t-36 107t-98 43q-64 0 -100 -43t-36 -107q0 -65 36 -108t99 -43t99 43.5z" />
    <glyph glyph-name="p" unicode="p" horiz-adv-x="613" 
d="M167 471q10 -27 14 -70q30 38 73 59.5t94 21.5q65 0 114 -32t75.5 -88t26.5 -128q0 -71 -27.5 -127t-77.5 -87t-115 -31q-48 0 -88 19t-68 53v-255h-111v665h90zM418 121.5q35 36.5 35 110.5q0 76 -34 115t-91 39q-62 0 -101 -36.5t-39 -101.5v-21q0 -69 38 -105.5
t100 -36.5q57 0 92 36.5z" />
    <glyph glyph-name="thorn" unicode="&#xfe;" horiz-adv-x="613" 
d="M188 674v-267q29 36 70 55.5t90 19.5q65 0 114 -32t75.5 -88t26.5 -128t-27 -127.5t-76.5 -86.5t-114.5 -31q-49 0 -89.5 19t-68.5 54v-256h-111v868h111zM419 121q34 36 34 111q0 76 -34 115t-91 39q-62 0 -101 -36.5t-39 -101.5v-21q0 -69 39 -105.5t101 -36.5
q57 0 91 36z" />
    <glyph glyph-name="q" unicode="q" horiz-adv-x="614" 
d="M355 8.5q-41 -19.5 -89 -19.5q-65 0 -114.5 31.5t-76 87.5t-26.5 128t28 128t79 87t117 31q50 0 90.5 -19.5t68.5 -55.5q1 32 12 64h92v-665h-110v257q-30 -35 -71 -54.5zM386.5 122q39.5 37 39.5 102v21q0 69 -37.5 105t-98.5 36q-58 0 -94 -36.5t-36 -111.5t34 -114
t91 -39q62 0 101.5 37z" />
    <glyph glyph-name="r" unicode="r" horiz-adv-x="427" 
d="M167 471q12 -31 14 -71q26 39 64.5 60.5t85.5 21.5q27 0 44.5 -5.5t33.5 -16.5l-37 -89q-22 11 -52 11q-57 0 -94.5 -38t-37.5 -112v-232h-110v471h89z" />
    <glyph glyph-name="racute" unicode="&#x155;" horiz-adv-x="427" 
d="M167 471q12 -31 14 -71q26 39 64.5 60.5t85.5 21.5q27 0 44.5 -5.5t33.5 -16.5l-37 -89q-22 11 -52 11q-57 0 -94.5 -38t-37.5 -112v-232h-110v471h89zM335 716l44 -71l-201 -113l-40 63z" />
    <glyph glyph-name="rcaron" unicode="&#x159;" horiz-adv-x="427" 
d="M167 471q12 -31 14 -71q26 39 64.5 60.5t85.5 21.5q27 0 44.5 -5.5t33.5 -16.5l-37 -89q-22 11 -52 11q-57 0 -94.5 -38t-37.5 -112v-232h-110v471h89zM196 551l-119 102l45 52l114 -88l115 88l45 -52l-122 -102q-18 -15 -39 -15t-39 15z" />
    <glyph glyph-name="uni0157" unicode="&#x157;" horiz-adv-x="427" 
d="M167 471q12 -31 14 -71q26 39 64.5 60.5t85.5 21.5q27 0 44.5 -5.5t33.5 -16.5l-37 -89q-22 11 -52 11q-57 0 -94.5 -38t-37.5 -112v-232h-110v471h89zM67.5 -133q20.5 35 20.5 82h91q0 -64 -34.5 -116.5t-92.5 -79.5l-46 53q41 26 61.5 61z" />
    <glyph glyph-name="s" unicode="s" horiz-adv-x="479" 
d="M126 8.5q-51 19.5 -89 59.5l51 64q30 -28 66 -39.5t84 -11.5q42 0 64.5 12t22.5 41q0 27 -24 40.5t-76 20.5q-82 11 -124.5 44.5t-42.5 101.5q0 40 23.5 72.5t66.5 50.5t99 18q59 0 102.5 -18.5t80.5 -56.5l-54 -62q-28 27 -57 37.5t-71 10.5q-43 0 -63 -14t-20 -38
q0 -26 21 -36.5t79 -20.5q81 -14 125 -46.5t44 -101.5q0 -41 -22.5 -74.5t-64.5 -53t-98 -19.5q-72 0 -123 19.5z" />
    <glyph glyph-name="sacute" unicode="&#x15b;" horiz-adv-x="479" 
d="M126 8.5q-51 19.5 -89 59.5l51 64q30 -28 66 -39.5t84 -11.5q42 0 64.5 12t22.5 41q0 27 -24 40.5t-76 20.5q-82 11 -124.5 44.5t-42.5 101.5q0 40 23.5 72.5t66.5 50.5t99 18q59 0 102.5 -18.5t80.5 -56.5l-54 -62q-28 27 -57 37.5t-71 10.5q-43 0 -63 -14t-20 -38
q0 -26 21 -36.5t79 -20.5q81 -14 125 -46.5t44 -101.5q0 -41 -22.5 -74.5t-64.5 -53t-98 -19.5q-72 0 -123 19.5zM347 716l44 -71l-201 -113l-40 63z" />
    <glyph glyph-name="scaron" unicode="&#x161;" horiz-adv-x="479" 
d="M126 8.5q-51 19.5 -89 59.5l51 64q30 -28 66 -39.5t84 -11.5q42 0 64.5 12t22.5 41q0 27 -24 40.5t-76 20.5q-82 11 -124.5 44.5t-42.5 101.5q0 40 23.5 72.5t66.5 50.5t99 18q59 0 102.5 -18.5t80.5 -56.5l-54 -62q-28 27 -57 37.5t-71 10.5q-43 0 -63 -14t-20 -38
q0 -26 21 -36.5t79 -20.5q81 -14 125 -46.5t44 -101.5q0 -41 -22.5 -74.5t-64.5 -53t-98 -19.5q-72 0 -123 19.5zM208 551l-119 102l45 52l114 -88l115 88l45 -52l-122 -102q-18 -15 -39 -15t-39 15z" />
    <glyph glyph-name="scedilla" unicode="&#x15f;" horiz-adv-x="479" 
d="M402 48.5q-32 -37.5 -89 -52.5q29 -31 29 -68q0 -43 -32.5 -70t-88.5 -27q-33 0 -62.5 12.5t-48.5 33.5l40 53q31 -25 60 -25q21 0 33.5 10.5t12.5 30.5q0 33 -32 44q-62 3 -107 22.5t-80 55.5l51 64q30 -28 66 -39.5t84 -11.5q42 0 64.5 12t22.5 41q0 27 -24 40.5
t-76 20.5q-82 11 -124.5 44.5t-42.5 101.5q0 40 23.5 72.5t66.5 50.5t99 18q59 0 102.5 -18.5t80.5 -56.5l-54 -62q-28 27 -57 37.5t-71 10.5q-43 0 -63 -14t-20 -38q0 -26 21 -36.5t79 -20.5q81 -14 125 -46.5t44 -101.5q0 -50 -32 -87.5z" />
    <glyph glyph-name="scircumflex" unicode="&#x15d;" horiz-adv-x="479" 
d="M126 8.5q-51 19.5 -89 59.5l51 64q30 -28 66 -39.5t84 -11.5q42 0 64.5 12t22.5 41q0 27 -24 40.5t-76 20.5q-82 11 -124.5 44.5t-42.5 101.5q0 40 23.5 72.5t66.5 50.5t99 18q59 0 102.5 -18.5t80.5 -56.5l-54 -62q-28 27 -57 37.5t-71 10.5q-43 0 -63 -14t-20 -38
q0 -26 21 -36.5t79 -20.5q81 -14 125 -46.5t44 -101.5q0 -41 -22.5 -74.5t-64.5 -53t-98 -19.5q-72 0 -123 19.5zM211 691q20 16 39 16t39 -16l119 -101l-45 -52l-114 87l-115 -87l-45 52z" />
    <glyph glyph-name="uni0219" unicode="&#x219;" horiz-adv-x="479" 
d="M126 8.5q-51 19.5 -89 59.5l51 64q30 -28 66 -39.5t84 -11.5q42 0 64.5 12t22.5 41q0 27 -24 40.5t-76 20.5q-82 11 -124.5 44.5t-42.5 101.5q0 40 23.5 72.5t66.5 50.5t99 18q59 0 102.5 -18.5t80.5 -56.5l-54 -62q-28 27 -57 37.5t-71 10.5q-43 0 -63 -14t-20 -38
q0 -26 21 -36.5t79 -20.5q81 -14 125 -46.5t44 -101.5q0 -41 -22.5 -74.5t-64.5 -53t-98 -19.5q-72 0 -123 19.5zM175.5 -133q20.5 35 20.5 82h91q0 -64 -34.5 -116.5t-92.5 -79.5l-46 53q41 26 61.5 61z" />
    <glyph glyph-name="germandbls" unicode="&#xdf;" horiz-adv-x="623" 
d="M296.5 5q-38.5 16 -71.5 49l55 64q23 -19 45 -27.5t50 -8.5q46 0 74.5 27.5t28.5 72.5q0 58 -39 87t-111 29h-63v89h47q50 0 81 31.5t31 77.5q0 44 -29 70.5t-82 26.5q-56 0 -91.5 -35.5t-35.5 -97.5v-461h-108v460q0 69 30 120t83 78t118 27q69 0 118.5 -23.5t75 -63.5
t25.5 -89q0 -51 -23 -89t-63 -60q66 -17 104 -64.5t38 -116.5q0 -52 -24.5 -95.5t-69.5 -68.5t-105 -25q-50 0 -88.5 16z" />
    <glyph glyph-name="t" unicode="t" horiz-adv-x="468" 
d="M169.5 42.5q-49.5 53.5 -49.5 162.5v172h-95v94h95v130h110v-130h193v-94h-193v-177q0 -115 96 -115q21 0 43 8t40 22l47 -70q-27 -27 -63.5 -41.5t-80.5 -14.5q-93 0 -142.5 53.5z" />
    <glyph glyph-name="tbar" unicode="&#x167;" horiz-adv-x="484" 
d="M182 42q-50 53 -50 159v11h-93v82h93v86h-95v91h95v130h110v-130h194v-91h-194v-86h195v-82h-195v-14q0 -56 24.5 -84.5t71.5 -28.5q44 0 84 30l47 -70q-58 -56 -145 -56q-92 0 -142 53z" />
    <glyph glyph-name="tcaron" unicode="&#x165;" horiz-adv-x="468" 
d="M388 684l-13 -161h-73v161h86zM169.5 42.5q-49.5 53.5 -49.5 162.5v172h-95v94h95v130h110v-130h193v-94h-193v-177q0 -115 96 -115q21 0 43 8t40 22l47 -70q-27 -27 -63.5 -41.5t-80.5 -14.5q-93 0 -142.5 53.5z" />
    <glyph glyph-name="uni0163" unicode="&#x163;" horiz-adv-x="468" 
d="M346 -9q19 -25 19 -56q0 -43 -32.5 -69.5t-87.5 -26.5q-33 0 -63 12.5t-49 33.5l41 53q29 -25 59 -25q21 0 34 10.5t13 30.5q0 30 -27 41q-133 31 -133 210v172h-95v94h95v130h110v-130h193v-94h-193v-177q0 -115 96 -115q21 0 43 8t40 22l47 -70q-43 -43 -110 -54z" />
    <glyph glyph-name="uni021B" unicode="&#x21b;" horiz-adv-x="468" 
d="M169.5 42.5q-49.5 53.5 -49.5 162.5v172h-95v94h95v130h110v-130h193v-94h-193v-177q0 -115 96 -115q21 0 43 8t40 22l47 -70q-27 -27 -63.5 -41.5t-80.5 -14.5q-93 0 -142.5 53.5zM170.5 -133q20.5 35 20.5 82h91q0 -64 -34.5 -116.5t-92.5 -79.5l-46 53q41 26 61.5 61z
" />
    <glyph glyph-name="u" unicode="u" horiz-adv-x="595" 
d="M121.5 43.5q-48.5 54.5 -48.5 160.5v267h110v-273q0 -57 25 -85.5t71 -28.5q60 0 94.5 39t34.5 112v236h110v-471h-88q-12 31 -15 69q-27 -38 -67 -59t-89 -21q-89 0 -137.5 54.5z" />
    <glyph glyph-name="uacute" unicode="&#xfa;" horiz-adv-x="595" 
d="M121.5 43.5q-48.5 54.5 -48.5 160.5v267h110v-273q0 -57 25 -85.5t71 -28.5q60 0 94.5 39t34.5 112v236h110v-471h-88q-12 31 -15 69q-27 -38 -67 -59t-89 -21q-89 0 -137.5 54.5zM393 716l44 -71l-201 -113l-40 63z" />
    <glyph glyph-name="ubreve" unicode="&#x16d;" horiz-adv-x="595" 
d="M121.5 43.5q-48.5 54.5 -48.5 160.5v267h110v-273q0 -57 25 -85.5t71 -28.5q60 0 94.5 39t34.5 112v236h110v-471h-88q-12 31 -15 69q-27 -38 -67 -59t-89 -21q-89 0 -137.5 54.5zM127 646l58 46q25 -35 50 -51.5t60 -16.5t60 16.5t50 51.5l58 -46q-69 -101 -168 -101
t-168 101z" />
    <glyph glyph-name="ucircumflex" unicode="&#xfb;" horiz-adv-x="595" 
d="M121.5 43.5q-48.5 54.5 -48.5 160.5v267h110v-273q0 -57 25 -85.5t71 -28.5q60 0 94.5 39t34.5 112v236h110v-471h-88q-12 31 -15 69q-27 -38 -67 -59t-89 -21q-89 0 -137.5 54.5zM257 691q20 16 39 16t39 -16l119 -101l-45 -52l-114 87l-115 -87l-45 52z" />
    <glyph glyph-name="udieresis" unicode="&#xfc;" horiz-adv-x="595" 
d="M121.5 43.5q-48.5 54.5 -48.5 160.5v267h110v-273q0 -57 25 -85.5t71 -28.5q60 0 94.5 39t34.5 112v236h110v-471h-88q-12 31 -15 69q-27 -38 -67 -59t-89 -21q-89 0 -137.5 54.5zM147 567.5q-18 18.5 -18 45.5t18 45.5t47 18.5q28 0 46 -18.5t18 -45.5t-18 -45.5
t-46 -18.5q-29 0 -47 18.5zM350.5 567q-17.5 18 -17.5 46q0 27 17.5 45.5t46.5 18.5t46.5 -18.5t17.5 -45.5t-18 -45.5t-46 -18.5q-29 0 -46.5 18z" />
    <glyph glyph-name="ugrave" unicode="&#xf9;" horiz-adv-x="595" 
d="M121.5 43.5q-48.5 54.5 -48.5 160.5v267h110v-273q0 -57 25 -85.5t71 -28.5q60 0 94.5 39t34.5 112v236h110v-471h-88q-12 31 -15 69q-27 -38 -67 -59t-89 -21q-89 0 -137.5 54.5zM197 716l197 -121l-40 -63l-201 113z" />
    <glyph glyph-name="uhungarumlaut" unicode="&#x171;" horiz-adv-x="595" 
d="M121.5 43.5q-48.5 54.5 -48.5 160.5v267h110v-273q0 -57 25 -85.5t71 -28.5q60 0 94.5 39t34.5 112v236h110v-471h-88q-12 31 -15 69q-27 -38 -67 -59t-89 -21q-89 0 -137.5 54.5zM293 716l56 -59l-159 -126l-50 54zM476 715l56 -58l-160 -126l-49 53z" />
    <glyph glyph-name="umacron" unicode="&#x16b;" horiz-adv-x="595" 
d="M121.5 43.5q-48.5 54.5 -48.5 160.5v267h110v-273q0 -57 25 -85.5t71 -28.5q60 0 94.5 39t34.5 112v236h110v-471h-88q-12 31 -15 69q-27 -38 -67 -59t-89 -21q-89 0 -137.5 54.5zM445 649v-80h-300v80h300z" />
    <glyph glyph-name="uogonek" unicode="&#x173;" horiz-adv-x="595" 
d="M537 -125q-19 -20 -46 -32.5t-59 -12.5q-43 0 -68.5 19.5t-25.5 52.5q0 25 15.5 45t44.5 39l30 18q-9 27 -13 65q-27 -38 -67 -59t-89 -21q-89 0 -137.5 54.5t-48.5 160.5v267h110v-273q0 -57 25 -85.5t71 -28.5q60 0 94.5 39t34.5 112v236h110v-470l1 -1
q-29 -20 -55 -36q-20 -12 -28.5 -21t-8.5 -20q0 -19 24 -19q21 0 46 22z" />
    <glyph glyph-name="uring" unicode="&#x16f;" horiz-adv-x="595" 
d="M121.5 43.5q-48.5 54.5 -48.5 160.5v267h110v-273q0 -57 25 -85.5t71 -28.5q60 0 94.5 39t34.5 112v236h110v-471h-88q-12 31 -15 69q-27 -38 -67 -59t-89 -21q-89 0 -137.5 54.5zM221 572q-31 29 -31 74q0 44 31.5 73.5t73.5 29.5t73.5 -29.5t31.5 -73.5q0 -45 -31 -74
t-74 -29t-74 29zM325.5 614.5q12.5 11.5 12.5 31.5t-12.5 31.5t-30.5 11.5t-30.5 -11.5t-12.5 -31.5t12.5 -31.5t30.5 -11.5t30.5 11.5z" />
    <glyph glyph-name="utilde" unicode="&#x169;" horiz-adv-x="595" 
d="M121.5 43.5q-48.5 54.5 -48.5 160.5v267h110v-273q0 -57 25 -85.5t71 -28.5q60 0 94.5 39t34.5 112v236h110v-471h-88q-12 31 -15 69q-27 -38 -67 -59t-89 -21q-89 0 -137.5 54.5zM323 553.5q-17 6.5 -39 19.5q-16 10 -28 15.5t-25 5.5q-23 0 -37.5 -8.5t-31.5 -28.5
l-49 44q47 72 115 72q24 0 41.5 -7t36.5 -19q30 -21 55 -21q21 0 35.5 8.5t31.5 28.5l50 -44q-49 -72 -117 -72q-21 0 -38 6.5z" />
    <glyph glyph-name="v" unicode="v" horiz-adv-x="534" 
d="M136 471l133 -356l131 356h119l-195 -471h-116l-193 471h121z" />
    <glyph glyph-name="w" unicode="w" horiz-adv-x="783" 
d="M138 471l92 -354l102 350h121l103 -350l90 354h117l-149 -471h-120l-104 354l-104 -354h-118l-149 471h119z" />
    <glyph glyph-name="wacute" unicode="&#x1e83;" horiz-adv-x="783" 
d="M138 471l92 -354l102 350h121l103 -350l90 354h117l-149 -471h-120l-104 354l-104 -354h-118l-149 471h119zM489 716l44 -71l-201 -113l-40 63z" />
    <glyph glyph-name="wcircumflex" unicode="&#x175;" horiz-adv-x="783" 
d="M138 471l92 -354l102 350h121l103 -350l90 354h117l-149 -471h-120l-104 354l-104 -354h-118l-149 471h119zM353 691q20 16 39 16t39 -16l119 -101l-45 -52l-114 87l-115 -87l-45 52z" />
    <glyph glyph-name="wdieresis" unicode="&#x1e85;" horiz-adv-x="783" 
d="M138 471l92 -354l102 350h121l103 -350l90 354h117l-149 -471h-120l-104 354l-104 -354h-118l-149 471h119zM243 567.5q-18 18.5 -18 45.5t18 45.5t47 18.5q28 0 46 -18.5t18 -45.5t-18 -45.5t-46 -18.5q-29 0 -47 18.5zM446.5 567q-17.5 18 -17.5 46q0 27 17.5 45.5
t46.5 18.5t46.5 -18.5t17.5 -45.5t-18 -45.5t-46 -18.5q-29 0 -46.5 18z" />
    <glyph glyph-name="wgrave" unicode="&#x1e81;" horiz-adv-x="783" 
d="M138 471l92 -354l102 350h121l103 -350l90 354h117l-149 -471h-120l-104 354l-104 -354h-118l-149 471h119zM293 716l197 -121l-40 -63l-201 113z" />
    <glyph glyph-name="x" unicode="x" horiz-adv-x="520" 
d="M24 471h124l113 -162l113 162h121l-168 -226l181 -245h-125l-125 177l-124 -177h-122l180 245z" />
    <glyph glyph-name="y" unicode="y" horiz-adv-x="527" 
d="M66 -190q-31 15 -58 48l55 61q17 -17 31 -24.5t35 -7.5q29 0 47.5 25.5t39.5 80.5l7 16l-213 462h123l141 -340l120 340h121l-200 -504q-31 -77 -70.5 -124.5t-100.5 -47.5q-47 0 -78 15z" />
    <glyph glyph-name="yacute" unicode="&#xfd;" horiz-adv-x="527" 
d="M66 -190q-31 15 -58 48l55 61q17 -17 31 -24.5t35 -7.5q29 0 47.5 25.5t39.5 80.5l7 16l-213 462h123l141 -340l120 340h121l-200 -504q-31 -77 -70.5 -124.5t-100.5 -47.5q-47 0 -78 15zM362 716l44 -71l-201 -113l-40 63z" />
    <glyph glyph-name="ycircumflex" unicode="&#x177;" horiz-adv-x="527" 
d="M66 -190q-31 15 -58 48l55 61q17 -17 31 -24.5t35 -7.5q29 0 47.5 25.5t39.5 80.5l7 16l-213 462h123l141 -340l120 340h121l-200 -504q-31 -77 -70.5 -124.5t-100.5 -47.5q-47 0 -78 15zM226 691q20 16 39 16t39 -16l119 -101l-45 -52l-114 87l-115 -87l-45 52z" />
    <glyph glyph-name="ydieresis" unicode="&#xff;" horiz-adv-x="527" 
d="M66 -190q-31 15 -58 48l55 61q17 -17 31 -24.5t35 -7.5q29 0 47.5 25.5t39.5 80.5l7 16l-213 462h123l141 -340l120 340h121l-200 -504q-31 -77 -70.5 -124.5t-100.5 -47.5q-47 0 -78 15zM116 567.5q-18 18.5 -18 45.5t18 45.5t47 18.5q28 0 46 -18.5t18 -45.5t-18 -45.5
t-46 -18.5q-29 0 -47 18.5zM319.5 567q-17.5 18 -17.5 46q0 27 17.5 45.5t46.5 18.5t46.5 -18.5t17.5 -45.5t-18 -45.5t-46 -18.5q-29 0 -46.5 18z" />
    <glyph glyph-name="ygrave" unicode="&#x1ef3;" horiz-adv-x="527" 
d="M66 -190q-31 15 -58 48l55 61q17 -17 31 -24.5t35 -7.5q29 0 47.5 25.5t39.5 80.5l7 16l-213 462h123l141 -340l120 340h121l-200 -504q-31 -77 -70.5 -124.5t-100.5 -47.5q-47 0 -78 15zM166 716l197 -121l-40 -63l-201 113z" />
    <glyph glyph-name="z" unicode="z" horiz-adv-x="480" 
d="M301 377h-255v94h392v-79l-262 -298h274v-94h-410v79z" />
    <glyph glyph-name="zacute" unicode="&#x17a;" horiz-adv-x="480" 
d="M301 377h-255v94h392v-79l-262 -298h274v-94h-410v79zM339 716l44 -71l-201 -113l-40 63z" />
    <glyph glyph-name="zcaron" unicode="&#x17e;" horiz-adv-x="480" 
d="M301 377h-255v94h392v-79l-262 -298h274v-94h-410v79zM200 551l-119 102l45 52l114 -88l115 88l45 -52l-122 -102q-18 -15 -39 -15t-39 15z" />
    <glyph glyph-name="zdotaccent" unicode="&#x17c;" horiz-adv-x="480" 
d="M301 377h-255v94h392v-79l-262 -298h274v-94h-410v79zM192.5 566.5q-18.5 18.5 -18.5 46.5t18.5 46.5t48.5 18.5t48.5 -18.5t18.5 -46.5t-18.5 -46.5t-48.5 -18.5t-48.5 18.5z" />
    <glyph glyph-name="a.ss01" horiz-adv-x="611" 
d="M151 20.5q-49 31.5 -75.5 87.5t-26.5 128t28 128.5t78 87.5t116 31q98 0 158 -75q4 39 13 63h91v-471h-87q-12 31 -14 73q-29 -40 -72 -62t-95 -22q-65 0 -114 31.5zM384.5 121.5q38.5 37.5 38.5 102.5v21q0 69 -37 105.5t-98 36.5q-57 0 -92.5 -37t-35.5 -112
t33.5 -114.5t89.5 -39.5q63 0 101.5 37.5z" />
    <glyph glyph-name="aacute.ss01" horiz-adv-x="611" 
d="M151 20.5q-49 31.5 -75.5 87.5t-26.5 128t28 128.5t78 87.5t116 31q98 0 158 -75q4 39 13 63h91v-471h-87q-12 31 -14 73q-29 -40 -72 -62t-95 -22q-65 0 -114 31.5zM384.5 121.5q38.5 37.5 38.5 102.5v21q0 69 -37 105.5t-98 36.5q-57 0 -92.5 -37t-35.5 -112
t33.5 -114.5t89.5 -39.5q63 0 101.5 37.5zM396 716l44 -71l-201 -113l-40 63z" />
    <glyph glyph-name="abreve.ss01" horiz-adv-x="611" 
d="M151 20.5q-49 31.5 -75.5 87.5t-26.5 128t28 128.5t78 87.5t116 31q98 0 158 -75q4 39 13 63h91v-471h-87q-12 31 -14 73q-29 -40 -72 -62t-95 -22q-65 0 -114 31.5zM384.5 121.5q38.5 37.5 38.5 102.5v21q0 69 -37 105.5t-98 36.5q-57 0 -92.5 -37t-35.5 -112
t33.5 -114.5t89.5 -39.5q63 0 101.5 37.5zM130 646l58 46q25 -35 50 -51.5t60 -16.5t60 16.5t50 51.5l58 -46q-69 -101 -168 -101t-168 101z" />
    <glyph glyph-name="acircumflex.ss01" horiz-adv-x="611" 
d="M151 20.5q-49 31.5 -75.5 87.5t-26.5 128t28 128.5t78 87.5t116 31q98 0 158 -75q4 39 13 63h91v-471h-87q-12 31 -14 73q-29 -40 -72 -62t-95 -22q-65 0 -114 31.5zM384.5 121.5q38.5 37.5 38.5 102.5v21q0 69 -37 105.5t-98 36.5q-57 0 -92.5 -37t-35.5 -112
t33.5 -114.5t89.5 -39.5q63 0 101.5 37.5zM260 691q20 16 39 16t39 -16l119 -101l-45 -52l-114 87l-115 -87l-45 52z" />
    <glyph glyph-name="adieresis.ss01" horiz-adv-x="611" 
d="M151 20.5q-49 31.5 -75.5 87.5t-26.5 128t28 128.5t78 87.5t116 31q98 0 158 -75q4 39 13 63h91v-471h-87q-12 31 -14 73q-29 -40 -72 -62t-95 -22q-65 0 -114 31.5zM384.5 121.5q38.5 37.5 38.5 102.5v21q0 69 -37 105.5t-98 36.5q-57 0 -92.5 -37t-35.5 -112
t33.5 -114.5t89.5 -39.5q63 0 101.5 37.5zM150 567.5q-18 18.5 -18 45.5t18 45.5t47 18.5q28 0 46 -18.5t18 -45.5t-18 -45.5t-46 -18.5q-29 0 -47 18.5zM353.5 567q-17.5 18 -17.5 46q0 27 17.5 45.5t46.5 18.5t46.5 -18.5t17.5 -45.5t-18 -45.5t-46 -18.5q-29 0 -46.5 18z
" />
    <glyph glyph-name="agrave.ss01" horiz-adv-x="611" 
d="M151 20.5q-49 31.5 -75.5 87.5t-26.5 128t28 128.5t78 87.5t116 31q98 0 158 -75q4 39 13 63h91v-471h-87q-12 31 -14 73q-29 -40 -72 -62t-95 -22q-65 0 -114 31.5zM384.5 121.5q38.5 37.5 38.5 102.5v21q0 69 -37 105.5t-98 36.5q-57 0 -92.5 -37t-35.5 -112
t33.5 -114.5t89.5 -39.5q63 0 101.5 37.5zM200 716l197 -121l-40 -63l-201 113z" />
    <glyph glyph-name="amacron.ss01" horiz-adv-x="611" 
d="M151 20.5q-49 31.5 -75.5 87.5t-26.5 128t28 128.5t78 87.5t116 31q98 0 158 -75q4 39 13 63h91v-471h-87q-12 31 -14 73q-29 -40 -72 -62t-95 -22q-65 0 -114 31.5zM384.5 121.5q38.5 37.5 38.5 102.5v21q0 69 -37 105.5t-98 36.5q-57 0 -92.5 -37t-35.5 -112
t33.5 -114.5t89.5 -39.5q63 0 101.5 37.5zM448 649v-80h-300v80h300z" />
    <glyph glyph-name="aogonek.ss01" horiz-adv-x="611" 
d="M552 -125q-19 -20 -46 -32.5t-59 -12.5q-43 0 -68.5 19.5t-25.5 52.5q0 25 15.5 45t44.5 39q6 3 13.5 8t17.5 11q-10 28 -12 68q-29 -40 -72 -62t-95 -22q-65 0 -114 31.5t-75.5 87.5t-26.5 128t28 128.5t78 87.5t116 31q98 0 158 -75q4 39 13 63h91v-470l1 -1
q-29 -20 -55 -36q-20 -12 -28.5 -21t-8.5 -20q0 -19 24 -19q21 0 46 22zM423 245q0 69 -37 105.5t-98 36.5q-57 0 -92.5 -37t-35.5 -112t33.5 -114.5t89.5 -39.5q63 0 101.5 37.5t38.5 102.5v21z" />
    <glyph glyph-name="aring.ss01" horiz-adv-x="611" 
d="M151 20.5q-49 31.5 -75.5 87.5t-26.5 128t28 128.5t78 87.5t116 31q98 0 158 -75q4 39 13 63h91v-471h-87q-12 31 -14 73q-29 -40 -72 -62t-95 -22q-65 0 -114 31.5zM384.5 121.5q38.5 37.5 38.5 102.5v21q0 69 -37 105.5t-98 36.5q-57 0 -92.5 -37t-35.5 -112
t33.5 -114.5t89.5 -39.5q63 0 101.5 37.5zM224 572q-31 29 -31 74q0 44 31.5 73.5t73.5 29.5t73.5 -29.5t31.5 -73.5q0 -45 -31 -74t-74 -29t-74 29zM328.5 614.5q12.5 11.5 12.5 31.5t-12.5 31.5t-30.5 11.5t-30.5 -11.5t-12.5 -31.5t12.5 -31.5t30.5 -11.5t30.5 11.5z" />
    <glyph glyph-name="atilde.ss01" horiz-adv-x="611" 
d="M151 20.5q-49 31.5 -75.5 87.5t-26.5 128t28 128.5t78 87.5t116 31q98 0 158 -75q4 39 13 63h91v-471h-87q-12 31 -14 73q-29 -40 -72 -62t-95 -22q-65 0 -114 31.5zM384.5 121.5q38.5 37.5 38.5 102.5v21q0 69 -37 105.5t-98 36.5q-57 0 -92.5 -37t-35.5 -112
t33.5 -114.5t89.5 -39.5q63 0 101.5 37.5zM326 553.5q-17 6.5 -39 19.5q-16 10 -28 15.5t-25 5.5q-23 0 -37.5 -8.5t-31.5 -28.5l-49 44q47 72 115 72q24 0 41.5 -7t36.5 -19q30 -21 55 -21q21 0 35.5 8.5t31.5 28.5l50 -44q-49 -72 -117 -72q-21 0 -38 6.5z" />
    <glyph glyph-name="ae.ss01" horiz-adv-x="942" 
d="M154 21q-50 32 -77.5 88.5t-27.5 127.5q0 72 28 128t78.5 87t114.5 31q50 0 90 -19.5t69 -55.5q1 29 12 63h84v-53q56 64 150 64q103 0 158 -64.5t55 -176.5v-32h-346q7 -58 44.5 -93t96.5 -35q49 0 81.5 16.5t57.5 46.5l63 -52q-62 -103 -202 -103q-103 0 -158 63v-52
h-79q-10 25 -14 71q-29 -39 -71.5 -60.5t-92.5 -21.5q-64 0 -114 32zM748.5 366.5q-27.5 27.5 -77.5 27.5q-49 0 -82.5 -27.5t-43.5 -78.5h236q-5 51 -32.5 78.5zM384 121.5q39 37.5 39 102.5v21q0 69 -38 105.5t-100 36.5q-56 0 -90.5 -36.5t-34.5 -111.5
q0 -76 33.5 -115.5t89.5 -39.5q62 0 101 37.5z" />
    <glyph glyph-name="g.ss01" horiz-adv-x="614" 
d="M151 -184q-59 20 -105 67l52 70q37 -33 78.5 -48.5t93.5 -15.5q75 0 116 37t41 108v45q-28 -35 -69 -54t-91 -19q-64 0 -113.5 29.5t-77 83t-27.5 124.5t29 125t80 84t115 30q50 0 90.5 -19.5t68.5 -55.5q3 38 13 64h91v-434q0 -70 -31.5 -125t-88.5 -85.5t-131 -30.5
q-75 0 -134 20zM387.5 134.5q39.5 36.5 39.5 101.5v11q0 68 -38 104t-99 36q-58 0 -94 -35.5t-36 -106.5t34 -109t91 -38q63 0 102.5 36.5z" />
    <glyph glyph-name="gbreve.ss01" horiz-adv-x="614" 
d="M151 -184q-59 20 -105 67l52 70q37 -33 78.5 -48.5t93.5 -15.5q75 0 116 37t41 108v45q-28 -35 -69 -54t-91 -19q-64 0 -113.5 29.5t-77 83t-27.5 124.5t29 125t80 84t115 30q50 0 90.5 -19.5t68.5 -55.5q3 38 13 64h91v-434q0 -70 -31.5 -125t-88.5 -85.5t-131 -30.5
q-75 0 -134 20zM387.5 134.5q39.5 36.5 39.5 101.5v11q0 68 -38 104t-99 36q-58 0 -94 -35.5t-36 -106.5t34 -109t91 -38q63 0 102.5 36.5zM139 646l58 46q25 -35 50 -51.5t60 -16.5t60 16.5t50 51.5l58 -46q-69 -101 -168 -101t-168 101z" />
    <glyph glyph-name="gcircumflex.ss01" horiz-adv-x="614" 
d="M151 -184q-59 20 -105 67l52 70q37 -33 78.5 -48.5t93.5 -15.5q75 0 116 37t41 108v45q-28 -35 -69 -54t-91 -19q-64 0 -113.5 29.5t-77 83t-27.5 124.5t29 125t80 84t115 30q50 0 90.5 -19.5t68.5 -55.5q3 38 13 64h91v-434q0 -70 -31.5 -125t-88.5 -85.5t-131 -30.5
q-75 0 -134 20zM387.5 134.5q39.5 36.5 39.5 101.5v11q0 68 -38 104t-99 36q-58 0 -94 -35.5t-36 -106.5t34 -109t91 -38q63 0 102.5 36.5zM269 691q20 16 39 16t39 -16l119 -101l-45 -52l-114 87l-115 -87l-45 52z" />
    <glyph glyph-name="uni0123.ss01" horiz-adv-x="614" 
d="M151 -184q-59 20 -105 67l52 70q37 -33 78.5 -48.5t93.5 -15.5q75 0 116 37t41 108v45q-28 -35 -69 -54t-91 -19q-64 0 -113.5 29.5t-77 83t-27.5 124.5t29 125t80 84t115 30q50 0 90.5 -19.5t68.5 -55.5q3 38 13 64h91v-434q0 -70 -31.5 -125t-88.5 -85.5t-131 -30.5
q-75 0 -134 20zM387.5 134.5q39.5 36.5 39.5 101.5v11q0 68 -38 104t-99 36q-58 0 -94 -35.5t-36 -106.5t34 -109t91 -38q63 0 102.5 36.5zM290 672.5q35 52.5 93 79.5l45 -53q-41 -26 -61 -60.5t-20 -82.5h-92q0 64 35 116.5z" />
    <glyph glyph-name="gdotaccent.ss01" horiz-adv-x="614" 
d="M151 -184q-59 20 -105 67l52 70q37 -33 78.5 -48.5t93.5 -15.5q75 0 116 37t41 108v45q-28 -35 -69 -54t-91 -19q-64 0 -113.5 29.5t-77 83t-27.5 124.5t29 125t80 84t115 30q50 0 90.5 -19.5t68.5 -55.5q3 38 13 64h91v-434q0 -70 -31.5 -125t-88.5 -85.5t-131 -30.5
q-75 0 -134 20zM387.5 134.5q39.5 36.5 39.5 101.5v11q0 68 -38 104t-99 36q-58 0 -94 -35.5t-36 -106.5t34 -109t91 -38q63 0 102.5 36.5zM258.5 566.5q-18.5 18.5 -18.5 46.5t18.5 46.5t48.5 18.5t48.5 -18.5t18.5 -46.5t-18.5 -46.5t-48.5 -18.5t-48.5 18.5z" />
    <glyph glyph-name="k.ss01" horiz-adv-x="552" 
d="M186 674v-377h116l112 174h116l-140 -215l157 -256h-124l-123 204h-114v-204h-108v674h108z" />
    <glyph glyph-name="uni0137.ss01" horiz-adv-x="552" 
d="M186 674v-377h116l112 174h116l-140 -215l157 -256h-124l-123 204h-114v-204h-108v674h108zM212.5 -133q20.5 35 20.5 82h91q0 -64 -34.5 -116.5t-92.5 -79.5l-46 53q41 26 61.5 61z" />
    <glyph glyph-name="kgreenlandic.ss01" horiz-adv-x="552" 
d="M186 471v-189h115l112 189h117l-140 -230l157 -241h-124l-123 189h-114v-189h-108v471h108z" />
    <glyph glyph-name="y.ss01" horiz-adv-x="527" 
d="M10 471h123l138 -340l123 340h121l-267 -665h-110l78 206z" />
    <glyph glyph-name="yacute.ss01" horiz-adv-x="527" 
d="M10 471h123l138 -340l123 340h121l-267 -665h-110l78 206zM362 716l44 -71l-201 -113l-40 63z" />
    <glyph glyph-name="ycircumflex.ss01" horiz-adv-x="527" 
d="M10 471h123l138 -340l123 340h121l-267 -665h-110l78 206zM226 691q20 16 39 16t39 -16l119 -101l-45 -52l-114 87l-115 -87l-45 52z" />
    <glyph glyph-name="ydieresis.ss01" horiz-adv-x="527" 
d="M10 471h123l138 -340l123 340h121l-267 -665h-110l78 206zM116 567.5q-18 18.5 -18 45.5t18 45.5t47 18.5q28 0 46 -18.5t18 -45.5t-18 -45.5t-46 -18.5q-29 0 -47 18.5zM319.5 567q-17.5 18 -17.5 46q0 27 17.5 45.5t46.5 18.5t46.5 -18.5t17.5 -45.5t-18 -45.5
t-46 -18.5q-29 0 -46.5 18z" />
    <glyph glyph-name="ygrave.ss01" horiz-adv-x="527" 
d="M10 471h123l138 -340l123 340h121l-267 -665h-110l78 206zM166 716l197 -121l-40 -63l-201 113z" />
    <glyph glyph-name="ordfeminine" unicode="&#xaa;" horiz-adv-x="416" 
d="M65.5 303.5q-32.5 30.5 -32.5 74.5q0 46 37 77.5t109 31.5q53 0 99 -16v5q0 43 -22 63.5t-61 20.5q-31 0 -56 -7.5t-52 -27.5l-43 53q36 30 74 43t88 13q71 0 115.5 -40t44.5 -120v-193h-70q-8 26 -10 51q-43 -59 -125 -59q-63 0 -95.5 30.5zM247.5 363q25.5 22 28.5 51
v3q-39 11 -81 11q-76 0 -76 -46q0 -21 16 -31t42 -10q45 0 70.5 22z" />
    <glyph glyph-name="ordmasculine" unicode="&#xba;" horiz-adv-x="447" 
d="M125.5 296.5q-42.5 23.5 -65.5 65t-23 92.5q0 49 23.5 90t66 65.5t97.5 24.5q56 0 98.5 -23.5t65 -64.5t22.5 -92q0 -49 -23.5 -90.5t-66 -66t-96.5 -24.5q-56 0 -98.5 23.5zM292.5 381.5q24.5 29.5 24.5 72.5q0 42 -24 71.5t-68 29.5q-46 0 -70.5 -29t-24.5 -72
t24.5 -72.5t69.5 -29.5q44 0 68.5 29.5z" />
    <glyph glyph-name="ordfeminine.ss01" horiz-adv-x="461" 
d="M117.5 296.5q-37.5 23.5 -59 64.5t-21.5 93t22 92.5t60 63.5t85 23q73 0 118 -53q4 30 10 45h76v-344h-74q-9 24 -10 50q-22 -27 -54 -42.5t-69 -15.5q-46 0 -83.5 23.5zM290.5 376q25.5 25 25.5 68v16q0 47 -25.5 71t-67.5 24q-41 0 -67.5 -24.5t-26.5 -75.5t26 -77.5
t66 -26.5q44 0 69.5 25z" />
    <glyph glyph-name="uni0394" unicode="&#x394;" horiz-adv-x="630" 
d="M251 624h129l214 -538v-86h-558v86zM313 532l-163 -434h327z" />
    <glyph glyph-name="uni03A9" unicode="&#x3a9;" horiz-adv-x="723" 
d="M170 99q-55 42 -86.5 100.5t-31.5 132.5q0 85 40.5 154t111.5 108.5t159 39.5q93 0 163 -39t108 -108t38 -155q0 -71 -32.5 -130.5t-89.5 -102.5h129v-99h-261v99q66 34 103 92t37 133q0 93 -53.5 149.5t-141.5 56.5q-89 0 -143 -56.5t-54 -149.5q0 -80 37.5 -137
t102.5 -88v-99h-262v99h126z" />
    <glyph glyph-name="uni03BC" unicode="&#x3bc;" horiz-adv-x="599" 
d="M188 471v-273q0 -57 25 -86t71 -29q60 0 94 39.5t34 112.5v236h111v-471h-89q-11 28 -14 66q-25 -37 -61 -57t-79 -20q-52 0 -92 38v-221h-111v665h111z" />
    <glyph glyph-name="pi" unicode="&#x3c0;" horiz-adv-x="663" 
d="M441 29q-34 40 -34 116v232h-175v-377h-110v377h-97v94h590v-94h-97v-238q0 -27 11 -41.5t32 -14.5q15 0 25 3.5t22 12.5l42 -66q-41 -44 -110 -44q-65 0 -99 40z" />
    <glyph glyph-name="zero" unicode="0" 
d="M100 77.5q-65 88.5 -65 230.5q0 89 29.5 160.5t87.5 113.5t139 42q125 0 190 -87.5t65 -228.5q0 -90 -30 -162.5t-87.5 -114.5t-137.5 -42q-126 0 -191 88.5zM398 151q35 58 35 157q0 98 -34.5 155t-107.5 57t-108.5 -57t-35.5 -155q0 -99 35 -157t108 -58t108 58z" />
    <glyph glyph-name="one" unicode="1" 
d="M282 98v406l-187 -74l-36 87l230 97h106v-516h147v-98h-442v98h182z" />
    <glyph glyph-name="two" unicode="2" 
d="M248 245q54 49 80.5 75.5t41.5 53.5t15 57q0 43 -29 67t-77 24t-85.5 -19.5t-78.5 -71.5l-73 57q91 136 243 136q95 0 154 -50.5t59 -140.5q0 -43 -18 -79.5t-48.5 -69t-83.5 -78.5l-122 -108h285v-98h-448v80z" />
    <glyph glyph-name="three" unicode="3" 
d="M45 119l73 56q39 -49 79 -68t89 -19q53 0 85 22.5t32 63.5q0 43 -28 67.5t-82 24.5h-84v91h86q48 0 73.5 23.5t25.5 62.5q0 41 -28.5 61.5t-78.5 20.5q-47 0 -85 -18.5t-76 -66.5l-71 56q86 128 236 128q99 0 154.5 -48.5t55.5 -131.5q0 -42 -22 -75.5t-61 -52.5
q44 -23 68.5 -61t24.5 -86q0 -53 -27.5 -93.5t-77.5 -63.5t-116 -23q-158 0 -245 130z" />
    <glyph glyph-name="four" unicode="4" 
d="M48 148v93l267 389l82 -49l-233 -342h187v150h100v-150h85v-91h-85v-148h-103v148h-300z" />
    <glyph glyph-name="five" unicode="5" 
d="M145 17q-60 28 -104 90l72 59q37 -45 75.5 -60.5t90.5 -15.5q48 0 81 27.5t33 70.5q0 56 -38.5 81t-123.5 25h-142l47 320h327v-95h-245l-19 -137h68q115 0 176.5 -52.5t61.5 -144.5q0 -58 -29.5 -103t-80 -69t-111.5 -24q-79 0 -139 28z" />
    <glyph glyph-name="six" unicode="6" 
d="M161.5 15.5q-54.5 26.5 -83.5 75t-29 111.5q0 134 129 261l173 172l70 -57l-201 -201q45 21 100 21q60 0 106.5 -24t72.5 -69t26 -104q0 -62 -30.5 -110.5t-84.5 -75t-122 -26.5q-72 0 -126.5 26.5zM385.5 116.5q34.5 28.5 34.5 82.5q0 110 -125 110q-64 0 -102 -28.5
t-38 -81.5q0 -54 34 -82.5t98 -28.5t98.5 28.5z" />
    <glyph glyph-name="seven" unicode="7" 
d="M385 513h-326v101h457v-79l-262 -546l-102 40z" />
    <glyph glyph-name="eight" unicode="8" 
d="M118.5 39q-60.5 50 -60.5 131q0 49 27.5 87t73.5 61q-40 22 -63 56.5t-23 78.5q0 48 27 87t76 61.5t113 22.5q102 0 159.5 -46.5t57.5 -121.5q0 -43 -23 -77.5t-62 -57.5q47 -23 74.5 -61t27.5 -88q0 -52 -28 -93.5t-80.5 -65.5t-123.5 -24q-112 0 -172.5 50z
M371.5 387.5q28.5 24.5 28.5 63.5q0 38 -28.5 61t-82.5 23q-53 0 -82 -23t-29 -61q0 -39 29.5 -63.5t82.5 -24.5t81.5 24.5zM383 104.5q32 25.5 32 69.5q0 45 -32.5 72.5t-92.5 27.5q-58 0 -90.5 -27.5t-32.5 -72.5q0 -44 32 -69.5t92 -25.5t92 25.5z" />
    <glyph glyph-name="nine" unicode="9" 
d="M360 237q-44 -22 -104 -22q-91 0 -147 53t-56 144q0 61 30.5 109.5t84 75.5t121.5 27q72 0 126.5 -26.5t83.5 -75t29 -111.5q0 -138 -126 -261l-175 -172l-72 58zM384.5 333q37.5 28 37.5 81q0 54 -34 82.5t-98 28.5t-98.5 -28.5t-34.5 -82.5q0 -109 125 -109
q65 0 102.5 28z" />
    <glyph glyph-name="zero.lf" horiz-adv-x="601" 
d="M110 77.5q-65 88.5 -65 230.5q0 89 29.5 160.5t87.5 113.5t139 42q125 0 190 -87.5t65 -228.5q0 -90 -30 -162.5t-87.5 -114.5t-137.5 -42q-126 0 -191 88.5zM408 151q35 58 35 157q0 98 -34.5 155t-107.5 57t-108.5 -57t-35.5 -155q0 -99 35 -157t108 -58t108 58z" />
    <glyph glyph-name="one.lf" horiz-adv-x="526" 
d="M249 98v406l-187 -74l-36 87l230 97h106v-516h147v-98h-442v98h182z" />
    <glyph glyph-name="two.lf" 
d="M248 245q54 49 80.5 75.5t41.5 53.5t15 57q0 43 -29 67t-77 24t-85.5 -19.5t-78.5 -71.5l-73 57q91 136 243 136q95 0 154 -50.5t59 -140.5q0 -43 -18 -79.5t-48.5 -69t-83.5 -78.5l-122 -108h285v-98h-448v80z" />
    <glyph glyph-name="three.lf" horiz-adv-x="566" 
d="M38 119l73 56q39 -49 79 -68t89 -19q53 0 85 22.5t32 63.5q0 43 -28 67.5t-82 24.5h-84v91h86q48 0 73.5 23.5t25.5 62.5q0 41 -28.5 61.5t-78.5 20.5q-47 0 -85 -18.5t-76 -66.5l-71 56q86 128 236 128q99 0 154.5 -48.5t55.5 -131.5q0 -42 -22 -75.5t-61 -52.5
q44 -23 68.5 -61t24.5 -86q0 -53 -27.5 -93.5t-77.5 -63.5t-116 -23q-158 0 -245 130z" />
    <glyph glyph-name="four.lf" horiz-adv-x="583" 
d="M50 148v93l267 389l82 -49l-233 -342h187v150h100v-150h85v-91h-85v-148h-103v148h-300z" />
    <glyph glyph-name="five.lf" 
d="M145 17q-60 28 -104 90l72 59q37 -45 75.5 -60.5t90.5 -15.5q48 0 81 27.5t33 70.5q0 56 -38.5 81t-123.5 25h-142l47 320h327v-95h-245l-19 -137h68q115 0 176.5 -52.5t61.5 -144.5q0 -58 -29.5 -103t-80 -69t-111.5 -24q-79 0 -139 28z" />
    <glyph glyph-name="six.lf" 
d="M161.5 15.5q-54.5 26.5 -83.5 75t-29 111.5q0 134 129 261l173 172l70 -57l-201 -201q45 21 100 21q60 0 106.5 -24t72.5 -69t26 -104q0 -62 -30.5 -110.5t-84.5 -75t-122 -26.5q-72 0 -126.5 26.5zM385.5 116.5q34.5 28.5 34.5 82.5q0 110 -125 110q-64 0 -102 -28.5
t-38 -81.5q0 -54 34 -82.5t98 -28.5t98.5 28.5z" />
    <glyph glyph-name="seven.lf" horiz-adv-x="546" 
d="M368 513h-326v101h457v-79l-262 -546l-102 40z" />
    <glyph glyph-name="eight.lf" horiz-adv-x="594" 
d="M125.5 39q-60.5 50 -60.5 131q0 49 27.5 87t73.5 61q-40 22 -63 56.5t-23 78.5q0 48 27 87t76 61.5t113 22.5q102 0 159.5 -46.5t57.5 -121.5q0 -43 -23 -77.5t-62 -57.5q47 -23 74.5 -61t27.5 -88q0 -52 -28 -93.5t-80.5 -65.5t-123.5 -24q-112 0 -172.5 50z
M378.5 387.5q28.5 24.5 28.5 63.5q0 38 -28.5 61t-82.5 23q-53 0 -82 -23t-29 -61q0 -39 29.5 -63.5t82.5 -24.5t81.5 24.5zM390 104.5q32 25.5 32 69.5q0 45 -32.5 72.5t-92.5 27.5q-58 0 -90.5 -27.5t-32.5 -72.5q0 -44 32 -69.5t92 -25.5t92 25.5z" />
    <glyph glyph-name="nine.lf" horiz-adv-x="594" 
d="M360 237q-44 -22 -104 -22q-91 0 -147 53t-56 144q0 61 30.5 109.5t84 75.5t121.5 27q72 0 126.5 -26.5t83.5 -75t29 -111.5q0 -138 -126 -261l-175 -172l-72 58zM384.5 333q37.5 28 37.5 81q0 54 -34 82.5t-98 28.5t-98.5 -28.5t-34.5 -82.5q0 -109 125 -109
q65 0 102.5 28z" />
    <glyph glyph-name="zero.tf" 
d="M100 77.5q-65 88.5 -65 230.5q0 89 29.5 160.5t87.5 113.5t139 42q125 0 190 -87.5t65 -228.5q0 -90 -30 -162.5t-87.5 -114.5t-137.5 -42q-126 0 -191 88.5zM398 151q35 58 35 157q0 98 -34.5 155t-107.5 57t-108.5 -57t-35.5 -155q0 -99 35 -157t108 -58t108 58z" />
    <glyph glyph-name="one.tf" 
d="M282 98v406l-187 -74l-36 87l230 97h106v-516h147v-98h-442v98h182z" />
    <glyph glyph-name="two.tf" 
d="M248 245q54 49 80.5 75.5t41.5 53.5t15 57q0 43 -29 67t-77 24t-85.5 -19.5t-78.5 -71.5l-73 57q91 136 243 136q95 0 154 -50.5t59 -140.5q0 -43 -18 -79.5t-48.5 -69t-83.5 -78.5l-122 -108h285v-98h-448v80z" />
    <glyph glyph-name="three.tf" 
d="M45 119l73 56q39 -49 79 -68t89 -19q53 0 85 22.5t32 63.5q0 43 -28 67.5t-82 24.5h-84v91h86q48 0 73.5 23.5t25.5 62.5q0 41 -28.5 61.5t-78.5 20.5q-47 0 -85 -18.5t-76 -66.5l-71 56q86 128 236 128q99 0 154.5 -48.5t55.5 -131.5q0 -42 -22 -75.5t-61 -52.5
q44 -23 68.5 -61t24.5 -86q0 -53 -27.5 -93.5t-77.5 -63.5t-116 -23q-158 0 -245 130z" />
    <glyph glyph-name="four.tf" 
d="M48 148v93l267 389l82 -49l-233 -342h187v150h100v-150h85v-91h-85v-148h-103v148h-300z" />
    <glyph glyph-name="five.tf" 
d="M145 17q-60 28 -104 90l72 59q37 -45 75.5 -60.5t90.5 -15.5q48 0 81 27.5t33 70.5q0 56 -38.5 81t-123.5 25h-142l47 320h327v-95h-245l-19 -137h68q115 0 176.5 -52.5t61.5 -144.5q0 -58 -29.5 -103t-80 -69t-111.5 -24q-79 0 -139 28z" />
    <glyph glyph-name="six.tf" 
d="M161.5 15.5q-54.5 26.5 -83.5 75t-29 111.5q0 134 129 261l173 172l70 -57l-201 -201q45 21 100 21q60 0 106.5 -24t72.5 -69t26 -104q0 -62 -30.5 -110.5t-84.5 -75t-122 -26.5q-72 0 -126.5 26.5zM385.5 116.5q34.5 28.5 34.5 82.5q0 110 -125 110q-64 0 -102 -28.5
t-38 -81.5q0 -54 34 -82.5t98 -28.5t98.5 28.5z" />
    <glyph glyph-name="seven.tf" 
d="M385 513h-326v101h457v-79l-262 -546l-102 40z" />
    <glyph glyph-name="eight.tf" 
d="M118.5 39q-60.5 50 -60.5 131q0 49 27.5 87t73.5 61q-40 22 -63 56.5t-23 78.5q0 48 27 87t76 61.5t113 22.5q102 0 159.5 -46.5t57.5 -121.5q0 -43 -23 -77.5t-62 -57.5q47 -23 74.5 -61t27.5 -88q0 -52 -28 -93.5t-80.5 -65.5t-123.5 -24q-112 0 -172.5 50z
M371.5 387.5q28.5 24.5 28.5 63.5q0 38 -28.5 61t-82.5 23q-53 0 -82 -23t-29 -61q0 -39 29.5 -63.5t82.5 -24.5t81.5 24.5zM383 104.5q32 25.5 32 69.5q0 45 -32.5 72.5t-92.5 27.5q-58 0 -90.5 -27.5t-32.5 -72.5q0 -44 32 -69.5t92 -25.5t92 25.5z" />
    <glyph glyph-name="nine.tf" horiz-adv-x="594" 
d="M360 237q-44 -22 -104 -22q-91 0 -147 53t-56 144q0 61 30.5 109.5t84 75.5t121.5 27q72 0 126.5 -26.5t83.5 -75t29 -111.5q0 -138 -126 -261l-175 -172l-72 58zM384.5 333q37.5 28 37.5 81q0 54 -34 82.5t-98 28.5t-98.5 -28.5t-34.5 -82.5q0 -109 125 -109
q65 0 102.5 28z" />
    <glyph glyph-name="zero.subs" horiz-adv-x="444" 
d="M89 -43.5q-45 53.5 -45 138.5q0 82 47 135.5t131 53.5q88 0 133 -52t45 -137q0 -83 -46.5 -137.5t-131.5 -54.5q-88 0 -133 53.5zM290 13q22 29 22 82q0 52 -21.5 80.5t-67.5 28.5q-91 0 -91 -109q0 -111 90 -111q46 0 68 29z" />
    <glyph glyph-name="one.subs" horiz-adv-x="444" 
d="M213 -15v209l-126 -45l-29 66l161 63h82v-293h98v-75h-312v75h126z" />
    <glyph glyph-name="two.subs" horiz-adv-x="445" 
d="M188 60q57 41 77.5 60t20.5 41q0 21 -18.5 34t-49.5 13q-33 0 -59.5 -11.5t-53.5 -42.5l-57 41q32 44 76 66.5t98 22.5q67 0 108.5 -29t41.5 -85q0 -42 -28.5 -72.5t-89.5 -71.5l-61 -44h187v-72h-316v62z" />
    <glyph glyph-name="three.subs" horiz-adv-x="445" 
d="M48 -13l53 40q27 -30 55.5 -40t64.5 -10t57.5 11.5t21.5 31.5q0 44 -66 44h-68v65h68q31 0 45 10.5t14 30.5q0 21 -19.5 31.5t-53.5 10.5q-33 0 -59.5 -10.5t-53.5 -39.5l-53 40q60 82 170 82q70 0 110 -29t40 -79q0 -51 -54 -79q29 -13 45.5 -35.5t16.5 -51.5
q0 -48 -43 -77.5t-114 -29.5q-117 0 -177 84z" />
    <glyph glyph-name="four.subs" horiz-adv-x="444" 
d="M51 -6v73l189 224l63 -38l-164 -192h128v81h73v-81h57v-67h-57v-84h-77v84h-212z" />
    <glyph glyph-name="five.subs" horiz-adv-x="445" 
d="M121 -79.5q-43 17.5 -73 57.5l53 43q24 -25 51 -34.5t63 -9.5q32 0 53.5 14t21.5 36q0 28 -22 39.5t-76 11.5h-112l30 200h237v-69h-175l-11 -69h59q78 0 116.5 -30.5t38.5 -87.5q0 -54 -44.5 -86.5t-109.5 -32.5q-57 0 -100 17.5z" />
    <glyph glyph-name="six.subs" horiz-adv-x="445" 
d="M100 -60q-46 37 -46 99q0 51 23.5 89t75.5 77l111 88l54 -44l-153 -117l1 -2q37 20 86 20q59 0 98 -31.5t39 -85.5q0 -59 -47 -94.5t-119 -35.5q-77 0 -123 37zM287 -8.5q23 14.5 23 40.5q0 55 -83 55q-42 0 -66.5 -14.5t-24.5 -40.5t22.5 -40.5t63.5 -14.5q42 0 65 14.5
z" />
    <glyph glyph-name="seven.subs" horiz-adv-x="445" 
d="M279 201h-220v77h322v-60l-178 -315l-83 28z" />
    <glyph glyph-name="eight.subs" horiz-adv-x="447" 
d="M102 -66.5q-43 30.5 -43 80.5q0 27 17 49.5t46 37.5q-53 31 -53 79q0 46 42 75t111 29q72 0 113.5 -28t41.5 -74q0 -47 -54 -79q31 -14 48 -36.5t17 -51.5q0 -49 -44 -80.5t-120 -31.5q-79 0 -122 30.5zM275.5 145q18.5 12 18.5 33q0 20 -18.5 31.5t-53.5 11.5
q-34 0 -52.5 -11.5t-18.5 -31.5q0 -21 18.5 -33t53.5 -12q34 0 52.5 12zM283.5 -18.5q20.5 12.5 20.5 35.5q0 24 -21 37.5t-60 13.5q-38 0 -58.5 -13.5t-20.5 -37.5q0 -23 20 -35.5t60 -12.5q39 0 59.5 12.5z" />
    <glyph glyph-name="nine.subs" horiz-adv-x="450" 
d="M277 53l-1 1q-35 -17 -83 -17q-59 0 -98.5 31t-39.5 87q0 58 47.5 93.5t118.5 35.5q77 0 123 -36.5t46 -99.5q0 -50 -22.5 -88t-73.5 -77l-113 -89l-55 44zM284.5 114.5q24.5 14.5 24.5 40.5q0 27 -22.5 41.5t-64.5 14.5q-41 0 -64 -14.5t-23 -41.5t21 -41t62 -14
q42 0 66.5 14.5z" />
    <glyph glyph-name="zero.dnom" horiz-adv-x="444" 
d="M89 46.5q-45 53.5 -45 138.5q0 82 47 135.5t131 53.5q88 0 133 -52t45 -137q0 -83 -46.5 -137.5t-131.5 -54.5q-88 0 -133 53.5zM290 103q22 29 22 82q0 52 -21.5 80.5t-67.5 28.5q-91 0 -91 -109q0 -111 90 -111q46 0 68 29z" />
    <glyph glyph-name="one.dnom" horiz-adv-x="444" 
d="M213 75v209l-126 -45l-29 66l161 63h82v-293h98v-75h-312v75h126z" />
    <glyph glyph-name="two.dnom" horiz-adv-x="445" 
d="M188 150q57 41 77.5 60t20.5 41q0 21 -18.5 34t-49.5 13q-33 0 -59.5 -11.5t-53.5 -42.5l-57 41q32 44 76 66.5t98 22.5q67 0 108.5 -29t41.5 -85q0 -42 -28.5 -72.5t-89.5 -71.5l-61 -44h187v-72h-316v62z" />
    <glyph glyph-name="three.dnom" horiz-adv-x="445" 
d="M48 77l53 40q27 -30 55.5 -40t64.5 -10t57.5 11.5t21.5 31.5q0 44 -66 44h-68v65h68q31 0 45 10.5t14 30.5q0 21 -19.5 31.5t-53.5 10.5q-33 0 -59.5 -10.5t-53.5 -39.5l-53 40q60 82 170 82q70 0 110 -29t40 -79q0 -51 -54 -79q29 -13 45.5 -35.5t16.5 -51.5
q0 -48 -43 -77.5t-114 -29.5q-117 0 -177 84z" />
    <glyph glyph-name="four.dnom" horiz-adv-x="444" 
d="M51 84v73l189 224l63 -38l-164 -192h128v81h73v-81h57v-67h-57v-84h-77v84h-212z" />
    <glyph glyph-name="five.dnom" horiz-adv-x="445" 
d="M121 10.5q-43 17.5 -73 57.5l53 43q24 -25 51 -34.5t63 -9.5q32 0 53.5 14t21.5 36q0 28 -22 39.5t-76 11.5h-112l30 200h237v-69h-175l-11 -69h59q78 0 116.5 -30.5t38.5 -87.5q0 -54 -44.5 -86.5t-109.5 -32.5q-57 0 -100 17.5z" />
    <glyph glyph-name="six.dnom" horiz-adv-x="445" 
d="M100 30q-46 37 -46 99q0 51 23.5 89t75.5 77l111 88l54 -44l-153 -117l1 -2q37 20 86 20q59 0 98 -31.5t39 -85.5q0 -59 -47 -94.5t-119 -35.5q-77 0 -123 37zM287 81.5q23 14.5 23 40.5q0 55 -83 55q-42 0 -66.5 -14.5t-24.5 -40.5t22.5 -40.5t63.5 -14.5q42 0 65 14.5z
" />
    <glyph glyph-name="seven.dnom" horiz-adv-x="445" 
d="M279 291h-220v77h322v-60l-178 -315l-83 28z" />
    <glyph glyph-name="eight.dnom" horiz-adv-x="447" 
d="M102 23.5q-43 30.5 -43 80.5q0 27 17 49.5t46 37.5q-53 31 -53 79q0 46 42 75t111 29q72 0 113.5 -28t41.5 -74q0 -47 -54 -79q31 -14 48 -36.5t17 -51.5q0 -49 -44 -80.5t-120 -31.5q-79 0 -122 30.5zM275.5 235q18.5 12 18.5 33q0 20 -18.5 31.5t-53.5 11.5
q-34 0 -52.5 -11.5t-18.5 -31.5q0 -21 18.5 -33t53.5 -12q34 0 52.5 12zM283.5 71.5q20.5 12.5 20.5 35.5q0 24 -21 37.5t-60 13.5q-38 0 -58.5 -13.5t-20.5 -37.5q0 -23 20 -35.5t60 -12.5q39 0 59.5 12.5z" />
    <glyph glyph-name="nine.dnom" horiz-adv-x="450" 
d="M277 143l-1 1q-35 -17 -83 -17q-59 0 -98.5 31t-39.5 87q0 58 47.5 93.5t118.5 35.5q77 0 123 -36.5t46 -99.5q0 -50 -22.5 -88t-73.5 -77l-113 -89l-55 44zM284.5 204.5q24.5 14.5 24.5 40.5q0 27 -22.5 41.5t-64.5 14.5q-41 0 -64 -14.5t-23 -41.5t21 -41t62 -14
q42 0 66.5 14.5z" />
    <glyph glyph-name="zero.numr" horiz-adv-x="444" 
d="M89 296.5q-45 53.5 -45 138.5q0 82 47 135.5t131 53.5q88 0 133 -52t45 -137q0 -83 -46.5 -137.5t-131.5 -54.5q-88 0 -133 53.5zM290 353q22 29 22 82q0 52 -21.5 80.5t-67.5 28.5q-91 0 -91 -109q0 -111 90 -111q46 0 68 29z" />
    <glyph glyph-name="one.numr" horiz-adv-x="444" 
d="M213 325v209l-126 -45l-29 66l161 63h82v-293h98v-75h-312v75h126z" />
    <glyph glyph-name="two.numr" horiz-adv-x="445" 
d="M188 400q57 41 77.5 60t20.5 41q0 21 -18.5 34t-49.5 13q-33 0 -59.5 -11.5t-53.5 -42.5l-57 41q32 44 76 66.5t98 22.5q67 0 108.5 -29t41.5 -85q0 -42 -28.5 -72.5t-89.5 -71.5l-61 -44h187v-72h-316v62z" />
    <glyph glyph-name="three.numr" horiz-adv-x="445" 
d="M48 327l53 40q27 -30 55.5 -40t64.5 -10t57.5 11.5t21.5 31.5q0 44 -66 44h-68v65h68q31 0 45 10.5t14 30.5q0 21 -19.5 31.5t-53.5 10.5q-33 0 -59.5 -10.5t-53.5 -39.5l-53 40q60 82 170 82q70 0 110 -29t40 -79q0 -51 -54 -79q29 -13 45.5 -35.5t16.5 -51.5
q0 -48 -43 -77.5t-114 -29.5q-117 0 -177 84z" />
    <glyph glyph-name="four.numr" horiz-adv-x="444" 
d="M51 334v73l189 224l63 -38l-164 -192h128v81h73v-81h57v-67h-57v-84h-77v84h-212z" />
    <glyph glyph-name="five.numr" horiz-adv-x="445" 
d="M121 260.5q-43 17.5 -73 57.5l53 43q24 -25 51 -34.5t63 -9.5q32 0 53.5 14t21.5 36q0 28 -22 39.5t-76 11.5h-112l30 200h237v-69h-175l-11 -69h59q78 0 116.5 -30.5t38.5 -87.5q0 -54 -44.5 -86.5t-109.5 -32.5q-57 0 -100 17.5z" />
    <glyph glyph-name="six.numr" horiz-adv-x="445" 
d="M100 280q-46 37 -46 99q0 51 23.5 89t75.5 77l111 88l54 -44l-153 -117l1 -2q37 20 86 20q59 0 98 -31.5t39 -85.5q0 -59 -47 -94.5t-119 -35.5q-77 0 -123 37zM287 331.5q23 14.5 23 40.5q0 55 -83 55q-42 0 -66.5 -14.5t-24.5 -40.5t22.5 -40.5t63.5 -14.5
q42 0 65 14.5z" />
    <glyph glyph-name="seven.numr" horiz-adv-x="445" 
d="M279 541h-220v77h322v-60l-178 -315l-83 28z" />
    <glyph glyph-name="eight.numr" horiz-adv-x="447" 
d="M102 273.5q-43 30.5 -43 80.5q0 27 17 49.5t46 37.5q-53 31 -53 79q0 46 42 75t111 29q72 0 113.5 -28t41.5 -74q0 -47 -54 -79q31 -14 48 -36.5t17 -51.5q0 -49 -44 -80.5t-120 -31.5q-79 0 -122 30.5zM275.5 485q18.5 12 18.5 33q0 20 -18.5 31.5t-53.5 11.5
q-34 0 -52.5 -11.5t-18.5 -31.5q0 -21 18.5 -33t53.5 -12q34 0 52.5 12zM283.5 321.5q20.5 12.5 20.5 35.5q0 24 -21 37.5t-60 13.5q-38 0 -58.5 -13.5t-20.5 -37.5q0 -23 20 -35.5t60 -12.5q39 0 59.5 12.5z" />
    <glyph glyph-name="nine.numr" horiz-adv-x="450" 
d="M277 393l-1 1q-35 -17 -83 -17q-59 0 -98.5 31t-39.5 87q0 58 47.5 93.5t118.5 35.5q77 0 123 -36.5t46 -99.5q0 -50 -22.5 -88t-73.5 -77l-113 -89l-55 44zM284.5 454.5q24.5 14.5 24.5 40.5q0 27 -22.5 41.5t-64.5 14.5q-41 0 -64 -14.5t-23 -41.5t21 -41t62 -14
q42 0 66.5 14.5z" />
    <glyph glyph-name="uni2070" unicode="&#x2070;" horiz-adv-x="444" 
d="M89 296.5q-45 53.5 -45 138.5q0 82 47 135.5t131 53.5q88 0 133 -52t45 -137q0 -83 -46.5 -137.5t-131.5 -54.5q-88 0 -133 53.5zM290 353q22 29 22 82q0 52 -21.5 80.5t-67.5 28.5q-91 0 -91 -109q0 -111 90 -111q46 0 68 29z" />
    <glyph glyph-name="uni00B9" unicode="&#xb9;" horiz-adv-x="444" 
d="M213 325v209l-126 -45l-29 66l161 63h82v-293h98v-75h-312v75h126z" />
    <glyph glyph-name="uni00B2" unicode="&#xb2;" horiz-adv-x="445" 
d="M188 400q57 41 77.5 60t20.5 41q0 21 -18.5 34t-49.5 13q-33 0 -59.5 -11.5t-53.5 -42.5l-57 41q32 44 76 66.5t98 22.5q67 0 108.5 -29t41.5 -85q0 -42 -28.5 -72.5t-89.5 -71.5l-61 -44h187v-72h-316v62z" />
    <glyph glyph-name="uni00B3" unicode="&#xb3;" horiz-adv-x="445" 
d="M48 327l53 40q27 -30 55.5 -40t64.5 -10t57.5 11.5t21.5 31.5q0 44 -66 44h-68v65h68q31 0 45 10.5t14 30.5q0 21 -19.5 31.5t-53.5 10.5q-33 0 -59.5 -10.5t-53.5 -39.5l-53 40q60 82 170 82q70 0 110 -29t40 -79q0 -51 -54 -79q29 -13 45.5 -35.5t16.5 -51.5
q0 -48 -43 -77.5t-114 -29.5q-117 0 -177 84z" />
    <glyph glyph-name="uni2074" unicode="&#x2074;" horiz-adv-x="444" 
d="M51 334v73l189 224l63 -38l-164 -192h128v81h73v-81h57v-67h-57v-84h-77v84h-212z" />
    <glyph glyph-name="uni2075" unicode="&#x2075;" horiz-adv-x="445" 
d="M121 260.5q-43 17.5 -73 57.5l53 43q24 -25 51 -34.5t63 -9.5q32 0 53.5 14t21.5 36q0 28 -22 39.5t-76 11.5h-112l30 200h237v-69h-175l-11 -69h59q78 0 116.5 -30.5t38.5 -87.5q0 -54 -44.5 -86.5t-109.5 -32.5q-57 0 -100 17.5z" />
    <glyph glyph-name="uni2076" unicode="&#x2076;" horiz-adv-x="445" 
d="M100 280q-46 37 -46 99q0 51 23.5 89t75.5 77l111 88l54 -44l-153 -117l1 -2q37 20 86 20q59 0 98 -31.5t39 -85.5q0 -59 -47 -94.5t-119 -35.5q-77 0 -123 37zM287 331.5q23 14.5 23 40.5q0 55 -83 55q-42 0 -66.5 -14.5t-24.5 -40.5t22.5 -40.5t63.5 -14.5
q42 0 65 14.5z" />
    <glyph glyph-name="uni2077" unicode="&#x2077;" horiz-adv-x="445" 
d="M279 541h-220v77h322v-60l-178 -315l-83 28z" />
    <glyph glyph-name="uni2078" unicode="&#x2078;" horiz-adv-x="447" 
d="M102 273.5q-43 30.5 -43 80.5q0 27 17 49.5t46 37.5q-53 31 -53 79q0 46 42 75t111 29q72 0 113.5 -28t41.5 -74q0 -47 -54 -79q31 -14 48 -36.5t17 -51.5q0 -49 -44 -80.5t-120 -31.5q-79 0 -122 30.5zM275.5 485q18.5 12 18.5 33q0 20 -18.5 31.5t-53.5 11.5
q-34 0 -52.5 -11.5t-18.5 -31.5q0 -21 18.5 -33t53.5 -12q34 0 52.5 12zM283.5 321.5q20.5 12.5 20.5 35.5q0 24 -21 37.5t-60 13.5q-38 0 -58.5 -13.5t-20.5 -37.5q0 -23 20 -35.5t60 -12.5q39 0 59.5 12.5z" />
    <glyph glyph-name="uni2079" unicode="&#x2079;" horiz-adv-x="450" 
d="M277 393l-1 1q-35 -17 -83 -17q-59 0 -98.5 31t-39.5 87q0 58 47.5 93.5t118.5 35.5q77 0 123 -36.5t46 -99.5q0 -50 -22.5 -88t-73.5 -77l-113 -89l-55 44zM284.5 454.5q24.5 14.5 24.5 40.5q0 27 -22.5 41.5t-64.5 14.5q-41 0 -64 -14.5t-23 -41.5t21 -41t62 -14
q42 0 66.5 14.5z" />
    <glyph glyph-name="zero.sups" horiz-adv-x="444" 
d="M89 396.5q-45 53.5 -45 138.5q0 82 47 135.5t131 53.5q88 0 133 -52t45 -137q0 -83 -46.5 -137.5t-131.5 -54.5q-88 0 -133 53.5zM290 453q22 29 22 82q0 52 -21.5 80.5t-67.5 28.5q-91 0 -91 -109q0 -111 90 -111q46 0 68 29z" />
    <glyph glyph-name="one.sups" horiz-adv-x="444" 
d="M213 425v209l-126 -45l-29 66l161 63h82v-293h98v-75h-312v75h126z" />
    <glyph glyph-name="two.sups" horiz-adv-x="445" 
d="M188 500q57 41 77.5 60t20.5 41q0 21 -18.5 34t-49.5 13q-33 0 -59.5 -11.5t-53.5 -42.5l-57 41q32 44 76 66.5t98 22.5q67 0 108.5 -29t41.5 -85q0 -42 -28.5 -72.5t-89.5 -71.5l-61 -44h187v-72h-316v62z" />
    <glyph glyph-name="three.sups" horiz-adv-x="445" 
d="M48 427l53 40q27 -30 55.5 -40t64.5 -10t57.5 11.5t21.5 31.5q0 44 -66 44h-68v65h68q31 0 45 10.5t14 30.5q0 21 -19.5 31.5t-53.5 10.5q-33 0 -59.5 -10.5t-53.5 -39.5l-53 40q60 82 170 82q70 0 110 -29t40 -79q0 -51 -54 -79q29 -13 45.5 -35.5t16.5 -51.5
q0 -48 -43 -77.5t-114 -29.5q-117 0 -177 84z" />
    <glyph glyph-name="four.sups" horiz-adv-x="444" 
d="M51 434v73l189 224l63 -38l-164 -192h128v81h73v-81h57v-67h-57v-84h-77v84h-212z" />
    <glyph glyph-name="five.sups" horiz-adv-x="445" 
d="M121 360.5q-43 17.5 -73 57.5l53 43q24 -25 51 -34.5t63 -9.5q32 0 53.5 14t21.5 36q0 28 -22 39.5t-76 11.5h-112l30 200h237v-69h-175l-11 -69h59q78 0 116.5 -30.5t38.5 -87.5q0 -54 -44.5 -86.5t-109.5 -32.5q-57 0 -100 17.5z" />
    <glyph glyph-name="six.sups" horiz-adv-x="445" 
d="M100 380q-46 37 -46 99q0 51 23.5 89t75.5 77l111 88l54 -44l-153 -117l1 -2q37 20 86 20q59 0 98 -31.5t39 -85.5q0 -59 -47 -94.5t-119 -35.5q-77 0 -123 37zM287 431.5q23 14.5 23 40.5q0 55 -83 55q-42 0 -66.5 -14.5t-24.5 -40.5t22.5 -40.5t63.5 -14.5
q42 0 65 14.5z" />
    <glyph glyph-name="seven.sups" horiz-adv-x="445" 
d="M279 641h-220v77h322v-60l-178 -315l-83 28z" />
    <glyph glyph-name="eight.sups" horiz-adv-x="447" 
d="M102 373.5q-43 30.5 -43 80.5q0 27 17 49.5t46 37.5q-53 31 -53 79q0 46 42 75t111 29q72 0 113.5 -28t41.5 -74q0 -47 -54 -79q31 -14 48 -36.5t17 -51.5q0 -49 -44 -80.5t-120 -31.5q-79 0 -122 30.5zM275.5 585q18.5 12 18.5 33q0 20 -18.5 31.5t-53.5 11.5
q-34 0 -52.5 -11.5t-18.5 -31.5q0 -21 18.5 -33t53.5 -12q34 0 52.5 12zM283.5 421.5q20.5 12.5 20.5 35.5q0 24 -21 37.5t-60 13.5q-38 0 -58.5 -13.5t-20.5 -37.5q0 -23 20 -35.5t60 -12.5q39 0 59.5 12.5z" />
    <glyph glyph-name="nine.sups" horiz-adv-x="450" 
d="M277 493l-1 1q-35 -17 -83 -17q-59 0 -98.5 31t-39.5 87q0 58 47.5 93.5t118.5 35.5q77 0 123 -36.5t46 -99.5q0 -50 -22.5 -88t-73.5 -77l-113 -89l-55 44zM284.5 554.5q24.5 14.5 24.5 40.5q0 27 -22.5 41.5t-64.5 14.5q-41 0 -64 -14.5t-23 -41.5t21 -41t62 -14
q42 0 66.5 14.5z" />
    <glyph glyph-name="fraction" unicode="&#x2044;" horiz-adv-x="194" 
d="M293 672l74 -48l-471 -685l-74 47z" />
    <glyph glyph-name="onehalf" unicode="&#xbd;" horiz-adv-x="1083" 
d="M213 325v209l-126 -45l-29 66l161 63h82v-293h98v-75h-312v75h126zM743 672l74 -48l-471 -685l-74 47zM826 150q57 41 77.5 60t20.5 41q0 21 -18.5 34t-49.5 13q-33 0 -59.5 -11.5t-53.5 -42.5l-57 41q32 44 76 66.5t98 22.5q67 0 108.5 -29t41.5 -85q0 -42 -28.5 -72.5
t-89.5 -71.5l-61 -44h187v-72h-316v62z" />
    <glyph glyph-name="uni2153" unicode="&#x2153;" horiz-adv-x="1083" 
d="M213 325v209l-126 -45l-29 66l161 63h82v-293h98v-75h-312v75h126zM749 672l74 -48l-471 -685l-74 47zM686 77l53 40q27 -30 55.5 -40t64.5 -10t57.5 11.5t21.5 31.5q0 44 -66 44h-68v65h68q31 0 45 10.5t14 30.5q0 21 -19.5 31.5t-53.5 10.5q-33 0 -59.5 -10.5
t-53.5 -39.5l-53 40q60 82 170 82q70 0 110 -29t40 -79q0 -51 -54 -79q29 -13 45.5 -35.5t16.5 -51.5q0 -48 -43 -77.5t-114 -29.5q-117 0 -177 84z" />
    <glyph glyph-name="uni2154" unicode="&#x2154;" horiz-adv-x="1084" 
d="M188 400q57 41 77.5 60t20.5 41q0 21 -18.5 34t-49.5 13q-33 0 -59.5 -11.5t-53.5 -42.5l-57 41q32 44 76 66.5t98 22.5q67 0 108.5 -29t41.5 -85q0 -42 -28.5 -72.5t-89.5 -71.5l-61 -44h187v-72h-316v62zM743 672l74 -48l-471 -685l-74 47zM687 77l53 40
q27 -30 55.5 -40t64.5 -10t57.5 11.5t21.5 31.5q0 44 -66 44h-68v65h68q31 0 45 10.5t14 30.5q0 21 -19.5 31.5t-53.5 10.5q-33 0 -59.5 -10.5t-53.5 -39.5l-53 40q60 82 170 82q70 0 110 -29t40 -79q0 -51 -54 -79q29 -13 45.5 -35.5t16.5 -51.5q0 -48 -43 -77.5
t-114 -29.5q-117 0 -177 84z" />
    <glyph glyph-name="onequarter" unicode="&#xbc;" horiz-adv-x="1068" 
d="M213 325v209l-126 -45l-29 66l161 63h82v-293h98v-75h-312v75h126zM764 672l74 -48l-471 -685l-74 47zM675 84v73l189 224l63 -38l-164 -192h128v81h73v-81h57v-67h-57v-84h-77v84h-212z" />
    <glyph glyph-name="threequarters" unicode="&#xbe;" horiz-adv-x="1069" 
d="M48 327l53 40q27 -30 55.5 -40t64.5 -10t57.5 11.5t21.5 31.5q0 44 -66 44h-68v65h68q31 0 45 10.5t14 30.5q0 21 -19.5 31.5t-53.5 10.5q-33 0 -59.5 -10.5t-53.5 -39.5l-53 40q60 82 170 82q70 0 110 -29t40 -79q0 -51 -54 -79q29 -13 45.5 -35.5t16.5 -51.5
q0 -48 -43 -77.5t-114 -29.5q-117 0 -177 84zM765 672l74 -48l-471 -685l-74 47zM676 84v73l189 224l63 -38l-164 -192h128v81h73v-81h57v-67h-57v-84h-77v84h-212z" />
    <glyph glyph-name="uni2155" unicode="&#x2155;" horiz-adv-x="1083" 
d="M213 325v209l-126 -45l-29 66l161 63h82v-293h98v-75h-312v75h126zM752 672l74 -48l-471 -685l-74 47zM759 10.5q-43 17.5 -73 57.5l53 43q24 -25 51 -34.5t63 -9.5q32 0 53.5 14t21.5 36q0 28 -22 39.5t-76 11.5h-112l30 200h237v-69h-175l-11 -69h59q78 0 116.5 -30.5
t38.5 -87.5q0 -54 -44.5 -86.5t-109.5 -32.5q-57 0 -100 17.5z" />
    <glyph glyph-name="uni2156" unicode="&#x2156;" horiz-adv-x="1083" 
d="M188 400q57 41 77.5 60t20.5 41q0 21 -18.5 34t-49.5 13q-33 0 -59.5 -11.5t-53.5 -42.5l-57 41q32 44 76 66.5t98 22.5q67 0 108.5 -29t41.5 -85q0 -42 -28.5 -72.5t-89.5 -71.5l-61 -44h187v-72h-316v62zM750 672l74 -48l-471 -685l-74 47zM760 10.5q-43 17.5 -73 57.5
l53 43q24 -25 51 -34.5t63 -9.5q32 0 53.5 14t21.5 36q0 28 -22 39.5t-76 11.5h-112l30 200h237v-69h-175l-11 -69h59q78 0 116.5 -30.5t38.5 -87.5q0 -54 -44.5 -86.5t-109.5 -32.5q-57 0 -100 17.5z" />
    <glyph glyph-name="uni2157" unicode="&#x2157;" horiz-adv-x="1084" 
d="M48 327l53 40q27 -30 55.5 -40t64.5 -10t57.5 11.5t21.5 31.5q0 44 -66 44h-68v65h68q31 0 45 10.5t14 30.5q0 21 -19.5 31.5t-53.5 10.5q-33 0 -59.5 -10.5t-53.5 -39.5l-53 40q60 82 170 82q70 0 110 -29t40 -79q0 -51 -54 -79q29 -13 45.5 -35.5t16.5 -51.5
q0 -48 -43 -77.5t-114 -29.5q-117 0 -177 84zM738 672l74 -48l-471 -685l-74 47zM760 10.5q-43 17.5 -73 57.5l53 43q24 -25 51 -34.5t63 -9.5q32 0 53.5 14t21.5 36q0 28 -22 39.5t-76 11.5h-112l30 200h237v-69h-175l-11 -69h59q78 0 116.5 -30.5t38.5 -87.5
q0 -54 -44.5 -86.5t-109.5 -32.5q-57 0 -100 17.5z" />
    <glyph glyph-name="uni2158" unicode="&#x2158;" horiz-adv-x="1083" 
d="M51 334v73l189 224l63 -38l-164 -192h128v81h73v-81h57v-67h-57v-84h-77v84h-212zM737 672l74 -48l-471 -685l-74 47zM759 10.5q-43 17.5 -73 57.5l53 43q24 -25 51 -34.5t63 -9.5q32 0 53.5 14t21.5 36q0 28 -22 39.5t-76 11.5h-112l30 200h237v-69h-175l-11 -69h59
q78 0 116.5 -30.5t38.5 -87.5q0 -54 -44.5 -86.5t-109.5 -32.5q-57 0 -100 17.5z" />
    <glyph glyph-name="uni2159" unicode="&#x2159;" horiz-adv-x="1074" 
d="M213 325v209l-126 -45l-29 66l161 63h82v-293h98v-75h-312v75h126zM758 672l74 -48l-471 -685l-74 47zM729 30q-46 37 -46 99q0 51 23.5 89t75.5 77l111 88l54 -44l-153 -117l1 -2q37 20 86 20q59 0 98 -31.5t39 -85.5q0 -59 -47 -94.5t-119 -35.5q-77 0 -123 37z
M916 81.5q23 14.5 23 40.5q0 55 -83 55q-42 0 -66.5 -14.5t-24.5 -40.5t22.5 -40.5t63.5 -14.5q42 0 65 14.5z" />
    <glyph glyph-name="uni215A" unicode="&#x215a;" horiz-adv-x="1074" 
d="M121 260.5q-43 17.5 -73 57.5l53 43q24 -25 51 -34.5t63 -9.5q32 0 53.5 14t21.5 36q0 28 -22 39.5t-76 11.5h-112l30 200h237v-69h-175l-11 -69h59q78 0 116.5 -30.5t38.5 -87.5q0 -54 -44.5 -86.5t-109.5 -32.5q-57 0 -100 17.5zM745 672l74 -48l-471 -685l-74 47z
M730 30q-46 37 -46 99q0 51 23.5 89t75.5 77l111 88l54 -44l-153 -117l1 -2q37 20 86 20q59 0 98 -31.5t39 -85.5q0 -59 -47 -94.5t-119 -35.5q-77 0 -123 37zM917 81.5q23 14.5 23 40.5q0 55 -83 55q-42 0 -66.5 -14.5t-24.5 -40.5t22.5 -40.5t63.5 -14.5q42 0 65 14.5z
" />
    <glyph glyph-name="uni2150" unicode="&#x2150;" horiz-adv-x="1083" 
d="M213 325v209l-126 -45l-29 66l161 63h82v-293h98v-75h-312v75h126zM737 672l74 -48l-471 -685l-74 47zM917 291h-220v77h322v-60l-178 -315l-83 28z" />
    <glyph glyph-name="two_fraction_seven" horiz-adv-x="1084" 
d="M188 400q57 41 77.5 60t20.5 41q0 21 -18.5 34t-49.5 13q-33 0 -59.5 -11.5t-53.5 -42.5l-57 41q32 44 76 66.5t98 22.5q67 0 108.5 -29t41.5 -85q0 -42 -28.5 -72.5t-89.5 -71.5l-61 -44h187v-72h-316v62zM738 672l74 -48l-471 -685l-74 47zM918 291h-220v77h322v-60
l-178 -315l-83 28z" />
    <glyph glyph-name="three_fraction_seven" horiz-adv-x="1084" 
d="M48 327l53 40q27 -30 55.5 -40t64.5 -10t57.5 11.5t21.5 31.5q0 44 -66 44h-68v65h68q31 0 45 10.5t14 30.5q0 21 -19.5 31.5t-53.5 10.5q-33 0 -59.5 -10.5t-53.5 -39.5l-53 40q60 82 170 82q70 0 110 -29t40 -79q0 -51 -54 -79q29 -13 45.5 -35.5t16.5 -51.5
q0 -48 -43 -77.5t-114 -29.5q-117 0 -177 84zM738 672l74 -48l-471 -685l-74 47zM918 291h-220v77h322v-60l-178 -315l-83 28z" />
    <glyph glyph-name="four_fraction_seven" horiz-adv-x="1083" 
d="M51 334v73l189 224l63 -38l-164 -192h128v81h73v-81h57v-67h-57v-84h-77v84h-212zM737 672l74 -48l-471 -685l-74 47zM917 291h-220v77h322v-60l-178 -315l-83 28z" />
    <glyph glyph-name="five_fraction_seven" horiz-adv-x="1083" 
d="M121 260.5q-43 17.5 -73 57.5l53 43q24 -25 51 -34.5t63 -9.5q32 0 53.5 14t21.5 36q0 28 -22 39.5t-76 11.5h-112l30 200h237v-69h-175l-11 -69h59q78 0 116.5 -30.5t38.5 -87.5q0 -54 -44.5 -86.5t-109.5 -32.5q-57 0 -100 17.5zM708 672l74 -48l-471 -685l-74 47z
M918 291h-220v77h322v-60l-178 -315l-83 28z" />
    <glyph glyph-name="six_fraction_seven" horiz-adv-x="1084" 
d="M100 280q-46 37 -46 99q0 51 23.5 89t75.5 77l111 88l54 -44l-153 -117l1 -2q37 20 86 20q59 0 98 -31.5t39 -85.5q0 -59 -47 -94.5t-119 -35.5q-77 0 -123 37zM287 331.5q23 14.5 23 40.5q0 55 -83 55q-42 0 -66.5 -14.5t-24.5 -40.5t22.5 -40.5t63.5 -14.5
q42 0 65 14.5zM738 672l74 -48l-471 -685l-74 47zM918 291h-220v77h322v-60l-178 -315l-83 28z" />
    <glyph glyph-name="oneeighth" unicode="&#x215b;" horiz-adv-x="1085" 
d="M213 325v209l-126 -45l-29 66l161 63h82v-293h98v-75h-312v75h126zM751 672l74 -48l-471 -685l-74 47zM740 23.5q-43 30.5 -43 80.5q0 27 17 49.5t46 37.5q-53 31 -53 79q0 46 42 75t111 29q72 0 113.5 -28t41.5 -74q0 -47 -54 -79q31 -14 48 -36.5t17 -51.5
q0 -49 -44 -80.5t-120 -31.5q-79 0 -122 30.5zM913.5 235q18.5 12 18.5 33q0 20 -18.5 31.5t-53.5 11.5q-34 0 -52.5 -11.5t-18.5 -31.5q0 -21 18.5 -33t53.5 -12q34 0 52.5 12zM921.5 71.5q20.5 12.5 20.5 35.5q0 24 -21 37.5t-60 13.5q-38 0 -58.5 -13.5t-20.5 -37.5
q0 -23 20 -35.5t60 -12.5q39 0 59.5 12.5z" />
    <glyph glyph-name="threeeighths" unicode="&#x215c;" horiz-adv-x="1086" 
d="M48 327l53 40q27 -30 55.5 -40t64.5 -10t57.5 11.5t21.5 31.5q0 44 -66 44h-68v65h68q31 0 45 10.5t14 30.5q0 21 -19.5 31.5t-53.5 10.5q-33 0 -59.5 -10.5t-53.5 -39.5l-53 40q60 82 170 82q70 0 110 -29t40 -79q0 -51 -54 -79q29 -13 45.5 -35.5t16.5 -51.5
q0 -48 -43 -77.5t-114 -29.5q-117 0 -177 84zM738 672l74 -48l-471 -685l-74 47zM741 23.5q-43 30.5 -43 80.5q0 27 17 49.5t46 37.5q-53 31 -53 79q0 46 42 75t111 29q72 0 113.5 -28t41.5 -74q0 -47 -54 -79q31 -14 48 -36.5t17 -51.5q0 -49 -44 -80.5t-120 -31.5
q-79 0 -122 30.5zM914.5 235q18.5 12 18.5 33q0 20 -18.5 31.5t-53.5 11.5q-34 0 -52.5 -11.5t-18.5 -31.5q0 -21 18.5 -33t53.5 -12q34 0 52.5 12zM922.5 71.5q20.5 12.5 20.5 35.5q0 24 -21 37.5t-60 13.5q-38 0 -58.5 -13.5t-20.5 -37.5q0 -23 20 -35.5t60 -12.5
q39 0 59.5 12.5z" />
    <glyph glyph-name="fiveeighths" unicode="&#x215d;" horiz-adv-x="1086" 
d="M121 260.5q-43 17.5 -73 57.5l53 43q24 -25 51 -34.5t63 -9.5q32 0 53.5 14t21.5 36q0 28 -22 39.5t-76 11.5h-112l30 200h237v-69h-175l-11 -69h59q78 0 116.5 -30.5t38.5 -87.5q0 -54 -44.5 -86.5t-109.5 -32.5q-57 0 -100 17.5zM738 672l74 -48l-471 -685l-74 47z
M741 23.5q-43 30.5 -43 80.5q0 27 17 49.5t46 37.5q-53 31 -53 79q0 46 42 75t111 29q72 0 113.5 -28t41.5 -74q0 -47 -54 -79q31 -14 48 -36.5t17 -51.5q0 -49 -44 -80.5t-120 -31.5q-79 0 -122 30.5zM914.5 235q18.5 12 18.5 33q0 20 -18.5 31.5t-53.5 11.5
q-34 0 -52.5 -11.5t-18.5 -31.5q0 -21 18.5 -33t53.5 -12q34 0 52.5 12zM922.5 71.5q20.5 12.5 20.5 35.5q0 24 -21 37.5t-60 13.5q-38 0 -58.5 -13.5t-20.5 -37.5q0 -23 20 -35.5t60 -12.5q39 0 59.5 12.5z" />
    <glyph glyph-name="seveneighths" unicode="&#x215e;" horiz-adv-x="1072" 
d="M279 541h-220v77h322v-60l-178 -315l-83 28zM691 672l74 -48l-471 -685l-74 47zM727 23.5q-43 30.5 -43 80.5q0 27 17 49.5t46 37.5q-53 31 -53 79q0 46 42 75t111 29q72 0 113.5 -28t41.5 -74q0 -47 -54 -79q31 -14 48 -36.5t17 -51.5q0 -49 -44 -80.5t-120 -31.5
q-79 0 -122 30.5zM900.5 235q18.5 12 18.5 33q0 20 -18.5 31.5t-53.5 11.5q-34 0 -52.5 -11.5t-18.5 -31.5q0 -21 18.5 -33t53.5 -12q34 0 52.5 12zM908.5 71.5q20.5 12.5 20.5 35.5q0 24 -21 37.5t-60 13.5q-38 0 -58.5 -13.5t-20.5 -37.5q0 -23 20 -35.5t60 -12.5
q39 0 59.5 12.5z" />
    <glyph glyph-name="uni2151" unicode="&#x2151;" horiz-adv-x="1087" 
d="M213 325v209l-126 -45l-29 66l161 63h82v-293h98v-75h-312v75h126zM756 672l74 -48l-471 -685l-74 47zM915 143l-1 1q-35 -17 -83 -17q-59 0 -98.5 31t-39.5 87q0 58 47.5 93.5t118.5 35.5q77 0 123 -36.5t46 -99.5q0 -50 -22.5 -88t-73.5 -77l-113 -89l-55 44z
M922.5 204.5q24.5 14.5 24.5 40.5q0 27 -22.5 41.5t-64.5 14.5q-41 0 -64 -14.5t-23 -41.5t21 -41t62 -14q42 0 66.5 14.5z" />
    <glyph glyph-name="two_fraction_nine" horiz-adv-x="1089" 
d="M188 400q57 41 77.5 60t20.5 41q0 21 -18.5 34t-49.5 13q-33 0 -59.5 -11.5t-53.5 -42.5l-57 41q32 44 76 66.5t98 22.5q67 0 108.5 -29t41.5 -85q0 -42 -28.5 -72.5t-89.5 -71.5l-61 -44h187v-72h-316v62zM738 672l74 -48l-471 -685l-74 47zM916 143l-1 1
q-35 -17 -83 -17q-59 0 -98.5 31t-39.5 87q0 58 47.5 93.5t118.5 35.5q77 0 123 -36.5t46 -99.5q0 -50 -22.5 -88t-73.5 -77l-113 -89l-55 44zM923.5 204.5q24.5 14.5 24.5 40.5q0 27 -22.5 41.5t-64.5 14.5q-41 0 -64 -14.5t-23 -41.5t21 -41t62 -14q42 0 66.5 14.5z" />
    <glyph glyph-name="four_fraction_nine" horiz-adv-x="1088" 
d="M51 334v73l189 224l63 -38l-164 -192h128v81h73v-81h57v-67h-57v-84h-77v84h-212zM737 672l74 -48l-471 -685l-74 47zM915 143l-1 1q-35 -17 -83 -17q-59 0 -98.5 31t-39.5 87q0 58 47.5 93.5t118.5 35.5q77 0 123 -36.5t46 -99.5q0 -50 -22.5 -88t-73.5 -77l-113 -89
l-55 44zM922.5 204.5q24.5 14.5 24.5 40.5q0 27 -22.5 41.5t-64.5 14.5q-41 0 -64 -14.5t-23 -41.5t21 -41t62 -14q42 0 66.5 14.5z" />
    <glyph glyph-name="five_fraction_nine" horiz-adv-x="1089" 
d="M121 260.5q-43 17.5 -73 57.5l53 43q24 -25 51 -34.5t63 -9.5q32 0 53.5 14t21.5 36q0 28 -22 39.5t-76 11.5h-112l30 200h237v-69h-175l-11 -69h59q78 0 116.5 -30.5t38.5 -87.5q0 -54 -44.5 -86.5t-109.5 -32.5q-57 0 -100 17.5zM738 672l74 -48l-471 -685l-74 47z
M916 143l-1 1q-35 -17 -83 -17q-59 0 -98.5 31t-39.5 87q0 58 47.5 93.5t118.5 35.5q77 0 123 -36.5t46 -99.5q0 -50 -22.5 -88t-73.5 -77l-113 -89l-55 44zM923.5 204.5q24.5 14.5 24.5 40.5q0 27 -22.5 41.5t-64.5 14.5q-41 0 -64 -14.5t-23 -41.5t21 -41t62 -14
q42 0 66.5 14.5z" />
    <glyph glyph-name="seven_fraction_nine" horiz-adv-x="1074" 
d="M279 541h-220v77h322v-60l-178 -315l-83 28zM677 672l74 -48l-471 -685l-74 47zM902 143l-1 1q-35 -17 -83 -17q-59 0 -98.5 31t-39.5 87q0 58 47.5 93.5t118.5 35.5q77 0 123 -36.5t46 -99.5q0 -50 -22.5 -88t-73.5 -77l-113 -89l-55 44zM909.5 204.5
q24.5 14.5 24.5 40.5q0 27 -22.5 41.5t-64.5 14.5q-41 0 -64 -14.5t-23 -41.5t21 -41t62 -14q42 0 66.5 14.5z" />
    <glyph glyph-name="eight_fraction_nine" horiz-adv-x="1091" 
d="M102 273.5q-43 30.5 -43 80.5q0 27 17 49.5t46 37.5q-53 31 -53 79q0 46 42 75t111 29q72 0 113.5 -28t41.5 -74q0 -47 -54 -79q31 -14 48 -36.5t17 -51.5q0 -49 -44 -80.5t-120 -31.5q-79 0 -122 30.5zM275.5 485q18.5 12 18.5 33q0 20 -18.5 31.5t-53.5 11.5
q-34 0 -52.5 -11.5t-18.5 -31.5q0 -21 18.5 -33t53.5 -12q34 0 52.5 12zM283.5 321.5q20.5 12.5 20.5 35.5q0 24 -21 37.5t-60 13.5q-38 0 -58.5 -13.5t-20.5 -37.5q0 -23 20 -35.5t60 -12.5q39 0 59.5 12.5zM740 672l74 -48l-471 -685l-74 47zM918 143l-1 1
q-35 -17 -83 -17q-59 0 -98.5 31t-39.5 87q0 58 47.5 93.5t118.5 35.5q77 0 123 -36.5t46 -99.5q0 -50 -22.5 -88t-73.5 -77l-113 -89l-55 44zM925.5 204.5q24.5 14.5 24.5 40.5q0 27 -22.5 41.5t-64.5 14.5q-41 0 -64 -14.5t-23 -41.5t21 -41t62 -14q42 0 66.5 14.5z" />
    <glyph glyph-name="period" unicode="." horiz-adv-x="265" 
d="M84 8q-19 19 -19 48t19 48t49 19t49 -19t19 -48t-19 -48t-49 -19t-49 19z" />
    <glyph glyph-name="comma" unicode="," horiz-adv-x="265" 
d="M74 -3.5q24 51.5 24 113.5h103q0 -51 -18.5 -102.5t-51.5 -92.5t-76 -60l-50 64q45 26 69 77.5z" />
    <glyph glyph-name="colon" unicode=":" horiz-adv-x="265" 
d="M84 365q-19 19 -19 48t19 48t49 19t49 -19t19 -48t-19 -48t-49 -19t-49 19zM84 8q-19 19 -19 48t19 48t49 19t49 -19t19 -48t-19 -48t-49 -19t-49 19z" />
    <glyph glyph-name="semicolon" unicode=";" horiz-adv-x="265" 
d="M96 365q-19 19 -19 48t19 48t49 19t49 -19t19 -48t-19 -48t-49 -19t-49 19zM74 -3.5q24 51.5 24 113.5h103q0 -51 -18.5 -102.5t-51.5 -92.5t-76 -60l-50 64q45 26 69 77.5z" />
    <glyph glyph-name="ellipsis" unicode="&#x2026;" horiz-adv-x="713" 
d="M532 8q-19 19 -19 48t19 48t49 19t49 -19t19 -48t-19 -48t-49 -19t-49 19zM308 8q-19 19 -19 48t19 48t49 19t49 -19t19 -48t-19 -48t-49 -19t-49 19zM84 8q-19 19 -19 48t19 48t49 19t49 -19t19 -48t-19 -48t-49 -19t-49 19z" />
    <glyph glyph-name="exclam" unicode="!" horiz-adv-x="283" 
d="M202 624l-9 -434h-103l-9 434h121zM92 8q-19 19 -19 48t19.5 48t49.5 19t49 -19t19 -48t-19.5 -48t-49.5 -19t-49 19z" />
    <glyph glyph-name="exclamdown" unicode="&#xa1;" horiz-adv-x="283" 
d="M190.5 463q19.5 -19 19.5 -48t-19 -47.5t-49 -18.5q-31 0 -50 18.5t-19 47.5t19 48t49 19t49.5 -19zM202 -153h-121l9 434h103z" />
    <glyph glyph-name="question" unicode="?" horiz-adv-x="495" 
d="M208.5 294.5q23.5 31.5 74.5 69.5q29 21 44.5 42t15.5 49q0 37 -27.5 57.5t-78.5 20.5q-42 0 -80.5 -19t-63.5 -51l-72 59q36 54 95.5 83t124.5 29q101 0 159 -46t58 -123q0 -49 -25 -83t-69 -68q-39 -30 -58.5 -53.5t-19.5 -49.5v-21h-101v25q0 48 23.5 79.5zM188 8
q-19 19 -19 48t19 48t49 19t49 -19t19 -48t-19 -48t-49 -19t-49 19z" />
    <glyph glyph-name="questiondown" unicode="&#xbf;" horiz-adv-x="495" 
d="M319 461q19 -19 19 -48t-19 -48t-49 -19t-49 19t-19 48t19 48t49 19t49 -19zM298 174q-24 -32 -74 -69q-29 -21 -44.5 -42.5t-15.5 -49.5q0 -36 27.5 -57t78.5 -21q42 0 80.5 19t63.5 52l72 -60q-36 -54 -95.5 -83t-124.5 -29q-101 0 -159 46.5t-58 123.5q0 49 25 83
t69 67q39 30 58.5 53.5t19.5 50.5v20h101v-24q0 -48 -24 -80z" />
    <glyph glyph-name="periodcentered" unicode="&#xb7;" horiz-adv-x="265" 
d="M84 266q-19 19 -19 48t19 48t49 19t49 -19t19 -48t-19 -48t-49 -19t-49 19z" />
    <glyph glyph-name="bullet" unicode="&#x2022;" horiz-adv-x="384" 
d="M114.5 245q-28.5 31 -28.5 76q0 43 29.5 75t77.5 32q49 0 77 -31t28 -76q0 -43 -29 -75t-76 -32q-50 0 -78.5 31z" />
    <glyph glyph-name="asterisk" unicode="*" horiz-adv-x="432" 
d="M78 331l-43 75l107 54l-107 55l43 75l101 -66l-6 120h86l-6 -120l101 66l43 -75l-107 -55l107 -54l-43 -75l-101 65l6 -119h-86l6 119z" />
    <glyph glyph-name="numbersign" unicode="#" 
d="M32 143v89h94l18 148h-112v89h123l16 135h95l-17 -135h116l16 135h95l-16 -135h83v-89h-94l-18 -148h112v-89h-123l-16 -133h-94l16 133h-116l-16 -133h-95l16 133h-83zM355 380h-116l-18 -148h116z" />
    <glyph glyph-name="slash" unicode="/" horiz-adv-x="489" 
d="M382 719l97 -47l-373 -814l-98 47z" />
    <glyph glyph-name="backslash" unicode="\" horiz-adv-x="489" 
d="M108 719l373 -814l-98 -47l-373 814z" />
    <glyph glyph-name="exclamdown.case" horiz-adv-x="283" 
d="M190.5 616q19.5 -19 19.5 -48t-19 -47.5t-49 -18.5q-31 0 -50 18.5t-19 47.5t19 48t49 19t49.5 -19zM202 0h-121l9 434h103z" />
    <glyph glyph-name="questiondown.case" horiz-adv-x="495" 
d="M307 613q19 -19 19 -48t-19 -48t-49 -19t-49 19t-19 48t19 48t49 19t49 -19zM286 326q-24 -32 -74 -69q-29 -21 -44.5 -42.5t-15.5 -49.5q0 -36 27.5 -57t78.5 -21q42 0 80.5 19t63.5 52l72 -60q-36 -54 -95.5 -83t-124.5 -29q-101 0 -159 46.5t-58 123.5q0 49 25 83
t69 67q39 30 58.5 53.5t19.5 50.5v20h101v-24q0 -48 -24 -80z" />
    <glyph glyph-name="bullet.case" horiz-adv-x="384" 
d="M114.5 245q-28.5 31 -28.5 76q0 43 29.5 75t77.5 32q49 0 77 -31t28 -76q0 -43 -29 -75t-76 -32q-50 0 -78.5 31z" />
    <glyph glyph-name="slash.case" horiz-adv-x="489" 
d="M382 739l97 -47l-373 -814l-98 47z" />
    <glyph glyph-name="backslash.case" horiz-adv-x="489" 
d="M108 739l373 -814l-98 -47l-373 814z" />
    <glyph glyph-name="parenleft" unicode="(" horiz-adv-x="355" 
d="M123.5 15.5q-52.5 118.5 -52.5 244.5t52.5 244.5t133.5 190.5l81 -58q-74 -79 -113.5 -168t-39.5 -209t39.5 -209t113.5 -168l-81 -58q-81 72 -133.5 190.5z" />
    <glyph glyph-name="parenright" unicode=")" horiz-adv-x="355" 
d="M130.5 51q39.5 89 39.5 209t-39.5 209t-113.5 168l81 58q81 -72 133.5 -191t52.5 -244t-52.5 -244t-133.5 -191l-81 58q74 79 113.5 168z" />
    <glyph glyph-name="braceleft" unicode="{" horiz-adv-x="372" 
d="M184.5 -112.5q-58.5 51.5 -58.5 149.5v121q0 28 -17.5 43t-55.5 21v76q38 6 55.5 21t17.5 43v121q0 98 58.5 149.5t153.5 51.5l22 -88q-61 -1 -93.5 -31t-32.5 -89v-116q0 -70 -59 -100q59 -29 59 -100v-116q0 -59 32.5 -89t93.5 -31l-22 -88q-95 0 -153.5 51.5z" />
    <glyph glyph-name="braceright" unicode="}" horiz-adv-x="375" 
d="M105 -44.5q33 30.5 33 88.5v116q0 71 59 100q-59 30 -59 100v116q0 58 -33 88.5t-93 31.5l22 88q95 0 153.5 -51.5t58.5 -149.5v-121q0 -28 17.5 -43t55.5 -21v-76q-38 -6 -55.5 -21t-17.5 -43v-121q0 -98 -58.5 -149.5t-153.5 -51.5l-22 88q60 1 93 31.5z" />
    <glyph glyph-name="bracketleft" unicode="[" horiz-adv-x="394" 
d="M382 673v-99h-184v-628h184v-99h-295v826h295z" />
    <glyph glyph-name="bracketright" unicode="]" horiz-adv-x="394" 
d="M195 -54v628h-183v99h295v-826h-295v99h183z" />
    <glyph glyph-name="parenleft.case" horiz-adv-x="355" 
d="M123.5 65.5q-52.5 118.5 -52.5 244.5t52.5 244.5t133.5 190.5l81 -58q-74 -79 -113.5 -168t-39.5 -209t39.5 -209t113.5 -168l-81 -58q-81 72 -133.5 190.5z" />
    <glyph glyph-name="parenright.case" horiz-adv-x="355" 
d="M130.5 101q39.5 89 39.5 209t-39.5 209t-113.5 168l81 58q81 -72 133.5 -191t52.5 -244t-52.5 -244t-133.5 -191l-81 58q74 79 113.5 168z" />
    <glyph glyph-name="braceleft.case" horiz-adv-x="372" 
d="M184.5 -63.5q-58.5 51.5 -58.5 149.5v121q0 28 -17.5 43t-55.5 21v76q38 6 55.5 21t17.5 43v121q0 98 58.5 149.5t153.5 51.5l22 -88q-61 -1 -93.5 -31t-32.5 -89v-116q0 -70 -59 -100q59 -29 59 -100v-116q0 -59 32.5 -89t93.5 -31l-22 -88q-95 0 -153.5 51.5z" />
    <glyph glyph-name="braceright.case" horiz-adv-x="375" 
d="M105 4.5q33 30.5 33 88.5v116q0 71 59 100q-59 30 -59 100v116q0 58 -33 88.5t-93 31.5l22 88q95 0 153.5 -51.5t58.5 -149.5v-121q0 -28 17.5 -43t55.5 -21v-76q-38 -6 -55.5 -21t-17.5 -43v-121q0 -98 -58.5 -149.5t-153.5 -51.5l-22 88q60 1 93 31.5z" />
    <glyph glyph-name="bracketleft.case" horiz-adv-x="394" 
d="M382 723v-99h-184v-628h184v-99h-295v826h295z" />
    <glyph glyph-name="bracketright.case" horiz-adv-x="394" 
d="M195 -4v628h-183v99h295v-826h-295v99h183z" />
    <glyph glyph-name="hyphen" unicode="-" horiz-adv-x="494" 
d="M427 321v-101h-360v101h360z" />
    <glyph glyph-name="uni00AD" unicode="&#xad;" horiz-adv-x="494" 
d="M427 321v-101h-360v101h360z" />
    <glyph glyph-name="endash" unicode="&#x2013;" horiz-adv-x="500" 
d="M500 321v-101h-500v101h500z" />
    <glyph glyph-name="emdash" unicode="&#x2014;" horiz-adv-x="1000" 
d="M1000 321v-101h-1000v101h1000z" />
    <glyph glyph-name="uni2010" unicode="&#x2010;" horiz-adv-x="494" 
d="M427 321v-101h-360v101h360z" />
    <glyph glyph-name="underscore" unicode="_" horiz-adv-x="500" 
d="M500 -63v-98h-500v98h500z" />
    <glyph glyph-name="hyphen.case" horiz-adv-x="494" 
d="M427 365v-101h-360v101h360z" />
    <glyph glyph-name="endash.case" horiz-adv-x="500" 
d="M500 365v-101h-500v101h500z" />
    <glyph glyph-name="emdash.case" horiz-adv-x="1000" 
d="M1000 365v-101h-1000v101h1000z" />
    <glyph glyph-name="quotesinglbase" unicode="&#x201a;" horiz-adv-x="256" 
d="M66.5 -1q22.5 50 22.5 111h104q0 -77 -40 -149.5t-98 -101.5l-50 64q39 26 61.5 76z" />
    <glyph glyph-name="quotedblbase" unicode="&#x201e;" horiz-adv-x="440" 
d="M66.5 -1q22.5 50 22.5 111h104q0 -77 -40 -149.5t-98 -101.5l-50 64q39 26 61.5 76zM250.5 -1q22.5 50 22.5 111h104q0 -77 -40 -149.5t-98 -101.5l-50 64q39 26 61.5 76z" />
    <glyph glyph-name="quotedblleft" unicode="&#x201c;" horiz-adv-x="445" 
d="M62 497q18 51 49.5 91t69.5 59l51 -64q-40 -27 -62 -77t-22 -110h-104q0 50 18 101zM246 497q18 51 49.5 91t69.5 59l51 -64q-40 -27 -62 -77t-22 -110h-104q0 50 18 101z" />
    <glyph glyph-name="quotedblright" unicode="&#x201d;" horiz-adv-x="445" 
d="M90.5 513q22.5 50 22.5 111h104q0 -77 -40 -149.5t-98 -101.5l-50 64q39 26 61.5 76zM274.5 513q22.5 50 22.5 111h104q0 -77 -40 -149.5t-98 -101.5l-50 64q39 26 61.5 76z" />
    <glyph glyph-name="quoteleft" unicode="&#x2018;" horiz-adv-x="261" 
d="M62 497q18 51 49.5 91t69.5 59l51 -64q-40 -27 -62 -77t-22 -110h-104q0 50 18 101z" />
    <glyph glyph-name="quoteright" unicode="&#x2019;" horiz-adv-x="261" 
d="M90.5 513q22.5 50 22.5 111h104q0 -77 -40 -149.5t-98 -101.5l-50 64q39 26 61.5 76z" />
    <glyph glyph-name="guillemotleft" unicode="&#xab;" horiz-adv-x="511" 
d="M169 414h109l-123 -179l123 -179h-109l-122 179zM365 414h109l-123 -179l123 -179h-109l-122 179z" />
    <glyph glyph-name="guillemotright" unicode="&#xbb;" horiz-adv-x="511" 
d="M37 414h109l122 -179l-122 -179h-109l123 179zM233 414h109l122 -179l-122 -179h-109l123 179z" />
    <glyph glyph-name="guilsinglleft" unicode="&#x2039;" horiz-adv-x="320" 
d="M169 414h114l-123 -179l123 -179h-114l-122 179z" />
    <glyph glyph-name="guilsinglright" unicode="&#x203a;" horiz-adv-x="320" 
d="M37 414h114l122 -179l-122 -179h-114l123 179z" />
    <glyph glyph-name="quotedbl" unicode="&#x22;" horiz-adv-x="407" 
d="M176 624l-6 -245h-98l-6 245h110zM341 624l-6 -245h-98l-6 245h110z" />
    <glyph glyph-name="quotesingle" unicode="'" horiz-adv-x="242" 
d="M176 624l-6 -245h-98l-6 245h110z" />
    <glyph glyph-name="guillemotleft.case" horiz-adv-x="511" 
d="M169 480h109l-123 -179l123 -179h-109l-122 179zM365 480h109l-123 -179l123 -179h-109l-122 179z" />
    <glyph glyph-name="guillemotright.case" horiz-adv-x="511" 
d="M37 480h109l122 -179l-122 -179h-109l123 179zM233 480h109l122 -179l-122 -179h-109l123 179z" />
    <glyph glyph-name="guilsinglleft.case" horiz-adv-x="320" 
d="M169 480h114l-123 -179l123 -179h-114l-122 179z" />
    <glyph glyph-name="guilsinglright.case" horiz-adv-x="320" 
d="M37 480h114l122 -179l-122 -179h-114l123 179z" />
    <glyph glyph-name="uni2001" unicode="&#x2001;" horiz-adv-x="1000" 
 />
    <glyph glyph-name="uni2003" unicode="&#x2003;" horiz-adv-x="1000" 
 />
    <glyph glyph-name="uni2000" unicode="&#x2000;" horiz-adv-x="500" 
 />
    <glyph glyph-name="uni2002" unicode="&#x2002;" horiz-adv-x="500" 
 />
    <glyph glyph-name="uni2007" unicode="&#x2007;" horiz-adv-x="630" 
 />
    <glyph glyph-name="uni2005" unicode="&#x2005;" horiz-adv-x="250" 
 />
    <glyph glyph-name="uni200A" unicode="&#x200a;" horiz-adv-x="125" 
 />
    <glyph glyph-name="uni2008" unicode="&#x2008;" horiz-adv-x="265" 
 />
    <glyph glyph-name="uni2006" unicode="&#x2006;" horiz-adv-x="166" 
 />
    <glyph glyph-name="uni00A0" unicode="&#xa0;" horiz-adv-x="232" 
 />
    <glyph glyph-name="uni2009" unicode="&#x2009;" horiz-adv-x="150" 
 />
    <glyph glyph-name="uni2004" unicode="&#x2004;" horiz-adv-x="335" 
 />
    <glyph glyph-name="uni200B" unicode="&#x200b;" horiz-adv-x="0" 
 />
    <glyph glyph-name="cent" unicode="&#xa2;" 
d="M130.5 167.5q-46.5 59.5 -46.5 144.5q0 82 47.5 142t127.5 77v93h102v-91q89 -14 138 -94l-66 -55q-22 30 -48 44t-65 14q-60 0 -93.5 -36.5t-33.5 -93.5q0 -56 35 -93.5t94 -37.5q39 0 66.5 16t51.5 46l66 -53q-50 -85 -145 -100v-90h-102v92q-82 16 -128.5 75.5z" />
    <glyph glyph-name="currency" unicode="&#xa4;" 
d="M113 203q-29 48 -29 103q0 54 30 106l-78 79l70 70l80 -80q46 29 103 29t104 -29l81 80l71 -70l-81 -81q29 -46 29 -104q0 -55 -27 -101l80 -80l-71 -70l-80 78q-49 -31 -106 -31q-55 0 -106 31l-78 -78l-70 70zM369 223.5q32 32.5 32 82.5q0 51 -31.5 83t-81.5 32
q-49 0 -80 -32t-31 -83q0 -50 31 -82.5t80 -32.5t81 32.5z" />
    <glyph glyph-name="dollar" unicode="$" 
d="M125 49q-54 29 -92 78l62 66q43 -47 93 -68.5t112 -21.5q59 0 88.5 18.5t29.5 53.5q0 25 -12 41.5t-40.5 28t-81.5 21.5q-74 13 -120 31.5t-72 53t-26 91.5q0 65 48.5 108.5t128.5 54.5v96h102v-97q104 -15 174 -98l-63 -63q-40 41 -77.5 55.5t-88.5 14.5
q-58 0 -88 -18.5t-30 -50.5q0 -26 14 -40.5t41.5 -23t83.5 -19.5q106 -20 160 -60.5t54 -126.5q0 -70 -47.5 -112t-132.5 -51v-106h-102v107q-64 8 -118 37z" />
    <glyph glyph-name="Euro" unicode="&#x20ac;" 
d="M183.5 44.5q-65.5 55.5 -89.5 153.5h-67v76h55q-1 10 -1 34q0 20 1 30h-55v76h68q25 94 89.5 152t158.5 58q69 0 120 -28t88 -90l-74 -55q-28 39 -57 56.5t-76 17.5q-51 0 -86.5 -30t-53.5 -81h193l-24 -76h-185q-1 -9 -1 -30q0 -14 2 -34h173l-24 -76h-131
q18 -51 54 -80t84 -29t79 20t60 60l73 -55q-73 -125 -214 -125q-94 0 -159.5 55.5z" />
    <glyph glyph-name="florin" unicode="&#x192;" horiz-adv-x="456" 
d="M232 468h193v-94h-193v-374q-1 -103 -50 -154t-134 -51q-42 0 -77.5 14t-61.5 40l48 69q36 -28 77 -28q40 0 64 27.5t24 80.5v376h-95v94h95v6q1 105 52.5 158.5t141.5 53.5q84 0 140 -56l-45 -68q-38 31 -81 31q-46 0 -72 -29t-26 -86v-10z" />
    <glyph glyph-name="uni20B9" unicode="&#x20b9;" 
d="M75 304h102q71 0 112 16.5t55 54.5h-269v79h273q-9 43 -44 62t-95 19h-134v79h453v-79h-110q26 -32 32 -81h78v-79h-81q-14 -66 -67.5 -102t-140.5 -43l-13 -1l257 -229h-158l-250 223v81z" />
    <glyph glyph-name="sterling" unicode="&#xa3;" 
d="M23 248v97h72v27q0 71 27 128t81.5 90.5t133.5 33.5q132 0 201 -119l-72 -56q-25 39 -54.5 56.5t-69.5 17.5q-132 0 -132 -151v-27h192v-97h-192v-151h319v-97h-434v248h-72z" />
    <glyph glyph-name="yen" unicode="&#xa5;" 
d="M97 97v79h138v64h-138v78h97l-169 296h119l149 -274l145 274h117l-169 -296h101v-78h-141v-64h141v-79h-141v-97h-111v97h-138z" />
    <glyph glyph-name="plus" unicode="+" 
d="M71 255v105h168v172h103v-172h167v-105h-167v-171h-103v171h-168z" />
    <glyph glyph-name="minus" unicode="&#x2212;" 
d="M497 361v-107h-414v107h414z" />
    <glyph glyph-name="multiply" unicode="&#xd7;" 
d="M209 308l-123 122l71 72l123 -123l123 123l71 -72l-122 -122l122 -123l-71 -72l-123 123l-123 -123l-71 72z" />
    <glyph glyph-name="divide" unicode="&#xf7;" 
d="M244 438q-18 18 -18 45t18 45t46 18t46 -18t18 -45t-18 -45t-46 -18t-46 18zM497 360v-105h-414v105h414zM244 87q-18 18 -18 45t18 45t46 18t46 -18t18 -45t-18 -45t-46 -18t-46 18z" />
    <glyph glyph-name="equal" unicode="=" 
d="M497 467v-104h-414v104h414zM497 252v-103h-414v103h414z" />
    <glyph glyph-name="notequal" unicode="&#x2260;" 
d="M159 149h-76v103h128l58 111h-186v103h238l62 119l79 -40l-41 -79h76v-103h-128l-58 -111h186v-103h-238l-62 -119l-79 41z" />
    <glyph glyph-name="greater" unicode="&#x3e;" 
d="M352 307l-250 134l49 94l323 -180v-95l-323 -181l-49 94z" />
    <glyph glyph-name="less" unicode="&#x3c;" 
d="M104 354l323 181l49 -94l-250 -134l250 -134l-49 -94l-323 181v94z" />
    <glyph glyph-name="greaterequal" unicode="&#x2265;" 
d="M346 355l-249 106l37 93l333 -154v-89l-333 -155l-37 93zM472 100v-100h-379v100h379z" />
    <glyph glyph-name="lessequal" unicode="&#x2264;" 
d="M99 400l333 154l37 -93l-248 -106l248 -106l-37 -93l-333 155v89zM473 100v-100h-379v100h379z" />
    <glyph glyph-name="plusminus" unicode="&#xb1;" 
d="M71 308v100h168v152h103v-152h167v-100h-167v-151h-103v151h-168zM497 103v-103h-414v103h414z" />
    <glyph glyph-name="approxequal" unicode="&#x2248;" 
d="M326.5 338.5q-24.5 9.5 -52.5 27.5q-19 12 -34.5 18.5t-31.5 6.5q-30 0 -51 -12t-43 -42l-66 55q26 45 65 72.5t88 27.5q30 0 53 -9t49 -26q22 -14 38 -20.5t34 -6.5q30 0 50.5 11.5t42.5 40.5l64 -52q-26 -45 -64 -73t-87 -28q-30 0 -54.5 9.5zM327.5 124.5
q-23.5 9.5 -52.5 27.5q-20 12 -35.5 19t-31.5 7q-30 0 -51 -12t-43 -42l-66 55q26 45 65 72.5t88 27.5q29 0 51.5 -9t49.5 -26q23 -14 39 -21t34 -7q30 0 50.5 12t42.5 41l64 -52q-26 -46 -64 -74t-87 -28q-30 0 -53.5 9.5z" />
    <glyph glyph-name="asciitilde" unicode="~" 
d="M326.5 242q-24.5 10 -51.5 27q-20 13 -35.5 19.5t-31.5 6.5q-30 0 -49.5 -12.5t-42.5 -42.5l-68 58q26 45 65 72.5t88 27.5q29 0 51.5 -9t50.5 -26q23 -14 38.5 -21t33.5 -7q30 0 50 12t42 42l65 -54q-26 -46 -64 -74.5t-87 -28.5q-30 0 -54.5 10z" />
    <glyph glyph-name="logicalnot" unicode="&#xac;" 
d="M76 337v104h415v-276h-102v172h-313z" />
    <glyph glyph-name="asciicircum" unicode="^" horiz-adv-x="594" 
d="M241 462q27 25 58 25q34 0 57 -25l160 -160l-67 -63l-152 138l-152 -138l-68 64z" />
    <glyph glyph-name="infinity" unicode="&#x221e;" horiz-adv-x="698" 
d="M116.5 168q-38.5 22 -60 60.5t-21.5 85.5t21 85.5t59.5 60.5t88.5 22q45 0 83 -21.5t61 -57.5q24 37 62.5 58.5t83.5 21.5q75 0 122 -47t47 -121q0 -46 -21.5 -84.5t-60 -61t-86.5 -22.5q-46 0 -84.5 21t-61.5 57q-23 -36 -61.5 -57.5t-84.5 -21.5q-48 0 -86.5 22z
M548 255q22 22 22 60t-22 60t-59 22t-62 -23t-25 -59t25 -59t62 -23t59 22zM270.5 255q24.5 23 24.5 59t-24.5 59t-62.5 23q-37 0 -59 -22.5t-22 -59.5t22 -59.5t59 -22.5q38 0 62.5 23z" />
    <glyph glyph-name="emptyset" unicode="&#x2205;" horiz-adv-x="581" 
d="M107 173q-42 54 -42 134q0 64 30.5 114.5t82.5 79.5t114 29q76 0 137 -40l61 60l49 -45l-63 -62q42 -58 42 -136q0 -64 -30 -115t-82 -80t-114 -29q-77 0 -138 43l-64 -64l-49 47zM292 445q-58 0 -97 -38t-39 -100q0 -38 16 -70l192 189q-32 19 -72 19zM388 207
q39 38 39 100q0 37 -17 71l-192 -190q32 -19 74 -19q57 0 96 38z" />
    <glyph glyph-name="integral" unicode="&#x222b;" horiz-adv-x="448" 
d="M60 -110q-31 14 -59 42l47 69q19 -15 33.5 -22t32.5 -7q31 0 50 20.5t19 55.5l-2 21l-39 366q-2 22 -2 33q0 76 45 121t115 45q40 0 71 -14t60 -42l-48 -69q-18 15 -32.5 22t-33.5 7q-31 0 -50 -20.5t-19 -55.5q0 -7 2 -21l40 -366q2 -22 2 -33q0 -76 -45 -121t-116 -45
q-40 0 -71 14z" />
    <glyph glyph-name="product" unicode="&#x220f;" horiz-adv-x="674" 
d="M591 624v-718h-113v613h-282v-613h-113v718h508z" />
    <glyph glyph-name="summation" unicode="&#x2211;" horiz-adv-x="533" 
d="M281 270l-249 259v95h462v-102h-314l236 -251l-249 -262h342v-103h-485v95z" />
    <glyph glyph-name="radical" unicode="&#x221a;" horiz-adv-x="613" 
d="M56 312v103h179l90 -304l203 585h117l-254 -696h-139l-104 312h-92z" />
    <glyph glyph-name="partialdiff" unicode="&#x2202;" 
d="M144 14.5q-48 25.5 -75 69t-27 95.5q0 66 30.5 115.5t83.5 76t120 26.5q41 0 71 -9.5t58 -27.5q-16 66 -78 124.5t-135 87.5l74 62q89 -39 146 -102t82.5 -134.5t25.5 -138.5q0 -127 -71.5 -198.5t-195.5 -71.5q-61 0 -109 25.5zM371 121q41 33 41 93q0 44 -33 68.5
t-90 24.5q-68 0 -105.5 -32.5t-37.5 -93.5q0 -39 30.5 -66t84.5 -27q69 0 110 33z" />
    <glyph glyph-name="uni00B5" unicode="&#xb5;" horiz-adv-x="599" 
d="M188 471v-273q0 -57 25 -86t71 -29q60 0 94 39.5t34 112.5v236h111v-471h-89q-11 28 -14 66q-25 -37 -61 -57t-79 -20q-52 0 -92 38v-221h-111v665h111z" />
    <glyph glyph-name="percent" unicode="%" horiz-adv-x="966" 
d="M89 296.5q-45 53.5 -45 138.5q0 82 47 135.5t131 53.5q88 0 133 -52t45 -137q0 -83 -46.5 -137.5t-131.5 -54.5q-88 0 -133 53.5zM290 353q22 29 22 82q0 52 -21.5 80.5t-67.5 28.5q-91 0 -91 -109q0 -111 90 -111q46 0 68 29zM610 46.5q-45 53.5 -45 138.5
q0 82 47 135.5t131 53.5q88 0 133 -52t45 -137q0 -83 -46.5 -137.5t-131.5 -54.5q-88 0 -133 53.5zM811 103q22 29 22 82q0 52 -21.5 80.5t-67.5 28.5q-91 0 -91 -109q0 -111 90 -111q46 0 68 29zM679 672l74 -48l-471 -685l-74 47z" />
    <glyph glyph-name="perthousand" unicode="&#x2030;" horiz-adv-x="1384" 
d="M89 296.5q-45 53.5 -45 138.5q0 82 47 135.5t131 53.5q88 0 133 -52t45 -137q0 -83 -46.5 -137.5t-131.5 -54.5q-88 0 -133 53.5zM290 353q22 29 22 82q0 52 -21.5 80.5t-67.5 28.5q-91 0 -91 -109q0 -111 90 -111q46 0 68 29zM610 46.5q-45 53.5 -45 138.5
q0 82 47 135.5t131 53.5q88 0 133 -52t45 -137q0 -83 -46.5 -137.5t-131.5 -54.5q-88 0 -133 53.5zM811 103q22 29 22 82q0 52 -21.5 80.5t-67.5 28.5q-91 0 -91 -109q0 -111 90 -111q46 0 68 29zM1029 46.5q-45 53.5 -45 138.5q0 82 47 135.5t131 53.5q88 0 133 -52
t45 -137q0 -83 -46.5 -137.5t-131.5 -54.5q-88 0 -133 53.5zM1230 103q22 29 22 82q0 52 -21.5 80.5t-67.5 28.5q-91 0 -91 -109q0 -111 90 -111q46 0 68 29zM679 672l74 -48l-471 -685l-74 47z" />
    <glyph glyph-name="lozenge" unicode="&#x25ca;" horiz-adv-x="562" 
d="M225 624h111l193 -312l-193 -312h-110l-192 312zM281 536l-137 -224l137 -224l137 224z" />
    <glyph glyph-name="at" unicode="@" horiz-adv-x="941" 
d="M138.5 -11q-82.5 102 -82.5 252q0 109 54 202.5t151.5 149t222.5 55.5q129 0 220.5 -46.5t138 -122.5t46.5 -164q0 -81 -39.5 -141.5t-101 -93t-124.5 -32.5h-32q-8 27 -11 55q-48 -63 -133 -63q-80 0 -128.5 55t-48.5 144q0 56 24 101.5t66 71.5t94 26q77 0 124 -58
q1 23 10 49h80v-293q54 15 88 59.5t34 120.5q0 119 -85.5 180.5t-221.5 61.5q-104 0 -178.5 -45t-112 -118t-37.5 -156q0 -110 62 -193.5t198 -120.5l-41 -79q-154 41 -236.5 143zM545.5 154.5q27.5 25.5 27.5 77.5v12q0 105 -103 105q-43 0 -70 -29t-27 -78q0 -53 24.5 -83
t68.5 -30q52 0 79.5 25.5z" />
    <glyph glyph-name="ampersand" unicode="&#x26;" horiz-adv-x="632" 
d="M300 -11q-79 0 -136.5 23.5t-88.5 66.5t-31 100q0 61 35 106.5t87 69.5q-18 26 -27 51.5t-9 57.5q0 46 25.5 85t69.5 62t97 23q62 0 105.5 -23t77.5 -69l-69 -59q-26 30 -47.5 41t-59.5 11q-39 0 -66 -21t-27 -58q0 -27 21 -57.5t74 -91.5l136 -156q23 31 23 67
q0 35 -16 63t-47 53l63 52q47 -29 71.5 -74.5t24.5 -93.5q0 -80 -57 -139l46 -54l-77 -59l-49 57q-68 -34 -149 -34zM385 97l-137 160l-28 32q-31 -11 -50.5 -37t-19.5 -60q0 -53 43 -81.5t111 -28.5q47 0 81 15z" />
    <glyph glyph-name="paragraph" unicode="&#xb6;" horiz-adv-x="596" 
d="M216.5 -70.5q15.5 34.5 15.5 73.5v243q-56 0 -99.5 25t-67 68t-23.5 95q0 53 23.5 96.5t67 68.5t99.5 25h102v-621q0 -55 -23.5 -108t-72.5 -84l-68 59q31 25 46.5 59.5zM509 624v-624h-102v624h102z" />
    <glyph glyph-name="section" unicode="&#xa7;" horiz-adv-x="561" 
d="M154.5 -168q-55.5 26 -99.5 79l65 65q41 -40 77 -55t84 -15q55 0 81 22t26 53q0 24 -14 39t-38 24t-70 20q-106 25 -161.5 67t-55.5 119q0 63 52 113q-33 36 -33 97q0 47 27 87t74.5 63.5t108.5 23.5q72 0 125.5 -25t97.5 -78l-64 -66q-42 41 -76 55.5t-81 14.5
q-52 0 -78 -22.5t-26 -53.5q0 -24 13 -38t36 -22t69 -19q107 -25 164 -67t57 -120q0 -65 -52 -114q34 -37 34 -99q0 -47 -27 -87t-76 -63.5t-112 -23.5q-72 0 -127.5 26zM408 182q0 29 -12 46.5t-39 29t-77 23.5q-68 15 -104 31q-20 -19 -20 -52q0 -31 14 -49t42 -28.5
t80 -22.5q60 -14 94 -30q22 19 22 52z" />
    <glyph glyph-name="copyright" unicode="&#xa9;" horiz-adv-x="726" 
d="M195 30.5q-74 41.5 -115.5 115.5t-41.5 167q0 90 43 163.5t117.5 115.5t164.5 42q94 0 168 -41t116 -114.5t42 -165.5q0 -91 -43 -165t-117.5 -116.5t-165.5 -42.5q-94 0 -168 41.5zM490.5 94q57.5 33 90.5 90.5t33 128.5t-32.5 128t-89.5 89t-129 32q-70 0 -127.5 -33
t-90.5 -90t-33 -126q0 -72 32.5 -129.5t89.5 -90t129 -32.5q70 0 127.5 33zM245.5 188q-45.5 45 -45.5 124q0 45 21.5 84t61 62t90.5 23q44 0 79 -19.5t54 -56.5l-56 -40q-28 41 -76 41q-41 0 -64.5 -25t-23.5 -68t22.5 -68.5t62.5 -25.5q25 0 46 11.5t36 30.5l54 -41
q-19 -37 -54.5 -57t-82.5 -20q-79 0 -124.5 45z" />
    <glyph glyph-name="registered" unicode="&#xae;" horiz-adv-x="545" 
d="M156 238.5q-52 29.5 -81.5 81.5t-29.5 117q0 64 30 115.5t82 81.5t116 30q65 0 117 -29t81 -81t29 -117q0 -64 -30 -116t-81.5 -82t-115.5 -30q-65 0 -117 29.5zM362 282.5q40 23.5 63 64t23 90.5q0 51 -22.5 91.5t-62.5 63t-90 22.5q-49 0 -89.5 -23.5t-63.5 -64
t-23 -89.5q0 -51 22.5 -91.5t63 -63.5t90.5 -23q49 0 89 23.5zM277 552q45 0 70 -20.5t25 -57.5q0 -42 -39 -63l59 -82h-68l-48 69q-6 -1 -17 -1h-16v-68h-57v223h91zM313 474q0 14 -9 19.5t-31 5.5h-30v-49h30q40 0 40 24z" />
    <glyph glyph-name="trademark" unicode="&#x2122;" horiz-adv-x="861" 
d="M31 548v76h323v-76h-122v-287h-79v287h-122zM502 624l107 -188l104 188h75l23 -363h-77l-15 239l-82 -156h-57l-82 151l-15 -234h-77l23 363h73z" />
    <glyph glyph-name="degree" unicode="&#xb0;" horiz-adv-x="361" 
d="M107 381.5q-34 19.5 -54 53t-20 74.5t20 74.5t54 53t73 19.5q40 0 74 -19t54 -53t20 -75t-20 -74.5t-54 -53t-74 -19.5q-39 0 -73 19.5zM226 461q18 18 18 48t-18 48t-46 18q-27 0 -45.5 -18.5t-18.5 -47.5t18.5 -47.5t45.5 -18.5q28 0 46 18z" />
    <glyph glyph-name="minute" unicode="&#x2032;" horiz-adv-x="242" 
d="M176 624l-6 -245h-98l-6 245h110z" />
    <glyph glyph-name="second" unicode="&#x2033;" horiz-adv-x="407" 
d="M176 624l-6 -245h-98l-6 245h110zM341 624l-6 -245h-98l-6 245h110z" />
    <glyph glyph-name="bar" unicode="|" horiz-adv-x="288" 
d="M200 694v-809h-113v809h113z" />
    <glyph glyph-name="brokenbar" unicode="&#xa6;" horiz-adv-x="288" 
d="M200 694v-295h-113v295h113zM200 180v-295h-113v295h113z" />
    <glyph glyph-name="dagger" unicode="&#x2020;" horiz-adv-x="500" 
d="M20 356v104h175v175h110v-175h175v-104h-175v-424h-110v424h-175z" />
    <glyph glyph-name="daggerdbl" unicode="&#x2021;" horiz-adv-x="510" 
d="M27 101v101h173v163h-173v101h173v169h110v-169h174v-101h-174v-163h174v-101h-174v-169h-110v169h-173z" />
    <glyph glyph-name="at.case" horiz-adv-x="941" 
d="M138.5 38q-82.5 102 -82.5 252q0 109 54 202.5t151.5 149t222.5 55.5q129 0 220.5 -46.5t138 -122.5t46.5 -164q0 -81 -39.5 -141.5t-101 -93t-124.5 -32.5h-32q-8 27 -11 55q-48 -63 -133 -63q-80 0 -128.5 55t-48.5 144q0 56 24 101.5t66 71.5t94 26q77 0 124 -58
q1 23 10 49h80v-293q54 15 88 59.5t34 120.5q0 119 -85.5 180.5t-221.5 61.5q-104 0 -178.5 -45t-112 -118t-37.5 -156q0 -110 62 -193.5t198 -120.5l-41 -79q-154 41 -236.5 143zM545.5 203.5q27.5 25.5 27.5 77.5v12q0 105 -103 105q-43 0 -70 -29t-27 -78q0 -53 24.5 -83
t68.5 -30q52 0 79.5 25.5z" />
    <glyph glyph-name="uni0308" unicode="&#x308;" horiz-adv-x="0" 
d="M-148 567.5q-18 18.5 -18 45.5t18 45.5t47 18.5q28 0 46 -18.5t18 -45.5t-18 -45.5t-46 -18.5q-29 0 -47 18.5zM55.5 567q-17.5 18 -17.5 46q0 27 17.5 45.5t46.5 18.5t46.5 -18.5t17.5 -45.5t-18 -45.5t-46 -18.5q-29 0 -46.5 18z" />
    <glyph glyph-name="uni0307" unicode="&#x307;" horiz-adv-x="0" 
d="M-48.5 566.5q-18.5 18.5 -18.5 46.5t18.5 46.5t48.5 18.5t48.5 -18.5t18.5 -46.5t-18.5 -46.5t-48.5 -18.5t-48.5 18.5z" />
    <glyph glyph-name="gravecomb" unicode="&#x300;" horiz-adv-x="0" 
d="M-98 716l197 -121l-40 -63l-201 113z" />
    <glyph glyph-name="acutecomb" unicode="&#x301;" horiz-adv-x="0" 
d="M98 716l44 -71l-201 -113l-40 63z" />
    <glyph glyph-name="uni030B" unicode="&#x30b;" horiz-adv-x="0" 
d="M-2 716l56 -59l-159 -126l-50 54zM181 715l56 -58l-160 -126l-49 53z" />
    <glyph glyph-name="uni0302" unicode="&#x302;" horiz-adv-x="0" 
d="M-38 691q20 16 39 16t39 -16l119 -101l-45 -52l-114 87l-115 -87l-45 52z" />
    <glyph glyph-name="uni030C" unicode="&#x30c;" horiz-adv-x="0" 
d="M-41 551l-119 102l45 52l114 -88l115 88l45 -52l-122 -102q-18 -15 -39 -15t-39 15z" />
    <glyph glyph-name="uni0306" unicode="&#x306;" horiz-adv-x="0" 
d="M-168 646l58 46q25 -35 50 -51.5t60 -16.5t60 16.5t50 51.5l58 -46q-69 -101 -168 -101t-168 101z" />
    <glyph glyph-name="uni030A" unicode="&#x30a;" horiz-adv-x="0" 
d="M-74 572q-31 29 -31 74q0 44 31.5 73.5t73.5 29.5t73.5 -29.5t31.5 -73.5q0 -45 -31 -74t-74 -29t-74 29zM30.5 614.5q12.5 11.5 12.5 31.5t-12.5 31.5t-30.5 11.5t-30.5 -11.5t-12.5 -31.5t12.5 -31.5t30.5 -11.5t30.5 11.5z" />
    <glyph glyph-name="tildecomb" unicode="&#x303;" horiz-adv-x="0" 
d="M28 553.5q-17 6.5 -39 19.5q-16 10 -28 15.5t-25 5.5q-23 0 -37.5 -8.5t-31.5 -28.5l-49 44q47 72 115 72q24 0 41.5 -7t36.5 -19q30 -21 55 -21q21 0 35.5 8.5t31.5 28.5l50 -44q-49 -72 -117 -72q-21 0 -38 6.5z" />
    <glyph glyph-name="uni0304" unicode="&#x304;" horiz-adv-x="0" 
d="M150 649v-80h-300v80h300z" />
    <glyph glyph-name="uni0312" unicode="&#x312;" horiz-adv-x="0" 
d="M-17 672.5q35 52.5 93 79.5l45 -53q-41 -26 -61 -60.5t-20 -82.5h-92q0 64 35 116.5z" />
    <glyph glyph-name="uni0326" unicode="&#x326;" horiz-adv-x="0" 
d="M-64.5 -133q20.5 35 20.5 82h91q0 -64 -34.5 -116.5t-92.5 -79.5l-46 53q41 26 61.5 61z" />
    <glyph glyph-name="uni0327" unicode="&#x327;" horiz-adv-x="0" 
d="M-81.5 -156.5q-29.5 12.5 -48.5 33.5l40 53q31 -25 60 -25q21 0 33.5 10.5t12.5 30.5q0 38 -42 46l42 42q36 -14 61 -42t25 -64q0 -43 -32.5 -70t-88.5 -27q-33 0 -62.5 12.5z" />
    <glyph glyph-name="uni0328" unicode="&#x328;" horiz-adv-x="0" 
d="M-85.5 -156.5q-25.5 19.5 -25.5 52.5q0 25 15.5 45t44.5 39q24 16 79 45l42 -31q-29 -19 -55 -36q-20 -13 -29 -22t-9 -19q0 -9 6.5 -14t18.5 -5q21 0 46 22l40 -51q-19 -20 -46 -32.5t-59 -12.5q-43 0 -68.5 19.5z" />
    <glyph glyph-name="uni0335" unicode="&#x335;" horiz-adv-x="0" 
d="M199 471v-88h-398v88h398z" />
    <glyph glyph-name="uni0336" unicode="&#x336;" horiz-adv-x="0" 
d="M351 491v-103h-701v103h701z" />
    <glyph glyph-name="uni0337" unicode="&#x337;" horiz-adv-x="0" 
d="M160 568l36 -78l-356 -173l-37 78z" />
    <glyph glyph-name="acute" unicode="&#xb4;" horiz-adv-x="500" 
d="M326 716l44 -71l-201 -113l-40 63z" />
    <glyph glyph-name="breve" unicode="&#x2d8;" horiz-adv-x="500" 
d="M82 646l58 46q25 -35 50 -51.5t60 -16.5t60 16.5t50 51.5l58 -46q-69 -101 -168 -101t-168 101z" />
    <glyph glyph-name="caron" unicode="&#x2c7;" horiz-adv-x="500" 
d="M209 551l-119 102l45 52l114 -88l115 88l45 -52l-122 -102q-18 -15 -39 -15t-39 15z" />
    <glyph glyph-name="cedilla" unicode="&#xb8;" horiz-adv-x="500" 
d="M182.5 -156.5q-29.5 12.5 -48.5 33.5l40 53q31 -25 60 -25q21 0 33.5 10.5t12.5 30.5q0 38 -42 46l42 42q36 -14 61 -42t25 -64q0 -43 -32.5 -70t-88.5 -27q-33 0 -62.5 12.5z" />
    <glyph glyph-name="circumflex" unicode="&#x2c6;" horiz-adv-x="500" 
d="M212 691q20 16 39 16t39 -16l119 -101l-45 -52l-114 87l-115 -87l-45 52z" />
    <glyph glyph-name="dieresis" unicode="&#xa8;" horiz-adv-x="500" 
d="M102 567.5q-18 18.5 -18 45.5t18 45.5t47 18.5q28 0 46 -18.5t18 -45.5t-18 -45.5t-46 -18.5q-29 0 -47 18.5zM305.5 567q-17.5 18 -17.5 46q0 27 17.5 45.5t46.5 18.5t46.5 -18.5t17.5 -45.5t-18 -45.5t-46 -18.5q-29 0 -46.5 18z" />
    <glyph glyph-name="dotaccent" unicode="&#x2d9;" horiz-adv-x="500" 
d="M201.5 566.5q-18.5 18.5 -18.5 46.5t18.5 46.5t48.5 18.5t48.5 -18.5t18.5 -46.5t-18.5 -46.5t-48.5 -18.5t-48.5 18.5z" />
    <glyph glyph-name="grave" unicode="`" horiz-adv-x="500" 
d="M173 716l197 -121l-40 -63l-201 113z" />
    <glyph glyph-name="hungarumlaut" unicode="&#x2dd;" horiz-adv-x="500" 
d="M207 716l56 -59l-159 -126l-50 54zM390 715l56 -58l-160 -126l-49 53z" />
    <glyph glyph-name="macron" unicode="&#xaf;" horiz-adv-x="500" 
d="M400 649v-80h-300v80h300z" />
    <glyph glyph-name="ogonek" unicode="&#x2db;" horiz-adv-x="500" 
d="M175.5 -156.5q-25.5 19.5 -25.5 52.5q0 25 15.5 45t44.5 39q24 16 79 45l42 -31q-29 -19 -55 -36q-20 -13 -29 -22t-9 -19q0 -9 6.5 -14t18.5 -5q21 0 46 22l40 -51q-19 -20 -46 -32.5t-59 -12.5q-43 0 -68.5 19.5z" />
    <glyph glyph-name="ring" unicode="&#x2da;" horiz-adv-x="500" 
d="M176 572q-31 29 -31 74q0 44 31.5 73.5t73.5 29.5t73.5 -29.5t31.5 -73.5q0 -45 -31 -74t-74 -29t-74 29zM280.5 614.5q12.5 11.5 12.5 31.5t-12.5 31.5t-30.5 11.5t-30.5 -11.5t-12.5 -31.5t12.5 -31.5t30.5 -11.5t30.5 11.5z" />
    <glyph glyph-name="tilde" unicode="&#x2dc;" horiz-adv-x="500" 
d="M278 553.5q-17 6.5 -39 19.5q-16 10 -28 15.5t-25 5.5q-23 0 -37.5 -8.5t-31.5 -28.5l-49 44q47 72 115 72q24 0 41.5 -7t36.5 -19q30 -21 55 -21q21 0 35.5 8.5t31.5 28.5l50 -44q-49 -72 -117 -72q-21 0 -38 6.5z" />
    <glyph glyph-name="uni0308.case" horiz-adv-x="0" 
d="M-142.5 707.5q-17.5 18.5 -17.5 45.5t18 45.5t45 18.5q28 0 46 -18.5t18 -45.5t-18 -45.5t-46 -18.5t-45.5 18.5zM51 707.5q-18 18.5 -18 45.5t18.5 45.5t46.5 18.5q27 0 44.5 -18.5t17.5 -45.5t-17.5 -45.5t-45.5 -18.5t-46 18.5z" />
    <glyph glyph-name="uni0307.case" horiz-adv-x="0" 
d="M-48 705.5q-19 19.5 -19 47.5t19 47t48 19q30 0 48.5 -19t18.5 -47t-19 -47.5t-48 -19.5t-48 19.5z" />
    <glyph glyph-name="gravecomb.case" horiz-adv-x="0" 
d="M-110 850l214 -107l-35 -69l-218 99z" />
    <glyph glyph-name="acutecomb.case" horiz-adv-x="0" 
d="M109 850l40 -77l-218 -99l-35 69z" />
    <glyph glyph-name="uni030B.case" horiz-adv-x="0" 
d="M2 855l48 -65l-176 -112l-42 59zM198 854l48 -65l-176 -111l-41 58z" />
    <glyph glyph-name="uni0302.case" horiz-adv-x="0" 
d="M-38 821q20 16 39 16t39 -16l119 -101l-45 -52l-114 88l-115 -88l-45 52z" />
    <glyph glyph-name="uni030C.case" horiz-adv-x="0" 
d="M-41 688l-118 102l44 51l114 -88l115 88l45 -52l-122 -101q-20 -16 -39 -16t-39 16z" />
    <glyph glyph-name="uni0306.case" horiz-adv-x="0" 
d="M-168 776l57 45q25 -34 50.5 -50.5t60.5 -16.5t60.5 16.5t50.5 50.5l57 -45q-68 -101 -168 -101t-168 101z" />
    <glyph glyph-name="uni030A.case" horiz-adv-x="0" 
d="M-78 693q-33 31 -33 79q0 47 33 78.5t78 31.5t78 -31.5t33 -78.5q0 -48 -33 -79t-78 -31t-78 31zM32 739q13 13 13 33t-13 33t-32 13t-32 -13t-13 -33t13 -33t32 -13t32 13z" />
    <glyph glyph-name="tildecomb.case" horiz-adv-x="0" 
d="M26 684q-17 7 -37 19q-31 19 -52 19q-23 0 -37.5 -8t-31.5 -28l-48 43q47 71 114 71q23 0 40.5 -7t35.5 -19q18 -11 29.5 -15.5t25.5 -4.5q21 0 35.5 8.5t30.5 28.5l49 -44q-46 -70 -115 -70q-22 0 -39 7z" />
    <glyph glyph-name="uni0304.case" horiz-adv-x="0" 
d="M151 781v-81h-302v81h302z" />
    <glyph glyph-name="uni0326.case" horiz-adv-x="0" 
d="M-68.5 -136q20.5 35 20.5 83h92q0 -64 -35.5 -118t-93.5 -80l-46 54q42 26 62.5 61z" />
    <glyph glyph-name="uni0327.case" horiz-adv-x="0" 
d="M-96 -163q-31 13 -51 35l42 55q30 -26 62 -26q21 0 34 10.5t13 31.5q0 40 -43 49l43 43q37 -15 63 -44t26 -66q0 -44 -33.5 -72.5t-90.5 -28.5q-34 0 -65 13z" />
    <glyph glyph-name="uni0328.case" horiz-adv-x="0" 
d="M-161.5 -159.5q-26.5 20.5 -26.5 55.5q0 31 23.5 55t69.5 50q5 3 50 28l45 -35q-12 -7 -51 -32q-24 -15 -34 -24t-10 -20q0 -21 25 -21q22 0 47 23l42 -53q-20 -21 -48 -34t-61 -13q-45 0 -71.5 20.5z" />
    <glyph glyph-name="uni0335.case" horiz-adv-x="0" 
d="M181 466v-103h-363v103h363z" />
    <glyph glyph-name="uni0337.case" horiz-adv-x="0" 
d="M174 586l39 -90l-388 -180l-40 90z" />
    </font>
</defs>
</svg>
