<?xml version="1.0" standalone="no"?>
<!DOCTYPE svg PUBLIC "-//W3C//DTD SVG 1.1//EN" "http://www.w3.org/Graphics/SVG/1.1/DTD/svg11.dtd" >
<svg xmlns="http://www.w3.org/2000/svg" xmlns:xlink="http://www.w3.org/1999/xlink" version="1.1">
<metadata>
Created by FontForge 20170924 at Thu Jul 25 18:40:33 2019
 By www-data
Copyright (c) 2017 by Fabio Haag Type. All rights reserved. Fabio Haag Type is a registered trademark of VLF Design Ltda
</metadata>
<defs>
<font id="MargemTest-Black" horiz-adv-x="580" >
  <font-face 
    font-family="Margem Test Black"
    font-weight="900"
    font-stretch="normal"
    units-per-em="1000"
    panose-1="2 1 10 3 4 2 1 2 2 3"
    ascent="800"
    descent="-200"
    x-height="481"
    cap-height="624"
    bbox="-367 -255 1376 920"
    underline-thickness="50"
    underline-position="-100"
    unicode-range="U+0020-FB02"
  />
<missing-glyph horiz-adv-x="434" 
d="M81 -194v868h275v-868h-275zM146 587h56v-32h-57v-29h144v29h-57v32h57v29h-143v-29zM145 414h144v29h-57v61h-87v-90zM174 443v31h28v-31h-28zM145 362h57v-33h-57v-28h87v61h57v28h-144v-28zM260 281h-115v-30h144v87h-29v-57zM202 184h30v20h28v-41h-86v69h-29v-98
h144v98h-87v-48zM145 -16h144v98h-144v-98zM174 13v40h86v-40h-86zM145 -65h61l-61 -40v-29h144v29h-88l60 40h28v29h-144v-29z" />
    <glyph glyph-name="f_f" unicode="ff" horiz-adv-x="925" 
d="M20 326v144h92v1q0 100 58 159t156 59q57 0 98.5 -18t72.5 -52l-66 -99q-34 27 -70 27q-33 0 -53 -17.5t-20 -56.5v-3h252v1q0 102 59 160t155 58q57 0 98.5 -18t72.5 -52l-66 -99q-34 27 -70 27q-33 0 -53 -17.5t-20 -56.5v-3h180v-144h-180v-326h-176v326h-252v-326
h-176v326h-92z" />
    <glyph glyph-name="fi" unicode="fi" horiz-adv-x="805" 
d="M20 326v144h92v1q3 105 60.5 161.5t153.5 56.5q57 0 98.5 -18t72.5 -52l-66 -99q-34 27 -70 27q-33 0 -53 -17.5t-20 -56.5v-3h180v-144h-180v-326h-176v326h-92zM739 481v-481h-176v481h176zM579.5 550q-25.5 24 -25.5 62q0 36 26 60.5t70 24.5t70.5 -24.5t26.5 -60.5
q0 -38 -26.5 -62t-71.5 -24q-44 0 -69.5 24z" />
    <glyph glyph-name="fl" unicode="fl" horiz-adv-x="805" 
d="M20 326v144h92v1q3 105 60.5 161.5t153.5 56.5q57 0 98.5 -18t72.5 -52l-66 -99q-34 27 -70 27q-33 0 -53 -17.5t-20 -56.5v-3h180v-144h-180v-326h-176v326h-92zM739 674v-674h-176v674h176z" />
    <glyph glyph-name=".notdef" horiz-adv-x="434" 
d="M81 -194v868h275v-868h-275zM146 587h56v-32h-57v-29h144v29h-57v32h57v29h-143v-29zM145 414h144v29h-57v61h-87v-90zM174 443v31h28v-31h-28zM145 362h57v-33h-57v-28h87v61h57v28h-144v-28zM260 281h-115v-30h144v87h-29v-57zM202 184h30v20h28v-41h-86v69h-29v-98
h144v98h-87v-48zM145 -16h144v98h-144v-98zM174 13v40h86v-40h-86zM145 -65h61l-61 -40v-29h144v29h-88l60 40h28v29h-144v-29z" />
    <glyph glyph-name="space" unicode=" " horiz-adv-x="232" 
 />
    <glyph glyph-name="A" unicode="A" horiz-adv-x="687" 
d="M445 624l237 -624h-183l-42 128h-234l-42 -128h-176l235 624h205zM340 480l-73 -209h145z" />
    <glyph glyph-name="Aacute" unicode="&#xc1;" horiz-adv-x="687" 
d="M445 624l237 -624h-183l-42 128h-234l-42 -128h-176l235 624h205zM340 480l-73 -209h145zM465 864l45 -109l-264 -87l-40 96z" />
    <glyph glyph-name="Abreve" unicode="&#x102;" horiz-adv-x="687" 
d="M445 624l237 -624h-183l-42 128h-234l-42 -128h-176l235 624h205zM340 480l-73 -209h145zM243.5 706.5q-46.5 28.5 -81.5 83.5l77 58q27 -37 50.5 -52t54.5 -15t54.5 15t50.5 52l77 -58q-35 -55 -81.5 -83.5t-100.5 -28.5t-100.5 28.5z" />
    <glyph glyph-name="Acircumflex" unicode="&#xc2;" horiz-adv-x="687" 
d="M445 624l237 -624h-183l-42 128h-234l-42 -128h-176l235 624h205zM340 480l-73 -209h145zM299 843q21 18 46 18t46 -18l127 -106l-56 -66l-118 84l-119 -84l-56 67z" />
    <glyph glyph-name="Adieresis" unicode="&#xc4;" horiz-adv-x="687" 
d="M445 624l237 -624h-183l-42 128h-234l-42 -128h-176l235 624h205zM340 480l-73 -209h145zM167.5 707q-22.5 23 -22.5 59q0 35 23.5 58t61.5 23q40 0 63.5 -23t23.5 -58q0 -36 -24 -59t-64 -23q-39 0 -61.5 23zM394 706.5q-23 22.5 -23 59.5q0 35 23.5 58t62.5 23
t62.5 -23t23.5 -58q0 -36 -24 -59t-63 -23t-62 22.5z" />
    <glyph glyph-name="Agrave" unicode="&#xc0;" horiz-adv-x="687" 
d="M445 624l237 -624h-183l-42 128h-234l-42 -128h-176l235 624h205zM340 480l-73 -209h145zM223 864l259 -100l-40 -96l-264 87z" />
    <glyph glyph-name="Amacron" unicode="&#x100;" horiz-adv-x="687" 
d="M445 624l237 -624h-183l-42 128h-234l-42 -128h-176l235 624h205zM340 480l-73 -209h145zM505 805v-107h-322v107h322z" />
    <glyph glyph-name="Aogonek" unicode="&#x104;" horiz-adv-x="687" 
d="M702 -153q-22 -25 -58.5 -39.5t-74.5 -14.5q-58 0 -93 22.5t-35 67.5q0 35 22.5 62t67.5 52l5 3h-37l-42 128h-234l-42 -128h-176l235 624h205l237 -624l-64 -37q-32 -18 -43.5 -28t-11.5 -23q0 -22 30 -22q24 0 53 25zM412 271l-72 209l-73 -209h145z" />
    <glyph glyph-name="Aring" unicode="&#xc5;" horiz-adv-x="687" 
d="M682 0h-183l-42 128h-234l-42 -128h-176l234 623q-30 37 -30 83q0 37 18.5 67t49 46.5t65.5 16.5t65.5 -16.5t49 -46.5t18.5 -67q0 -48 -30 -83zM311 738q-13 -13 -13 -32t13 -32t31 -13t31 13t13 32t-13 32t-31 13t-31 -13zM412 271l-72 209l-73 -209h145z" />
    <glyph glyph-name="Atilde" unicode="&#xc3;" horiz-adv-x="687" 
d="M445 624l237 -624h-183l-42 128h-234l-42 -128h-176l235 624h205zM340 480l-73 -209h145zM372.5 678q-17.5 7 -39.5 20q-33 20 -52 20q-23 0 -36 -8.5t-28 -28.5l-67 58q51 84 129 84q28 0 47 -7t39 -20q16 -10 27.5 -15t27.5 -5q17 0 29.5 8.5t26.5 28.5l67 -58
q-51 -84 -132 -84q-21 0 -38.5 7z" />
    <glyph glyph-name="AE" unicode="&#xc6;" horiz-adv-x="1016" 
d="M972 624v-155h-305v-79h267v-146h-267v-89h314v-155h-478v139h-212l-93 -139h-193l440 624h527zM503 454l-124 -177h124v177z" />
    <glyph glyph-name="B" unicode="B" horiz-adv-x="653" 
d="M358 624q109 0 176 -42.5t67 -128.5q0 -87 -76 -126q98 -39 98 -142q0 -94 -69.5 -139.5t-181.5 -45.5h-296v624h282zM411 390q25 12 25 45t-24.5 43.5t-74.5 10.5h-91v-111h95q45 0 70 12zM423.5 145.5q23.5 11.5 23.5 44.5q0 36 -24.5 47t-77.5 11h-99v-114h105
q49 0 72.5 11.5z" />
    <glyph glyph-name="C" unicode="C" horiz-adv-x="641" 
d="M187 29.5q-70 40.5 -106.5 113t-36.5 169.5q0 80 32.5 153.5t104 121t180.5 47.5q82 0 150 -37.5t103 -113.5l-122 -92q-44 79 -130 79q-67 0 -102 -43.5t-35 -114.5q0 -72 35 -115.5t98 -43.5q91 0 137 81l122 -92q-36 -78 -104.5 -115.5t-155.5 -37.5q-100 0 -170 40.5
z" />
    <glyph glyph-name="Cacute" unicode="&#x106;" horiz-adv-x="641" 
d="M187 29.5q-70 40.5 -106.5 113t-36.5 169.5q0 80 32.5 153.5t104 121t180.5 47.5q82 0 150 -37.5t103 -113.5l-122 -92q-44 79 -130 79q-67 0 -102 -43.5t-35 -114.5q0 -72 35 -115.5t98 -43.5q91 0 137 81l122 -92q-36 -78 -104.5 -115.5t-155.5 -37.5q-100 0 -170 40.5
zM471 864l45 -109l-264 -87l-40 96z" />
    <glyph glyph-name="Ccaron" unicode="&#x10c;" horiz-adv-x="641" 
d="M187 29.5q-70 40.5 -106.5 113t-36.5 169.5q0 80 32.5 153.5t104 121t180.5 47.5q82 0 150 -37.5t103 -113.5l-122 -92q-44 79 -130 79q-67 0 -102 -43.5t-35 -114.5q0 -72 35 -115.5t98 -43.5q91 0 137 81l122 -92q-36 -78 -104.5 -115.5t-155.5 -37.5q-100 0 -170 40.5
zM302 692l-127 106l56 66l118 -84l119 84l56 -67l-130 -105q-21 -18 -46 -18t-46 18z" />
    <glyph glyph-name="Ccedilla" unicode="&#xc7;" horiz-adv-x="641" 
d="M547 50q-44 -35 -100 -50q36 -38 36 -80q0 -52 -39 -82.5t-107 -30.5q-42 0 -79.5 15.5t-60.5 41.5l55 71q18 -13 31.5 -20t31.5 -7q50 0 50 38q0 34 -48 45q-131 12 -202 98t-71 223q0 80 32.5 153.5t104 121t180.5 47.5q82 0 150 -37.5t103 -113.5l-122 -92
q-44 79 -130 79q-67 0 -102 -43.5t-35 -114.5q0 -72 35 -115.5t98 -43.5q91 0 137 81l122 -92q-26 -57 -70 -92z" />
    <glyph glyph-name="Ccircumflex" unicode="&#x108;" horiz-adv-x="641" 
d="M187 29.5q-70 40.5 -106.5 113t-36.5 169.5q0 80 32.5 153.5t104 121t180.5 47.5q82 0 150 -37.5t103 -113.5l-122 -92q-44 79 -130 79q-67 0 -102 -43.5t-35 -114.5q0 -72 35 -115.5t98 -43.5q91 0 137 81l122 -92q-36 -78 -104.5 -115.5t-155.5 -37.5q-100 0 -170 40.5
zM305 843q21 18 46 18t46 -18l127 -106l-56 -66l-118 84l-119 -84l-56 67z" />
    <glyph glyph-name="Cdotaccent" unicode="&#x10a;" horiz-adv-x="641" 
d="M187 29.5q-70 40.5 -106.5 113t-36.5 169.5q0 80 32.5 153.5t104 121t180.5 47.5q82 0 150 -37.5t103 -113.5l-122 -92q-44 79 -130 79q-67 0 -102 -43.5t-35 -114.5q0 -72 35 -115.5t98 -43.5q91 0 137 81l122 -92q-36 -78 -104.5 -115.5t-155.5 -37.5q-100 0 -170 40.5
zM280 702q-25 25 -25 64q0 37 25.5 62.5t68.5 25.5q44 0 69.5 -25.5t25.5 -62.5q0 -39 -26 -64t-70 -25q-43 0 -68 25z" />
    <glyph glyph-name="D" unicode="D" horiz-adv-x="713" 
d="M340 624q103 0 177 -38.5t113 -109t39 -163.5q0 -92 -39.5 -162.5t-114 -110.5t-175.5 -40h-264v624h264zM448.5 201.5q39.5 37.5 39.5 111.5t-38.5 110.5t-108.5 36.5h-86v-296h84q70 0 109.5 37.5z" />
    <glyph glyph-name="Eth" unicode="&#xd0;" horiz-adv-x="733" 
d="M537 585.5q74 -38.5 113 -109t39 -163.5q0 -92 -39.5 -162.5t-114 -110.5t-175.5 -40h-264v236h-70v158h70v230h264q103 0 177 -38.5zM468.5 201.5q39.5 37.5 39.5 111.5t-38.5 110.5t-108.5 36.5h-86v-66h126v-158h-126v-72h84q70 0 109.5 37.5z" />
    <glyph glyph-name="Dcaron" unicode="&#x10e;" horiz-adv-x="713" 
d="M340 624q103 0 177 -38.5t113 -109t39 -163.5q0 -92 -39.5 -162.5t-114 -110.5t-175.5 -40h-264v624h264zM448.5 201.5q39.5 37.5 39.5 111.5t-38.5 110.5t-108.5 36.5h-86v-296h84q70 0 109.5 37.5zM273 692l-127 106l56 66l118 -84l119 84l56 -67l-130 -105
q-21 -18 -46 -18t-46 18z" />
    <glyph glyph-name="Dcroat" unicode="&#x110;" horiz-adv-x="733" 
d="M537 585.5q74 -38.5 113 -109t39 -163.5q0 -92 -39.5 -162.5t-114 -110.5t-175.5 -40h-264v236h-70v158h70v230h264q103 0 177 -38.5zM468.5 201.5q39.5 37.5 39.5 111.5t-38.5 110.5t-108.5 36.5h-86v-66h126v-158h-126v-72h84q70 0 109.5 37.5z" />
    <glyph glyph-name="E" unicode="E" horiz-adv-x="599" 
d="M555 624v-155h-305v-79h267v-146h-267v-89h314v-155h-488v624h479z" />
    <glyph glyph-name="Eacute" unicode="&#xc9;" horiz-adv-x="599" 
d="M555 624v-155h-305v-79h267v-146h-267v-89h314v-155h-488v624h479zM449 864l45 -109l-264 -87l-40 96z" />
    <glyph glyph-name="Ebreve" unicode="&#x114;" horiz-adv-x="599" 
d="M555 624v-155h-305v-79h267v-146h-267v-89h314v-155h-488v624h479zM227.5 706.5q-46.5 28.5 -81.5 83.5l77 58q27 -37 50.5 -52t54.5 -15t54.5 15t50.5 52l77 -58q-35 -55 -81.5 -83.5t-100.5 -28.5t-100.5 28.5z" />
    <glyph glyph-name="Ecaron" unicode="&#x11a;" horiz-adv-x="599" 
d="M555 624v-155h-305v-79h267v-146h-267v-89h314v-155h-488v624h479zM280 692l-127 106l56 66l118 -84l119 84l56 -67l-130 -105q-21 -18 -46 -18t-46 18z" />
    <glyph glyph-name="Ecircumflex" unicode="&#xca;" horiz-adv-x="599" 
d="M555 624v-155h-305v-79h267v-146h-267v-89h314v-155h-488v624h479zM283 843q21 18 46 18t46 -18l127 -106l-56 -66l-118 84l-119 -84l-56 67z" />
    <glyph glyph-name="Edieresis" unicode="&#xcb;" horiz-adv-x="599" 
d="M555 624v-155h-305v-79h267v-146h-267v-89h314v-155h-488v624h479zM151.5 707q-22.5 23 -22.5 59q0 35 23.5 58t61.5 23q40 0 63.5 -23t23.5 -58q0 -36 -24 -59t-64 -23q-39 0 -61.5 23zM378 706.5q-23 22.5 -23 59.5q0 35 23.5 58t62.5 23t62.5 -23t23.5 -58
q0 -36 -24 -59t-63 -23t-62 22.5z" />
    <glyph glyph-name="Edotaccent" unicode="&#x116;" horiz-adv-x="599" 
d="M555 624v-155h-305v-79h267v-146h-267v-89h314v-155h-488v624h479zM258 702q-25 25 -25 64q0 37 25.5 62.5t68.5 25.5q44 0 69.5 -25.5t25.5 -62.5q0 -39 -26 -64t-70 -25q-43 0 -68 25z" />
    <glyph glyph-name="Egrave" unicode="&#xc8;" horiz-adv-x="599" 
d="M555 624v-155h-305v-79h267v-146h-267v-89h314v-155h-488v624h479zM207 864l259 -100l-40 -96l-264 87z" />
    <glyph glyph-name="Emacron" unicode="&#x112;" horiz-adv-x="599" 
d="M555 624v-155h-305v-79h267v-146h-267v-89h314v-155h-488v624h479zM489 805v-107h-322v107h322z" />
    <glyph glyph-name="Eogonek" unicode="&#x118;" horiz-adv-x="599" 
d="M584 -153q-22 -25 -58.5 -39.5t-74.5 -14.5q-58 0 -93 22.5t-35 67.5q0 35 22.5 62t67.5 52l5 3h-342v624h479v-155h-305v-79h267v-146h-267v-89h314v-155l-64 -37q-32 -18 -43.5 -28t-11.5 -23q0 -22 30 -22q24 0 53 25z" />
    <glyph glyph-name="F" unicode="F" horiz-adv-x="583" 
d="M551 624v-164h-296v-101h255v-162h-255v-197h-179v624h475z" />
    <glyph glyph-name="G" unicode="G" horiz-adv-x="702" 
d="M187.5 29.5q-70.5 40.5 -107 113.5t-36.5 169q0 78 37 152t111.5 122t181.5 48q85 0 156.5 -36.5t106.5 -112.5l-119 -86q-21 38 -57 59t-86 21q-75 0 -112.5 -47t-37.5 -126q0 -77 39 -121t111 -44q49 0 81.5 22.5t41.5 57.5h-120v126h288v-53q0 -92 -36 -160.5
t-105 -106.5t-167 -38q-100 0 -170.5 40.5z" />
    <glyph glyph-name="Gbreve" unicode="&#x11e;" horiz-adv-x="702" 
d="M187.5 29.5q-70.5 40.5 -107 113.5t-36.5 169q0 78 37 152t111.5 122t181.5 48q85 0 156.5 -36.5t106.5 -112.5l-119 -86q-21 38 -57 59t-86 21q-75 0 -112.5 -47t-37.5 -126q0 -77 39 -121t111 -44q49 0 81.5 22.5t41.5 57.5h-120v126h288v-53q0 -92 -36 -160.5
t-105 -106.5t-167 -38q-100 0 -170.5 40.5zM264.5 706.5q-46.5 28.5 -81.5 83.5l77 58q27 -37 50.5 -52t54.5 -15t54.5 15t50.5 52l77 -58q-35 -55 -81.5 -83.5t-100.5 -28.5t-100.5 28.5z" />
    <glyph glyph-name="Gcircumflex" unicode="&#x11c;" horiz-adv-x="702" 
d="M187.5 29.5q-70.5 40.5 -107 113.5t-36.5 169q0 78 37 152t111.5 122t181.5 48q85 0 156.5 -36.5t106.5 -112.5l-119 -86q-21 38 -57 59t-86 21q-75 0 -112.5 -47t-37.5 -126q0 -77 39 -121t111 -44q49 0 81.5 22.5t41.5 57.5h-120v126h288v-53q0 -92 -36 -160.5
t-105 -106.5t-167 -38q-100 0 -170.5 40.5zM320 843q21 18 46 18t46 -18l127 -106l-56 -66l-118 84l-119 -84l-56 67z" />
    <glyph glyph-name="uni0122" unicode="&#x122;" horiz-adv-x="702" 
d="M187.5 29.5q-70.5 40.5 -107 113.5t-36.5 169q0 78 37 152t111.5 122t181.5 48q85 0 156.5 -36.5t106.5 -112.5l-119 -86q-21 38 -57 59t-86 21q-75 0 -112.5 -47t-37.5 -126q0 -77 39 -121t111 -44q49 0 81.5 22.5t41.5 57.5h-120v126h288v-53q0 -92 -36 -160.5
t-105 -106.5t-167 -38q-100 0 -170.5 40.5zM281.5 -129.5q20.5 29.5 20.5 79.5h127q0 -68 -39.5 -120.5t-108.5 -84.5l-64 66q44 30 64.5 59.5z" />
    <glyph glyph-name="Gdotaccent" unicode="&#x120;" horiz-adv-x="702" 
d="M187.5 29.5q-70.5 40.5 -107 113.5t-36.5 169q0 78 37 152t111.5 122t181.5 48q85 0 156.5 -36.5t106.5 -112.5l-119 -86q-21 38 -57 59t-86 21q-75 0 -112.5 -47t-37.5 -126q0 -77 39 -121t111 -44q49 0 81.5 22.5t41.5 57.5h-120v126h288v-53q0 -92 -36 -160.5
t-105 -106.5t-167 -38q-100 0 -170.5 40.5zM295 702q-25 25 -25 64q0 37 25.5 62.5t68.5 25.5q44 0 69.5 -25.5t25.5 -62.5q0 -39 -26 -64t-70 -25q-43 0 -68 25z" />
    <glyph glyph-name="H" unicode="H" horiz-adv-x="747" 
d="M255 624v-224h237v224h179v-624h-179v234h-237v-234h-179v624h179z" />
    <glyph glyph-name="Hbar" unicode="&#x126;" horiz-adv-x="747" 
d="M6 427v130h70v67h179v-67h237v67h179v-67h70v-130h-70v-427h-179v206h-237v-206h-179v427h-70zM492 427h-237v-65h237v65z" />
    <glyph glyph-name="Hcircumflex" unicode="&#x124;" horiz-adv-x="747" 
d="M255 624v-224h237v224h179v-624h-179v234h-237v-234h-179v624h179zM329 843q21 18 46 18t46 -18l127 -106l-56 -66l-118 84l-119 -84l-56 67z" />
    <glyph glyph-name="I" unicode="I" horiz-adv-x="331" 
d="M255 624v-624h-179v624h179z" />
    <glyph glyph-name="IJ" unicode="&#x132;" horiz-adv-x="915" 
d="M255 624v-624h-179v624h179zM425 25.5q-67 36.5 -103 113.5l123 90q22 -39 50 -57.5t71 -18.5q55 0 82.5 36.5t27.5 102.5v332h179v-331q0 -142 -69.5 -223t-209.5 -81q-84 0 -151 36.5z" />
    <glyph glyph-name="Iacute" unicode="&#xcd;" horiz-adv-x="331" 
d="M255 624v-624h-179v624h179zM287 864l45 -109l-264 -87l-40 96z" />
    <glyph glyph-name="Ibreve" unicode="&#x12c;" horiz-adv-x="331" 
d="M255 624v-624h-179v624h179zM65.5 706.5q-46.5 28.5 -81.5 83.5l77 58q27 -37 50.5 -52t54.5 -15t54.5 15t50.5 52l77 -58q-35 -55 -81.5 -83.5t-100.5 -28.5t-100.5 28.5z" />
    <glyph glyph-name="Icircumflex" unicode="&#xce;" horiz-adv-x="331" 
d="M255 624v-624h-179v624h179zM121 843q21 18 46 18t46 -18l127 -106l-56 -66l-118 84l-119 -84l-56 67z" />
    <glyph glyph-name="Idieresis" unicode="&#xcf;" horiz-adv-x="331" 
d="M255 624v-624h-179v624h179zM-10.5 707q-22.5 23 -22.5 59q0 35 23.5 58t61.5 23q40 0 63.5 -23t23.5 -58q0 -36 -24 -59t-64 -23q-39 0 -61.5 23zM216 706.5q-23 22.5 -23 59.5q0 35 23.5 58t62.5 23t62.5 -23t23.5 -58q0 -36 -24 -59t-63 -23t-62 22.5z" />
    <glyph glyph-name="Idotaccent" unicode="&#x130;" horiz-adv-x="331" 
d="M255 624v-624h-179v624h179zM96 702q-25 25 -25 64q0 37 25.5 62.5t68.5 25.5q44 0 69.5 -25.5t25.5 -62.5q0 -39 -26 -64t-70 -25q-43 0 -68 25z" />
    <glyph glyph-name="Igrave" unicode="&#xcc;" horiz-adv-x="331" 
d="M255 624v-624h-179v624h179zM45 864l259 -100l-40 -96l-264 87z" />
    <glyph glyph-name="Imacron" unicode="&#x12a;" horiz-adv-x="331" 
d="M255 624v-624h-179v624h179zM327 805v-107h-322v107h322z" />
    <glyph glyph-name="Iogonek" unicode="&#x12e;" horiz-adv-x="331" 
d="M275 -153q-22 -25 -58.5 -39.5t-74.5 -14.5q-58 0 -93 22.5t-35 67.5q0 35 22.5 62t67.5 52l5 3h-33v624h179v-624l-64 -37q-32 -18 -43.5 -28t-11.5 -23q0 -22 30 -22q24 0 53 25z" />
    <glyph glyph-name="Itilde" unicode="&#x128;" horiz-adv-x="331" 
d="M255 624v-624h-179v624h179zM194.5 678q-17.5 7 -39.5 20q-33 20 -52 20q-23 0 -36 -8.5t-28 -28.5l-67 58q51 84 129 84q28 0 47 -7t39 -20q16 -10 27.5 -15t27.5 -5q17 0 29.5 8.5t26.5 28.5l67 -58q-51 -84 -132 -84q-21 0 -38.5 7z" />
    <glyph glyph-name="J" unicode="J" horiz-adv-x="609" 
d="M119 25.5q-67 36.5 -103 113.5l123 90q22 -39 50 -57.5t71 -18.5q55 0 82.5 36.5t27.5 102.5v332h179v-331q0 -142 -69.5 -223t-209.5 -81q-84 0 -151 36.5z" />
    <glyph glyph-name="Jcircumflex" unicode="&#x134;" horiz-adv-x="609" 
d="M119 25.5q-67 36.5 -103 113.5l123 90q22 -39 50 -57.5t71 -18.5q55 0 82.5 36.5t27.5 102.5v332h179v-331q0 -142 -69.5 -223t-209.5 -81q-84 0 -151 36.5zM414 843q21 18 46 18t46 -18l127 -106l-56 -66l-118 84l-119 -84l-56 67z" />
    <glyph glyph-name="K" unicode="K" horiz-adv-x="708" 
d="M254 624v-227q27 -3 50 -3q157 0 174 230h172q-3 -106 -41.5 -191t-104.5 -138l194 -295h-215l-143 238q-8 -1 -29 -1q-19 0 -57 4v-241h-178v624h178z" />
    <glyph glyph-name="uni0136" unicode="&#x136;" horiz-adv-x="708" 
d="M254 624v-227q27 -3 50 -3q157 0 174 230h172q-3 -106 -41.5 -191t-104.5 -138l194 -295h-215l-143 238q-8 -1 -29 -1q-19 0 -57 4v-241h-178v624h178zM270.5 -129.5q20.5 29.5 20.5 79.5h127q0 -68 -39.5 -120.5t-108.5 -84.5l-64 66q44 30 64.5 59.5z" />
    <glyph glyph-name="L" unicode="L" horiz-adv-x="564" 
d="M252 624v-458h292v-166h-468v624h176z" />
    <glyph glyph-name="Lacute" unicode="&#x139;" horiz-adv-x="564" 
d="M252 624v-458h292v-166h-468v624h176zM286 864l45 -109l-264 -87l-40 96z" />
    <glyph glyph-name="Lcaron" unicode="&#x13d;" horiz-adv-x="564" 
d="M448 674l-23 -207h-108v207h131zM252 624v-458h292v-166h-468v624h176z" />
    <glyph glyph-name="uni013B" unicode="&#x13b;" horiz-adv-x="564" 
d="M252 624v-458h292v-166h-468v624h176zM243.5 -129.5q20.5 29.5 20.5 79.5h127q0 -68 -39.5 -120.5t-108.5 -84.5l-64 66q44 30 64.5 59.5z" />
    <glyph glyph-name="Ldot" unicode="&#x13f;" horiz-adv-x="564" 
d="M252 624v-458h292v-166h-468v624h176zM366 307q-25 25 -25 64q0 37 25.5 62.5t68.5 25.5q44 0 69.5 -25.5t25.5 -62.5q0 -39 -26 -64t-70 -25q-43 0 -68 25z" />
    <glyph glyph-name="Lslash" unicode="&#x141;" horiz-adv-x="606" 
d="M586 166v-166h-468v205l-71 -33l-59 139l130 60v253h176v-171l147 68l59 -139l-206 -95v-121h292z" />
    <glyph glyph-name="M" unicode="M" horiz-adv-x="853" 
d="M287 624l141 -282l145 282h181l34 -624h-169l-17 385l-124 -235h-107l-121 231l-17 -381h-168l34 624h188z" />
    <glyph glyph-name="N" unicode="N" horiz-adv-x="747" 
d="M253 624l248 -356v356h170v-624h-177l-248 352v-352h-170v624h177z" />
    <glyph glyph-name="Nacute" unicode="&#x143;" horiz-adv-x="747" 
d="M253 624l248 -356v356h170v-624h-177l-248 352v-352h-170v624h177zM495 864l45 -109l-264 -87l-40 96z" />
    <glyph glyph-name="Ncaron" unicode="&#x147;" horiz-adv-x="747" 
d="M253 624l248 -356v356h170v-624h-177l-248 352v-352h-170v624h177zM326 692l-127 106l56 66l118 -84l119 84l56 -67l-130 -105q-21 -18 -46 -18t-46 18z" />
    <glyph glyph-name="uni0145" unicode="&#x145;" horiz-adv-x="747" 
d="M253 624l248 -356v356h170v-624h-177l-248 352v-352h-170v624h177zM286.5 -129.5q20.5 29.5 20.5 79.5h127q0 -68 -39.5 -120.5t-108.5 -84.5l-64 66q44 30 64.5 59.5z" />
    <glyph glyph-name="Eng" unicode="&#x14a;" horiz-adv-x="747" 
d="M671 624v-624q-5 -103 -59.5 -154t-147.5 -51q-108 0 -174 71l73 109q18 -14 32.5 -20t34.5 -6q26 0 43 12.5t21 38.5l-248 352v-352h-170v624h177l248 -356v356h170z" />
    <glyph glyph-name="Ntilde" unicode="&#xd1;" horiz-adv-x="747" 
d="M253 624l248 -356v356h170v-624h-177l-248 352v-352h-170v624h177zM402.5 678q-17.5 7 -39.5 20q-33 20 -52 20q-23 0 -36 -8.5t-28 -28.5l-67 58q51 84 129 84q28 0 47 -7t39 -20q16 -10 27.5 -15t27.5 -5q17 0 29.5 8.5t26.5 28.5l67 -58q-51 -84 -132 -84
q-21 0 -38.5 7z" />
    <glyph glyph-name="O" unicode="O" horiz-adv-x="732" 
d="M195 30.5q-73 41.5 -112 115t-39 167.5q0 91 40.5 164t114 115t167.5 42q97 0 170 -41t112.5 -114t39.5 -166q0 -91 -40.5 -165t-113.5 -116.5t-168 -42.5q-98 0 -171 41.5zM467 195.5q40 42.5 40 116.5t-38.5 116t-100.5 42t-102.5 -42t-40.5 -116t39 -116.5t101 -42.5
t102 42.5z" />
    <glyph glyph-name="Oacute" unicode="&#xd3;" horiz-adv-x="732" 
d="M195 30.5q-73 41.5 -112 115t-39 167.5q0 91 40.5 164t114 115t167.5 42q97 0 170 -41t112.5 -114t39.5 -166q0 -91 -40.5 -165t-113.5 -116.5t-168 -42.5q-98 0 -171 41.5zM467 195.5q40 42.5 40 116.5t-38.5 116t-100.5 42t-102.5 -42t-40.5 -116t39 -116.5t101 -42.5
t102 42.5zM487 864l45 -109l-264 -87l-40 96z" />
    <glyph glyph-name="Obreve" unicode="&#x14e;" horiz-adv-x="732" 
d="M195 30.5q-73 41.5 -112 115t-39 167.5q0 91 40.5 164t114 115t167.5 42q97 0 170 -41t112.5 -114t39.5 -166q0 -91 -40.5 -165t-113.5 -116.5t-168 -42.5q-98 0 -171 41.5zM467 195.5q40 42.5 40 116.5t-38.5 116t-100.5 42t-102.5 -42t-40.5 -116t39 -116.5t101 -42.5
t102 42.5zM265.5 706.5q-46.5 28.5 -81.5 83.5l77 58q27 -37 50.5 -52t54.5 -15t54.5 15t50.5 52l77 -58q-35 -55 -81.5 -83.5t-100.5 -28.5t-100.5 28.5z" />
    <glyph glyph-name="Ocircumflex" unicode="&#xd4;" horiz-adv-x="732" 
d="M195 30.5q-73 41.5 -112 115t-39 167.5q0 91 40.5 164t114 115t167.5 42q97 0 170 -41t112.5 -114t39.5 -166q0 -91 -40.5 -165t-113.5 -116.5t-168 -42.5q-98 0 -171 41.5zM467 195.5q40 42.5 40 116.5t-38.5 116t-100.5 42t-102.5 -42t-40.5 -116t39 -116.5t101 -42.5
t102 42.5zM321 843q21 18 46 18t46 -18l127 -106l-56 -66l-118 84l-119 -84l-56 67z" />
    <glyph glyph-name="Odieresis" unicode="&#xd6;" horiz-adv-x="732" 
d="M195 30.5q-73 41.5 -112 115t-39 167.5q0 91 40.5 164t114 115t167.5 42q97 0 170 -41t112.5 -114t39.5 -166q0 -91 -40.5 -165t-113.5 -116.5t-168 -42.5q-98 0 -171 41.5zM467 195.5q40 42.5 40 116.5t-38.5 116t-100.5 42t-102.5 -42t-40.5 -116t39 -116.5t101 -42.5
t102 42.5zM189.5 707q-22.5 23 -22.5 59q0 35 23.5 58t61.5 23q40 0 63.5 -23t23.5 -58q0 -36 -24 -59t-64 -23q-39 0 -61.5 23zM416 706.5q-23 22.5 -23 59.5q0 35 23.5 58t62.5 23t62.5 -23t23.5 -58q0 -36 -24 -59t-63 -23t-62 22.5z" />
    <glyph glyph-name="Ograve" unicode="&#xd2;" horiz-adv-x="732" 
d="M195 30.5q-73 41.5 -112 115t-39 167.5q0 91 40.5 164t114 115t167.5 42q97 0 170 -41t112.5 -114t39.5 -166q0 -91 -40.5 -165t-113.5 -116.5t-168 -42.5q-98 0 -171 41.5zM467 195.5q40 42.5 40 116.5t-38.5 116t-100.5 42t-102.5 -42t-40.5 -116t39 -116.5t101 -42.5
t102 42.5zM245 864l259 -100l-40 -96l-264 87z" />
    <glyph glyph-name="Ohungarumlaut" unicode="&#x150;" horiz-adv-x="732" 
d="M195 30.5q-73 41.5 -112 115t-39 167.5q0 91 40.5 164t114 115t167.5 42q97 0 170 -41t112.5 -114t39.5 -166q0 -91 -40.5 -165t-113.5 -116.5t-168 -42.5q-98 0 -171 41.5zM467 195.5q40 42.5 40 116.5t-38.5 116t-100.5 42t-102.5 -42t-40.5 -116t39 -116.5t101 -42.5
t102 42.5zM329 875l69 -86l-173 -119l-63 76zM556 872l69 -86l-174 -119l-62 76z" />
    <glyph glyph-name="Omacron" unicode="&#x14c;" horiz-adv-x="732" 
d="M195 30.5q-73 41.5 -112 115t-39 167.5q0 91 40.5 164t114 115t167.5 42q97 0 170 -41t112.5 -114t39.5 -166q0 -91 -40.5 -165t-113.5 -116.5t-168 -42.5q-98 0 -171 41.5zM467 195.5q40 42.5 40 116.5t-38.5 116t-100.5 42t-102.5 -42t-40.5 -116t39 -116.5t101 -42.5
t102 42.5zM527 805v-107h-322v107h322z" />
    <glyph glyph-name="Oslash" unicode="&#xd8;" horiz-adv-x="732" 
d="M688 313q0 -91 -40.5 -165t-113.5 -116.5t-168 -42.5q-94 0 -166 39l-72 -79l-99 91l71 78q-56 82 -56 195q0 91 40.5 164t114 115t167.5 42q96 0 168 -40l69 75l96 -91l-66 -73q55 -81 55 -192zM231 261l184 202q-21 7 -47 7q-62 0 -102.5 -42t-40.5 -116q0 -27 6 -51z
M502 361l-183 -201q21 -7 46 -7q62 0 102 42.5t40 116.5q0 24 -5 49z" />
    <glyph glyph-name="Otilde" unicode="&#xd5;" horiz-adv-x="732" 
d="M195 30.5q-73 41.5 -112 115t-39 167.5q0 91 40.5 164t114 115t167.5 42q97 0 170 -41t112.5 -114t39.5 -166q0 -91 -40.5 -165t-113.5 -116.5t-168 -42.5q-98 0 -171 41.5zM467 195.5q40 42.5 40 116.5t-38.5 116t-100.5 42t-102.5 -42t-40.5 -116t39 -116.5t101 -42.5
t102 42.5zM394.5 678q-17.5 7 -39.5 20q-33 20 -52 20q-23 0 -36 -8.5t-28 -28.5l-67 58q51 84 129 84q28 0 47 -7t39 -20q16 -10 27.5 -15t27.5 -5q17 0 29.5 8.5t26.5 28.5l67 -58q-51 -84 -132 -84q-21 0 -38.5 7z" />
    <glyph glyph-name="OE" unicode="&#x152;" horiz-adv-x="1025" 
d="M192 30.5q-71 41.5 -109.5 115.5t-38.5 167q0 90 40 163.5t111.5 115.5t160.5 42q94 0 161 -62v52h464v-155h-305v-79h267v-146h-267v-89h314v-155h-473v53q-69 -64 -161 -64q-93 0 -164 41.5zM467 195.5q40 42.5 40 116.5t-38.5 116t-100.5 42t-102.5 -42t-40.5 -116
t39 -116.5t101 -42.5t102 42.5z" />
    <glyph glyph-name="P" unicode="P" horiz-adv-x="643" 
d="M346 624q126 0 192.5 -62.5t66.5 -172.5q0 -69 -33 -119t-89.5 -76.5t-126.5 -26.5q-54 0 -105 9v-176h-175v624h270zM402 337.5q24 21.5 24 57.5q0 37 -23.5 56.5t-65.5 19.5h-86v-149q32 -6 87 -6q40 0 64 21.5z" />
    <glyph glyph-name="Thorn" unicode="&#xde;" horiz-adv-x="638" 
d="M246 624v-80h97q127 0 193 -61t66 -170q0 -69 -33 -118t-89.5 -74.5t-126.5 -25.5q-58 0 -107 10v-105h-170v624h170zM399 261.5q24 21.5 24 57.5q0 37 -23.5 56.5t-65.5 19.5h-88v-149q34 -6 89 -6q40 0 64 21.5z" />
    <glyph glyph-name="Q" unicode="Q" horiz-adv-x="732" 
d="M745 -59q-45 -61 -102.5 -97t-132.5 -36q-202 0 -242 193q-105 28 -164.5 112t-59.5 200q0 91 40.5 164t114 115t167.5 42q97 0 170 -41t112.5 -114t39.5 -166q0 -115 -62 -199.5t-168 -112.5q20 -41 72 -41q32 0 59.5 17.5t55.5 50.5zM265.5 428q-40.5 -42 -40.5 -116
t39 -116.5t101 -42.5t102 42.5t40 116.5t-38.5 116t-100.5 42t-102.5 -42z" />
    <glyph glyph-name="R" unicode="R" horiz-adv-x="650" 
d="M349 624q79 0 136.5 -28t88 -77.5t30.5 -111.5q0 -61 -27 -108.5t-75 -77.5l140 -221h-201l-102 181q-26 0 -40 1q-28 2 -53 6v-188h-170v624h273zM399.5 348q22.5 21 22.5 55q0 35 -23 55t-63 20h-90v-145q37 -6 90 -6q41 0 63.5 21z" />
    <glyph glyph-name="Racute" unicode="&#x154;" horiz-adv-x="650" 
d="M349 624q79 0 136.5 -28t88 -77.5t30.5 -111.5q0 -61 -27 -108.5t-75 -77.5l140 -221h-201l-102 181q-26 0 -40 1q-28 2 -53 6v-188h-170v624h273zM399.5 348q22.5 21 22.5 55q0 35 -23 55t-63 20h-90v-145q37 -6 90 -6q41 0 63.5 21zM446 864l45 -109l-264 -87l-40 96z
" />
    <glyph glyph-name="Rcaron" unicode="&#x158;" horiz-adv-x="650" 
d="M349 624q79 0 136.5 -28t88 -77.5t30.5 -111.5q0 -61 -27 -108.5t-75 -77.5l140 -221h-201l-102 181q-26 0 -40 1q-28 2 -53 6v-188h-170v624h273zM399.5 348q22.5 21 22.5 55q0 35 -23 55t-63 20h-90v-145q37 -6 90 -6q41 0 63.5 21zM277 692l-127 106l56 66l118 -84
l119 84l56 -67l-130 -105q-21 -18 -46 -18t-46 18z" />
    <glyph glyph-name="uni0156" unicode="&#x156;" horiz-adv-x="650" 
d="M349 624q79 0 136.5 -28t88 -77.5t30.5 -111.5q0 -61 -27 -108.5t-75 -77.5l140 -221h-201l-102 181q-26 0 -40 1q-28 2 -53 6v-188h-170v624h273zM399.5 348q22.5 21 22.5 55q0 35 -23 55t-63 20h-90v-145q37 -6 90 -6q41 0 63.5 21zM252.5 -129.5q20.5 29.5 20.5 79.5
h127q0 -68 -39.5 -120.5t-108.5 -84.5l-64 66q44 30 64.5 59.5z" />
    <glyph glyph-name="S" unicode="S" horiz-adv-x="612" 
d="M144 20.5q-76 31.5 -130 96.5l91 110q90 -82 207 -82q45 0 60 10t15 29t-25 32t-78 22q-116 19 -173 68t-57 133q0 60 32.5 104t89.5 67.5t130 23.5q77 0 141 -25t117 -82l-89 -111q-41 34 -79.5 49t-81.5 15q-46 0 -64.5 -10t-18.5 -27q0 -20 23.5 -31t82.5 -23
q115 -24 172 -70.5t57 -131.5q0 -100 -68.5 -149t-188.5 -49q-89 0 -165 31.5z" />
    <glyph glyph-name="Sacute" unicode="&#x15a;" horiz-adv-x="612" 
d="M144 20.5q-76 31.5 -130 96.5l91 110q90 -82 207 -82q45 0 60 10t15 29t-25 32t-78 22q-116 19 -173 68t-57 133q0 60 32.5 104t89.5 67.5t130 23.5q77 0 141 -25t117 -82l-89 -111q-41 34 -79.5 49t-81.5 15q-46 0 -64.5 -10t-18.5 -27q0 -20 23.5 -31t82.5 -23
q115 -24 172 -70.5t57 -131.5q0 -100 -68.5 -149t-188.5 -49q-89 0 -165 31.5zM425 864l45 -109l-264 -87l-40 96z" />
    <glyph glyph-name="Scaron" unicode="&#x160;" horiz-adv-x="612" 
d="M144 20.5q-76 31.5 -130 96.5l91 110q90 -82 207 -82q45 0 60 10t15 29t-25 32t-78 22q-116 19 -173 68t-57 133q0 60 32.5 104t89.5 67.5t130 23.5q77 0 141 -25t117 -82l-89 -111q-41 34 -79.5 49t-81.5 15q-46 0 -64.5 -10t-18.5 -27q0 -20 23.5 -31t82.5 -23
q115 -24 172 -70.5t57 -131.5q0 -100 -68.5 -149t-188.5 -49q-89 0 -165 31.5zM256 692l-127 106l56 66l118 -84l119 84l56 -67l-130 -105q-21 -18 -46 -18t-46 18z" />
    <glyph glyph-name="Scedilla" unicode="&#x15e;" horiz-adv-x="612" 
d="M523 61q-43 -47 -121 -63q34 -37 34 -78q0 -52 -39 -82.5t-107 -30.5q-42 0 -79.5 15.5t-60.5 41.5l55 71q18 -13 31.5 -20t31.5 -7q50 0 50 38q0 33 -47 44q-77 6 -143 37.5t-114 89.5l91 110q90 -82 207 -82q45 0 60 10t15 29t-25 32t-78 22q-116 19 -173 68t-57 133
q0 60 32.5 104t89.5 67.5t130 23.5q77 0 141 -25t117 -82l-89 -111q-41 34 -79.5 49t-81.5 15q-46 0 -64.5 -10t-18.5 -27q0 -20 23.5 -31t82.5 -23q115 -24 172 -70.5t57 -131.5q0 -79 -43 -126z" />
    <glyph glyph-name="Scircumflex" unicode="&#x15c;" horiz-adv-x="612" 
d="M144 20.5q-76 31.5 -130 96.5l91 110q90 -82 207 -82q45 0 60 10t15 29t-25 32t-78 22q-116 19 -173 68t-57 133q0 60 32.5 104t89.5 67.5t130 23.5q77 0 141 -25t117 -82l-89 -111q-41 34 -79.5 49t-81.5 15q-46 0 -64.5 -10t-18.5 -27q0 -20 23.5 -31t82.5 -23
q115 -24 172 -70.5t57 -131.5q0 -100 -68.5 -149t-188.5 -49q-89 0 -165 31.5zM259 843q21 18 46 18t46 -18l127 -106l-56 -66l-118 84l-119 -84l-56 67z" />
    <glyph glyph-name="uni0218" unicode="&#x218;" horiz-adv-x="612" 
d="M144 20.5q-76 31.5 -130 96.5l91 110q90 -82 207 -82q45 0 60 10t15 29t-25 32t-78 22q-116 19 -173 68t-57 133q0 60 32.5 104t89.5 67.5t130 23.5q77 0 141 -25t117 -82l-89 -111q-41 34 -79.5 49t-81.5 15q-46 0 -64.5 -10t-18.5 -27q0 -20 23.5 -31t82.5 -23
q115 -24 172 -70.5t57 -131.5q0 -100 -68.5 -149t-188.5 -49q-89 0 -165 31.5zM216.5 -129.5q20.5 29.5 20.5 79.5h127q0 -68 -39.5 -120.5t-108.5 -84.5l-64 66q44 30 64.5 59.5z" />
    <glyph glyph-name="uni1E9E" unicode="&#x1e9e;" horiz-adv-x="712" 
d="M359 8q-46 19 -86 56l75 102q41 -30 85 -30q77 0 77 51q0 31 -27 46t-87 15h-68v87l118 127q-26 28 -83 28q-59 0 -94 -36.5t-35 -103.5v-350h-170v331q0 133 72 218t234 85q65 0 121 -21.5t94 -53.5t51 -64l-119 -131l-3 -3q76 -15 121 -59.5t45 -116.5q0 -90 -58 -143
t-161 -53q-56 0 -102 19z" />
    <glyph glyph-name="T" unicode="T" horiz-adv-x="639" 
d="M30 458v166h579v-166h-201v-458h-179v458h-199z" />
    <glyph glyph-name="Tbar" unicode="&#x166;" horiz-adv-x="639" 
d="M408 458v-133h99v-158h-99v-167h-179v167h-97v158h97v133h-199v166h579v-166h-201z" />
    <glyph glyph-name="Tcaron" unicode="&#x164;" horiz-adv-x="639" 
d="M30 458v166h579v-166h-201v-458h-179v458h-199zM272 692l-127 106l56 66l118 -84l119 84l56 -67l-130 -105q-21 -18 -46 -18t-46 18z" />
    <glyph glyph-name="uni0162" unicode="&#x162;" horiz-adv-x="639" 
d="M408 458v-455q30 -35 30 -74q0 -52 -39 -82.5t-107 -30.5q-42 0 -79.5 15.5t-60.5 41.5l55 71q18 -13 31.5 -20t31.5 -7q50 0 50 38q0 34 -49 45h-42v458h-199v166h579v-166h-201z" />
    <glyph glyph-name="uni021A" unicode="&#x21a;" horiz-adv-x="639" 
d="M30 458v166h579v-166h-201v-458h-179v458h-199zM232.5 -129.5q20.5 29.5 20.5 79.5h127q0 -68 -39.5 -120.5t-108.5 -84.5l-64 66q44 30 64.5 59.5z" />
    <glyph glyph-name="U" unicode="U" horiz-adv-x="721" 
d="M139.5 74.5q-73.5 85.5 -73.5 241.5v308h179v-314q0 -83 27.5 -120t86.5 -37t88 37.5t29 119.5v314h179v-308q0 -153 -76 -240t-219 -87q-147 0 -220.5 85.5z" />
    <glyph glyph-name="Uacute" unicode="&#xda;" horiz-adv-x="721" 
d="M139.5 74.5q-73.5 85.5 -73.5 241.5v308h179v-314q0 -83 27.5 -120t86.5 -37t88 37.5t29 119.5v314h179v-308q0 -153 -76 -240t-219 -87q-147 0 -220.5 85.5zM482 864l45 -109l-264 -87l-40 96z" />
    <glyph glyph-name="Ubreve" unicode="&#x16c;" horiz-adv-x="721" 
d="M139.5 74.5q-73.5 85.5 -73.5 241.5v308h179v-314q0 -83 27.5 -120t86.5 -37t88 37.5t29 119.5v314h179v-308q0 -153 -76 -240t-219 -87q-147 0 -220.5 85.5zM260.5 706.5q-46.5 28.5 -81.5 83.5l77 58q27 -37 50.5 -52t54.5 -15t54.5 15t50.5 52l77 -58
q-35 -55 -81.5 -83.5t-100.5 -28.5t-100.5 28.5z" />
    <glyph glyph-name="Ucircumflex" unicode="&#xdb;" horiz-adv-x="721" 
d="M139.5 74.5q-73.5 85.5 -73.5 241.5v308h179v-314q0 -83 27.5 -120t86.5 -37t88 37.5t29 119.5v314h179v-308q0 -153 -76 -240t-219 -87q-147 0 -220.5 85.5zM316 843q21 18 46 18t46 -18l127 -106l-56 -66l-118 84l-119 -84l-56 67z" />
    <glyph glyph-name="Udieresis" unicode="&#xdc;" horiz-adv-x="721" 
d="M139.5 74.5q-73.5 85.5 -73.5 241.5v308h179v-314q0 -83 27.5 -120t86.5 -37t88 37.5t29 119.5v314h179v-308q0 -153 -76 -240t-219 -87q-147 0 -220.5 85.5zM184.5 707q-22.5 23 -22.5 59q0 35 23.5 58t61.5 23q40 0 63.5 -23t23.5 -58q0 -36 -24 -59t-64 -23
q-39 0 -61.5 23zM411 706.5q-23 22.5 -23 59.5q0 35 23.5 58t62.5 23t62.5 -23t23.5 -58q0 -36 -24 -59t-63 -23t-62 22.5z" />
    <glyph glyph-name="Ugrave" unicode="&#xd9;" horiz-adv-x="721" 
d="M139.5 74.5q-73.5 85.5 -73.5 241.5v308h179v-314q0 -83 27.5 -120t86.5 -37t88 37.5t29 119.5v314h179v-308q0 -153 -76 -240t-219 -87q-147 0 -220.5 85.5zM240 864l259 -100l-40 -96l-264 87z" />
    <glyph glyph-name="Uhungarumlaut" unicode="&#x170;" horiz-adv-x="721" 
d="M139.5 74.5q-73.5 85.5 -73.5 241.5v308h179v-314q0 -83 27.5 -120t86.5 -37t88 37.5t29 119.5v314h179v-308q0 -153 -76 -240t-219 -87q-147 0 -220.5 85.5zM324 875l69 -86l-173 -119l-63 76zM551 872l69 -86l-174 -119l-62 76z" />
    <glyph glyph-name="Umacron" unicode="&#x16a;" horiz-adv-x="721" 
d="M139.5 74.5q-73.5 85.5 -73.5 241.5v308h179v-314q0 -83 27.5 -120t86.5 -37t88 37.5t29 119.5v314h179v-308q0 -153 -76 -240t-219 -87q-147 0 -220.5 85.5zM522 805v-107h-322v107h322z" />
    <glyph glyph-name="Uogonek" unicode="&#x172;" horiz-adv-x="721" 
d="M655 624v-308q0 -115 -44 -194t-128 -112l-64 -37q-32 -18 -43.5 -28t-11.5 -23q0 -22 30 -22q24 0 53 25l56 -68q-22 -25 -58.5 -39.5t-74.5 -14.5q-58 0 -93 22.5t-35 67.5q0 30 16.5 53.5t48.5 45.5q-121 15 -181 98.5t-60 225.5v308h179v-314q0 -83 27.5 -120
t86.5 -37t88 37.5t29 119.5v314h179z" />
    <glyph glyph-name="Uring" unicode="&#x16e;" horiz-adv-x="721" 
d="M139.5 74.5q-73.5 85.5 -73.5 241.5v308h179v-314q0 -83 27.5 -120t86.5 -37t88 37.5t29 119.5v314h179v-308q0 -153 -76 -240t-219 -87q-147 0 -220.5 85.5zM295.5 676.5q-30.5 16.5 -49 46.5t-18.5 67t18.5 67t49 46.5t65.5 16.5t65.5 -16.5t49 -46.5t18.5 -67
t-18.5 -67t-49 -46.5t-65.5 -16.5t-65.5 16.5zM392 758q13 13 13 32t-13 32t-31 13t-31 -13t-13 -32t13 -32t31 -13t31 13z" />
    <glyph glyph-name="Utilde" unicode="&#x168;" horiz-adv-x="721" 
d="M139.5 74.5q-73.5 85.5 -73.5 241.5v308h179v-314q0 -83 27.5 -120t86.5 -37t88 37.5t29 119.5v314h179v-308q0 -153 -76 -240t-219 -87q-147 0 -220.5 85.5zM389.5 678q-17.5 7 -39.5 20q-33 20 -52 20q-23 0 -36 -8.5t-28 -28.5l-67 58q51 84 129 84q28 0 47 -7t39 -20
q16 -10 27.5 -15t27.5 -5q17 0 29.5 8.5t26.5 28.5l67 -58q-51 -84 -132 -84q-21 0 -38.5 7z" />
    <glyph glyph-name="V" unicode="V" horiz-adv-x="694" 
d="M202 624l147 -441l147 441h193l-234 -624h-209l-241 624h197z" />
    <glyph glyph-name="W" unicode="W" horiz-adv-x="986" 
d="M219 624l77 -420l95 415h212l95 -415l77 420h199l-177 -624h-208l-97 435l-97 -435h-204l-179 624h207z" />
    <glyph glyph-name="Wacute" unicode="&#x1e82;" horiz-adv-x="986" 
d="M219 624l77 -420l95 415h212l95 -415l77 420h199l-177 -624h-208l-97 435l-97 -435h-204l-179 624h207zM614 864l45 -109l-264 -87l-40 96z" />
    <glyph glyph-name="Wcircumflex" unicode="&#x174;" horiz-adv-x="986" 
d="M219 624l77 -420l95 415h212l95 -415l77 420h199l-177 -624h-208l-97 435l-97 -435h-204l-179 624h207zM448 843q21 18 46 18t46 -18l127 -106l-56 -66l-118 84l-119 -84l-56 67z" />
    <glyph glyph-name="Wdieresis" unicode="&#x1e84;" horiz-adv-x="986" 
d="M219 624l77 -420l95 415h212l95 -415l77 420h199l-177 -624h-208l-97 435l-97 -435h-204l-179 624h207zM316.5 707q-22.5 23 -22.5 59q0 35 23.5 58t61.5 23q40 0 63.5 -23t23.5 -58q0 -36 -24 -59t-64 -23q-39 0 -61.5 23zM543 706.5q-23 22.5 -23 59.5q0 35 23.5 58
t62.5 23t62.5 -23t23.5 -58q0 -36 -24 -59t-63 -23t-62 22.5z" />
    <glyph glyph-name="Wgrave" unicode="&#x1e80;" horiz-adv-x="986" 
d="M219 624l77 -420l95 415h212l95 -415l77 420h199l-177 -624h-208l-97 435l-97 -435h-204l-179 624h207zM372 864l259 -100l-40 -96l-264 87z" />
    <glyph glyph-name="X" unicode="X" horiz-adv-x="699" 
d="M12 624h223l117 -180l118 180h213l-215 -306l229 -318h-225l-126 196l-131 -196h-213l228 322z" />
    <glyph glyph-name="Y" unicode="Y" horiz-adv-x="652" 
d="M4 624h201l123 -234l121 234h199l-233 -410v-214h-179v214z" />
    <glyph glyph-name="Yacute" unicode="&#xdd;" horiz-adv-x="652" 
d="M4 624h201l123 -234l121 234h199l-233 -410v-214h-179v214zM447 864l45 -109l-264 -87l-40 96z" />
    <glyph glyph-name="Ycircumflex" unicode="&#x176;" horiz-adv-x="652" 
d="M4 624h201l123 -234l121 234h199l-233 -410v-214h-179v214zM281 843q21 18 46 18t46 -18l127 -106l-56 -66l-118 84l-119 -84l-56 67z" />
    <glyph glyph-name="Ydieresis" unicode="&#x178;" horiz-adv-x="652" 
d="M4 624h201l123 -234l121 234h199l-233 -410v-214h-179v214zM149.5 707q-22.5 23 -22.5 59q0 35 23.5 58t61.5 23q40 0 63.5 -23t23.5 -58q0 -36 -24 -59t-64 -23q-39 0 -61.5 23zM376 706.5q-23 22.5 -23 59.5q0 35 23.5 58t62.5 23t62.5 -23t23.5 -58q0 -36 -24 -59
t-63 -23t-62 22.5z" />
    <glyph glyph-name="Ygrave" unicode="&#x1ef2;" horiz-adv-x="652" 
d="M4 624h201l123 -234l121 234h199l-233 -410v-214h-179v214zM205 864l259 -100l-40 -96l-264 87z" />
    <glyph glyph-name="Z" unicode="Z" horiz-adv-x="623" 
d="M342 461h-299v163h536v-153l-298 -308h308v-163h-549v153z" />
    <glyph glyph-name="Zacute" unicode="&#x179;" horiz-adv-x="623" 
d="M342 461h-299v163h536v-153l-298 -308h308v-163h-549v153zM427 864l45 -109l-264 -87l-40 96z" />
    <glyph glyph-name="Zcaron" unicode="&#x17d;" horiz-adv-x="623" 
d="M342 461h-299v163h536v-153l-298 -308h308v-163h-549v153zM258 692l-127 106l56 66l118 -84l119 84l56 -67l-130 -105q-21 -18 -46 -18t-46 18z" />
    <glyph glyph-name="Zdotaccent" unicode="&#x17b;" horiz-adv-x="623" 
d="M342 461h-299v163h536v-153l-298 -308h308v-163h-549v153zM236 702q-25 25 -25 64q0 37 25.5 62.5t68.5 25.5q44 0 69.5 -25.5t25.5 -62.5q0 -39 -26 -64t-70 -25q-43 0 -68 25z" />
    <glyph glyph-name="K.ss01" horiz-adv-x="713" 
d="M254 624v-230h108l133 230h203l-195 -313l198 -311h-211l-135 229h-101v-229h-178v624h178z" />
    <glyph glyph-name="uni0136.ss01" horiz-adv-x="713" 
d="M254 624v-230h108l133 230h203l-195 -313l198 -311h-211l-135 229h-101v-229h-178v624h178zM270.5 -129.5q20.5 29.5 20.5 79.5h127q0 -68 -39.5 -120.5t-108.5 -84.5l-64 66q44 30 64.5 59.5z" />
    <glyph glyph-name="M.ss01" horiz-adv-x="854" 
d="M267 624l162 -281l170 281h179v-624h-168v390l-135 -240h-99l-132 234v-384h-168v624h191z" />
    <glyph glyph-name="P.ss01" horiz-adv-x="643" 
d="M346 624q126 0 192.5 -62t66.5 -171q0 -68 -33 -118t-89.5 -76t-126.5 -26h-105v-171h-175v624h270zM402 341q24 21 24 56q0 36 -23 55t-66 19h-86v-151h87q40 0 64 21z" />
    <glyph glyph-name="Thorn.ss01" horiz-adv-x="638" 
d="M246 624v-88h97q80 0 138.5 -27.5t89.5 -76.5t31 -113q0 -69 -36.5 -119t-95.5 -75.5t-127 -25.5h-97v-99h-170v624h170zM396.5 261.5q24.5 21.5 24.5 57.5q0 37 -23 56.5t-65 19.5h-87v-155h85q41 0 65.5 21.5z" />
    <glyph glyph-name="Q.ss01" horiz-adv-x="718" 
d="M366 -11q-98 0 -171 41.5t-112 115t-39 167.5q0 91 40.5 164t114 115t167.5 42q97 0 170 -41t112.5 -114t39.5 -166q0 -119 -67 -206l89 -104l-126 -97l-88 107q-62 -24 -130 -24zM388 146l-57 69l120 92l52 -61q11 31 11 66q0 73 -42 115.5t-104 42.5t-102.5 -42
t-40.5 -116q0 -75 39.5 -121.5t100.5 -46.5q9 0 23 2z" />
    <glyph glyph-name="R.ss01" horiz-adv-x="650" 
d="M349 624q79 0 136.5 -27.5t88 -76.5t30.5 -111q0 -61 -27.5 -108.5t-75.5 -76.5l141 -224h-201l-104 185h-22h-69v-185h-170v624h273zM399.5 351q22.5 20 22.5 54t-22.5 53.5t-63.5 19.5h-90v-147h90q41 0 63.5 20z" />
    <glyph glyph-name="Racute.ss01" horiz-adv-x="650" 
d="M349 624q79 0 136.5 -27.5t88 -76.5t30.5 -111q0 -61 -27.5 -108.5t-75.5 -76.5l141 -224h-201l-104 185h-22h-69v-185h-170v624h273zM399.5 351q22.5 20 22.5 54t-22.5 53.5t-63.5 19.5h-90v-147h90q41 0 63.5 20zM444 864l45 -109l-264 -87l-40 96z" />
    <glyph glyph-name="Rcaron.ss01" horiz-adv-x="650" 
d="M349 624q79 0 136.5 -27.5t88 -76.5t30.5 -111q0 -61 -27.5 -108.5t-75.5 -76.5l141 -224h-201l-104 185h-22h-69v-185h-170v624h273zM399.5 351q22.5 20 22.5 54t-22.5 53.5t-63.5 19.5h-90v-147h90q41 0 63.5 20zM275 692l-127 106l56 66l118 -84l119 84l56 -67
l-130 -105q-21 -18 -46 -18t-46 18z" />
    <glyph glyph-name="uni0156.ss01" horiz-adv-x="650" 
d="M349 624q79 0 136.5 -27.5t88 -76.5t30.5 -111q0 -61 -27.5 -108.5t-75.5 -76.5l141 -224h-201l-104 185h-22h-69v-185h-170v624h273zM399.5 351q22.5 20 22.5 54t-22.5 53.5t-63.5 19.5h-90v-147h90q41 0 63.5 20zM252.5 -129.5q20.5 29.5 20.5 79.5h127
q0 -68 -39.5 -120.5t-108.5 -84.5l-64 66q44 30 64.5 59.5z" />
    <glyph glyph-name="a" unicode="a" horiz-adv-x="575" 
d="M78 33.5q-42 44.5 -42 104.5q0 37 19.5 71t63 56t111.5 22q69 0 123 -18v2q0 40 -24.5 62.5t-69.5 22.5q-38 0 -68 -8.5t-64 -33.5l-77 98q54 43 109 61.5t126 18.5q105 0 168.5 -59.5t63.5 -182.5v-250h-131q-13 30 -15 63q-58 -74 -159 -74q-92 0 -134 44.5zM310.5 126
q23.5 17 32.5 45l2 6q-44 11 -84 11q-65 0 -65 -40q0 -18 13.5 -28.5t37.5 -10.5q40 0 63.5 17z" />
    <glyph glyph-name="aacute" unicode="&#xe1;" horiz-adv-x="575" 
d="M78 33.5q-42 44.5 -42 104.5q0 37 19.5 71t63 56t111.5 22q69 0 123 -18v2q0 40 -24.5 62.5t-69.5 22.5q-38 0 -68 -8.5t-64 -33.5l-77 98q54 43 109 61.5t126 18.5q105 0 168.5 -59.5t63.5 -182.5v-250h-131q-13 30 -15 63q-58 -74 -159 -74q-92 0 -134 44.5zM310.5 126
q23.5 17 32.5 45l2 6q-44 11 -84 11q-65 0 -65 -40q0 -18 13.5 -28.5t37.5 -10.5q40 0 63.5 17zM398 738l54 -104l-253 -108l-48 90z" />
    <glyph glyph-name="abreve" unicode="&#x103;" horiz-adv-x="575" 
d="M78 33.5q-42 44.5 -42 104.5q0 37 19.5 71t63 56t111.5 22q69 0 123 -18v2q0 40 -24.5 62.5t-69.5 22.5q-38 0 -68 -8.5t-64 -33.5l-77 98q54 43 109 61.5t126 18.5q105 0 168.5 -59.5t63.5 -182.5v-250h-131q-13 30 -15 63q-58 -74 -159 -74q-92 0 -134 44.5zM310.5 126
q23.5 17 32.5 45l2 6q-44 11 -84 11q-65 0 -65 -40q0 -18 13.5 -28.5t37.5 -10.5q40 0 63.5 17zM169.5 573.5q-48.5 29.5 -84.5 86.5l80 60q27 -39 51.5 -54t57.5 -15t57.5 15t51.5 54l80 -60q-36 -57 -84.5 -86.5t-104.5 -29.5t-104.5 29.5z" />
    <glyph glyph-name="acircumflex" unicode="&#xe2;" horiz-adv-x="575" 
d="M78 33.5q-42 44.5 -42 104.5q0 37 19.5 71t63 56t111.5 22q69 0 123 -18v2q0 40 -24.5 62.5t-69.5 22.5q-38 0 -68 -8.5t-64 -33.5l-77 98q54 43 109 61.5t126 18.5q105 0 168.5 -59.5t63.5 -182.5v-250h-131q-13 30 -15 63q-58 -74 -159 -74q-92 0 -134 44.5zM310.5 126
q23.5 17 32.5 45l2 6q-44 11 -84 11q-65 0 -65 -40q0 -18 13.5 -28.5t37.5 -10.5q40 0 63.5 17zM227 710q22 19 48 19t48 -19l132 -110l-58 -69l-123 88l-124 -88l-58 70z" />
    <glyph glyph-name="adieresis" unicode="&#xe4;" horiz-adv-x="575" 
d="M78 33.5q-42 44.5 -42 104.5q0 37 19.5 71t63 56t111.5 22q69 0 123 -18v2q0 40 -24.5 62.5t-69.5 22.5q-38 0 -68 -8.5t-64 -33.5l-77 98q54 43 109 61.5t126 18.5q105 0 168.5 -59.5t63.5 -182.5v-250h-131q-13 30 -15 63q-58 -74 -159 -74q-92 0 -134 44.5zM310.5 126
q23.5 17 32.5 45l2 6q-44 11 -84 11q-65 0 -65 -40q0 -18 13.5 -28.5t37.5 -10.5q40 0 63.5 17zM96.5 552q-23.5 23 -23.5 59q0 34 24 57.5t64 23.5t64 -23.5t24 -57.5q0 -36 -24 -59t-65 -23q-40 0 -63.5 23zM322.5 552q-23.5 23 -23.5 59q0 34 24 57.5t63 23.5
q41 0 65 -23.5t24 -57.5q0 -36 -24 -59t-65 -23q-40 0 -63.5 23z" />
    <glyph glyph-name="agrave" unicode="&#xe0;" horiz-adv-x="575" 
d="M78 33.5q-42 44.5 -42 104.5q0 37 19.5 71t63 56t111.5 22q69 0 123 -18v2q0 40 -24.5 62.5t-69.5 22.5q-38 0 -68 -8.5t-64 -33.5l-77 98q54 43 109 61.5t126 18.5q105 0 168.5 -59.5t63.5 -182.5v-250h-131q-13 30 -15 63q-58 -74 -159 -74q-92 0 -134 44.5zM310.5 126
q23.5 17 32.5 45l2 6q-44 11 -84 11q-65 0 -65 -40q0 -18 13.5 -28.5t37.5 -10.5q40 0 63.5 17zM150 738l247 -122l-48 -90l-253 108z" />
    <glyph glyph-name="amacron" unicode="&#x101;" horiz-adv-x="575" 
d="M78 33.5q-42 44.5 -42 104.5q0 37 19.5 71t63 56t111.5 22q69 0 123 -18v2q0 40 -24.5 62.5t-69.5 22.5q-38 0 -68 -8.5t-64 -33.5l-77 98q54 43 109 61.5t126 18.5q105 0 168.5 -59.5t63.5 -182.5v-250h-131q-13 30 -15 63q-58 -74 -159 -74q-92 0 -134 44.5zM310.5 126
q23.5 17 32.5 45l2 6q-44 11 -84 11q-65 0 -65 -40q0 -18 13.5 -28.5t37.5 -10.5q40 0 63.5 17zM440 673v-111h-332v111h332z" />
    <glyph glyph-name="aogonek" unicode="&#x105;" horiz-adv-x="575" 
d="M535 -151q-22 -24 -56.5 -38t-71.5 -14q-55 0 -89 22t-34 64q0 60 71 102l30 17q-12 29 -14 61q-58 -74 -159 -74q-92 0 -134 44.5t-42 104.5q0 37 19.5 71t63 56t111.5 22q69 0 123 -18v2q0 40 -24.5 62.5t-69.5 22.5q-38 0 -68 -8.5t-64 -33.5l-77 98q54 43 109 61.5
t126 18.5q105 0 168.5 -59.5t63.5 -182.5v-250q-35 -21 -72 -42q-25 -14 -34.5 -24t-9.5 -23q0 -21 29 -21q23 0 51 24zM345 177q-44 11 -84 11q-65 0 -65 -40q0 -18 13.5 -28.5t37.5 -10.5q40 0 63.5 17t32.5 45z" />
    <glyph glyph-name="aring" unicode="&#xe5;" horiz-adv-x="575" 
d="M78 33.5q-42 44.5 -42 104.5q0 37 19.5 71t63 56t111.5 22q69 0 123 -18v2q0 40 -24.5 62.5t-69.5 22.5q-38 0 -68 -8.5t-64 -33.5l-77 98q54 43 109 61.5t126 18.5q105 0 168.5 -59.5t63.5 -182.5v-250h-131q-13 30 -15 63q-58 -74 -159 -74q-92 0 -134 44.5zM310.5 126
q23.5 17 32.5 45l2 6q-44 11 -84 11q-65 0 -65 -40q0 -18 13.5 -28.5t37.5 -10.5q40 0 63.5 17zM193.5 571q-34.5 32 -34.5 81t34.5 81t80.5 32t80.5 -32t34.5 -81t-34.5 -81t-80.5 -32t-80.5 32zM300.5 624q10.5 10 10.5 28t-10.5 28t-26.5 10t-26.5 -10t-10.5 -28
t10.5 -28t26.5 -10t26.5 10z" />
    <glyph glyph-name="atilde" unicode="&#xe3;" horiz-adv-x="575" 
d="M78 33.5q-42 44.5 -42 104.5q0 37 19.5 71t63 56t111.5 22q69 0 123 -18v2q0 40 -24.5 62.5t-69.5 22.5q-38 0 -68 -8.5t-64 -33.5l-77 98q54 43 109 61.5t126 18.5q105 0 168.5 -59.5t63.5 -182.5v-250h-131q-13 30 -15 63q-58 -74 -159 -74q-92 0 -134 44.5zM310.5 126
q23.5 17 32.5 45l2 6q-44 11 -84 11q-65 0 -65 -40q0 -18 13.5 -28.5t37.5 -10.5q40 0 63.5 17zM303 546.5q-19 7.5 -41 20.5q-33 21 -54 21q-24 0 -37 -8.5t-29 -30.5l-70 61q22 36 55.5 61.5t78.5 25.5q30 0 49.5 -7.5t39.5 -20.5q16 -11 29 -16t29 -5q17 0 30 9t28 30
l70 -61q-54 -87 -137 -87q-22 0 -41 7.5z" />
    <glyph glyph-name="ae" unicode="&#xe6;" horiz-adv-x="925" 
d="M80.5 33.5q-44.5 44.5 -44.5 104.5q0 37 19.5 71t63 56t111.5 22t122 -18v3q0 42 -25 63t-68 21q-38 0 -68 -8.5t-64 -33.5l-77 98q54 43 109 61.5t126 18.5q120 0 176 -74q33 35 79 54.5t101 19.5q122 0 181 -73.5t59 -193.5v-20h-324q10 -40 39.5 -62.5t71.5 -22.5
q46 0 72.5 12.5t52.5 42.5l90 -71q-34 -58 -95 -86.5t-138 -28.5q-72 0 -126 27t-87 76q-27 -45 -79 -74t-136 -29q-97 0 -141.5 44.5zM696.5 351q-19.5 18 -50.5 18q-71 0 -87 -72h160q-3 36 -22.5 54zM344 174l1 3q-44 11 -84 11q-65 0 -65 -40q0 -18 13.5 -28.5
t37.5 -10.5q76 0 97 65z" />
    <glyph glyph-name="b" unicode="b" horiz-adv-x="648" 
d="M226 53q-5 -35 -14 -53h-146v674h176v-238q66 56 144 56q67 0 116 -33t74.5 -90t25.5 -130t-27 -130t-77 -88.5t-118 -31.5q-92 0 -154 64zM400 161.5q26 23.5 26 77.5q0 55 -25.5 79.5t-62.5 24.5q-42 0 -69 -25.5t-27 -67.5v-11q0 -53 28 -77t68 -24q36 0 62 23.5z" />
    <glyph glyph-name="c" unicode="c" horiz-adv-x="537" 
d="M162.5 22q-56.5 33 -86.5 90.5t-30 129.5q0 70 33 127t90.5 90t128.5 33q64 0 118.5 -28t89.5 -95l-104 -74q-17 26 -35.5 37t-50.5 11q-47 0 -70.5 -28t-23.5 -73q0 -46 24 -75t71 -29q32 0 51.5 13.5t41.5 40.5l105 -73q-34 -65 -87.5 -97.5t-131.5 -32.5
q-77 0 -133.5 33z" />
    <glyph glyph-name="cacute" unicode="&#x107;" horiz-adv-x="537" 
d="M162.5 22q-56.5 33 -86.5 90.5t-30 129.5q0 70 33 127t90.5 90t128.5 33q64 0 118.5 -28t89.5 -95l-104 -74q-17 26 -35.5 37t-50.5 11q-47 0 -70.5 -28t-23.5 -73q0 -46 24 -75t71 -29q32 0 51.5 13.5t41.5 40.5l105 -73q-34 -65 -87.5 -97.5t-131.5 -32.5
q-77 0 -133.5 33zM420 738l54 -104l-253 -108l-48 90z" />
    <glyph glyph-name="ccaron" unicode="&#x10d;" horiz-adv-x="537" 
d="M162.5 22q-56.5 33 -86.5 90.5t-30 129.5q0 70 33 127t90.5 90t128.5 33q64 0 118.5 -28t89.5 -95l-104 -74q-17 26 -35.5 37t-50.5 11q-47 0 -70.5 -28t-23.5 -73q0 -46 24 -75t71 -29q32 0 51.5 13.5t41.5 40.5l105 -73q-34 -65 -87.5 -97.5t-131.5 -32.5
q-77 0 -133.5 33zM246 550l-132 110l58 69l123 -88l124 88l58 -70l-135 -109q-22 -19 -48 -19t-48 19z" />
    <glyph glyph-name="ccedilla" unicode="&#xe7;" horiz-adv-x="537" 
d="M383 2q36 -38 36 -80q0 -52 -37.5 -82t-105.5 -30q-42 0 -78 15.5t-59 41.5l54 69q16 -13 29.5 -20t31.5 -7q50 0 50 39q0 34 -45 43q-99 12 -156 81t-57 170q0 70 33 127t90.5 90t128.5 33q64 0 118.5 -28t89.5 -95l-104 -74q-17 26 -35.5 37t-50.5 11q-47 0 -70.5 -28
t-23.5 -73q0 -46 24 -75t71 -29q32 0 51.5 13.5t41.5 40.5l105 -73q-48 -91 -132 -117z" />
    <glyph glyph-name="ccircumflex" unicode="&#x109;" horiz-adv-x="537" 
d="M162.5 22q-56.5 33 -86.5 90.5t-30 129.5q0 70 33 127t90.5 90t128.5 33q64 0 118.5 -28t89.5 -95l-104 -74q-17 26 -35.5 37t-50.5 11q-47 0 -70.5 -28t-23.5 -73q0 -46 24 -75t71 -29q32 0 51.5 13.5t41.5 40.5l105 -73q-34 -65 -87.5 -97.5t-131.5 -32.5
q-77 0 -133.5 33zM249 710q22 19 48 19t48 -19l132 -110l-58 -69l-123 88l-124 -88l-58 70z" />
    <glyph glyph-name="cdotaccent" unicode="&#x10b;" horiz-adv-x="537" 
d="M162.5 22q-56.5 33 -86.5 90.5t-30 129.5q0 70 33 127t90.5 90t128.5 33q64 0 118.5 -28t89.5 -95l-104 -74q-17 26 -35.5 37t-50.5 11q-47 0 -70.5 -28t-23.5 -73q0 -46 24 -75t71 -29q32 0 51.5 13.5t41.5 40.5l105 -73q-34 -65 -87.5 -97.5t-131.5 -32.5
q-77 0 -133.5 33zM224.5 550q-25.5 24 -25.5 62q0 36 26 60.5t70 24.5t70.5 -24.5t26.5 -60.5q0 -38 -26.5 -62t-71.5 -24q-44 0 -69.5 24z" />
    <glyph glyph-name="d" unicode="d" horiz-adv-x="647" 
d="M146 22q-49 33 -74.5 90.5t-25.5 129.5q0 73 27.5 130t78 88.5t118.5 31.5q81 0 135 -48v230h176v-674h-145q-11 20 -16 59q-33 -34 -73.5 -52t-85.5 -18q-66 0 -115 33zM378 163.5q27 25.5 27 67.5v11q0 54 -27 77.5t-66 23.5q-37 0 -63.5 -23t-26.5 -78t25.5 -79.5
t61.5 -24.5q42 0 69 25.5z" />
    <glyph glyph-name="eth" unicode="&#xf0;" horiz-adv-x="620" 
d="M169 19q-60 30 -91.5 81.5t-31.5 115.5q0 61 29.5 111t82.5 79t120 29q63 0 103 -25q-20 49 -78 99l-120 -56l-48 86l70 33q-35 16 -74 27l99 105q70 -23 128 -60l107 50l48 -86l-69 -33q62 -61 96 -140.5t34 -170.5q0 -75 -32 -138t-91.5 -100t-139.5 -37q-82 0 -142 30
zM378.5 163.5q21.5 24.5 21.5 54.5q0 29 -21 52.5t-67 23.5q-47 0 -69.5 -24t-22.5 -53t22 -53.5t68 -24.5q47 0 68.5 24.5z" />
    <glyph glyph-name="dcaron" unicode="&#x10f;" horiz-adv-x="769" 
d="M146 22q-49 33 -74.5 90.5t-25.5 129.5q0 73 27.5 130t78 88.5t118.5 31.5q81 0 135 -48v230h176v-674h-145q-11 20 -16 59q-33 -34 -73.5 -52t-85.5 -18q-66 0 -115 33zM769 674l-17 -154h-114v154h131zM378 163.5q27 25.5 27 67.5v11q0 54 -27 77.5t-66 23.5
q-37 0 -63.5 -23t-26.5 -78t25.5 -79.5t61.5 -24.5q42 0 69 25.5z" />
    <glyph glyph-name="dcroat" unicode="&#x111;" horiz-adv-x="647" 
d="M146 21.5q-49 32.5 -74.5 87.5t-25.5 123q0 69 27.5 123.5t78 85.5t118.5 31q80 0 135 -44v82h-182v104h182v60h176v-60h70v-104h-70v-510h-145q-10 20 -15 54q-68 -65 -160 -65q-66 0 -115 32.5zM378 153.5q27 25.5 27 67.5v11q0 54 -27 77.5t-66 23.5q-37 0 -63.5 -23
t-26.5 -78t25.5 -79.5t61.5 -24.5q42 0 69 25.5z" />
    <glyph glyph-name="e" unicode="e" horiz-adv-x="578" 
d="M165 20.5q-58 31.5 -88.5 88.5t-30.5 131q0 66 30 123.5t86.5 93t131.5 35.5q122 0 181 -73.5t59 -193.5v-20h-324q10 -40 39.5 -62.5t71.5 -22.5q46 0 72.5 12.5t52.5 42.5l90 -71q-34 -58 -95 -86.5t-138 -28.5q-80 0 -138 31.5zM349.5 351.5q-19.5 17.5 -50.5 17.5
q-36 0 -58 -17.5t-30 -54.5h161q-3 37 -22.5 54.5z" />
    <glyph glyph-name="eacute" unicode="&#xe9;" horiz-adv-x="578" 
d="M165 20.5q-58 31.5 -88.5 88.5t-30.5 131q0 66 30 123.5t86.5 93t131.5 35.5q122 0 181 -73.5t59 -193.5v-20h-324q10 -40 39.5 -62.5t71.5 -22.5q46 0 72.5 12.5t52.5 42.5l90 -71q-34 -58 -95 -86.5t-138 -28.5q-80 0 -138 31.5zM349.5 351.5q-19.5 17.5 -50.5 17.5
q-36 0 -58 -17.5t-30 -54.5h161q-3 37 -22.5 54.5zM423 738l54 -104l-253 -108l-48 90z" />
    <glyph glyph-name="ebreve" unicode="&#x115;" horiz-adv-x="578" 
d="M165 20.5q-58 31.5 -88.5 88.5t-30.5 131q0 66 30 123.5t86.5 93t131.5 35.5q122 0 181 -73.5t59 -193.5v-20h-324q10 -40 39.5 -62.5t71.5 -22.5q46 0 72.5 12.5t52.5 42.5l90 -71q-34 -58 -95 -86.5t-138 -28.5q-80 0 -138 31.5zM349.5 351.5q-19.5 17.5 -50.5 17.5
q-36 0 -58 -17.5t-30 -54.5h161q-3 37 -22.5 54.5zM194.5 573.5q-48.5 29.5 -84.5 86.5l80 60q27 -39 51.5 -54t57.5 -15t57.5 15t51.5 54l80 -60q-36 -57 -84.5 -86.5t-104.5 -29.5t-104.5 29.5z" />
    <glyph glyph-name="ecaron" unicode="&#x11b;" horiz-adv-x="578" 
d="M165 20.5q-58 31.5 -88.5 88.5t-30.5 131q0 66 30 123.5t86.5 93t131.5 35.5q122 0 181 -73.5t59 -193.5v-20h-324q10 -40 39.5 -62.5t71.5 -22.5q46 0 72.5 12.5t52.5 42.5l90 -71q-34 -58 -95 -86.5t-138 -28.5q-80 0 -138 31.5zM349.5 351.5q-19.5 17.5 -50.5 17.5
q-36 0 -58 -17.5t-30 -54.5h161q-3 37 -22.5 54.5zM249 550l-132 110l58 69l123 -88l124 88l58 -70l-135 -109q-22 -19 -48 -19t-48 19z" />
    <glyph glyph-name="ecircumflex" unicode="&#xea;" horiz-adv-x="578" 
d="M165 20.5q-58 31.5 -88.5 88.5t-30.5 131q0 66 30 123.5t86.5 93t131.5 35.5q122 0 181 -73.5t59 -193.5v-20h-324q10 -40 39.5 -62.5t71.5 -22.5q46 0 72.5 12.5t52.5 42.5l90 -71q-34 -58 -95 -86.5t-138 -28.5q-80 0 -138 31.5zM349.5 351.5q-19.5 17.5 -50.5 17.5
q-36 0 -58 -17.5t-30 -54.5h161q-3 37 -22.5 54.5zM252 710q22 19 48 19t48 -19l132 -110l-58 -69l-123 88l-124 -88l-58 70z" />
    <glyph glyph-name="edieresis" unicode="&#xeb;" horiz-adv-x="578" 
d="M165 20.5q-58 31.5 -88.5 88.5t-30.5 131q0 66 30 123.5t86.5 93t131.5 35.5q122 0 181 -73.5t59 -193.5v-20h-324q10 -40 39.5 -62.5t71.5 -22.5q46 0 72.5 12.5t52.5 42.5l90 -71q-34 -58 -95 -86.5t-138 -28.5q-80 0 -138 31.5zM349.5 351.5q-19.5 17.5 -50.5 17.5
q-36 0 -58 -17.5t-30 -54.5h161q-3 37 -22.5 54.5zM121.5 552q-23.5 23 -23.5 59q0 34 24 57.5t64 23.5t64 -23.5t24 -57.5q0 -36 -24 -59t-65 -23q-40 0 -63.5 23zM347.5 552q-23.5 23 -23.5 59q0 34 24 57.5t63 23.5q41 0 65 -23.5t24 -57.5q0 -36 -24 -59t-65 -23
q-40 0 -63.5 23z" />
    <glyph glyph-name="edotaccent" unicode="&#x117;" horiz-adv-x="578" 
d="M165 20.5q-58 31.5 -88.5 88.5t-30.5 131q0 66 30 123.5t86.5 93t131.5 35.5q122 0 181 -73.5t59 -193.5v-20h-324q10 -40 39.5 -62.5t71.5 -22.5q46 0 72.5 12.5t52.5 42.5l90 -71q-34 -58 -95 -86.5t-138 -28.5q-80 0 -138 31.5zM349.5 351.5q-19.5 17.5 -50.5 17.5
q-36 0 -58 -17.5t-30 -54.5h161q-3 37 -22.5 54.5zM227.5 550q-25.5 24 -25.5 62q0 36 26 60.5t70 24.5t70.5 -24.5t26.5 -60.5q0 -38 -26.5 -62t-71.5 -24q-44 0 -69.5 24z" />
    <glyph glyph-name="egrave" unicode="&#xe8;" horiz-adv-x="578" 
d="M165 20.5q-58 31.5 -88.5 88.5t-30.5 131q0 66 30 123.5t86.5 93t131.5 35.5q122 0 181 -73.5t59 -193.5v-20h-324q10 -40 39.5 -62.5t71.5 -22.5q46 0 72.5 12.5t52.5 42.5l90 -71q-34 -58 -95 -86.5t-138 -28.5q-80 0 -138 31.5zM349.5 351.5q-19.5 17.5 -50.5 17.5
q-36 0 -58 -17.5t-30 -54.5h161q-3 37 -22.5 54.5zM175 738l247 -122l-48 -90l-253 108z" />
    <glyph glyph-name="emacron" unicode="&#x113;" horiz-adv-x="578" 
d="M165 20.5q-58 31.5 -88.5 88.5t-30.5 131q0 66 30 123.5t86.5 93t131.5 35.5q122 0 181 -73.5t59 -193.5v-20h-324q10 -40 39.5 -62.5t71.5 -22.5q46 0 72.5 12.5t52.5 42.5l90 -71q-34 -58 -95 -86.5t-138 -28.5q-80 0 -138 31.5zM349.5 351.5q-19.5 17.5 -50.5 17.5
q-36 0 -58 -17.5t-30 -54.5h161q-3 37 -22.5 54.5zM465 673v-111h-332v111h332z" />
    <glyph glyph-name="eogonek" unicode="&#x119;" horiz-adv-x="578" 
d="M377.5 -22q-9.5 -10 -9.5 -23q0 -21 29 -21q23 0 51 24l54 -65q-22 -24 -56.5 -38t-71.5 -14q-55 0 -89 22t-34 64q0 35 23 63q-107 9 -167.5 76.5t-60.5 173.5q0 66 30 123.5t86.5 93t131.5 35.5q122 0 181 -73.5t59 -193.5v-20h-324q10 -40 39.5 -62.5t71.5 -22.5
q46 0 72.5 12.5t52.5 42.5l90 -71q-37 -63 -105 -91l-19 -11q-25 -14 -34.5 -24zM241 351.5q-22 -17.5 -30 -54.5h161q-3 37 -22.5 54.5t-50.5 17.5q-36 0 -58 -17.5z" />
    <glyph glyph-name="f" unicode="f" horiz-adv-x="497" 
d="M20 326v144h92v1q3 105 60.5 161.5t153.5 56.5q57 0 98.5 -18t72.5 -52l-66 -99q-34 27 -70 27q-33 0 -53 -17.5t-20 -56.5v-3h180v-144h-180v-326h-176v326h-92z" />
    <glyph glyph-name="g" unicode="g" horiz-adv-x="588" 
d="M361.5 -94.5q16.5 6.5 16.5 22.5t-16 22.5t-65 6.5h-89q-71 0 -113 30.5t-42 93.5q0 68 60 108q-67 44 -67 127q0 79 62 127.5t180 48.5q104 0 168 -51q16 25 16 70h108v-26q0 -39 -17.5 -71t-51.5 -53q7 -20 7 -45q0 -79 -59.5 -123.5t-170.5 -44.5q-59 0 -79 -5.5
t-20 -21.5q0 -15 12.5 -20.5t37.5 -5.5h105q89 0 139 -35.5t50 -107.5q0 -76 -58 -115.5t-170 -41.5v102q40 2 56.5 8.5zM334 274q16 17 16 45q0 26 -16.5 43t-48.5 17q-36 0 -53 -17t-17 -43t17 -44t53 -18q33 0 49 17z" />
    <glyph glyph-name="gbreve" unicode="&#x11f;" horiz-adv-x="588" 
d="M361.5 -94.5q16.5 6.5 16.5 22.5t-16 22.5t-65 6.5h-89q-71 0 -113 30.5t-42 93.5q0 68 60 108q-67 44 -67 127q0 79 62 127.5t180 48.5q104 0 168 -51q16 25 16 70h108v-26q0 -39 -17.5 -71t-51.5 -53q7 -20 7 -45q0 -79 -59.5 -123.5t-170.5 -44.5q-59 0 -79 -5.5
t-20 -21.5q0 -15 12.5 -20.5t37.5 -5.5h105q89 0 139 -35.5t50 -107.5q0 -76 -58 -115.5t-170 -41.5v102q40 2 56.5 8.5zM334 274q16 17 16 45q0 26 -16.5 43t-48.5 17q-36 0 -53 -17t-17 -43t17 -44t53 -18q33 0 49 17zM189.5 573.5q-48.5 29.5 -84.5 86.5l80 60
q27 -39 51.5 -54t57.5 -15t57.5 15t51.5 54l80 -60q-36 -57 -84.5 -86.5t-104.5 -29.5t-104.5 29.5z" />
    <glyph glyph-name="gcircumflex" unicode="&#x11d;" horiz-adv-x="588" 
d="M361.5 -94.5q16.5 6.5 16.5 22.5t-16 22.5t-65 6.5h-89q-71 0 -113 30.5t-42 93.5q0 68 60 108q-67 44 -67 127q0 79 62 127.5t180 48.5q104 0 168 -51q16 25 16 70h108v-26q0 -39 -17.5 -71t-51.5 -53q7 -20 7 -45q0 -79 -59.5 -123.5t-170.5 -44.5q-59 0 -79 -5.5
t-20 -21.5q0 -15 12.5 -20.5t37.5 -5.5h105q89 0 139 -35.5t50 -107.5q0 -76 -58 -115.5t-170 -41.5v102q40 2 56.5 8.5zM334 274q16 17 16 45q0 26 -16.5 43t-48.5 17q-36 0 -53 -17t-17 -43t17 -44t53 -18q33 0 49 17zM247 710q22 19 48 19t48 -19l132 -110l-58 -69
l-123 88l-124 -88l-58 70z" />
    <glyph glyph-name="uni0123" unicode="&#x123;" horiz-adv-x="588" 
d="M361.5 -94.5q16.5 6.5 16.5 22.5t-16 22.5t-65 6.5h-89q-71 0 -113 30.5t-42 93.5q0 68 60 108q-67 44 -67 127q0 79 62 127.5t180 48.5q104 0 168 -51q16 25 16 70h108v-26q0 -39 -17.5 -71t-51.5 -53q7 -20 7 -45q0 -79 -59.5 -123.5t-170.5 -44.5q-59 0 -79 -5.5
t-20 -21.5q0 -15 12.5 -20.5t37.5 -5.5h105q89 0 139 -35.5t50 -107.5q0 -76 -58 -115.5t-170 -41.5v102q40 2 56.5 8.5zM334 274q16 17 16 45q0 26 -16.5 43t-48.5 17q-36 0 -53 -17t-17 -43t17 -44t53 -18q33 0 49 17zM259 678.5q39 53.5 107 86.5l64 -67
q-44 -31 -64 -61.5t-20 -80.5h-126q0 69 39 122.5z" />
    <glyph glyph-name="gdotaccent" unicode="&#x121;" horiz-adv-x="588" 
d="M361.5 -94.5q16.5 6.5 16.5 22.5t-16 22.5t-65 6.5h-89q-71 0 -113 30.5t-42 93.5q0 68 60 108q-67 44 -67 127q0 79 62 127.5t180 48.5q104 0 168 -51q16 25 16 70h108v-26q0 -39 -17.5 -71t-51.5 -53q7 -20 7 -45q0 -79 -59.5 -123.5t-170.5 -44.5q-59 0 -79 -5.5
t-20 -21.5q0 -15 12.5 -20.5t37.5 -5.5h105q89 0 139 -35.5t50 -107.5q0 -76 -58 -115.5t-170 -41.5v102q40 2 56.5 8.5zM334 274q16 17 16 45q0 26 -16.5 43t-48.5 17q-36 0 -53 -17t-17 -43t17 -44t53 -18q33 0 49 17zM222.5 550q-25.5 24 -25.5 62q0 36 26 60.5t70 24.5
t70.5 -24.5t26.5 -60.5q0 -38 -26.5 -62t-71.5 -24q-44 0 -69.5 24z" />
    <glyph glyph-name="h" unicode="h" horiz-adv-x="627" 
d="M242 674v-236q57 54 140 54q91 0 139 -58t48 -168v-266h-176v271q0 72 -63 72q-41 0 -64.5 -31.5t-23.5 -97.5v-214h-176v674h176z" />
    <glyph glyph-name="hbar" unicode="&#x127;" horiz-adv-x="600" 
d="M-4 510v104h70v60h176v-60h182v-104h-182v-92q57 54 140 54q91 0 139 -58t48 -168v-246h-176v251q0 72 -63 72q-41 0 -64.5 -31.5t-23.5 -97.5v-194h-176v510h-70z" />
    <glyph glyph-name="hcircumflex" unicode="&#x125;" horiz-adv-x="625" 
d="M242 674v-236q57 54 140 54q91 0 139 -58t48 -168v-266h-176v271q0 72 -63 72q-41 0 -64.5 -31.5t-23.5 -97.5v-214h-176v674h176zM108 877q21 18 46 18t46 -18l127 -106l-56 -66l-118 84l-119 -84l-56 67z" />
    <glyph glyph-name="i" unicode="i" horiz-adv-x="308" 
d="M242 481v-481h-176v481h176zM82.5 550q-25.5 24 -25.5 62q0 36 26 60.5t70 24.5t70.5 -24.5t26.5 -60.5q0 -38 -26.5 -62t-71.5 -24q-44 0 -69.5 24z" />
    <glyph glyph-name="dotlessi" unicode="&#x131;" horiz-adv-x="308" 
d="M242 481v-481h-176v481h176z" />
    <glyph glyph-name="iacute" unicode="&#xed;" horiz-adv-x="308" 
d="M242 481v-481h-176v481h176zM278 738l54 -104l-253 -108l-48 90z" />
    <glyph glyph-name="ibreve" unicode="&#x12d;" horiz-adv-x="308" 
d="M242 481v-481h-176v481h176zM49.5 573.5q-48.5 29.5 -84.5 86.5l80 60q27 -39 51.5 -54t57.5 -15t57.5 15t51.5 54l80 -60q-36 -57 -84.5 -86.5t-104.5 -29.5t-104.5 29.5z" />
    <glyph glyph-name="icircumflex" unicode="&#xee;" horiz-adv-x="308" 
d="M242 481v-481h-176v481h176zM107 710q22 19 48 19t48 -19l132 -110l-58 -69l-123 88l-124 -88l-58 70z" />
    <glyph glyph-name="idieresis" unicode="&#xef;" horiz-adv-x="308" 
d="M242 481v-481h-176v481h176zM-23.5 552q-23.5 23 -23.5 59q0 34 24 57.5t64 23.5t64 -23.5t24 -57.5q0 -36 -24 -59t-65 -23q-40 0 -63.5 23zM202.5 552q-23.5 23 -23.5 59q0 34 24 57.5t63 23.5q41 0 65 -23.5t24 -57.5q0 -36 -24 -59t-65 -23q-40 0 -63.5 23z" />
    <glyph glyph-name="i.loclTRK" horiz-adv-x="308" 
d="M242 481v-481h-176v481h176zM82.5 550q-25.5 24 -25.5 62q0 36 26 60.5t70 24.5t70.5 -24.5t26.5 -60.5q0 -38 -26.5 -62t-71.5 -24q-44 0 -69.5 24z" />
    <glyph glyph-name="igrave" unicode="&#xec;" horiz-adv-x="308" 
d="M242 481v-481h-176v481h176zM30 738l247 -122l-48 -90l-253 108z" />
    <glyph glyph-name="ij" unicode="&#x133;" horiz-adv-x="613" 
d="M242 481v-481h-176v481h176zM82.5 550q-25.5 24 -25.5 62q0 36 26 60.5t70 24.5t70.5 -24.5t26.5 -60.5q0 -38 -26.5 -62t-71.5 -24q-44 0 -69.5 24zM171 -136l74 105q17 -13 31 -18.5t32 -5.5q29 0 46.5 17.5t17.5 52.5v466h176v-462q0 -112 -54.5 -168t-152.5 -56
q-106 0 -170 69zM388.5 550q-25.5 24 -25.5 62q0 36 26 60.5t70 24.5t70.5 -24.5t26.5 -60.5q0 -38 -26.5 -62t-71.5 -24q-44 0 -69.5 24z" />
    <glyph glyph-name="imacron" unicode="&#x12b;" horiz-adv-x="308" 
d="M242 481v-481h-176v481h176zM320 673v-111h-332v111h332z" />
    <glyph glyph-name="iogonek" unicode="&#x12f;" horiz-adv-x="308" 
d="M82.5 550q-25.5 24 -25.5 62q0 36 26 60.5t70 24.5t70.5 -24.5t26.5 -60.5q0 -38 -26.5 -62t-71.5 -24q-44 0 -69.5 24zM260 -151q-22 -24 -56.5 -38t-71.5 -14q-55 0 -89 22t-34 64q0 60 71 102l27 15h-41v481h176v-481q-35 -21 -72 -42q-25 -14 -34.5 -24t-9.5 -23
q0 -21 29 -21q23 0 51 24z" />
    <glyph glyph-name="itilde" unicode="&#x129;" horiz-adv-x="308" 
d="M242 481v-481h-176v481h176zM183 546.5q-19 7.5 -41 20.5q-33 21 -54 21q-24 0 -37 -8.5t-29 -30.5l-70 61q22 36 55.5 61.5t78.5 25.5q30 0 49.5 -7.5t39.5 -20.5q16 -11 29 -16t29 -5q17 0 30 9t28 30l70 -61q-54 -87 -137 -87q-22 0 -41 7.5z" />
    <glyph glyph-name="j" unicode="j" horiz-adv-x="305" 
d="M-137 -136l74 105q17 -13 31 -18.5t32 -5.5q29 0 46.5 17.5t17.5 52.5v466h176v-462q0 -112 -54.5 -168t-152.5 -56q-106 0 -170 69zM80.5 550q-25.5 24 -25.5 62q0 36 26 60.5t70 24.5t70.5 -24.5t26.5 -60.5q0 -38 -26.5 -62t-71.5 -24q-44 0 -69.5 24z" />
    <glyph glyph-name="uni0237" unicode="&#x237;" horiz-adv-x="305" 
d="M-137 -136l74 105q17 -13 31 -18.5t32 -5.5q29 0 46.5 17.5t17.5 52.5v466h176v-462q0 -112 -54.5 -168t-152.5 -56q-106 0 -170 69z" />
    <glyph glyph-name="jcircumflex" unicode="&#x135;" horiz-adv-x="305" 
d="M-137 -136l74 105q17 -13 31 -18.5t32 -5.5q29 0 46.5 17.5t17.5 52.5v466h176v-462q0 -112 -54.5 -168t-152.5 -56q-106 0 -170 69zM105 710q22 19 48 19t48 -19l132 -110l-58 -69l-123 88l-124 -88l-58 70z" />
    <glyph glyph-name="k" unicode="k" horiz-adv-x="604" 
d="M237 674v-349q24 -2 40 -2q42 0 67.5 15.5t40 49.5t23.5 93h161q-3 -86 -31.5 -147t-78.5 -98l139 -236h-194l-100 186q-8 -1 -25 -1q-21 0 -42 3v-188h-171v674h171z" />
    <glyph glyph-name="uni0137" unicode="&#x137;" horiz-adv-x="604" 
d="M237 674v-349q24 -2 40 -2q42 0 67.5 15.5t40 49.5t23.5 93h161q-3 -86 -31.5 -147t-78.5 -98l139 -236h-194l-100 186q-8 -1 -25 -1q-21 0 -42 3v-188h-171v674h171zM238 -124.5q20 30.5 20 80.5h126q0 -69 -39 -122.5t-107 -86.5l-64 67q44 31 64 61.5z" />
    <glyph glyph-name="kgreenlandic" unicode="&#x138;" horiz-adv-x="604" 
d="M237 481v-169q24 -2 40 -2q42 0 67.5 16.5t40 53t23.5 101.5h161q-3 -87 -32 -151.5t-80 -102.5l141 -227h-194l-99 173q-8 -1 -26 -1q-21 0 -42 3v-175h-171v481h171z" />
    <glyph glyph-name="l" unicode="l" horiz-adv-x="308" 
d="M242 674v-674h-176v674h176z" />
    <glyph glyph-name="lacute" unicode="&#x13a;" horiz-adv-x="308" 
d="M242 674v-674h-176v674h176zM276 914l45 -109l-264 -87l-40 96z" />
    <glyph glyph-name="lcaron" unicode="&#x13e;" horiz-adv-x="430" 
d="M242 674v-674h-176v674h176zM430 674l-17 -154h-114v154h131z" />
    <glyph glyph-name="uni013C" unicode="&#x13c;" horiz-adv-x="308" 
d="M242 674v-674h-176v674h176zM78 -124.5q20 30.5 20 80.5h126q0 -69 -39 -122.5t-107 -86.5l-64 67q44 31 64 61.5z" />
    <glyph glyph-name="ldot" unicode="&#x140;" horiz-adv-x="534" 
d="M242 674v-674h-176v674h176zM330.5 308q-25.5 26 -25.5 67q0 39 26 65.5t70 26.5q45 0 71 -26t26 -66q0 -41 -26.5 -67t-71.5 -26q-44 0 -69.5 26z" />
    <glyph glyph-name="lslash" unicode="&#x142;" horiz-adv-x="461" 
d="M318 316v-316h-176v231l-84 -41l-52 112l136 66v306h176v-220l85 41l52 -112z" />
    <glyph glyph-name="m" unicode="m" horiz-adv-x="937" 
d="M212 481q10 -20 15 -57q59 68 151 68q104 0 150 -78q28 40 69 59t99 19q90 0 136.5 -58t46.5 -168v-266h-176v271q0 72 -60 72q-40 0 -61 -31t-21 -98v-214h-176v271q0 72 -61 72q-82 0 -82 -129v-214h-176v481h146z" />
    <glyph glyph-name="n" unicode="n" horiz-adv-x="627" 
d="M212 481q10 -22 15 -59q60 70 155 70q91 0 139 -58t48 -168v-266h-176v271q0 72 -63 72q-41 0 -64.5 -31.5t-23.5 -97.5v-214h-176v481h146z" />
    <glyph glyph-name="nacute" unicode="&#x144;" horiz-adv-x="627" 
d="M212 481q10 -22 15 -59q60 70 155 70q91 0 139 -58t48 -168v-266h-176v271q0 72 -63 72q-41 0 -64.5 -31.5t-23.5 -97.5v-214h-176v481h146zM458 738l54 -104l-253 -108l-48 90z" />
    <glyph glyph-name="napostrophe" unicode="&#x149;" horiz-adv-x="627" 
d="M48.5 645.5q16.5 30.5 16.5 65.5h125q0 -61 -32.5 -111t-87.5 -75l-71 70q33 20 49.5 50.5zM212 481q10 -22 15 -59q60 70 155 70q91 0 139 -58t48 -168v-266h-176v271q0 72 -63 72q-41 0 -64.5 -31.5t-23.5 -97.5v-214h-176v481h146z" />
    <glyph glyph-name="ncaron" unicode="&#x148;" horiz-adv-x="627" 
d="M212 481q10 -22 15 -59q60 70 155 70q91 0 139 -58t48 -168v-266h-176v271q0 72 -63 72q-41 0 -64.5 -31.5t-23.5 -97.5v-214h-176v481h146zM284 550l-132 110l58 69l123 -88l124 88l58 -70l-135 -109q-22 -19 -48 -19t-48 19z" />
    <glyph glyph-name="uni0146" unicode="&#x146;" horiz-adv-x="627" 
d="M212 481q10 -22 15 -59q60 70 155 70q91 0 139 -58t48 -168v-266h-176v271q0 72 -63 72q-41 0 -64.5 -31.5t-23.5 -97.5v-214h-176v481h146zM237 -124.5q20 30.5 20 80.5h126q0 -69 -39 -122.5t-107 -86.5l-64 67q44 31 64 61.5z" />
    <glyph glyph-name="eng" unicode="&#x14b;" horiz-adv-x="627" 
d="M521 434q48 -58 48 -168v-266q-4 -102 -57.5 -153.5t-144.5 -51.5q-53 0 -92 16t-70 49l74 105q14 -11 26.5 -15.5t28.5 -4.5q26 0 42.5 16.5t16.5 48.5v261q0 72 -63 72q-41 0 -64.5 -31.5t-23.5 -97.5v-214h-176v481h146q10 -22 15 -59q60 70 155 70q91 0 139 -58z" />
    <glyph glyph-name="ntilde" unicode="&#xf1;" horiz-adv-x="627" 
d="M212 481q10 -22 15 -59q60 70 155 70q91 0 139 -58t48 -168v-266h-176v271q0 72 -63 72q-41 0 -64.5 -31.5t-23.5 -97.5v-214h-176v481h146zM363 546.5q-19 7.5 -41 20.5q-33 21 -54 21q-24 0 -37 -8.5t-29 -30.5l-70 61q22 36 55.5 61.5t78.5 25.5q30 0 49.5 -7.5
t39.5 -20.5q16 -11 29 -16t29 -5q17 0 30 9t28 30l70 -61q-54 -87 -137 -87q-22 0 -41 7.5z" />
    <glyph glyph-name="o" unicode="o" horiz-adv-x="620" 
d="M169.5 23q-60.5 34 -92 92t-31.5 127q0 65 33 122.5t93 92.5t139 35q81 0 140.5 -33.5t91 -91t31.5 -125.5q0 -66 -32.5 -124t-92.5 -93.5t-138 -35.5q-81 0 -141.5 34zM377.5 168.5q20.5 30.5 20.5 73.5q0 41 -20.5 71t-65.5 30q-47 0 -68.5 -30t-21.5 -71q0 -42 21 -73
t67 -31q47 0 67.5 30.5z" />
    <glyph glyph-name="oacute" unicode="&#xf3;" horiz-adv-x="620" 
d="M169.5 23q-60.5 34 -92 92t-31.5 127q0 65 33 122.5t93 92.5t139 35q81 0 140.5 -33.5t91 -91t31.5 -125.5q0 -66 -32.5 -124t-92.5 -93.5t-138 -35.5q-81 0 -141.5 34zM377.5 168.5q20.5 30.5 20.5 73.5q0 41 -20.5 71t-65.5 30q-47 0 -68.5 -30t-21.5 -71q0 -42 21 -73
t67 -31q47 0 67.5 30.5zM435 738l54 -104l-253 -108l-48 90z" />
    <glyph glyph-name="obreve" unicode="&#x14f;" horiz-adv-x="620" 
d="M169.5 23q-60.5 34 -92 92t-31.5 127q0 65 33 122.5t93 92.5t139 35q81 0 140.5 -33.5t91 -91t31.5 -125.5q0 -66 -32.5 -124t-92.5 -93.5t-138 -35.5q-81 0 -141.5 34zM377.5 168.5q20.5 30.5 20.5 73.5q0 41 -20.5 71t-65.5 30q-47 0 -68.5 -30t-21.5 -71q0 -42 21 -73
t67 -31q47 0 67.5 30.5zM206.5 573.5q-48.5 29.5 -84.5 86.5l80 60q27 -39 51.5 -54t57.5 -15t57.5 15t51.5 54l80 -60q-36 -57 -84.5 -86.5t-104.5 -29.5t-104.5 29.5z" />
    <glyph glyph-name="ocircumflex" unicode="&#xf4;" horiz-adv-x="620" 
d="M169.5 23q-60.5 34 -92 92t-31.5 127q0 65 33 122.5t93 92.5t139 35q81 0 140.5 -33.5t91 -91t31.5 -125.5q0 -66 -32.5 -124t-92.5 -93.5t-138 -35.5q-81 0 -141.5 34zM377.5 168.5q20.5 30.5 20.5 73.5q0 41 -20.5 71t-65.5 30q-47 0 -68.5 -30t-21.5 -71q0 -42 21 -73
t67 -31q47 0 67.5 30.5zM264 710q22 19 48 19t48 -19l132 -110l-58 -69l-123 88l-124 -88l-58 70z" />
    <glyph glyph-name="odieresis" unicode="&#xf6;" horiz-adv-x="620" 
d="M169.5 23q-60.5 34 -92 92t-31.5 127q0 65 33 122.5t93 92.5t139 35q81 0 140.5 -33.5t91 -91t31.5 -125.5q0 -66 -32.5 -124t-92.5 -93.5t-138 -35.5q-81 0 -141.5 34zM377.5 168.5q20.5 30.5 20.5 73.5q0 41 -20.5 71t-65.5 30q-47 0 -68.5 -30t-21.5 -71q0 -42 21 -73
t67 -31q47 0 67.5 30.5zM133.5 552q-23.5 23 -23.5 59q0 34 24 57.5t64 23.5t64 -23.5t24 -57.5q0 -36 -24 -59t-65 -23q-40 0 -63.5 23zM359.5 552q-23.5 23 -23.5 59q0 34 24 57.5t63 23.5q41 0 65 -23.5t24 -57.5q0 -36 -24 -59t-65 -23q-40 0 -63.5 23z" />
    <glyph glyph-name="ograve" unicode="&#xf2;" horiz-adv-x="620" 
d="M169.5 23q-60.5 34 -92 92t-31.5 127q0 65 33 122.5t93 92.5t139 35q81 0 140.5 -33.5t91 -91t31.5 -125.5q0 -66 -32.5 -124t-92.5 -93.5t-138 -35.5q-81 0 -141.5 34zM377.5 168.5q20.5 30.5 20.5 73.5q0 41 -20.5 71t-65.5 30q-47 0 -68.5 -30t-21.5 -71q0 -42 21 -73
t67 -31q47 0 67.5 30.5zM187 738l247 -122l-48 -90l-253 108z" />
    <glyph glyph-name="ohungarumlaut" unicode="&#x151;" horiz-adv-x="620" 
d="M169.5 23q-60.5 34 -92 92t-31.5 127q0 65 33 122.5t93 92.5t139 35q81 0 140.5 -33.5t91 -91t31.5 -125.5q0 -66 -32.5 -124t-92.5 -93.5t-138 -35.5q-81 0 -141.5 34zM377.5 168.5q20.5 30.5 20.5 73.5q0 41 -20.5 71t-65.5 30q-47 0 -68.5 -30t-21.5 -71q0 -42 21 -73
t67 -31q47 0 67.5 30.5zM267 738l87 -77l-150 -136l-78 68zM479 737l87 -77l-151 -136l-77 68z" />
    <glyph glyph-name="omacron" unicode="&#x14d;" horiz-adv-x="620" 
d="M169.5 23q-60.5 34 -92 92t-31.5 127q0 65 33 122.5t93 92.5t139 35q81 0 140.5 -33.5t91 -91t31.5 -125.5q0 -66 -32.5 -124t-92.5 -93.5t-138 -35.5q-81 0 -141.5 34zM377.5 168.5q20.5 30.5 20.5 73.5q0 41 -20.5 71t-65.5 30q-47 0 -68.5 -30t-21.5 -71q0 -42 21 -73
t67 -31q47 0 67.5 30.5zM477 673v-111h-332v111h332z" />
    <glyph glyph-name="oslash" unicode="&#xf8;" horiz-adv-x="621" 
d="M96 86q-50 67 -50 156q0 65 33 122.5t93 92.5t139 35q74 0 130 -28l63 68l79 -75l-57 -63q48 -67 48 -152q0 -66 -32.5 -124t-92.5 -93.5t-138 -35.5q-70 0 -129 27l-69 -76l-82 75zM312 358q-54 0 -78.5 -34.5t-24.5 -81.5q0 -10 2 -30l131 142q-12 4 -30 4zM387.5 158
q23.5 35 23.5 84q0 16 -2 24l-127 -140q14 -3 28 -3q54 0 77.5 35z" />
    <glyph glyph-name="otilde" unicode="&#xf5;" horiz-adv-x="620" 
d="M169.5 23q-60.5 34 -92 92t-31.5 127q0 65 33 122.5t93 92.5t139 35q81 0 140.5 -33.5t91 -91t31.5 -125.5q0 -66 -32.5 -124t-92.5 -93.5t-138 -35.5q-81 0 -141.5 34zM377.5 168.5q20.5 30.5 20.5 73.5q0 41 -20.5 71t-65.5 30q-47 0 -68.5 -30t-21.5 -71q0 -42 21 -73
t67 -31q47 0 67.5 30.5zM340 546.5q-19 7.5 -41 20.5q-33 21 -54 21q-24 0 -37 -8.5t-29 -30.5l-70 61q22 36 55.5 61.5t78.5 25.5q30 0 49.5 -7.5t39.5 -20.5q16 -11 29 -16t29 -5q17 0 30 9t28 30l70 -61q-54 -87 -137 -87q-22 0 -41 7.5z" />
    <glyph glyph-name="oe" unicode="&#x153;" horiz-adv-x="963" 
d="M167.5 23q-59.5 34 -90.5 91.5t-31 127.5q0 65 33 122.5t93 92.5t139 35q64 0 111.5 -24.5t77.5 -67.5q31 43 77.5 67.5t104.5 24.5q121 0 179 -74t58 -193v-20h-324q10 -40 39.5 -62.5t71.5 -22.5q46 0 72.5 12.5t52.5 42.5l90 -71q-34 -58 -95 -86.5t-138 -28.5
q-65 0 -114 24.5t-80 69.5q-32 -43 -79 -68.5t-107 -25.5q-81 0 -140.5 34zM734.5 351q-19.5 18 -50.5 18q-36 0 -58 -17.5t-30 -54.5h161q-3 36 -22.5 54zM377.5 168.5q20.5 30.5 20.5 73.5q0 41 -20.5 71t-65.5 30q-47 0 -68.5 -30t-21.5 -71q0 -42 21 -73t67 -31
q47 0 67.5 30.5z" />
    <glyph glyph-name="p" unicode="p" horiz-adv-x="646" 
d="M210 481q10 -22 15 -58q33 33 73.5 51t85.5 18q67 0 116 -32.5t74.5 -90t25.5 -129.5q0 -73 -27 -130t-77 -89t-118 -32q-82 0 -138 50v-233h-176v675h146zM397.5 162q26.5 24 26.5 78q0 55 -25.5 79t-62.5 24q-42 0 -69 -25.5t-27 -66.5v-11q0 -53 28 -77.5t68 -24.5
q35 0 61.5 24z" />
    <glyph glyph-name="thorn" unicode="&#xfe;" horiz-adv-x="646" 
d="M240 674v-238q66 56 144 56q67 0 116 -32.5t74.5 -90t25.5 -129.5q0 -73 -27 -130t-77 -89t-118 -32q-82 0 -138 50v-233h-176v868h176zM397.5 162q26.5 24 26.5 78q0 55 -25.5 79t-62.5 24q-42 0 -69 -25.5t-27 -66.5v-11q0 -53 28 -77.5t68 -24.5q35 0 61.5 24z" />
    <glyph glyph-name="q" unicode="q" horiz-adv-x="647" 
d="M261 -11q-66 0 -115 33t-74.5 90.5t-25.5 129.5q0 73 27.5 130t78 88.5t118.5 31.5q93 0 151 -63q7 38 15 52h145v-675h-176v239q-64 -56 -144 -56zM378 163.5q27 25.5 27 67.5v11q0 54 -27 77.5t-66 23.5q-37 0 -63.5 -23t-26.5 -78t25.5 -79.5t61.5 -24.5q42 0 69 25.5
z" />
    <glyph glyph-name="r" unicode="r" horiz-adv-x="481" 
d="M212 481q11 -25 16 -63q51 74 139 74q33 0 54.5 -7t39.5 -20l-54 -137q-13 7 -25 10t-32 3q-46 0 -77 -30.5t-31 -96.5v-214h-176v481h146z" />
    <glyph glyph-name="racute" unicode="&#x155;" horiz-adv-x="481" 
d="M212 481q11 -25 16 -63q51 74 139 74q33 0 54.5 -7t39.5 -20l-54 -137q-13 7 -25 10t-32 3q-46 0 -77 -30.5t-31 -96.5v-214h-176v481h146zM395 738l54 -104l-253 -108l-48 90z" />
    <glyph glyph-name="rcaron" unicode="&#x159;" horiz-adv-x="481" 
d="M212 481q11 -25 16 -63q51 74 139 74q33 0 54.5 -7t39.5 -20l-54 -137q-13 7 -25 10t-32 3q-46 0 -77 -30.5t-31 -96.5v-214h-176v481h146zM221 550l-132 110l58 69l123 -88l124 88l58 -70l-135 -109q-22 -19 -48 -19t-48 19z" />
    <glyph glyph-name="uni0157" unicode="&#x157;" horiz-adv-x="481" 
d="M212 481q11 -25 16 -63q51 74 139 74q33 0 54.5 -7t39.5 -20l-54 -137q-13 7 -25 10t-32 3q-46 0 -77 -30.5t-31 -96.5v-214h-176v481h146zM74 -124.5q20 30.5 20 80.5h126q0 -69 -39 -122.5t-107 -86.5l-64 67q44 31 64 61.5z" />
    <glyph glyph-name="s" unicode="s" horiz-adv-x="507" 
d="M125 8.5q-56 19.5 -105 61.5l73 99q34 -23 67.5 -34.5t79.5 -11.5q30 0 44.5 4.5t14.5 18.5q0 13 -14.5 19.5t-59.5 13.5q-94 14 -134.5 54t-40.5 103q0 71 59.5 113.5t152.5 42.5q62 0 110.5 -18.5t92.5 -56.5l-74 -92q-26 21 -52.5 29.5t-61.5 8.5q-30 0 -43 -4.5
t-13 -17.5t15.5 -20t62.5 -16q92 -17 131 -55t39 -107q0 -42 -25.5 -77t-72.5 -56t-110 -21q-80 0 -136 19.5z" />
    <glyph glyph-name="sacute" unicode="&#x15b;" horiz-adv-x="507" 
d="M125 8.5q-56 19.5 -105 61.5l73 99q34 -23 67.5 -34.5t79.5 -11.5q30 0 44.5 4.5t14.5 18.5q0 13 -14.5 19.5t-59.5 13.5q-94 14 -134.5 54t-40.5 103q0 71 59.5 113.5t152.5 42.5q62 0 110.5 -18.5t92.5 -56.5l-74 -92q-26 21 -52.5 29.5t-61.5 8.5q-30 0 -43 -4.5
t-13 -17.5t15.5 -20t62.5 -16q92 -17 131 -55t39 -107q0 -42 -25.5 -77t-72.5 -56t-110 -21q-80 0 -136 19.5zM381 738l54 -104l-253 -108l-48 90z" />
    <glyph glyph-name="scaron" unicode="&#x161;" horiz-adv-x="507" 
d="M125 8.5q-56 19.5 -105 61.5l73 99q34 -23 67.5 -34.5t79.5 -11.5q30 0 44.5 4.5t14.5 18.5q0 13 -14.5 19.5t-59.5 13.5q-94 14 -134.5 54t-40.5 103q0 71 59.5 113.5t152.5 42.5q62 0 110.5 -18.5t92.5 -56.5l-74 -92q-26 21 -52.5 29.5t-61.5 8.5q-30 0 -43 -4.5
t-13 -17.5t15.5 -20t62.5 -16q92 -17 131 -55t39 -107q0 -42 -25.5 -77t-72.5 -56t-110 -21q-80 0 -136 19.5zM207 550l-132 110l58 69l123 -88l124 88l58 -70l-135 -109q-22 -19 -48 -19t-48 19z" />
    <glyph glyph-name="scedilla" unicode="&#x15f;" horiz-adv-x="507" 
d="M437 57.5q-32 -38.5 -89 -55.5q36 -38 36 -80q0 -52 -37.5 -82t-105.5 -30q-42 0 -78 15.5t-59 41.5l54 69q16 -13 29.5 -20t31.5 -7q50 0 50 39q0 31 -39 42q-67 4 -116.5 23t-93.5 57l73 99q34 -23 67.5 -34.5t79.5 -11.5q30 0 44.5 4.5t14.5 18.5q0 13 -14.5 19.5
t-59.5 13.5q-94 14 -134.5 54t-40.5 103q0 71 59.5 113.5t152.5 42.5q62 0 110.5 -18.5t92.5 -56.5l-74 -92q-26 21 -52.5 29.5t-61.5 8.5q-30 0 -43 -4.5t-13 -17.5t15.5 -20t62.5 -16q92 -17 131 -55t39 -107q0 -47 -32 -85.5z" />
    <glyph glyph-name="scircumflex" unicode="&#x15d;" horiz-adv-x="507" 
d="M125 8.5q-56 19.5 -105 61.5l73 99q34 -23 67.5 -34.5t79.5 -11.5q30 0 44.5 4.5t14.5 18.5q0 13 -14.5 19.5t-59.5 13.5q-94 14 -134.5 54t-40.5 103q0 71 59.5 113.5t152.5 42.5q62 0 110.5 -18.5t92.5 -56.5l-74 -92q-26 21 -52.5 29.5t-61.5 8.5q-30 0 -43 -4.5
t-13 -17.5t15.5 -20t62.5 -16q92 -17 131 -55t39 -107q0 -42 -25.5 -77t-72.5 -56t-110 -21q-80 0 -136 19.5zM210 710q22 19 48 19t48 -19l132 -110l-58 -69l-123 88l-124 -88l-58 70z" />
    <glyph glyph-name="uni0219" unicode="&#x219;" horiz-adv-x="507" 
d="M125 8.5q-56 19.5 -105 61.5l73 99q34 -23 67.5 -34.5t79.5 -11.5q30 0 44.5 4.5t14.5 18.5q0 13 -14.5 19.5t-59.5 13.5q-94 14 -134.5 54t-40.5 103q0 71 59.5 113.5t152.5 42.5q62 0 110.5 -18.5t92.5 -56.5l-74 -92q-26 21 -52.5 29.5t-61.5 8.5q-30 0 -43 -4.5
t-13 -17.5t15.5 -20t62.5 -16q92 -17 131 -55t39 -107q0 -42 -25.5 -77t-72.5 -56t-110 -21q-80 0 -136 19.5zM177 -124.5q20 30.5 20 80.5h126q0 -69 -39 -122.5t-107 -86.5l-64 67q44 31 64 61.5z" />
    <glyph glyph-name="germandbls" unicode="&#xdf;" horiz-adv-x="671" 
d="M338.5 6.5q-41.5 16.5 -76.5 50.5l68 97q33 -25 76 -25q35 0 54 19.5t19 49.5q0 40 -27 59.5t-83 19.5h-66v131h45q37 0 59 19t22 52q0 32 -22 50t-65 18q-49 0 -78.5 -30t-29.5 -87v-430h-168v437q0 70 34 126t95 88t138 32q78 0 135.5 -23t88 -64.5t30.5 -94.5
q0 -90 -70 -137q57 -24 90.5 -68.5t33.5 -104.5q0 -56 -25.5 -102t-73 -72.5t-109.5 -26.5q-53 0 -94.5 16.5z" />
    <glyph glyph-name="t" unicode="t" horiz-adv-x="513" 
d="M163.5 44q-53.5 55 -53.5 174v119h-92v144h92v125h176v-125h180v-144h-180v-122q0 -77 71 -77q36 0 72 25l72 -107q-31 -31 -76.5 -49t-100.5 -18q-107 0 -160.5 55z" />
    <glyph glyph-name="tbar" unicode="&#x167;" horiz-adv-x="533" 
d="M185 42q-55 53 -55 162v3h-92v104h92v36h-92v134h92v125h176v-125h180v-134h-180v-36h180v-104h-180v-1q0 -31 19 -49.5t52 -18.5q36 0 72 25l72 -107q-31 -31 -76.5 -49t-100.5 -18q-104 0 -159 53z" />
    <glyph glyph-name="tcaron" unicode="&#x165;" horiz-adv-x="513" 
d="M461 704l-17 -174h-104v174h121zM163.5 44q-53.5 55 -53.5 174v119h-92v144h92v125h176v-125h180v-144h-180v-122q0 -77 71 -77q36 0 72 25l72 -107q-31 -31 -76.5 -49t-100.5 -18q-107 0 -160.5 55z" />
    <glyph glyph-name="uni0163" unicode="&#x163;" horiz-adv-x="513" 
d="M375 -7q21 -29 21 -61q0 -52 -37.5 -82t-105.5 -30q-42 0 -78 15.5t-59 41.5l54 69q16 -13 29.5 -20t31.5 -7q50 0 50 39q0 27 -29 39q-71 16 -106.5 70t-35.5 151v119h-92v144h92v125h176v-125h180v-144h-180v-122q0 -77 71 -77q36 0 72 25l72 -107q-48 -48 -126 -63z
" />
    <glyph glyph-name="uni021B" unicode="&#x21b;" horiz-adv-x="513" 
d="M163.5 44q-53.5 55 -53.5 174v119h-92v144h92v125h176v-125h180v-144h-180v-122q0 -77 71 -77q36 0 72 25l72 -107q-31 -31 -76.5 -49t-100.5 -18q-107 0 -160.5 55zM180 -124.5q20 30.5 20 80.5h126q0 -69 -39 -122.5t-107 -86.5l-64 67q44 31 64 61.5z" />
    <glyph glyph-name="u" unicode="u" horiz-adv-x="623" 
d="M109 47q-47 58 -47 167v267h176v-270q0 -73 61 -73q40 0 62 31.5t22 97.5v214h176v-481h-145q-9 16 -16 58q-59 -69 -152 -69q-90 0 -137 58z" />
    <glyph glyph-name="uacute" unicode="&#xfa;" horiz-adv-x="623" 
d="M109 47q-47 58 -47 167v267h176v-270q0 -73 61 -73q40 0 62 31.5t22 97.5v214h176v-481h-145q-9 16 -16 58q-59 -69 -152 -69q-90 0 -137 58zM433 738l54 -104l-253 -108l-48 90z" />
    <glyph glyph-name="ubreve" unicode="&#x16d;" horiz-adv-x="623" 
d="M109 47q-47 58 -47 167v267h176v-270q0 -73 61 -73q40 0 62 31.5t22 97.5v214h176v-481h-145q-9 16 -16 58q-59 -69 -152 -69q-90 0 -137 58zM204.5 573.5q-48.5 29.5 -84.5 86.5l80 60q27 -39 51.5 -54t57.5 -15t57.5 15t51.5 54l80 -60q-36 -57 -84.5 -86.5
t-104.5 -29.5t-104.5 29.5z" />
    <glyph glyph-name="ucircumflex" unicode="&#xfb;" horiz-adv-x="623" 
d="M109 47q-47 58 -47 167v267h176v-270q0 -73 61 -73q40 0 62 31.5t22 97.5v214h176v-481h-145q-9 16 -16 58q-59 -69 -152 -69q-90 0 -137 58zM262 710q22 19 48 19t48 -19l132 -110l-58 -69l-123 88l-124 -88l-58 70z" />
    <glyph glyph-name="udieresis" unicode="&#xfc;" horiz-adv-x="623" 
d="M109 47q-47 58 -47 167v267h176v-270q0 -73 61 -73q40 0 62 31.5t22 97.5v214h176v-481h-145q-9 16 -16 58q-59 -69 -152 -69q-90 0 -137 58zM131.5 552q-23.5 23 -23.5 59q0 34 24 57.5t64 23.5t64 -23.5t24 -57.5q0 -36 -24 -59t-65 -23q-40 0 -63.5 23zM357.5 552
q-23.5 23 -23.5 59q0 34 24 57.5t63 23.5q41 0 65 -23.5t24 -57.5q0 -36 -24 -59t-65 -23q-40 0 -63.5 23z" />
    <glyph glyph-name="ugrave" unicode="&#xf9;" horiz-adv-x="623" 
d="M109 47q-47 58 -47 167v267h176v-270q0 -73 61 -73q40 0 62 31.5t22 97.5v214h176v-481h-145q-9 16 -16 58q-59 -69 -152 -69q-90 0 -137 58zM185 738l247 -122l-48 -90l-253 108z" />
    <glyph glyph-name="uhungarumlaut" unicode="&#x171;" horiz-adv-x="623" 
d="M109 47q-47 58 -47 167v267h176v-270q0 -73 61 -73q40 0 62 31.5t22 97.5v214h176v-481h-145q-9 16 -16 58q-59 -69 -152 -69q-90 0 -137 58zM265 738l87 -77l-150 -136l-78 68zM477 737l87 -77l-151 -136l-77 68z" />
    <glyph glyph-name="umacron" unicode="&#x16b;" horiz-adv-x="623" 
d="M109 47q-47 58 -47 167v267h176v-270q0 -73 61 -73q40 0 62 31.5t22 97.5v214h176v-481h-145q-9 16 -16 58q-59 -69 -152 -69q-90 0 -137 58zM475 673v-111h-332v111h332z" />
    <glyph glyph-name="uogonek" unicode="&#x173;" horiz-adv-x="623" 
d="M577 -151q-22 -24 -56.5 -38t-71.5 -14q-55 0 -89 22t-34 64q0 60 71 102l27 15h-10q-9 16 -16 58q-59 -69 -152 -69q-90 0 -137 58t-47 167v267h176v-270q0 -73 61 -73q40 0 62 31.5t22 97.5v214h176v-481q-35 -21 -72 -42q-25 -14 -34.5 -24t-9.5 -23q0 -21 29 -21
q23 0 51 24z" />
    <glyph glyph-name="uring" unicode="&#x16f;" horiz-adv-x="623" 
d="M109 47q-47 58 -47 167v267h176v-270q0 -73 61 -73q40 0 62 31.5t22 97.5v214h176v-481h-145q-9 16 -16 58q-59 -69 -152 -69q-90 0 -137 58zM228.5 571q-34.5 32 -34.5 81t34.5 81t80.5 32t80.5 -32t34.5 -81t-34.5 -81t-80.5 -32t-80.5 32zM335.5 624q10.5 10 10.5 28
t-10.5 28t-26.5 10t-26.5 -10t-10.5 -28t10.5 -28t26.5 -10t26.5 10z" />
    <glyph glyph-name="utilde" unicode="&#x169;" horiz-adv-x="623" 
d="M109 47q-47 58 -47 167v267h176v-270q0 -73 61 -73q40 0 62 31.5t22 97.5v214h176v-481h-145q-9 16 -16 58q-59 -69 -152 -69q-90 0 -137 58zM338 546.5q-19 7.5 -41 20.5q-33 21 -54 21q-24 0 -37 -8.5t-29 -30.5l-70 61q22 36 55.5 61.5t78.5 25.5q30 0 49.5 -7.5
t39.5 -20.5q16 -11 29 -16t29 -5q17 0 30 9t28 30l70 -61q-54 -87 -137 -87q-22 0 -41 7.5z" />
    <glyph glyph-name="v" unicode="v" horiz-adv-x="601" 
d="M210 481l93 -302l94 302h190l-196 -481h-184l-193 481h196z" />
    <glyph glyph-name="w" unicode="w" horiz-adv-x="868" 
d="M209 481l58 -302l77 297h184l78 -297l57 302h187l-157 -481h-184l-77 308l-77 -308h-181l-156 481h191z" />
    <glyph glyph-name="wacute" unicode="&#x1e83;" horiz-adv-x="868" 
d="M209 481l58 -302l77 297h184l78 -297l57 302h187l-157 -481h-184l-77 308l-77 -308h-181l-156 481h191zM558 738l54 -104l-253 -108l-48 90z" />
    <glyph glyph-name="wcircumflex" unicode="&#x175;" horiz-adv-x="868" 
d="M209 481l58 -302l77 297h184l78 -297l57 302h187l-157 -481h-184l-77 308l-77 -308h-181l-156 481h191zM387 710q22 19 48 19t48 -19l132 -110l-58 -69l-123 88l-124 -88l-58 70z" />
    <glyph glyph-name="wdieresis" unicode="&#x1e85;" horiz-adv-x="868" 
d="M209 481l58 -302l77 297h184l78 -297l57 302h187l-157 -481h-184l-77 308l-77 -308h-181l-156 481h191zM256.5 552q-23.5 23 -23.5 59q0 34 24 57.5t64 23.5t64 -23.5t24 -57.5q0 -36 -24 -59t-65 -23q-40 0 -63.5 23zM482.5 552q-23.5 23 -23.5 59q0 34 24 57.5t63 23.5
q41 0 65 -23.5t24 -57.5q0 -36 -24 -59t-65 -23q-40 0 -63.5 23z" />
    <glyph glyph-name="wgrave" unicode="&#x1e81;" horiz-adv-x="868" 
d="M209 481l58 -302l77 297h184l78 -297l57 302h187l-157 -481h-184l-77 308l-77 -308h-181l-156 481h191zM310 738l247 -122l-48 -90l-253 108z" />
    <glyph glyph-name="x" unicode="x" horiz-adv-x="594" 
d="M19 481h197l81 -131l84 131h192l-169 -233l182 -248h-197l-94 143l-94 -143h-193l181 248z" />
    <glyph glyph-name="y" unicode="y" horiz-adv-x="602" 
d="M75.5 -179q-44.5 26 -75.5 82l99 79q13 -20 27 -29.5t32 -9.5q21 0 35 13t22 40l4 12l-208 473h193l100 -293l91 293h193l-206 -499q-24 -58 -46.5 -96.5t-59.5 -64.5t-91 -26q-65 0 -109.5 26z" />
    <glyph glyph-name="yacute" unicode="&#xfd;" horiz-adv-x="602" 
d="M75.5 -179q-44.5 26 -75.5 82l99 79q13 -20 27 -29.5t32 -9.5q21 0 35 13t22 40l4 12l-208 473h193l100 -293l91 293h193l-206 -499q-24 -58 -46.5 -96.5t-59.5 -64.5t-91 -26q-65 0 -109.5 26zM425 738l54 -104l-253 -108l-48 90z" />
    <glyph glyph-name="ycircumflex" unicode="&#x177;" horiz-adv-x="602" 
d="M75.5 -179q-44.5 26 -75.5 82l99 79q13 -20 27 -29.5t32 -9.5q21 0 35 13t22 40l4 12l-208 473h193l100 -293l91 293h193l-206 -499q-24 -58 -46.5 -96.5t-59.5 -64.5t-91 -26q-65 0 -109.5 26zM254 710q22 19 48 19t48 -19l132 -110l-58 -69l-123 88l-124 -88l-58 70z
" />
    <glyph glyph-name="ydieresis" unicode="&#xff;" horiz-adv-x="602" 
d="M75.5 -179q-44.5 26 -75.5 82l99 79q13 -20 27 -29.5t32 -9.5q21 0 35 13t22 40l4 12l-208 473h193l100 -293l91 293h193l-206 -499q-24 -58 -46.5 -96.5t-59.5 -64.5t-91 -26q-65 0 -109.5 26zM123.5 552q-23.5 23 -23.5 59q0 34 24 57.5t64 23.5t64 -23.5t24 -57.5
q0 -36 -24 -59t-65 -23q-40 0 -63.5 23zM349.5 552q-23.5 23 -23.5 59q0 34 24 57.5t63 23.5q41 0 65 -23.5t24 -57.5q0 -36 -24 -59t-65 -23q-40 0 -63.5 23z" />
    <glyph glyph-name="ygrave" unicode="&#x1ef3;" horiz-adv-x="602" 
d="M75.5 -179q-44.5 26 -75.5 82l99 79q13 -20 27 -29.5t32 -9.5q21 0 35 13t22 40l4 12l-208 473h193l100 -293l91 293h193l-206 -499q-24 -58 -46.5 -96.5t-59.5 -64.5t-91 -26q-65 0 -109.5 26zM177 738l247 -122l-48 -90l-253 108z" />
    <glyph glyph-name="z" unicode="z" horiz-adv-x="509" 
d="M255 337h-210v144h427v-120l-213 -217h224v-144h-443v120z" />
    <glyph glyph-name="zacute" unicode="&#x17a;" horiz-adv-x="509" 
d="M255 337h-210v144h427v-120l-213 -217h224v-144h-443v120zM382 738l54 -104l-253 -108l-48 90z" />
    <glyph glyph-name="zcaron" unicode="&#x17e;" horiz-adv-x="509" 
d="M255 337h-210v144h427v-120l-213 -217h224v-144h-443v120zM208 550l-132 110l58 69l123 -88l124 88l58 -70l-135 -109q-22 -19 -48 -19t-48 19z" />
    <glyph glyph-name="zdotaccent" unicode="&#x17c;" horiz-adv-x="509" 
d="M255 337h-210v144h427v-120l-213 -217h224v-144h-443v120zM186.5 550q-25.5 24 -25.5 62q0 36 26 60.5t70 24.5t70.5 -24.5t26.5 -60.5q0 -38 -26.5 -62t-71.5 -24q-44 0 -69.5 24z" />
    <glyph glyph-name="a.ss01" horiz-adv-x="647" 
d="M146 22q-49 33 -74.5 90.5t-25.5 129.5q0 73 27.5 130t78 88.5t118.5 31.5q93 0 151 -63q7 38 15 52h145v-481h-145q-11 20 -16 59q-33 -34 -73.5 -52t-85.5 -18q-66 0 -115 33zM378 163.5q27 25.5 27 67.5v11q0 54 -27 77.5t-66 23.5q-37 0 -63.5 -23t-26.5 -78
t25.5 -79.5t61.5 -24.5q42 0 69 25.5z" />
    <glyph glyph-name="aacute.ss01" horiz-adv-x="647" 
d="M146 22q-49 33 -74.5 90.5t-25.5 129.5q0 73 27.5 130t78 88.5t118.5 31.5q93 0 151 -63q7 38 15 52h145v-481h-145q-11 20 -16 59q-33 -34 -73.5 -52t-85.5 -18q-66 0 -115 33zM378 163.5q27 25.5 27 67.5v11q0 54 -27 77.5t-66 23.5q-37 0 -63.5 -23t-26.5 -78
t25.5 -79.5t61.5 -24.5q42 0 69 25.5zM448 738l54 -104l-253 -108l-48 90z" />
    <glyph glyph-name="abreve.ss01" horiz-adv-x="647" 
d="M146 22q-49 33 -74.5 90.5t-25.5 129.5q0 73 27.5 130t78 88.5t118.5 31.5q93 0 151 -63q7 38 15 52h145v-481h-145q-11 20 -16 59q-33 -34 -73.5 -52t-85.5 -18q-66 0 -115 33zM378 163.5q27 25.5 27 67.5v11q0 54 -27 77.5t-66 23.5q-37 0 -63.5 -23t-26.5 -78
t25.5 -79.5t61.5 -24.5q42 0 69 25.5zM219.5 573.5q-48.5 29.5 -84.5 86.5l80 60q27 -39 51.5 -54t57.5 -15t57.5 15t51.5 54l80 -60q-36 -57 -84.5 -86.5t-104.5 -29.5t-104.5 29.5z" />
    <glyph glyph-name="acircumflex.ss01" horiz-adv-x="647" 
d="M146 22q-49 33 -74.5 90.5t-25.5 129.5q0 73 27.5 130t78 88.5t118.5 31.5q93 0 151 -63q7 38 15 52h145v-481h-145q-11 20 -16 59q-33 -34 -73.5 -52t-85.5 -18q-66 0 -115 33zM378 163.5q27 25.5 27 67.5v11q0 54 -27 77.5t-66 23.5q-37 0 -63.5 -23t-26.5 -78
t25.5 -79.5t61.5 -24.5q42 0 69 25.5zM277 710q22 19 48 19t48 -19l132 -110l-58 -69l-123 88l-124 -88l-58 70z" />
    <glyph glyph-name="adieresis.ss01" horiz-adv-x="647" 
d="M146 22q-49 33 -74.5 90.5t-25.5 129.5q0 73 27.5 130t78 88.5t118.5 31.5q93 0 151 -63q7 38 15 52h145v-481h-145q-11 20 -16 59q-33 -34 -73.5 -52t-85.5 -18q-66 0 -115 33zM378 163.5q27 25.5 27 67.5v11q0 54 -27 77.5t-66 23.5q-37 0 -63.5 -23t-26.5 -78
t25.5 -79.5t61.5 -24.5q42 0 69 25.5zM146.5 552q-23.5 23 -23.5 59q0 34 24 57.5t64 23.5t64 -23.5t24 -57.5q0 -36 -24 -59t-65 -23q-40 0 -63.5 23zM372.5 552q-23.5 23 -23.5 59q0 34 24 57.5t63 23.5q41 0 65 -23.5t24 -57.5q0 -36 -24 -59t-65 -23q-40 0 -63.5 23z
" />
    <glyph glyph-name="agrave.ss01" horiz-adv-x="647" 
d="M146 22q-49 33 -74.5 90.5t-25.5 129.5q0 73 27.5 130t78 88.5t118.5 31.5q93 0 151 -63q7 38 15 52h145v-481h-145q-11 20 -16 59q-33 -34 -73.5 -52t-85.5 -18q-66 0 -115 33zM378 163.5q27 25.5 27 67.5v11q0 54 -27 77.5t-66 23.5q-37 0 -63.5 -23t-26.5 -78
t25.5 -79.5t61.5 -24.5q42 0 69 25.5zM200 738l247 -122l-48 -90l-253 108z" />
    <glyph glyph-name="amacron.ss01" horiz-adv-x="647" 
d="M146 22q-49 33 -74.5 90.5t-25.5 129.5q0 73 27.5 130t78 88.5t118.5 31.5q93 0 151 -63q7 38 15 52h145v-481h-145q-11 20 -16 59q-33 -34 -73.5 -52t-85.5 -18q-66 0 -115 33zM378 163.5q27 25.5 27 67.5v11q0 54 -27 77.5t-66 23.5q-37 0 -63.5 -23t-26.5 -78
t25.5 -79.5t61.5 -24.5q42 0 69 25.5zM490 673v-111h-332v111h332z" />
    <glyph glyph-name="aogonek.ss01" horiz-adv-x="647" 
d="M599 -151q-22 -24 -56.5 -38t-71.5 -14q-55 0 -89 22t-34 64q0 60 71 102l27 15h-10q-11 20 -16 59q-33 -34 -73.5 -52t-85.5 -18q-66 0 -115 33t-74.5 90.5t-25.5 129.5q0 73 27.5 130t78 88.5t118.5 31.5q93 0 151 -63q7 38 15 52h145v-481q-35 -21 -72 -42
q-25 -14 -34.5 -24t-9.5 -23q0 -21 29 -21q23 0 51 24zM405 242q0 54 -27 77.5t-66 23.5q-37 0 -63.5 -23t-26.5 -78t25.5 -79.5t61.5 -24.5q42 0 69 25.5t27 67.5v11z" />
    <glyph glyph-name="aring.ss01" horiz-adv-x="647" 
d="M146 22q-49 33 -74.5 90.5t-25.5 129.5q0 73 27.5 130t78 88.5t118.5 31.5q93 0 151 -63q7 38 15 52h145v-481h-145q-11 20 -16 59q-33 -34 -73.5 -52t-85.5 -18q-66 0 -115 33zM378 163.5q27 25.5 27 67.5v11q0 54 -27 77.5t-66 23.5q-37 0 -63.5 -23t-26.5 -78
t25.5 -79.5t61.5 -24.5q42 0 69 25.5zM243.5 571q-34.5 32 -34.5 81t34.5 81t80.5 32t80.5 -32t34.5 -81t-34.5 -81t-80.5 -32t-80.5 32zM350.5 624q10.5 10 10.5 28t-10.5 28t-26.5 10t-26.5 -10t-10.5 -28t10.5 -28t26.5 -10t26.5 10z" />
    <glyph glyph-name="atilde.ss01" horiz-adv-x="647" 
d="M146 22q-49 33 -74.5 90.5t-25.5 129.5q0 73 27.5 130t78 88.5t118.5 31.5q93 0 151 -63q7 38 15 52h145v-481h-145q-11 20 -16 59q-33 -34 -73.5 -52t-85.5 -18q-66 0 -115 33zM378 163.5q27 25.5 27 67.5v11q0 54 -27 77.5t-66 23.5q-37 0 -63.5 -23t-26.5 -78
t25.5 -79.5t61.5 -24.5q42 0 69 25.5zM353 546.5q-19 7.5 -41 20.5q-33 21 -54 21q-24 0 -37 -8.5t-29 -30.5l-70 61q22 36 55.5 61.5t78.5 25.5q30 0 49.5 -7.5t39.5 -20.5q16 -11 29 -16t29 -5q17 0 30 9t28 30l70 -61q-54 -87 -137 -87q-22 0 -41 7.5z" />
    <glyph glyph-name="ae.ss01" horiz-adv-x="978" 
d="M156 22q-51 33 -80.5 91t-29.5 129q0 72 31.5 129t85 89t117.5 32q86 0 142 -58q5 30 14 47h125v-53q57 64 145 64q115 0 171.5 -74t56.5 -193v-20h-317q10 -40 39.5 -62.5t71.5 -22.5q45 0 69.5 12.5t50.5 42.5l88 -71q-34 -59 -92 -87t-132 -28q-46 0 -84.5 16.5
t-66.5 46.5v-52h-125q-10 21 -15 55q-64 -66 -150 -66q-64 0 -115 33zM755.5 352q-18.5 17 -49.5 17q-35 0 -56.5 -16.5t-30.5 -51.5h158q-3 34 -21.5 51zM378 163.5q27 25.5 27 67.5v11q0 54 -27 77.5t-66 23.5q-37 0 -63.5 -23t-26.5 -78t25.5 -79.5t61.5 -24.5
q42 0 69 25.5z" />
    <glyph glyph-name="g.ss01" horiz-adv-x="647" 
d="M154.5 -185.5q-62.5 19.5 -116.5 67.5l76 118q37 -28 73 -40t89 -12q131 0 131 103v22q-54 -52 -144 -52q-62 0 -111.5 27.5t-77.5 80t-28 122.5q0 71 30.5 126t81.5 85t112 30q92 0 153 -63q7 36 15 52h143v-422q0 -72 -33.5 -132t-97 -96t-150.5 -36q-83 0 -145.5 19.5
zM379.5 181.5q27.5 23.5 27.5 64.5v2q0 52 -28.5 74.5t-66.5 22.5q-36 0 -63 -22t-27 -70q0 -47 26 -71t61 -24q43 0 70.5 23.5z" />
    <glyph glyph-name="gbreve.ss01" horiz-adv-x="647" 
d="M154.5 -185.5q-62.5 19.5 -116.5 67.5l76 118q37 -28 73 -40t89 -12q131 0 131 103v22q-54 -52 -144 -52q-62 0 -111.5 27.5t-77.5 80t-28 122.5q0 71 30.5 126t81.5 85t112 30q92 0 153 -63q7 36 15 52h143v-422q0 -72 -33.5 -132t-97 -96t-150.5 -36q-83 0 -145.5 19.5
zM379.5 181.5q27.5 23.5 27.5 64.5v2q0 52 -28.5 74.5t-66.5 22.5q-36 0 -63 -22t-27 -70q0 -47 26 -71t61 -24q43 0 70.5 23.5zM219.5 573.5q-48.5 29.5 -84.5 86.5l80 60q27 -39 51.5 -54t57.5 -15t57.5 15t51.5 54l80 -60q-36 -57 -84.5 -86.5t-104.5 -29.5t-104.5 29.5z
" />
    <glyph glyph-name="gcircumflex.ss01" horiz-adv-x="647" 
d="M154.5 -185.5q-62.5 19.5 -116.5 67.5l76 118q37 -28 73 -40t89 -12q131 0 131 103v22q-54 -52 -144 -52q-62 0 -111.5 27.5t-77.5 80t-28 122.5q0 71 30.5 126t81.5 85t112 30q92 0 153 -63q7 36 15 52h143v-422q0 -72 -33.5 -132t-97 -96t-150.5 -36q-83 0 -145.5 19.5
zM379.5 181.5q27.5 23.5 27.5 64.5v2q0 52 -28.5 74.5t-66.5 22.5q-36 0 -63 -22t-27 -70q0 -47 26 -71t61 -24q43 0 70.5 23.5zM277 710q22 19 48 19t48 -19l132 -110l-58 -69l-123 88l-124 -88l-58 70z" />
    <glyph glyph-name="uni0123.ss01" horiz-adv-x="647" 
d="M154.5 -185.5q-62.5 19.5 -116.5 67.5l76 118q37 -28 73 -40t89 -12q131 0 131 103v22q-54 -52 -144 -52q-62 0 -111.5 27.5t-77.5 80t-28 122.5q0 71 30.5 126t81.5 85t112 30q92 0 153 -63q7 36 15 52h143v-422q0 -72 -33.5 -132t-97 -96t-150.5 -36q-83 0 -145.5 19.5
zM379.5 181.5q27.5 23.5 27.5 64.5v2q0 52 -28.5 74.5t-66.5 22.5q-36 0 -63 -22t-27 -70q0 -47 26 -71t61 -24q43 0 70.5 23.5zM289 678.5q39 53.5 107 86.5l64 -67q-44 -31 -64 -61.5t-20 -80.5h-126q0 69 39 122.5z" />
    <glyph glyph-name="gdotaccent.ss01" horiz-adv-x="647" 
d="M154.5 -185.5q-62.5 19.5 -116.5 67.5l76 118q37 -28 73 -40t89 -12q131 0 131 103v22q-54 -52 -144 -52q-62 0 -111.5 27.5t-77.5 80t-28 122.5q0 71 30.5 126t81.5 85t112 30q92 0 153 -63q7 36 15 52h143v-422q0 -72 -33.5 -132t-97 -96t-150.5 -36q-83 0 -145.5 19.5
zM379.5 181.5q27.5 23.5 27.5 64.5v2q0 52 -28.5 74.5t-66.5 22.5q-36 0 -63 -22t-27 -70q0 -47 26 -71t61 -24q43 0 70.5 23.5zM252.5 550q-25.5 24 -25.5 62q0 36 26 60.5t70 24.5t70.5 -24.5t26.5 -60.5q0 -38 -26.5 -62t-71.5 -24q-44 0 -69.5 24z" />
    <glyph glyph-name="k.ss01" horiz-adv-x="609" 
d="M237 674v-350h73l96 157h183l-135 -221l150 -260h-192l-99 184h-76v-184h-171v674h171z" />
    <glyph glyph-name="uni0137.ss01" horiz-adv-x="609" 
d="M237 674v-350h73l96 157h183l-135 -221l150 -260h-192l-99 184h-76v-184h-171v674h171zM229 -124.5q20 30.5 20 80.5h126q0 -69 -39 -122.5t-107 -86.5l-64 67q44 31 64 61.5z" />
    <glyph glyph-name="kgreenlandic.ss01" horiz-adv-x="609" 
d="M237 481v-173h73l96 173h183l-135 -237l150 -244h-192l-99 168h-76v-168h-171v481h171z" />
    <glyph glyph-name="y.ss01" horiz-adv-x="602" 
d="M11 481h193l99 -293l92 293h193l-278 -675h-173l78 202z" />
    <glyph glyph-name="yacute.ss01" horiz-adv-x="602" 
d="M11 481h193l99 -293l92 293h193l-278 -675h-173l78 202zM425 738l54 -104l-253 -108l-48 90z" />
    <glyph glyph-name="ycircumflex.ss01" horiz-adv-x="602" 
d="M11 481h193l99 -293l92 293h193l-278 -675h-173l78 202zM254 710q22 19 48 19t48 -19l132 -110l-58 -69l-123 88l-124 -88l-58 70z" />
    <glyph glyph-name="ydieresis.ss01" horiz-adv-x="602" 
d="M11 481h193l99 -293l92 293h193l-278 -675h-173l78 202zM123.5 552q-23.5 23 -23.5 59q0 34 24 57.5t64 23.5t64 -23.5t24 -57.5q0 -36 -24 -59t-65 -23q-40 0 -63.5 23zM349.5 552q-23.5 23 -23.5 59q0 34 24 57.5t63 23.5q41 0 65 -23.5t24 -57.5q0 -36 -24 -59
t-65 -23q-40 0 -63.5 23z" />
    <glyph glyph-name="ygrave.ss01" horiz-adv-x="602" 
d="M11 481h193l99 -293l92 293h193l-278 -675h-173l78 202zM177 738l247 -122l-48 -90l-253 108z" />
    <glyph glyph-name="ordfeminine" unicode="&#xaa;" horiz-adv-x="439" 
d="M57 290.5q-32 33.5 -32 78.5q0 44 36.5 77.5t112.5 33.5q50 0 96 -13v2q0 30 -19.5 46.5t-54.5 16.5q-29 0 -52.5 -6.5t-49.5 -25.5l-58 74q41 32 83.5 46t96.5 14q81 0 129.5 -44.5t48.5 -137.5v-187h-99q-10 21 -12 49q-46 -57 -123 -57q-71 0 -103 33.5zM261 392l2 5
q-32 9 -65 9q-52 0 -52 -30q0 -13 11 -21t30 -8q56 0 74 45z" />
    <glyph glyph-name="ordmasculine" unicode="&#xba;" horiz-adv-x="477" 
d="M131 282.5q-46 25.5 -70.5 69t-24.5 95.5q0 49 25 92t71.5 69t106.5 26q62 0 108 -25t70 -68t24 -94q0 -50 -25 -93.5t-71 -70t-106 -26.5q-62 0 -108 25.5zM291.5 392q16.5 23 16.5 55q0 30 -16 52.5t-52 22.5q-37 0 -54 -22.5t-17 -52.5q0 -32 17 -55t53 -23t52.5 23z
" />
    <glyph glyph-name="ordfeminine.ss01" horiz-adv-x="489" 
d="M82 311.5q-46 53.5 -46 135.5t48 133.5t129 51.5q71 0 115 -46q3 26 11 38h108v-358h-107q-9 18 -12 44q-52 -52 -122 -52q-78 0 -124 53.5zM296.5 387q20.5 19 20.5 51v9q0 41 -20.5 58.5t-53.5 17.5q-32 0 -54 -17t-22 -59q0 -41 21 -60t52 -19q36 0 56.5 19z" />
    <glyph glyph-name="uni0394" unicode="&#x394;" horiz-adv-x="687" 
d="M240 624h205l195 -503v-121h-596v121zM340 489l-116 -341h232z" />
    <glyph glyph-name="uni03A9" unicode="&#x3a9;" horiz-adv-x="732" 
d="M139 144q-95 84 -95 208q0 80 42.5 144.5t116.5 101t163 36.5q96 0 169.5 -37.5t113.5 -102t40 -142.5q0 -124 -95 -208h98v-144h-289v144q105 59 105 181q0 66 -39 105.5t-101 39.5t-102.5 -39.5t-40.5 -105.5q0 -122 105 -181v-144h-289v144h98z" />
    <glyph glyph-name="uni03BC" unicode="&#x3bc;" horiz-adv-x="625" 
d="M240 481v-270q0 -73 61 -73q40 0 62 31.5t22 97.5v214h176v-481h-145q-9 17 -14 48q-48 -59 -118 -59q-23 0 -44 6v-189h-176v675h176z" />
    <glyph glyph-name="pi" unicode="&#x3c0;" horiz-adv-x="728" 
d="M406 195v142h-122v-337h-176v337h-90v144h654v-144h-90v-150q0 -24 10.5 -38t28.5 -14q15 0 25 3.5t22 12.5l60 -108q-30 -29 -66 -41.5t-86 -12.5q-170 0 -170 206z" />
    <glyph glyph-name="zero" unicode="0" 
d="M95.5 75.5q-64.5 86.5 -64.5 232.5q0 92 29.5 163.5t87.5 112t142 40.5q129 0 194 -86t65 -230q0 -92 -29 -164.5t-87.5 -113.5t-142.5 -41q-130 0 -194.5 86.5zM352 191.5q20 38.5 20 115.5q0 78 -18.5 115.5t-61.5 37.5q-44 0 -64 -38t-20 -115q0 -78 19 -116t62 -38
t63 38.5z" />
    <glyph glyph-name="one" unicode="1" 
d="M249 151v291l-156 -75l-61 132l228 115h168v-463h124v-151h-471v151h168z" />
    <glyph glyph-name="two" unicode="2" 
d="M216 260q72 60 101 90.5t29 58.5q0 26 -18 41.5t-49 15.5q-39 0 -70 -15.5t-67 -65.5l-115 81q45 77 114 117.5t154 40.5q60 0 112 -21.5t84 -67.5t32 -115q0 -44 -18 -79.5t-47.5 -65t-77.5 -68.5l-71 -57h220v-150h-477v125z" />
    <glyph glyph-name="three" unicode="3" 
d="M135.5 25q-68.5 36 -115.5 112l112 81q38 -49 78.5 -65.5t85.5 -16.5q35 0 56 15.5t21 37.5q0 57 -77 57h-92v128h99q59 0 59 49q0 26 -20 40t-55 14q-43 0 -76.5 -14.5t-71.5 -63.5l-112 80q89 145 270 145q106 0 167 -51.5t61 -137.5q0 -42 -19.5 -73t-53.5 -50
q39 -25 61.5 -60.5t22.5 -81.5q0 -54 -28.5 -95t-81 -63.5t-123.5 -22.5q-99 0 -167.5 36z" />
    <glyph glyph-name="four" unicode="4" 
d="M29 129v144l268 365l128 -71l-223 -299h130v118h148v-118h72v-139h-72v-129h-154v129h-297z" />
    <glyph glyph-name="five" unicode="5" 
d="M137 17.5q-65 28.5 -110 102.5l112 87q28 -39 61.5 -51t78.5 -12q31 0 50.5 16t19.5 41q0 35 -27 48.5t-88 13.5h-165l42 351h374v-143h-247l-8 -80h64q108 0 168 -53t60 -150q0 -64 -32.5 -109t-85 -67.5t-111.5 -22.5q-91 0 -156 28.5z" />
    <glyph glyph-name="six" unicode="6" 
d="M163 17q-58 28 -90 81t-32 124q0 78 41 150.5t125 150.5l122 114l110 -84l-180 -166q24 11 46 14.5t51 3.5q47 0 91.5 -22t73 -65.5t28.5 -105.5q0 -69 -32 -119.5t-89 -77t-130 -26.5q-77 0 -135 28zM365.5 154.5q24.5 18.5 24.5 52.5t-23 52t-67 18q-43 0 -70 -18.5
t-27 -51.5q0 -35 23.5 -53t67.5 -18q47 0 71.5 18.5z" />
    <glyph glyph-name="seven" unicode="7" 
d="M328 461h-277v153h482v-123l-238 -505l-168 52z" />
    <glyph glyph-name="eight" unicode="8" 
d="M104.5 40.5q-64.5 51.5 -64.5 138.5q0 42 22 78t61 62q-33 25 -51.5 57.5t-18.5 70.5q0 51 29.5 91.5t83 63t123.5 22.5q110 0 173.5 -47.5t63.5 -126.5q0 -37 -18.5 -70t-50.5 -58q40 -26 62.5 -63t22.5 -81q0 -55 -29.5 -98t-86 -67t-135.5 -24q-122 0 -186.5 51.5z
M341 396q18 16 18 44t-18 44t-52 16t-52 -16t-18 -44t18 -44t52 -16t52 16zM352.5 132q21.5 19 21.5 52t-21.5 52t-61.5 19t-61.5 -19t-21.5 -52t21.5 -52t61.5 -19t61.5 19z" />
    <glyph glyph-name="nine" unicode="9" 
d="M324 227q-24 -12 -47 -15.5t-50 -3.5q-47 0 -91 21.5t-72.5 65t-28.5 106.5q0 68 32.5 118.5t89.5 77.5t129 27q77 0 135 -28t90 -81t32 -124q0 -78 -40.5 -151t-123.5 -150l-122 -114l-113 85zM354 354.5q27 18.5 27 51.5q0 35 -23.5 53t-67.5 18q-47 0 -71.5 -18.5
t-24.5 -52.5t23 -52t67 -18q43 0 70 18.5z" />
    <glyph glyph-name="zero.lf" horiz-adv-x="602" 
d="M106.5 75.5q-64.5 86.5 -64.5 232.5q0 92 29.5 163.5t87.5 112t142 40.5q129 0 194 -86t65 -230q0 -92 -29 -164.5t-87.5 -113.5t-142.5 -41q-130 0 -194.5 86.5zM363 191.5q20 38.5 20 115.5q0 78 -18.5 115.5t-61.5 37.5q-44 0 -64 -38t-20 -115q0 -78 19 -116t62 -38
t63 38.5z" />
    <glyph glyph-name="one.lf" horiz-adv-x="563" 
d="M232 151v291l-156 -75l-61 132l228 115h168v-463h124v-151h-471v151h168z" />
    <glyph glyph-name="two.lf" 
d="M216 260q72 60 101 90.5t29 58.5q0 26 -18 41.5t-49 15.5q-39 0 -70 -15.5t-67 -65.5l-115 81q45 77 114 117.5t154 40.5q60 0 112 -21.5t84 -67.5t32 -115q0 -44 -18 -79.5t-47.5 -65t-77.5 -68.5l-71 -57h220v-150h-477v125z" />
    <glyph glyph-name="three.lf" 
d="M135.5 25q-68.5 36 -115.5 112l112 81q38 -49 78.5 -65.5t85.5 -16.5q35 0 56 15.5t21 37.5q0 57 -77 57h-92v128h99q59 0 59 49q0 26 -20 40t-55 14q-43 0 -76.5 -14.5t-71.5 -63.5l-112 80q89 145 270 145q106 0 167 -51.5t61 -137.5q0 -42 -19.5 -73t-53.5 -50
q39 -25 61.5 -60.5t22.5 -81.5q0 -54 -28.5 -95t-81 -63.5t-123.5 -22.5q-99 0 -167.5 36z" />
    <glyph glyph-name="four.lf" horiz-adv-x="590" 
d="M34 129v144l268 365l128 -71l-223 -299h130v118h148v-118h72v-139h-72v-129h-154v129h-297z" />
    <glyph glyph-name="five.lf" 
d="M137 17.5q-65 28.5 -110 102.5l112 87q28 -39 61.5 -51t78.5 -12q31 0 50.5 16t19.5 41q0 35 -27 48.5t-88 13.5h-165l42 351h374v-143h-247l-8 -80h64q108 0 168 -53t60 -150q0 -64 -32.5 -109t-85 -67.5t-111.5 -22.5q-91 0 -156 28.5z" />
    <glyph glyph-name="six.lf" 
d="M163 17q-58 28 -90 81t-32 124q0 78 41 150.5t125 150.5l122 114l110 -84l-180 -166q24 11 46 14.5t51 3.5q47 0 91.5 -22t73 -65.5t28.5 -105.5q0 -69 -32 -119.5t-89 -77t-130 -26.5q-77 0 -135 28zM365.5 154.5q24.5 18.5 24.5 52.5t-23 52t-67 18q-43 0 -70 -18.5
t-27 -51.5q0 -35 23.5 -53t67.5 -18q47 0 71.5 18.5z" />
    <glyph glyph-name="seven.lf" horiz-adv-x="560" 
d="M318 461h-277v153h482v-123l-238 -505l-168 52z" />
    <glyph glyph-name="eight.lf" 
d="M104.5 40.5q-64.5 51.5 -64.5 138.5q0 42 22 78t61 62q-33 25 -51.5 57.5t-18.5 70.5q0 51 29.5 91.5t83 63t123.5 22.5q110 0 173.5 -47.5t63.5 -126.5q0 -37 -18.5 -70t-50.5 -58q40 -26 62.5 -63t22.5 -81q0 -55 -29.5 -98t-86 -67t-135.5 -24q-122 0 -186.5 51.5z
M341 396q18 16 18 44t-18 44t-52 16t-52 -16t-18 -44t18 -44t52 -16t52 16zM352.5 132q21.5 19 21.5 52t-21.5 52t-61.5 19t-61.5 -19t-21.5 -52t21.5 -52t61.5 -19t61.5 19z" />
    <glyph glyph-name="nine.lf" 
d="M324 227q-24 -12 -47 -15.5t-50 -3.5q-47 0 -91 21.5t-72.5 65t-28.5 106.5q0 68 32.5 118.5t89.5 77.5t129 27q77 0 135 -28t90 -81t32 -124q0 -78 -40.5 -151t-123.5 -150l-122 -114l-113 85zM354 354.5q27 18.5 27 51.5q0 35 -23.5 53t-67.5 18q-47 0 -71.5 -18.5
t-24.5 -52.5t23 -52t67 -18q43 0 70 18.5z" />
    <glyph glyph-name="zero.tf" 
d="M95.5 75.5q-64.5 86.5 -64.5 232.5q0 92 29.5 163.5t87.5 112t142 40.5q129 0 194 -86t65 -230q0 -92 -29 -164.5t-87.5 -113.5t-142.5 -41q-130 0 -194.5 86.5zM352 191.5q20 38.5 20 115.5q0 78 -18.5 115.5t-61.5 37.5q-44 0 -64 -38t-20 -115q0 -78 19 -116t62 -38
t63 38.5z" />
    <glyph glyph-name="one.tf" 
d="M249 151v291l-156 -75l-61 132l228 115h168v-463h124v-151h-471v151h168z" />
    <glyph glyph-name="two.tf" 
d="M216 260q72 60 101 90.5t29 58.5q0 26 -18 41.5t-49 15.5q-39 0 -70 -15.5t-67 -65.5l-115 81q45 77 114 117.5t154 40.5q60 0 112 -21.5t84 -67.5t32 -115q0 -44 -18 -79.5t-47.5 -65t-77.5 -68.5l-71 -57h220v-150h-477v125z" />
    <glyph glyph-name="three.tf" 
d="M135.5 25q-68.5 36 -115.5 112l112 81q38 -49 78.5 -65.5t85.5 -16.5q35 0 56 15.5t21 37.5q0 57 -77 57h-92v128h99q59 0 59 49q0 26 -20 40t-55 14q-43 0 -76.5 -14.5t-71.5 -63.5l-112 80q89 145 270 145q106 0 167 -51.5t61 -137.5q0 -42 -19.5 -73t-53.5 -50
q39 -25 61.5 -60.5t22.5 -81.5q0 -54 -28.5 -95t-81 -63.5t-123.5 -22.5q-99 0 -167.5 36z" />
    <glyph glyph-name="four.tf" 
d="M29 129v144l268 365l128 -71l-223 -299h130v118h148v-118h72v-139h-72v-129h-154v129h-297z" />
    <glyph glyph-name="five.tf" 
d="M137 17.5q-65 28.5 -110 102.5l112 87q28 -39 61.5 -51t78.5 -12q31 0 50.5 16t19.5 41q0 35 -27 48.5t-88 13.5h-165l42 351h374v-143h-247l-8 -80h64q108 0 168 -53t60 -150q0 -64 -32.5 -109t-85 -67.5t-111.5 -22.5q-91 0 -156 28.5z" />
    <glyph glyph-name="six.tf" 
d="M163 17q-58 28 -90 81t-32 124q0 78 41 150.5t125 150.5l122 114l110 -84l-180 -166q24 11 46 14.5t51 3.5q47 0 91.5 -22t73 -65.5t28.5 -105.5q0 -69 -32 -119.5t-89 -77t-130 -26.5q-77 0 -135 28zM365.5 154.5q24.5 18.5 24.5 52.5t-23 52t-67 18q-43 0 -70 -18.5
t-27 -51.5q0 -35 23.5 -53t67.5 -18q47 0 71.5 18.5z" />
    <glyph glyph-name="seven.tf" 
d="M328 461h-277v153h482v-123l-238 -505l-168 52z" />
    <glyph glyph-name="eight.tf" 
d="M104.5 40.5q-64.5 51.5 -64.5 138.5q0 42 22 78t61 62q-33 25 -51.5 57.5t-18.5 70.5q0 51 29.5 91.5t83 63t123.5 22.5q110 0 173.5 -47.5t63.5 -126.5q0 -37 -18.5 -70t-50.5 -58q40 -26 62.5 -63t22.5 -81q0 -55 -29.5 -98t-86 -67t-135.5 -24q-122 0 -186.5 51.5z
M341 396q18 16 18 44t-18 44t-52 16t-52 -16t-18 -44t18 -44t52 -16t52 16zM352.5 132q21.5 19 21.5 52t-21.5 52t-61.5 19t-61.5 -19t-21.5 -52t21.5 -52t61.5 -19t61.5 19z" />
    <glyph glyph-name="nine.tf" 
d="M324 227q-24 -12 -47 -15.5t-50 -3.5q-47 0 -91 21.5t-72.5 65t-28.5 106.5q0 68 32.5 118.5t89.5 77.5t129 27q77 0 135 -28t90 -81t32 -124q0 -78 -40.5 -151t-123.5 -150l-122 -114l-113 85zM354 354.5q27 18.5 27 51.5q0 35 -23.5 53t-67.5 18q-47 0 -71.5 -18.5
t-24.5 -52.5t23 -52t67 -18q43 0 70 18.5z" />
    <glyph glyph-name="zero.subs" horiz-adv-x="447" 
d="M88.5 -43.5q-46.5 53.5 -46.5 138.5q0 53 21 96t62 68t98 25q88 0 135 -53t47 -136t-48 -137.5t-134 -54.5q-88 0 -134.5 53.5zM264.5 40q12.5 17 12.5 54t-12 54t-40 17q-29 0 -42 -17.5t-13 -53.5t12 -53.5t41 -17.5t41.5 17z" />
    <glyph glyph-name="one.subs" horiz-adv-x="446" 
d="M193 20v133l-108 -41l-44 97l160 69h120v-258h86v-110h-331v110h117z" />
    <glyph glyph-name="two.subs" horiz-adv-x="446" 
d="M176 72q49 31 68.5 46.5t19.5 29.5q0 27 -43 27q-56 0 -100 -57l-81 59q31 51 81.5 79t108.5 28q67 0 112.5 -28.5t45.5 -89.5q0 -44 -30.5 -76t-83.5 -61l-29 -16h148v-103h-335v88z" />
    <glyph glyph-name="three.subs" horiz-adv-x="447" 
d="M116.5 -72.5q-48.5 24.5 -81.5 73.5l71 56q27 -31 55.5 -40t64.5 -9q29 0 43.5 6t14.5 17q0 21 -44 21h-73v85h70q39 0 39 22q0 11 -15.5 17t-41.5 6q-28 0 -54 -10.5t-53 -39.5l-71 55q32 49 79.5 73t107.5 24q74 0 117.5 -29t43.5 -82q0 -47 -49 -77q26 -16 41.5 -37.5
t15.5 -47.5q0 -50 -45 -79t-119 -29q-68 0 -116.5 24.5z" />
    <glyph glyph-name="four.subs" horiz-adv-x="446" 
d="M43 -15v110l184 199l90 -56l-156 -159h99v60h97v-60h50v-94h-50v-75h-106v75h-208z" />
    <glyph glyph-name="five.subs" horiz-adv-x="446" 
d="M121.5 -78q-45.5 19 -77.5 65l68 59q37 -40 104 -40q49 0 49 29q0 17 -16.5 23.5t-59.5 6.5h-118l27 213h260v-96h-176l-4 -36h51q75 0 115 -30t40 -89q0 -57 -46 -90.5t-110 -33.5q-61 0 -106.5 19z" />
    <glyph glyph-name="six.subs" horiz-adv-x="446" 
d="M99.5 -56.5q-48.5 40.5 -48.5 111.5q0 61 28 106t101 90l79 49l74 -66l-158 -94l1 -2q44 18 98 18q50 0 89 -30.5t39 -87.5q0 -62 -50.5 -98.5t-122.5 -36.5q-81 0 -129.5 40.5zM291 39q0 31 -63 31t-63 -31t63 -31t63 31z" />
    <glyph glyph-name="seven.subs" horiz-adv-x="446" 
d="M245 164h-190v114h339v-87l-166 -291l-123 42z" />
    <glyph glyph-name="eight.subs" horiz-adv-x="446" 
d="M94.5 -65q-44.5 32 -45.5 85q0 51 53 82q-44 32 -44 74q0 48 45 78.5t119 30.5q77 0 121 -29.5t44 -77.5q0 -42 -45 -74q26 -15 41 -36.5t15 -48.5q0 -50 -46 -83t-128 -33q-85 0 -129.5 32zM259 151q13 8 13 20t-13 20t-37 8q-23 0 -36 -7.5t-13 -19.5q0 -13 13 -21
t36 -8q24 0 37 8zM266 3q14 8 14 21t-14 22t-42 9t-42 -8.5t-14 -22.5q0 -29 56 -29q28 0 42 8z" />
    <glyph glyph-name="nine.subs" horiz-adv-x="446" 
d="M266 42l-1 2q-23 -8 -43.5 -10.5t-46.5 -2.5q-50 0 -89 30.5t-39 87.5q0 62 50.5 98.5t122.5 36.5q81 0 129.5 -40.5t48.5 -111.5q0 -61 -28 -106t-101 -90l-79 -49l-74 66zM284 148q0 31 -63 31t-63 -31t63 -31t63 31z" />
    <glyph glyph-name="zero.dnom" horiz-adv-x="447" 
d="M88.5 46.5q-46.5 53.5 -46.5 138.5q0 53 21 96t62 68t98 25q88 0 135 -53t47 -136t-48 -137.5t-134 -54.5q-88 0 -134.5 53.5zM264.5 130q12.5 17 12.5 54t-12 54t-40 17q-29 0 -42 -17.5t-13 -53.5t12 -53.5t41 -17.5t41.5 17z" />
    <glyph glyph-name="one.dnom" horiz-adv-x="446" 
d="M193 110v133l-108 -41l-44 97l160 69h120v-258h86v-110h-331v110h117z" />
    <glyph glyph-name="two.dnom" horiz-adv-x="446" 
d="M176 162q49 31 68.5 46.5t19.5 29.5q0 27 -43 27q-56 0 -100 -57l-81 59q31 51 81.5 79t108.5 28q67 0 112.5 -28.5t45.5 -89.5q0 -44 -30.5 -76t-83.5 -61l-29 -16h148v-103h-335v88z" />
    <glyph glyph-name="three.dnom" horiz-adv-x="447" 
d="M116.5 17.5q-48.5 24.5 -81.5 73.5l71 56q27 -31 55.5 -40t64.5 -9q29 0 43.5 6t14.5 17q0 21 -44 21h-73v85h70q39 0 39 22q0 11 -15.5 17t-41.5 6q-28 0 -54 -10.5t-53 -39.5l-71 55q32 49 79.5 73t107.5 24q74 0 117.5 -29t43.5 -82q0 -47 -49 -77q26 -16 41.5 -37.5
t15.5 -47.5q0 -50 -45 -79t-119 -29q-68 0 -116.5 24.5z" />
    <glyph glyph-name="four.dnom" horiz-adv-x="446" 
d="M43 75v110l184 199l90 -56l-156 -159h99v60h97v-60h50v-94h-50v-75h-106v75h-208z" />
    <glyph glyph-name="five.dnom" horiz-adv-x="446" 
d="M121.5 12q-45.5 19 -77.5 65l68 59q37 -40 104 -40q49 0 49 29q0 17 -16.5 23.5t-59.5 6.5h-118l27 213h260v-96h-176l-4 -36h51q75 0 115 -30t40 -89q0 -57 -46 -90.5t-110 -33.5q-61 0 -106.5 19z" />
    <glyph glyph-name="six.dnom" horiz-adv-x="446" 
d="M99.5 33.5q-48.5 40.5 -48.5 111.5q0 61 28 106t101 90l79 49l74 -66l-158 -94l1 -2q44 18 98 18q50 0 89 -30.5t39 -87.5q0 -62 -50.5 -98.5t-122.5 -36.5q-81 0 -129.5 40.5zM291 129q0 31 -63 31t-63 -31t63 -31t63 31z" />
    <glyph glyph-name="seven.dnom" horiz-adv-x="446" 
d="M245 254h-190v114h339v-87l-166 -291l-123 42z" />
    <glyph glyph-name="eight.dnom" horiz-adv-x="446" 
d="M94.5 25q-44.5 32 -45.5 85q0 51 53 82q-44 32 -44 74q0 48 45 78.5t119 30.5q77 0 121 -29.5t44 -77.5q0 -42 -45 -74q26 -15 41 -36.5t15 -48.5q0 -50 -46 -83t-128 -33q-85 0 -129.5 32zM259 241q13 8 13 20t-13 20t-37 8q-23 0 -36 -7.5t-13 -19.5q0 -13 13 -21
t36 -8q24 0 37 8zM266 93q14 8 14 21t-14 22t-42 9t-42 -8.5t-14 -22.5q0 -29 56 -29q28 0 42 8z" />
    <glyph glyph-name="nine.dnom" horiz-adv-x="446" 
d="M266 132l-1 2q-23 -8 -43.5 -10.5t-46.5 -2.5q-50 0 -89 30.5t-39 87.5q0 62 50.5 98.5t122.5 36.5q81 0 129.5 -40.5t48.5 -111.5q0 -61 -28 -106t-101 -90l-79 -49l-74 66zM284 238q0 31 -63 31t-63 -31t63 -31t63 31z" />
    <glyph glyph-name="zero.numr" horiz-adv-x="447" 
d="M88.5 296.5q-46.5 53.5 -46.5 138.5q0 53 21 96t62 68t98 25q88 0 135 -53t47 -136t-48 -137.5t-134 -54.5q-88 0 -134.5 53.5zM264.5 380q12.5 17 12.5 54t-12 54t-40 17q-29 0 -42 -17.5t-13 -53.5t12 -53.5t41 -17.5t41.5 17z" />
    <glyph glyph-name="one.numr" horiz-adv-x="446" 
d="M193 360v133l-108 -41l-44 97l160 69h120v-258h86v-110h-331v110h117z" />
    <glyph glyph-name="two.numr" horiz-adv-x="446" 
d="M176 412q49 31 68.5 46.5t19.5 29.5q0 27 -43 27q-56 0 -100 -57l-81 59q31 51 81.5 79t108.5 28q67 0 112.5 -28.5t45.5 -89.5q0 -44 -30.5 -76t-83.5 -61l-29 -16h148v-103h-335v88z" />
    <glyph glyph-name="three.numr" horiz-adv-x="447" 
d="M116.5 267.5q-48.5 24.5 -81.5 73.5l71 56q27 -31 55.5 -40t64.5 -9q29 0 43.5 6t14.5 17q0 21 -44 21h-73v85h70q39 0 39 22q0 11 -15.5 17t-41.5 6q-28 0 -54 -10.5t-53 -39.5l-71 55q32 49 79.5 73t107.5 24q74 0 117.5 -29t43.5 -82q0 -47 -49 -77q26 -16 41.5 -37.5
t15.5 -47.5q0 -50 -45 -79t-119 -29q-68 0 -116.5 24.5z" />
    <glyph glyph-name="four.numr" horiz-adv-x="446" 
d="M43 325v110l184 199l90 -56l-156 -159h99v60h97v-60h50v-94h-50v-75h-106v75h-208z" />
    <glyph glyph-name="five.numr" horiz-adv-x="446" 
d="M121.5 262q-45.5 19 -77.5 65l68 59q37 -40 104 -40q49 0 49 29q0 17 -16.5 23.5t-59.5 6.5h-118l27 213h260v-96h-176l-4 -36h51q75 0 115 -30t40 -89q0 -57 -46 -90.5t-110 -33.5q-61 0 -106.5 19z" />
    <glyph glyph-name="six.numr" horiz-adv-x="446" 
d="M99.5 283.5q-48.5 40.5 -48.5 111.5q0 61 28 106t101 90l79 49l74 -66l-158 -94l1 -2q44 18 98 18q50 0 89 -30.5t39 -87.5q0 -62 -50.5 -98.5t-122.5 -36.5q-81 0 -129.5 40.5zM291 379q0 31 -63 31t-63 -31t63 -31t63 31z" />
    <glyph glyph-name="seven.numr" horiz-adv-x="446" 
d="M245 504h-190v114h339v-87l-166 -291l-123 42z" />
    <glyph glyph-name="eight.numr" horiz-adv-x="446" 
d="M94.5 275q-44.5 32 -45.5 85q0 51 53 82q-44 32 -44 74q0 48 45 78.5t119 30.5q77 0 121 -29.5t44 -77.5q0 -42 -45 -74q26 -15 41 -36.5t15 -48.5q0 -50 -46 -83t-128 -33q-85 0 -129.5 32zM259 491q13 8 13 20t-13 20t-37 8q-23 0 -36 -7.5t-13 -19.5q0 -13 13 -21
t36 -8q24 0 37 8zM266 343q14 8 14 21t-14 22t-42 9t-42 -8.5t-14 -22.5q0 -29 56 -29q28 0 42 8z" />
    <glyph glyph-name="nine.numr" horiz-adv-x="446" 
d="M266 382l-1 2q-23 -8 -43.5 -10.5t-46.5 -2.5q-50 0 -89 30.5t-39 87.5q0 62 50.5 98.5t122.5 36.5q81 0 129.5 -40.5t48.5 -111.5q0 -61 -28 -106t-101 -90l-79 -49l-74 66zM284 488q0 31 -63 31t-63 -31t63 -31t63 31z" />
    <glyph glyph-name="uni2070" unicode="&#x2070;" horiz-adv-x="447" 
d="M88.5 296.5q-46.5 53.5 -46.5 138.5q0 53 21 96t62 68t98 25q88 0 135 -53t47 -136t-48 -137.5t-134 -54.5q-88 0 -134.5 53.5zM264.5 380q12.5 17 12.5 54t-12 54t-40 17q-29 0 -42 -17.5t-13 -53.5t12 -53.5t41 -17.5t41.5 17z" />
    <glyph glyph-name="uni00B9" unicode="&#xb9;" horiz-adv-x="446" 
d="M193 360v133l-108 -41l-44 97l160 69h120v-258h86v-110h-331v110h117z" />
    <glyph glyph-name="uni00B2" unicode="&#xb2;" horiz-adv-x="446" 
d="M176 412q49 31 68.5 46.5t19.5 29.5q0 27 -43 27q-56 0 -100 -57l-81 59q31 51 81.5 79t108.5 28q67 0 112.5 -28.5t45.5 -89.5q0 -44 -30.5 -76t-83.5 -61l-29 -16h148v-103h-335v88z" />
    <glyph glyph-name="uni00B3" unicode="&#xb3;" horiz-adv-x="447" 
d="M116.5 267.5q-48.5 24.5 -81.5 73.5l71 56q27 -31 55.5 -40t64.5 -9q29 0 43.5 6t14.5 17q0 21 -44 21h-73v85h70q39 0 39 22q0 11 -15.5 17t-41.5 6q-28 0 -54 -10.5t-53 -39.5l-71 55q32 49 79.5 73t107.5 24q74 0 117.5 -29t43.5 -82q0 -47 -49 -77q26 -16 41.5 -37.5
t15.5 -47.5q0 -50 -45 -79t-119 -29q-68 0 -116.5 24.5z" />
    <glyph glyph-name="uni2074" unicode="&#x2074;" horiz-adv-x="446" 
d="M43 325v110l184 199l90 -56l-156 -159h99v60h97v-60h50v-94h-50v-75h-106v75h-208z" />
    <glyph glyph-name="uni2075" unicode="&#x2075;" horiz-adv-x="446" 
d="M121.5 262q-45.5 19 -77.5 65l68 59q37 -40 104 -40q49 0 49 29q0 17 -16.5 23.5t-59.5 6.5h-118l27 213h260v-96h-176l-4 -36h51q75 0 115 -30t40 -89q0 -57 -46 -90.5t-110 -33.5q-61 0 -106.5 19z" />
    <glyph glyph-name="uni2076" unicode="&#x2076;" horiz-adv-x="446" 
d="M99.5 283.5q-48.5 40.5 -48.5 111.5q0 61 28 106t101 90l79 49l74 -66l-158 -94l1 -2q44 18 98 18q50 0 89 -30.5t39 -87.5q0 -62 -50.5 -98.5t-122.5 -36.5q-81 0 -129.5 40.5zM291 379q0 31 -63 31t-63 -31t63 -31t63 31z" />
    <glyph glyph-name="uni2077" unicode="&#x2077;" horiz-adv-x="446" 
d="M245 504h-190v114h339v-87l-166 -291l-123 42z" />
    <glyph glyph-name="uni2078" unicode="&#x2078;" horiz-adv-x="446" 
d="M94.5 275q-44.5 32 -45.5 85q0 51 53 82q-44 32 -44 74q0 48 45 78.5t119 30.5q77 0 121 -29.5t44 -77.5q0 -42 -45 -74q26 -15 41 -36.5t15 -48.5q0 -50 -46 -83t-128 -33q-85 0 -129.5 32zM259 491q13 8 13 20t-13 20t-37 8q-23 0 -36 -7.5t-13 -19.5q0 -13 13 -21
t36 -8q24 0 37 8zM266 343q14 8 14 21t-14 22t-42 9t-42 -8.5t-14 -22.5q0 -29 56 -29q28 0 42 8z" />
    <glyph glyph-name="uni2079" unicode="&#x2079;" horiz-adv-x="446" 
d="M266 382l-1 2q-23 -8 -43.5 -10.5t-46.5 -2.5q-50 0 -89 30.5t-39 87.5q0 62 50.5 98.5t122.5 36.5q81 0 129.5 -40.5t48.5 -111.5q0 -61 -28 -106t-101 -90l-79 -49l-74 66zM284 488q0 31 -63 31t-63 -31t63 -31t63 31z" />
    <glyph glyph-name="zero.sups" horiz-adv-x="447" 
d="M88.5 396.5q-46.5 53.5 -46.5 138.5q0 53 21 96t62 68t98 25q88 0 135 -53t47 -136t-48 -137.5t-134 -54.5q-88 0 -134.5 53.5zM264.5 480q12.5 17 12.5 54t-12 54t-40 17q-29 0 -42 -17.5t-13 -53.5t12 -53.5t41 -17.5t41.5 17z" />
    <glyph glyph-name="one.sups" horiz-adv-x="446" 
d="M193 460v133l-108 -41l-44 97l160 69h120v-258h86v-110h-331v110h117z" />
    <glyph glyph-name="two.sups" horiz-adv-x="446" 
d="M176 512q49 31 68.5 46.5t19.5 29.5q0 27 -43 27q-56 0 -100 -57l-81 59q31 51 81.5 79t108.5 28q67 0 112.5 -28.5t45.5 -89.5q0 -44 -30.5 -76t-83.5 -61l-29 -16h148v-103h-335v88z" />
    <glyph glyph-name="three.sups" horiz-adv-x="447" 
d="M116.5 367.5q-48.5 24.5 -81.5 73.5l71 56q27 -31 55.5 -40t64.5 -9q29 0 43.5 6t14.5 17q0 21 -44 21h-73v85h70q39 0 39 22q0 11 -15.5 17t-41.5 6q-28 0 -54 -10.5t-53 -39.5l-71 55q32 49 79.5 73t107.5 24q74 0 117.5 -29t43.5 -82q0 -47 -49 -77q26 -16 41.5 -37.5
t15.5 -47.5q0 -50 -45 -79t-119 -29q-68 0 -116.5 24.5z" />
    <glyph glyph-name="four.sups" horiz-adv-x="446" 
d="M43 425v110l184 199l90 -56l-156 -159h99v60h97v-60h50v-94h-50v-75h-106v75h-208z" />
    <glyph glyph-name="five.sups" horiz-adv-x="446" 
d="M121.5 362q-45.5 19 -77.5 65l68 59q37 -40 104 -40q49 0 49 29q0 17 -16.5 23.5t-59.5 6.5h-118l27 213h260v-96h-176l-4 -36h51q75 0 115 -30t40 -89q0 -57 -46 -90.5t-110 -33.5q-61 0 -106.5 19z" />
    <glyph glyph-name="six.sups" horiz-adv-x="446" 
d="M99.5 383.5q-48.5 40.5 -48.5 111.5q0 61 28 106t101 90l79 49l74 -66l-158 -94l1 -2q44 18 98 18q50 0 89 -30.5t39 -87.5q0 -62 -50.5 -98.5t-122.5 -36.5q-81 0 -129.5 40.5zM291 479q0 31 -63 31t-63 -31t63 -31t63 31z" />
    <glyph glyph-name="seven.sups" horiz-adv-x="446" 
d="M245 604h-190v114h339v-87l-166 -291l-123 42z" />
    <glyph glyph-name="eight.sups" horiz-adv-x="446" 
d="M94.5 375q-44.5 32 -45.5 85q0 51 53 82q-44 32 -44 74q0 48 45 78.5t119 30.5q77 0 121 -29.5t44 -77.5q0 -42 -45 -74q26 -15 41 -36.5t15 -48.5q0 -50 -46 -83t-128 -33q-85 0 -129.5 32zM259 591q13 8 13 20t-13 20t-37 8q-23 0 -36 -7.5t-13 -19.5q0 -13 13 -21
t36 -8q24 0 37 8zM266 443q14 8 14 21t-14 22t-42 9t-42 -8.5t-14 -22.5q0 -29 56 -29q28 0 42 8z" />
    <glyph glyph-name="nine.sups" horiz-adv-x="446" 
d="M266 482l-1 2q-23 -8 -43.5 -10.5t-46.5 -2.5q-50 0 -89 30.5t-39 87.5q0 62 50.5 98.5t122.5 36.5q81 0 129.5 -40.5t48.5 -111.5q0 -61 -28 -106t-101 -90l-79 -49l-74 66zM284 588q0 31 -63 31t-63 -31t63 -31t63 31z" />
    <glyph glyph-name="fraction" unicode="&#x2044;" horiz-adv-x="222" 
d="M301 693l105 -68l-485 -699l-105 68z" />
    <glyph glyph-name="onehalf" unicode="&#xbd;" horiz-adv-x="1114" 
d="M193 360v133l-108 -41l-44 97l160 69h120v-258h86v-110h-331v110h117zM767 693l105 -68l-485 -699l-105 68zM844 162q49 31 68.5 46.5t19.5 29.5q0 27 -43 27q-56 0 -100 -57l-81 59q31 51 81.5 79t108.5 28q67 0 112.5 -28.5t45.5 -89.5q0 -44 -30.5 -76t-83.5 -61
l-29 -16h148v-103h-335v88z" />
    <glyph glyph-name="uni2153" unicode="&#x2153;" horiz-adv-x="1115" 
d="M193 360v133l-108 -41l-44 97l160 69h120v-258h86v-110h-331v110h117zM764 693l105 -68l-485 -699l-105 68zM784.5 17.5q-48.5 24.5 -81.5 73.5l71 56q27 -31 55.5 -40t64.5 -9q29 0 43.5 6t14.5 17q0 21 -44 21h-73v85h70q39 0 39 22q0 11 -15.5 17t-41.5 6
q-28 0 -54 -10.5t-53 -39.5l-71 55q32 49 79.5 73t107.5 24q74 0 117.5 -29t43.5 -82q0 -47 -49 -77q26 -16 41.5 -37.5t15.5 -47.5q0 -50 -45 -79t-119 -29q-68 0 -116.5 24.5z" />
    <glyph glyph-name="uni2154" unicode="&#x2154;" horiz-adv-x="1115" 
d="M176 412q49 31 68.5 46.5t19.5 29.5q0 27 -43 27q-56 0 -100 -57l-81 59q31 51 81.5 79t108.5 28q67 0 112.5 -28.5t45.5 -89.5q0 -44 -30.5 -76t-83.5 -61l-29 -16h148v-103h-335v88zM764 693l105 -68l-485 -699l-105 68zM784.5 17.5q-48.5 24.5 -81.5 73.5l71 56
q27 -31 55.5 -40t64.5 -9q29 0 43.5 6t14.5 17q0 21 -44 21h-73v85h70q39 0 39 22q0 11 -15.5 17t-41.5 6q-28 0 -54 -10.5t-53 -39.5l-71 55q32 49 79.5 73t107.5 24q74 0 117.5 -29t43.5 -82q0 -47 -49 -77q26 -16 41.5 -37.5t15.5 -47.5q0 -50 -45 -79t-119 -29
q-68 0 -116.5 24.5z" />
    <glyph glyph-name="onequarter" unicode="&#xbc;" horiz-adv-x="1114" 
d="M193 360v133l-108 -41l-44 97l160 69h120v-258h86v-110h-331v110h117zM767 693l105 -68l-485 -699l-105 68zM711 75v110l184 199l90 -56l-156 -159h99v60h97v-60h50v-94h-50v-75h-106v75h-208z" />
    <glyph glyph-name="threequarters" unicode="&#xbe;" horiz-adv-x="1115" 
d="M116.5 267.5q-48.5 24.5 -81.5 73.5l71 56q27 -31 55.5 -40t64.5 -9q29 0 43.5 6t14.5 17q0 21 -44 21h-73v85h70q39 0 39 22q0 11 -15.5 17t-41.5 6q-28 0 -54 -10.5t-53 -39.5l-71 55q32 49 79.5 73t107.5 24q74 0 117.5 -29t43.5 -82q0 -47 -49 -77q26 -16 41.5 -37.5
t15.5 -47.5q0 -50 -45 -79t-119 -29q-68 0 -116.5 24.5zM767 693l105 -68l-485 -699l-105 68zM712 75v110l184 199l90 -56l-156 -159h99v60h97v-60h50v-94h-50v-75h-106v75h-208z" />
    <glyph glyph-name="uni2155" unicode="&#x2155;" horiz-adv-x="1114" 
d="M193 360v133l-108 -41l-44 97l160 69h120v-258h86v-110h-331v110h117zM747 693l105 -68l-485 -699l-105 68zM789.5 12q-45.5 19 -77.5 65l68 59q37 -40 104 -40q49 0 49 29q0 17 -16.5 23.5t-59.5 6.5h-118l27 213h260v-96h-176l-4 -36h51q75 0 115 -30t40 -89
q0 -57 -46 -90.5t-110 -33.5q-61 0 -106.5 19z" />
    <glyph glyph-name="uni2156" unicode="&#x2156;" horiz-adv-x="1114" 
d="M176 412q49 31 68.5 46.5t19.5 29.5q0 27 -43 27q-56 0 -100 -57l-81 59q31 51 81.5 79t108.5 28q67 0 112.5 -28.5t45.5 -89.5q0 -44 -30.5 -76t-83.5 -61l-29 -16h148v-103h-335v88zM764 693l105 -68l-485 -699l-105 68zM789.5 12q-45.5 19 -77.5 65l68 59
q37 -40 104 -40q49 0 49 29q0 17 -16.5 23.5t-59.5 6.5h-118l27 213h260v-96h-176l-4 -36h51q75 0 115 -30t40 -89q0 -57 -46 -90.5t-110 -33.5q-61 0 -106.5 19z" />
    <glyph glyph-name="uni2157" unicode="&#x2157;" horiz-adv-x="1115" 
d="M116.5 267.5q-48.5 24.5 -81.5 73.5l71 56q27 -31 55.5 -40t64.5 -9q29 0 43.5 6t14.5 17q0 21 -44 21h-73v85h70q39 0 39 22q0 11 -15.5 17t-41.5 6q-28 0 -54 -10.5t-53 -39.5l-71 55q32 49 79.5 73t107.5 24q74 0 117.5 -29t43.5 -82q0 -47 -49 -77q26 -16 41.5 -37.5
t15.5 -47.5q0 -50 -45 -79t-119 -29q-68 0 -116.5 24.5zM748 693l105 -68l-485 -699l-105 68zM790.5 12q-45.5 19 -77.5 65l68 59q37 -40 104 -40q49 0 49 29q0 17 -16.5 23.5t-59.5 6.5h-118l27 213h260v-96h-176l-4 -36h51q75 0 115 -30t40 -89q0 -57 -46 -90.5
t-110 -33.5q-61 0 -106.5 19z" />
    <glyph glyph-name="uni2158" unicode="&#x2158;" horiz-adv-x="1114" 
d="M43 325v110l184 199l90 -56l-156 -159h99v60h97v-60h50v-94h-50v-75h-106v75h-208zM747 693l105 -68l-485 -699l-105 68zM789.5 12q-45.5 19 -77.5 65l68 59q37 -40 104 -40q49 0 49 29q0 17 -16.5 23.5t-59.5 6.5h-118l27 213h260v-96h-176l-4 -36h51q75 0 115 -30
t40 -89q0 -57 -46 -90.5t-110 -33.5q-61 0 -106.5 19z" />
    <glyph glyph-name="uni2159" unicode="&#x2159;" horiz-adv-x="1084" 
d="M193 360v133l-108 -41l-44 97l160 69h120v-258h86v-110h-331v110h117zM747 693l105 -68l-485 -699l-105 68zM737.5 33.5q-48.5 40.5 -48.5 111.5q0 61 28 106t101 90l79 49l74 -66l-158 -94l1 -2q44 18 98 18q50 0 89 -30.5t39 -87.5q0 -62 -50.5 -98.5t-122.5 -36.5
q-81 0 -129.5 40.5zM929 129q0 31 -63 31t-63 -31t63 -31t63 31z" />
    <glyph glyph-name="uni215A" unicode="&#x215a;" horiz-adv-x="1084" 
d="M121.5 262q-45.5 19 -77.5 65l68 59q37 -40 104 -40q49 0 49 29q0 17 -16.5 23.5t-59.5 6.5h-118l27 213h260v-96h-176l-4 -36h51q75 0 115 -30t40 -89q0 -57 -46 -90.5t-110 -33.5q-61 0 -106.5 19zM747 693l105 -68l-485 -699l-105 68zM737.5 33.5
q-48.5 40.5 -48.5 111.5q0 61 28 106t101 90l79 49l74 -66l-158 -94l1 -2q44 18 98 18q50 0 89 -30.5t39 -87.5q0 -62 -50.5 -98.5t-122.5 -36.5q-81 0 -129.5 40.5zM929 129q0 31 -63 31t-63 -31t63 -31t63 31z" />
    <glyph glyph-name="uni2150" unicode="&#x2150;" horiz-adv-x="1114" 
d="M193 360v133l-108 -41l-44 97l160 69h120v-258h86v-110h-331v110h117zM747 693l105 -68l-485 -699l-105 68zM913 254h-190v114h339v-87l-166 -291l-123 42z" />
    <glyph glyph-name="two_fraction_seven" horiz-adv-x="1114" 
d="M176 412q49 31 68.5 46.5t19.5 29.5q0 27 -43 27q-56 0 -100 -57l-81 59q31 51 81.5 79t108.5 28q67 0 112.5 -28.5t45.5 -89.5q0 -44 -30.5 -76t-83.5 -61l-29 -16h148v-103h-335v88zM747 693l105 -68l-485 -699l-105 68zM913 254h-190v114h339v-87l-166 -291l-123 42z
" />
    <glyph glyph-name="three_fraction_seven" horiz-adv-x="1115" 
d="M116.5 267.5q-48.5 24.5 -81.5 73.5l71 56q27 -31 55.5 -40t64.5 -9q29 0 43.5 6t14.5 17q0 21 -44 21h-73v85h70q39 0 39 22q0 11 -15.5 17t-41.5 6q-28 0 -54 -10.5t-53 -39.5l-71 55q32 49 79.5 73t107.5 24q74 0 117.5 -29t43.5 -82q0 -47 -49 -77q26 -16 41.5 -37.5
t15.5 -47.5q0 -50 -45 -79t-119 -29q-68 0 -116.5 24.5zM748 693l105 -68l-485 -699l-105 68zM914 254h-190v114h339v-87l-166 -291l-123 42z" />
    <glyph glyph-name="four_fraction_seven" horiz-adv-x="1114" 
d="M43 325v110l184 199l90 -56l-156 -159h99v60h97v-60h50v-94h-50v-75h-106v75h-208zM747 693l105 -68l-485 -699l-105 68zM913 254h-190v114h339v-87l-166 -291l-123 42z" />
    <glyph glyph-name="five_fraction_seven" horiz-adv-x="1114" 
d="M121.5 262q-45.5 19 -77.5 65l68 59q37 -40 104 -40q49 0 49 29q0 17 -16.5 23.5t-59.5 6.5h-118l27 213h260v-96h-176l-4 -36h51q75 0 115 -30t40 -89q0 -57 -46 -90.5t-110 -33.5q-61 0 -106.5 19zM717 693l105 -68l-485 -699l-105 68zM913 254h-190v114h339v-87
l-166 -291l-123 42z" />
    <glyph glyph-name="six_fraction_seven" horiz-adv-x="1114" 
d="M99.5 283.5q-48.5 40.5 -48.5 111.5q0 61 28 106t101 90l79 49l74 -66l-158 -94l1 -2q44 18 98 18q50 0 89 -30.5t39 -87.5q0 -62 -50.5 -98.5t-122.5 -36.5q-81 0 -129.5 40.5zM291 379q0 31 -63 31t-63 -31t63 -31t63 31zM747 693l105 -68l-485 -699l-105 68zM913 254
h-190v114h339v-87l-166 -291l-123 42z" />
    <glyph glyph-name="oneeighth" unicode="&#x215b;" horiz-adv-x="1114" 
d="M193 360v133l-108 -41l-44 97l160 69h120v-258h86v-110h-331v110h117zM747 693l105 -68l-485 -699l-105 68zM762.5 25q-44.5 32 -45.5 85q0 51 53 82q-44 32 -44 74q0 48 45 78.5t119 30.5q77 0 121 -29.5t44 -77.5q0 -42 -45 -74q26 -15 41 -36.5t15 -48.5
q0 -50 -46 -83t-128 -33q-85 0 -129.5 32zM927 241q13 8 13 20t-13 20t-37 8q-23 0 -36 -7.5t-13 -19.5q0 -13 13 -21t36 -8q24 0 37 8zM934 93q14 8 14 21t-14 22t-42 9t-42 -8.5t-14 -22.5q0 -29 56 -29q28 0 42 8z" />
    <glyph glyph-name="threeeighths" unicode="&#x215c;" horiz-adv-x="1115" 
d="M116.5 267.5q-48.5 24.5 -81.5 73.5l71 56q27 -31 55.5 -40t64.5 -9q29 0 43.5 6t14.5 17q0 21 -44 21h-73v85h70q39 0 39 22q0 11 -15.5 17t-41.5 6q-28 0 -54 -10.5t-53 -39.5l-71 55q32 49 79.5 73t107.5 24q74 0 117.5 -29t43.5 -82q0 -47 -49 -77q26 -16 41.5 -37.5
t15.5 -47.5q0 -50 -45 -79t-119 -29q-68 0 -116.5 24.5zM748 693l105 -68l-485 -699l-105 68zM763.5 25q-44.5 32 -45.5 85q0 51 53 82q-44 32 -44 74q0 48 45 78.5t119 30.5q77 0 121 -29.5t44 -77.5q0 -42 -45 -74q26 -15 41 -36.5t15 -48.5q0 -50 -46 -83t-128 -33
q-85 0 -129.5 32zM928 241q13 8 13 20t-13 20t-37 8q-23 0 -36 -7.5t-13 -19.5q0 -13 13 -21t36 -8q24 0 37 8zM935 93q14 8 14 21t-14 22t-42 9t-42 -8.5t-14 -22.5q0 -29 56 -29q28 0 42 8z" />
    <glyph glyph-name="fiveeighths" unicode="&#x215d;" horiz-adv-x="1114" 
d="M121.5 262q-45.5 19 -77.5 65l68 59q37 -40 104 -40q49 0 49 29q0 17 -16.5 23.5t-59.5 6.5h-118l27 213h260v-96h-176l-4 -36h51q75 0 115 -30t40 -89q0 -57 -46 -90.5t-110 -33.5q-61 0 -106.5 19zM747 693l105 -68l-485 -699l-105 68zM762.5 25q-44.5 32 -45.5 85
q0 51 53 82q-44 32 -44 74q0 48 45 78.5t119 30.5q77 0 121 -29.5t44 -77.5q0 -42 -45 -74q26 -15 41 -36.5t15 -48.5q0 -50 -46 -83t-128 -33q-85 0 -129.5 32zM927 241q13 8 13 20t-13 20t-37 8q-23 0 -36 -7.5t-13 -19.5q0 -13 13 -21t36 -8q24 0 37 8zM934 93
q14 8 14 21t-14 22t-42 9t-42 -8.5t-14 -22.5q0 -29 56 -29q28 0 42 8z" />
    <glyph glyph-name="seveneighths" unicode="&#x215e;" horiz-adv-x="1114" 
d="M245 504h-190v114h339v-87l-166 -291l-123 42zM707 693l105 -68l-485 -699l-105 68zM762.5 25q-44.5 32 -45.5 85q0 51 53 82q-44 32 -44 74q0 48 45 78.5t119 30.5q77 0 121 -29.5t44 -77.5q0 -42 -45 -74q26 -15 41 -36.5t15 -48.5q0 -50 -46 -83t-128 -33
q-85 0 -129.5 32zM927 241q13 8 13 20t-13 20t-37 8q-23 0 -36 -7.5t-13 -19.5q0 -13 13 -21t36 -8q24 0 37 8zM934 93q14 8 14 21t-14 22t-42 9t-42 -8.5t-14 -22.5q0 -29 56 -29q28 0 42 8z" />
    <glyph glyph-name="uni2151" unicode="&#x2151;" horiz-adv-x="1114" 
d="M193 360v133l-108 -41l-44 97l160 69h120v-258h86v-110h-331v110h117zM765 693l105 -68l-485 -699l-105 68zM934 132l-1 2q-23 -8 -43.5 -10.5t-46.5 -2.5q-50 0 -89 30.5t-39 87.5q0 62 50.5 98.5t122.5 36.5q81 0 129.5 -40.5t48.5 -111.5q0 -61 -28 -106t-101 -90
l-79 -49l-74 66zM952 238q0 31 -63 31t-63 -31t63 -31t63 31z" />
    <glyph glyph-name="two_fraction_nine" horiz-adv-x="1114" 
d="M176 412q49 31 68.5 46.5t19.5 29.5q0 27 -43 27q-56 0 -100 -57l-81 59q31 51 81.5 79t108.5 28q67 0 112.5 -28.5t45.5 -89.5q0 -44 -30.5 -76t-83.5 -61l-29 -16h148v-103h-335v88zM747 693l105 -68l-485 -699l-105 68zM934 132l-1 2q-23 -8 -43.5 -10.5t-46.5 -2.5
q-50 0 -89 30.5t-39 87.5q0 62 50.5 98.5t122.5 36.5q81 0 129.5 -40.5t48.5 -111.5q0 -61 -28 -106t-101 -90l-79 -49l-74 66zM952 238q0 31 -63 31t-63 -31t63 -31t63 31z" />
    <glyph glyph-name="four_fraction_nine" horiz-adv-x="1114" 
d="M43 325v110l184 199l90 -56l-156 -159h99v60h97v-60h50v-94h-50v-75h-106v75h-208zM747 693l105 -68l-485 -699l-105 68zM934 132l-1 2q-23 -8 -43.5 -10.5t-46.5 -2.5q-50 0 -89 30.5t-39 87.5q0 62 50.5 98.5t122.5 36.5q81 0 129.5 -40.5t48.5 -111.5q0 -61 -28 -106
t-101 -90l-79 -49l-74 66zM952 238q0 31 -63 31t-63 -31t63 -31t63 31z" />
    <glyph glyph-name="five_fraction_nine" horiz-adv-x="1114" 
d="M121.5 262q-45.5 19 -77.5 65l68 59q37 -40 104 -40q49 0 49 29q0 17 -16.5 23.5t-59.5 6.5h-118l27 213h260v-96h-176l-4 -36h51q75 0 115 -30t40 -89q0 -57 -46 -90.5t-110 -33.5q-61 0 -106.5 19zM747 693l105 -68l-485 -699l-105 68zM934 132l-1 2
q-23 -8 -43.5 -10.5t-46.5 -2.5q-50 0 -89 30.5t-39 87.5q0 62 50.5 98.5t122.5 36.5q81 0 129.5 -40.5t48.5 -111.5q0 -61 -28 -106t-101 -90l-79 -49l-74 66zM952 238q0 31 -63 31t-63 -31t63 -31t63 31z" />
    <glyph glyph-name="seven_fraction_nine" horiz-adv-x="1114" 
d="M245 504h-190v114h339v-87l-166 -291l-123 42zM707 693l105 -68l-485 -699l-105 68zM934 132l-1 2q-23 -8 -43.5 -10.5t-46.5 -2.5q-50 0 -89 30.5t-39 87.5q0 62 50.5 98.5t122.5 36.5q81 0 129.5 -40.5t48.5 -111.5q0 -61 -28 -106t-101 -90l-79 -49l-74 66zM952 238
q0 31 -63 31t-63 -31t63 -31t63 31z" />
    <glyph glyph-name="eight_fraction_nine" horiz-adv-x="1114" 
d="M94.5 275q-44.5 32 -45.5 85q0 51 53 82q-44 32 -44 74q0 48 45 78.5t119 30.5q77 0 121 -29.5t44 -77.5q0 -42 -45 -74q26 -15 41 -36.5t15 -48.5q0 -50 -46 -83t-128 -33q-85 0 -129.5 32zM259 491q13 8 13 20t-13 20t-37 8q-23 0 -36 -7.5t-13 -19.5q0 -13 13 -21
t36 -8q24 0 37 8zM266 343q14 8 14 21t-14 22t-42 9t-42 -8.5t-14 -22.5q0 -29 56 -29q28 0 42 8zM747 693l105 -68l-485 -699l-105 68zM934 132l-1 2q-23 -8 -43.5 -10.5t-46.5 -2.5q-50 0 -89 30.5t-39 87.5q0 62 50.5 98.5t122.5 36.5q81 0 129.5 -40.5t48.5 -111.5
q0 -61 -28 -106t-101 -90l-79 -49l-74 66zM952 238q0 31 -63 31t-63 -31t63 -31t63 31z" />
    <glyph glyph-name="period" unicode="." horiz-adv-x="265" 
d="M62.5 15q-26.5 26 -26.5 66t27 66t70 26t69.5 -26t26.5 -66t-27 -66t-70 -26t-69.5 26z" />
    <glyph glyph-name="comma" unicode="," horiz-adv-x="265" 
d="M47 17q25 54 25 140h155q0 -105 -49 -194t-134 -126l-77 96q55 30 80 84z" />
    <glyph glyph-name="colon" unicode=":" horiz-adv-x="265" 
d="M62.5 325q-26.5 26 -26.5 66t27 66t70 26t69.5 -26t26.5 -66t-27 -66t-70 -26t-69.5 26zM62.5 15q-26.5 26 -26.5 66t27 66t70 26t69.5 -26t26.5 -66t-27 -66t-70 -26t-69.5 26z" />
    <glyph glyph-name="semicolon" unicode=";" horiz-adv-x="265" 
d="M77.5 325q-26.5 26 -26.5 66t27 66t70 26t69.5 -26t26.5 -66t-27 -66t-70 -26t-69.5 26zM47 17q25 54 25 140h155q0 -105 -49 -194t-134 -126l-77 96q55 30 80 84z" />
    <glyph glyph-name="ellipsis" unicode="&#x2026;" horiz-adv-x="825" 
d="M622.5 15q-26.5 26 -26.5 66t27 66t70 26t69.5 -26t26.5 -66t-27 -66t-70 -26t-69.5 26zM342.5 15q-26.5 26 -26.5 66t27 66t70 26t69.5 -26t26.5 -66t-27 -66t-70 -26t-69.5 26zM62.5 15q-26.5 26 -26.5 66t27 66t70 26t69.5 -26t26.5 -66t-27 -66t-70 -26t-69.5 26z
" />
    <glyph glyph-name="exclam" unicode="!" horiz-adv-x="309" 
d="M247 624l-13 -405h-160l-13 405h186zM84.5 15q-26.5 26 -26.5 66t27 66t70 26t69.5 -26t26.5 -66t-27 -66t-70 -26t-69.5 26z" />
    <glyph glyph-name="exclamdown" unicode="&#xa1;" horiz-adv-x="309" 
d="M224 466q27 -26 27 -66t-26.5 -66t-69.5 -26t-70 26t-27 66t26.5 66t69.5 26t70 -26zM247 -143h-186l13 405h160z" />
    <glyph glyph-name="question" unicode="?" horiz-adv-x="520" 
d="M192.5 319q19.5 31 68.5 65q24 17 35.5 28.5t11.5 27.5q0 35 -56 35q-39 0 -71.5 -17.5t-51.5 -49.5l-120 94q37 64 104.5 98t151.5 34q71 0 122 -22t77 -60.5t26 -87.5q0 -42 -18.5 -71.5t-52.5 -54.5q-39 -29 -62.5 -56t-23.5 -55v-8h-160v17q0 52 19.5 83zM185.5 15
q-26.5 26 -26.5 66t27 66t70 26t69.5 -26t26.5 -66t-27 -66t-70 -26t-69.5 26z" />
    <glyph glyph-name="questiondown" unicode="&#xbf;" horiz-adv-x="520" 
d="M351.5 457q26.5 -26 26.5 -66t-27 -66t-70 -26t-69.5 26t-26.5 66t27 66t70 26t69.5 -26zM344.5 153q-19.5 -31 -68.5 -65q-24 -17 -35.5 -28.5t-11.5 -27.5q0 -35 56 -35q39 0 71.5 17.5t51.5 49.5l120 -94q-37 -64 -104.5 -98t-151.5 -34q-71 0 -122 22t-77 60.5
t-26 87.5q0 42 18.5 71.5t52.5 54.5q39 29 62.5 56t23.5 55v8h160v-17q0 -52 -19.5 -83z" />
    <glyph glyph-name="periodcentered" unicode="&#xb7;" horiz-adv-x="265" 
d="M62.5 250q-26.5 26 -26.5 66t27 66t70 26t69.5 -26t26.5 -66t-27 -66t-70 -26t-69.5 26z" />
    <glyph glyph-name="bullet" unicode="&#x2022;" horiz-adv-x="440" 
d="M118 221.5q-38 40.5 -38 100.5q0 36 17.5 68.5t49.5 52t74 19.5q64 0 101.5 -40.5t37.5 -99.5q0 -36 -17.5 -68.5t-49 -52.5t-72.5 -20q-65 0 -103 40.5z" />
    <glyph glyph-name="asterisk" unicode="*" horiz-adv-x="460" 
d="M95 307l-60 104l93 43l-93 43l60 104l85 -60l-10 103h120l-10 -103l85 60l60 -104l-93 -43l93 -43l-60 -104l-85 60l10 -103h-120l10 103z" />
    <glyph glyph-name="numbersign" unicode="#" 
d="M22 123v129h78l14 108h-92v129h108l15 114h145l-15 -114h74l15 114h145l-15 -114h62v-129h-78l-14 -108h92v-129h-109l-14 -112h-145l14 112h-74l-14 -112h-145l14 112h-61zM333 360h-74l-14 -108h74z" />
    <glyph glyph-name="slash" unicode="/" horiz-adv-x="548" 
d="M388 748l155 -73l-384 -851l-155 73z" />
    <glyph glyph-name="backslash" unicode="\" horiz-adv-x="548" 
d="M160 748l384 -851l-155 -73l-384 851z" />
    <glyph glyph-name="exclamdown.case" horiz-adv-x="309" 
d="M224 609q27 -26 27 -66t-26.5 -66t-69.5 -26t-70 26t-27 66t26.5 66t69.5 26t70 -26zM247 0h-186l13 405h160z" />
    <glyph glyph-name="questiondown.case" horiz-adv-x="520" 
d="M334.5 600q26.5 -26 26.5 -66t-27 -66t-70 -26t-69.5 26t-26.5 66t27 66t70 26t69.5 -26zM327.5 296q-19.5 -31 -68.5 -65q-24 -17 -35.5 -28.5t-11.5 -27.5q0 -35 56 -35q39 0 71.5 17.5t51.5 49.5l120 -94q-37 -64 -104.5 -98t-151.5 -34q-71 0 -122 22t-77 60.5
t-26 87.5q0 42 18.5 71.5t52.5 54.5q39 29 62.5 56t23.5 55v8h160v-17q0 -52 -19.5 -83z" />
    <glyph glyph-name="bullet.case" horiz-adv-x="440" 
d="M118 221.5q-38 40.5 -38 100.5q0 36 17.5 68.5t49.5 52t74 19.5q64 0 101.5 -40.5t37.5 -99.5q0 -36 -17.5 -68.5t-49 -52.5t-72.5 -20q-65 0 -103 40.5z" />
    <glyph glyph-name="slash.case" horiz-adv-x="548" 
d="M388 768l155 -73l-384 -851l-155 73z" />
    <glyph glyph-name="backslash.case" horiz-adv-x="548" 
d="M160 768l384 -851l-155 -73l-384 851z" />
    <glyph glyph-name="parenleft" unicode="(" horiz-adv-x="386" 
d="M101.5 11q-51.5 117 -51.5 249t51.5 249t149.5 201l125 -93q-51 -59 -81 -106t-47 -107.5t-17 -143.5t17 -143.5t47 -107.5t81 -106l-125 -93q-98 84 -149.5 201z" />
    <glyph glyph-name="parenright" unicode=")" horiz-adv-x="386" 
d="M91 9q30 47 47 107.5t17 143.5t-17 143.5t-47 107.5t-81 106l125 93q98 -84 149.5 -201t51.5 -249t-51.5 -249t-149.5 -201l-125 93q51 59 81 106z" />
    <glyph glyph-name="braceleft" unicode="{" horiz-adv-x="417" 
d="M187.5 -120.5q-72.5 56.5 -72.5 165.5v82q0 33 -19 52t-56 21v120q37 2 56 21t19 52v82q0 109 72.5 165.5t184.5 56.5l40 -144q-64 -2 -96 -31t-32 -80v-69q0 -42 -16.5 -69.5t-56.5 -43.5q40 -16 56.5 -43.5t16.5 -69.5v-69q0 -51 32 -80t96 -31l-40 -144
q-112 0 -184.5 56.5z" />
    <glyph glyph-name="braceright" unicode="}" horiz-adv-x="417" 
d="M101 -2q32 29 32 80v69q0 42 16.5 69.5t56.5 43.5q-40 16 -56.5 43.5t-16.5 69.5v69q0 51 -32 80t-96 31l40 144q112 0 184.5 -56.5t72.5 -165.5v-82q0 -33 19 -52t56 -21v-120q-37 -2 -56 -21t-19 -52v-82q0 -109 -72.5 -165.5t-184.5 -56.5l-40 144q64 2 96 31z" />
    <glyph glyph-name="bracketleft" unicode="[" horiz-adv-x="453" 
d="M438 685v-154h-185v-542h185v-154h-358v850h358z" />
    <glyph glyph-name="bracketright" unicode="]" horiz-adv-x="453" 
d="M200 -11v542h-185v154h358v-850h-358v154h185z" />
    <glyph glyph-name="parenleft.case" horiz-adv-x="386" 
d="M101.5 66q-51.5 117 -51.5 249t51.5 249t149.5 201l125 -93q-51 -59 -81 -106t-47 -107.5t-17 -143.5t17 -143.5t47 -107.5t81 -106l-125 -93q-98 84 -149.5 201z" />
    <glyph glyph-name="parenright.case" horiz-adv-x="386" 
d="M91 64q30 47 47 107.5t17 143.5t-17 143.5t-47 107.5t-81 106l125 93q98 -84 149.5 -201t51.5 -249t-51.5 -249t-149.5 -201l-125 93q51 59 81 106z" />
    <glyph glyph-name="braceleft.case" horiz-adv-x="417" 
d="M187.5 -68.5q-72.5 56.5 -72.5 165.5v82q0 33 -19 52t-56 21v120q37 2 56 21t19 52v82q0 109 72.5 165.5t184.5 56.5l40 -144q-64 -2 -96 -31t-32 -80v-69q0 -42 -16.5 -69.5t-56.5 -43.5q40 -16 56.5 -43.5t16.5 -69.5v-69q0 -51 32 -80t96 -31l-40 -144
q-112 0 -184.5 56.5z" />
    <glyph glyph-name="braceright.case" horiz-adv-x="417" 
d="M101 50q32 29 32 80v69q0 42 16.5 69.5t56.5 43.5q-40 16 -56.5 43.5t-16.5 69.5v69q0 51 -32 80t-96 31l40 144q112 0 184.5 -56.5t72.5 -165.5v-82q0 -33 19 -52t56 -21v-120q-37 -2 -56 -21t-19 -52v-82q0 -109 -72.5 -165.5t-184.5 -56.5l-40 144q64 2 96 31z" />
    <glyph glyph-name="bracketleft.case" horiz-adv-x="453" 
d="M438 740v-154h-185v-542h185v-154h-358v850h358z" />
    <glyph glyph-name="bracketright.case" horiz-adv-x="453" 
d="M200 44v542h-185v154h358v-850h-358v154h185z" />
    <glyph glyph-name="hyphen" unicode="-" horiz-adv-x="508" 
d="M448 339v-157h-388v157h388z" />
    <glyph glyph-name="uni00AD" unicode="&#xad;" horiz-adv-x="508" 
d="M448 339v-157h-388v157h388z" />
    <glyph glyph-name="endash" unicode="&#x2013;" horiz-adv-x="500" 
d="M500 339v-157h-500v157h500z" />
    <glyph glyph-name="emdash" unicode="&#x2014;" horiz-adv-x="1000" 
d="M1000 339v-157h-1000v157h1000z" />
    <glyph glyph-name="uni2010" unicode="&#x2010;" horiz-adv-x="508" 
d="M448 339v-157h-388v157h388z" />
    <glyph glyph-name="underscore" unicode="_" horiz-adv-x="500" 
d="M500 -55v-139h-500v139h500z" />
    <glyph glyph-name="hyphen.case" horiz-adv-x="508" 
d="M448 391v-157h-388v157h388z" />
    <glyph glyph-name="endash.case" horiz-adv-x="500" 
d="M500 391v-157h-500v157h500z" />
    <glyph glyph-name="emdash.case" horiz-adv-x="1000" 
d="M1000 391v-157h-1000v157h1000z" />
    <glyph glyph-name="quotesinglbase" unicode="&#x201a;" horiz-adv-x="255" 
d="M62 157h155q0 -97 -47.5 -184t-125.5 -124l-77 96q95 60 95 212z" />
    <glyph glyph-name="quotedblbase" unicode="&#x201e;" horiz-adv-x="495" 
d="M62 157h155q0 -97 -47.5 -184t-125.5 -124l-77 96q95 60 95 212zM302 157h155q0 -97 -47.5 -184t-125.5 -124l-77 96q95 60 95 212z" />
    <glyph glyph-name="quotedblleft" unicode="&#x201c;" horiz-adv-x="554" 
d="M89.5 530q47.5 87 125.5 124l77 -96q-95 -60 -95 -212h-155q0 97 47.5 184zM329.5 530q47.5 87 125.5 124l77 -96q-95 -60 -95 -212h-155q0 97 47.5 184z" />
    <glyph glyph-name="quotedblright" unicode="&#x201d;" horiz-adv-x="554" 
d="M117 624h155q0 -97 -47.5 -184t-125.5 -124l-77 96q95 60 95 212zM357 624h155q0 -97 -47.5 -184t-125.5 -124l-77 96q95 60 95 212z" />
    <glyph glyph-name="quoteleft" unicode="&#x2018;" horiz-adv-x="314" 
d="M89.5 530q47.5 87 125.5 124l77 -96q-95 -60 -95 -212h-155q0 97 47.5 184z" />
    <glyph glyph-name="quoteright" unicode="&#x2019;" horiz-adv-x="314" 
d="M117 624h155q0 -97 -47.5 -184t-125.5 -124l-77 96q95 60 95 212z" />
    <glyph glyph-name="guillemotleft" unicode="&#xab;" horiz-adv-x="576" 
d="M156 422h165l-123 -187l123 -187h-165l-121 187zM386 422h165l-123 -187l123 -187h-165l-121 187z" />
    <glyph glyph-name="guillemotright" unicode="&#xbb;" horiz-adv-x="576" 
d="M25 422h165l121 -187l-121 -187h-165l123 187zM255 422h165l121 -187l-121 -187h-165l123 187z" />
    <glyph glyph-name="guilsinglleft" unicode="&#x2039;" horiz-adv-x="356" 
d="M156 422h175l-123 -187l123 -187h-175l-121 187z" />
    <glyph glyph-name="guilsinglright" unicode="&#x203a;" horiz-adv-x="356" 
d="M25 422h175l121 -187l-121 -187h-175l123 187z" />
    <glyph glyph-name="quotedbl" unicode="&#x22;" horiz-adv-x="497" 
d="M221 624l-9 -288h-141l-9 288h159zM435 624l-9 -288h-141l-9 288h159z" />
    <glyph glyph-name="quotesingle" unicode="'" horiz-adv-x="283" 
d="M221 624l-9 -288h-141l-9 288h159z" />
    <glyph glyph-name="guillemotleft.case" horiz-adv-x="576" 
d="M156 502h165l-123 -187l123 -187h-165l-121 187zM386 502h165l-123 -187l123 -187h-165l-121 187z" />
    <glyph glyph-name="guillemotright.case" horiz-adv-x="576" 
d="M25 502h165l121 -187l-121 -187h-165l123 187zM255 502h165l121 -187l-121 -187h-165l123 187z" />
    <glyph glyph-name="guilsinglleft.case" horiz-adv-x="356" 
d="M156 502h175l-123 -187l123 -187h-175l-121 187z" />
    <glyph glyph-name="guilsinglright.case" horiz-adv-x="356" 
d="M25 502h175l121 -187l-121 -187h-175l123 187z" />
    <glyph glyph-name="uni2001" unicode="&#x2001;" horiz-adv-x="1000" 
 />
    <glyph glyph-name="uni2003" unicode="&#x2003;" horiz-adv-x="1000" 
 />
    <glyph glyph-name="uni2000" unicode="&#x2000;" horiz-adv-x="500" 
 />
    <glyph glyph-name="uni2002" unicode="&#x2002;" horiz-adv-x="500" 
 />
    <glyph glyph-name="uni2007" unicode="&#x2007;" 
 />
    <glyph glyph-name="uni2005" unicode="&#x2005;" horiz-adv-x="250" 
 />
    <glyph glyph-name="uni200A" unicode="&#x200a;" horiz-adv-x="125" 
 />
    <glyph glyph-name="uni2008" unicode="&#x2008;" horiz-adv-x="265" 
 />
    <glyph glyph-name="uni2006" unicode="&#x2006;" horiz-adv-x="166" 
 />
    <glyph glyph-name="uni00A0" unicode="&#xa0;" horiz-adv-x="232" 
 />
    <glyph glyph-name="uni2009" unicode="&#x2009;" horiz-adv-x="150" 
 />
    <glyph glyph-name="uni2004" unicode="&#x2004;" horiz-adv-x="335" 
 />
    <glyph glyph-name="uni200B" unicode="&#x200b;" horiz-adv-x="0" 
 />
    <glyph glyph-name="cent" unicode="&#xa2;" 
d="M112 172.5q-43 59.5 -43 141.5q0 78 44.5 136.5t118.5 79.5v94h144v-92q87 -21 130 -104l-101 -73q-17 25 -34 36.5t-48 11.5q-44 0 -66.5 -26.5t-22.5 -62.5q0 -40 22.5 -66t67.5 -26q31 0 49 13t40 40l102 -71q-47 -90 -139 -111v-93h-144v94q-77 19 -120 78.5z" />
    <glyph glyph-name="currency" unicode="&#xa4;" 
d="M95 225q-17 39 -17 81q0 43 19 84l-74 74l110 110l75 -75q39 17 80 17q43 0 82 -18l76 76l110 -110l-75 -75q18 -43 18 -83q0 -42 -17 -79l75 -75l-110 -110l-74 73q-43 -19 -85 -19q-41 0 -84 19l-73 -73l-108 110zM346.5 249q22.5 22 22.5 57q0 36 -22.5 58t-59.5 22
q-35 0 -57 -22t-22 -58q0 -35 22 -57t57 -22q37 0 59.5 22z" />
    <glyph glyph-name="dollar" unicode="$" 
d="M111.5 53q-52.5 28 -91.5 75l85 101q83 -74 194 -74q42 0 56 9t14 27q0 34 -96 50q-110 18 -163.5 63t-53.5 123q0 69 46 114.5t123 60.5v98h144v-99q97 -18 166 -92l-83 -102q-38 30 -74.5 43.5t-76.5 13.5q-43 0 -60 -8.5t-17 -24.5q0 -19 22 -29.5t75 -20.5
q107 -19 162 -63.5t55 -123.5q0 -77 -44 -122t-125 -58v-97h-144v98q-61 10 -113.5 38z" />
    <glyph glyph-name="Euro" unicode="&#x20ac;" 
d="M164.5 44.5q-67.5 55.5 -91.5 154.5h-66v83h55q-1 8 -1 25q0 15 1 23h-55v83h70q26 91 91 151t165 60q77 0 135.5 -35.5t93.5 -109.5l-115 -74q-23 39 -45 53.5t-63 14.5q-65 0 -97 -60h140l-22 -83h-139q-1 -7 -1 -22q0 -18 1 -26h133l-22 -83h-88q15 -28 39 -42.5
t54 -14.5q40 0 64.5 16t48.5 56l115 -77q-36 -75 -97.5 -111.5t-138.5 -36.5q-97 0 -164.5 55.5z" />
    <glyph glyph-name="florin" unicode="&#x192;" horiz-adv-x="497" 
d="M288 470h180v-144h-180v-326q-5 -103 -59.5 -154t-147.5 -51q-106 0 -170 69l74 105q17 -13 31 -18.5t32 -5.5q29 0 46.5 17.5t17.5 52.5v311h-92v144h92v1q3 105 60.5 161.5t153.5 56.5q57 0 98.5 -18t72.5 -52l-66 -99q-34 27 -70 27q-33 0 -53 -17.5t-20 -56.5v-3z
" />
    <glyph glyph-name="uni20B9" unicode="&#x20b9;" 
d="M63 298h128q86 0 108 55h-236v101h237q-23 59 -97 59h-140v101h472v-101h-101q15 -25 21 -59h80v-101h-80q-12 -54 -52 -90.5t-109 -59.5l-6 -2l210 -201h-238l-197 189v109z" />
    <glyph glyph-name="sterling" unicode="&#xa3;" 
d="M17 221v148h67v2q0 71 27.5 128.5t84 91t139.5 33.5q76 0 127 -33.5t89 -98.5l-105 -85q-22 34 -45 48t-59 14q-43 0 -65 -27t-22 -71v-2h154v-148h-154v-73h279v-148h-450v221h-67z" />
    <glyph glyph-name="yen" unicode="&#xa5;" 
d="M81 79v93h123v52h-123v93h78l-158 297h186l105 -231l103 231h184l-159 -297h84v-93h-129v-52h129v-93h-129v-79h-171v79h-123z" />
    <glyph glyph-name="plus" unicode="+" 
d="M50 226v163h160v162h161v-162h159v-163h-159v-161h-161v161h-160z" />
    <glyph glyph-name="minus" unicode="&#x2212;" 
d="M514 389v-163h-448v163h448z" />
    <glyph glyph-name="multiply" unicode="&#xd7;" 
d="M168 308l-110 109l113 112l109 -109l109 109l113 -112l-109 -109l109 -110l-113 -112l-109 109l-109 -109l-113 112z" />
    <glyph glyph-name="divide" unicode="&#xf7;" 
d="M229 444.5q-23 22.5 -23 56.5t23 56.5t61 22.5q37 0 60 -22.5t23 -56.5t-23 -56.5t-61 -22.5q-37 0 -60 22.5zM514 385v-155h-448v155h448zM229 57.5q-23 22.5 -23 56.5t23 56.5t61 22.5q37 0 60 -22.5t23 -56.5t-23 -56.5t-61 -22.5q-37 0 -60 22.5z" />
    <glyph glyph-name="equal" unicode="=" 
d="M514 505v-153h-448v153h448zM514 263v-153h-448v153h448z" />
    <glyph glyph-name="notequal" unicode="&#x2260;" 
d="M133 113h-67v153h138l39 83h-177v153h248l57 122l111 -48l-35 -74h67v-153h-138l-39 -83h177v-153h-248l-57 -122l-111 48z" />
    <glyph glyph-name="greater" unicode="&#x3e;" 
d="M304 307l-227 97l65 153l356 -171v-156l-356 -173l-65 153z" />
    <glyph glyph-name="less" unicode="&#x3c;" 
d="M82 384l356 173l65 -153l-227 -97l227 -97l-65 -153l-356 171v156z" />
    <glyph glyph-name="greaterequal" unicode="&#x2265;" 
d="M314 397l-237 78l45 139l376 -147v-138l-376 -149l-45 139zM501 147v-147h-423v147h423z" />
    <glyph glyph-name="lessequal" unicode="&#x2264;" 
d="M82 467l376 147l45 -139l-237 -78l237 -78l-45 -139l-376 149v138zM502 147v-147h-423v147h423z" />
    <glyph glyph-name="plusminus" unicode="&#xb1;" 
d="M50 330v150h160v139h161v-139h159v-150h-159v-139h-161v139h-160zM514 148v-148h-448v148h448z" />
    <glyph glyph-name="approxequal" unicode="&#x2248;" 
d="M329 329.5q-27 10.5 -58 29.5q-20 12 -34 18t-28 6q-29 0 -47 -11.5t-43 -48.5l-97 79q29 61 73 97t95 36q34 0 60 -10t54 -28q21 -13 36 -19.5t31 -6.5q29 0 47 11.5t43 47.5l97 -79q-29 -61 -73 -96.5t-95 -35.5q-34 0 -61 10.5zM329.5 89.5q-26.5 10.5 -57.5 29.5
q-20 12 -34.5 18t-28.5 6q-29 0 -47 -11.5t-43 -48.5l-97 79q29 61 73 97t95 36q33 0 59 -10t54 -27q22 -14 37 -20.5t31 -6.5q29 0 47 11.5t43 47.5l97 -79q-29 -61 -73 -96.5t-95 -35.5q-34 0 -60.5 10.5z" />
    <glyph glyph-name="asciitilde" unicode="~" 
d="M329 228.5q-27 10.5 -58 29.5q-20 12 -34 18t-28 6q-29 0 -47 -11.5t-43 -48.5l-97 82q29 61 73 97t95 36q33 0 59.5 -10t54.5 -28q21 -13 36 -19.5t31 -6.5q29 0 47 11.5t43 47.5l97 -82q-29 -61 -73 -96.5t-95 -35.5q-34 0 -61 10.5z" />
    <glyph glyph-name="logicalnot" unicode="&#xac;" 
d="M61 296v163h450v-324h-161v161h-289z" />
    <glyph glyph-name="asciicircum" unicode="^" 
d="M212 472q38 38 81 38q25 0 43 -10t36 -28l165 -171l-106 -89l-141 127l-141 -127l-106 91z" />
    <glyph glyph-name="infinity" unicode="&#x221e;" horiz-adv-x="741" 
d="M119 150q-42 26 -65 69.5t-23 94.5q0 53 23 96t65 68.5t97 25.5q46 0 85.5 -19t68.5 -51q29 32 69 51.5t86 19.5q55 0 97 -25.5t65 -68.5t23 -96q0 -51 -23 -94.5t-65 -69.5t-96 -26q-46 0 -86 18.5t-69 50.5q-29 -32 -69 -51t-87 -19q-54 0 -96 26zM555 273q16 15 16 42
t-16 42t-44 15q-27 0 -45.5 -15t-18.5 -42t18.5 -42t45.5 -15q28 0 44 15zM275.5 272q18.5 15 18.5 42t-18.5 42t-45.5 15q-28 0 -44 -15t-16 -42t16 -42t44 -15q27 0 45.5 15z" />
    <glyph glyph-name="emptyset" unicode="&#x2205;" 
d="M106 176q-43 57 -43 133q0 64 30.5 113.5t83 77t114.5 27.5q74 0 134 -38l62 61l52 -47l-63 -62q43 -56 43 -132q0 -64 -30.5 -114.5t-82.5 -78t-115 -27.5q-73 0 -133 38l-65 -64l-53 49zM291 405q-41 0 -69.5 -26t-28.5 -70q0 -21 8 -39l130 127q-19 8 -40 8z
M360.5 238.5q28.5 26.5 28.5 70.5q0 20 -8 39l-129 -129q21 -7 39 -7q41 0 69.5 26.5z" />
    <glyph glyph-name="integral" unicode="&#x222b;" horiz-adv-x="469" 
d="M55 -108.5q-36 15.5 -69 46.5l60 111q17 -12 27.5 -17t26.5 -5q23 0 37 14.5t14 39.5v13l-33 314q-2 26 -2 39q0 53 22.5 95.5t63 67t92.5 24.5q54 0 90 -15.5t69 -46.5l-60 -111q-17 12 -27.5 17t-26.5 5q-23 0 -37.5 -15t-14.5 -39q0 -8 1 -14l33 -313q2 -26 2 -39
q0 -53 -22.5 -95.5t-63 -67t-92.5 -24.5q-54 0 -90 15.5z" />
    <glyph glyph-name="product" unicode="&#x220f;" horiz-adv-x="707" 
d="M630 624v-718h-178v556h-197v-556h-178v718h553z" />
    <glyph glyph-name="summation" unicode="&#x2211;" horiz-adv-x="578" 
d="M260 268l-221 212v144h498v-155h-259l196 -200l-205 -208h279v-155h-518v143z" />
    <glyph glyph-name="radical" unicode="&#x221a;" horiz-adv-x="643" 
d="M30 301v150h229l67 -271l179 530h178l-256 -710h-208l-94 301h-95z" />
    <glyph glyph-name="partialdiff" unicode="&#x2202;" 
d="M136.5 13.5q-51.5 24.5 -81.5 69.5t-30 103q0 63 29 112t79 76t113 27q37 0 64 -6.5t52 -19.5q-16 47 -71 95t-112 74l109 93q85 -39 140.5 -98.5t81 -127.5t25.5 -135q0 -88 -34 -152.5t-98.5 -99.5t-152.5 -35q-62 0 -113.5 24.5zM342.5 155q26.5 19 26.5 58
q0 28 -24.5 44t-62.5 16q-47 0 -73.5 -19t-26.5 -59q0 -28 23 -43.5t64 -15.5q47 0 73.5 19z" />
    <glyph glyph-name="uni00B5" unicode="&#xb5;" horiz-adv-x="625" 
d="M240 481v-270q0 -73 61 -73q40 0 62 31.5t22 97.5v214h176v-481h-145q-9 17 -14 48q-48 -59 -118 -59q-23 0 -44 6v-189h-176v675h176z" />
    <glyph glyph-name="percent" unicode="%" horiz-adv-x="1011" 
d="M88.5 296.5q-46.5 53.5 -46.5 138.5q0 53 21 96t62 68t98 25q88 0 135 -53t47 -136t-48 -137.5t-134 -54.5q-88 0 -134.5 53.5zM264.5 380q12.5 17 12.5 54t-12 54t-40 17q-29 0 -42 -17.5t-13 -53.5t12 -53.5t41 -17.5t41.5 17zM652.5 46.5q-46.5 53.5 -46.5 138.5
q0 53 21 96t62 68t98 25q88 0 135 -53t47 -136t-48 -137.5t-134 -54.5q-88 0 -134.5 53.5zM828.5 130q12.5 17 12.5 54t-12 54t-40 17q-29 0 -42 -17.5t-13 -53.5t12 -53.5t41 -17.5t41.5 17zM696 693l105 -68l-485 -699l-105 68z" />
    <glyph glyph-name="perthousand" unicode="&#x2030;" horiz-adv-x="1418" 
d="M88.5 296.5q-46.5 53.5 -46.5 138.5q0 53 21 96t62 68t98 25q88 0 135 -53t47 -136t-48 -137.5t-134 -54.5q-88 0 -134.5 53.5zM264.5 380q12.5 17 12.5 54t-12 54t-40 17q-29 0 -42 -17.5t-13 -53.5t12 -53.5t41 -17.5t41.5 17zM652.5 46.5q-46.5 53.5 -46.5 138.5
q0 53 21 96t62 68t98 25q88 0 135 -53t47 -136t-48 -137.5t-134 -54.5q-88 0 -134.5 53.5zM828.5 130q12.5 17 12.5 54t-12 54t-40 17q-29 0 -42 -17.5t-13 -53.5t12 -53.5t41 -17.5t41.5 17zM1059.5 46.5q-46.5 53.5 -46.5 138.5q0 53 21 96t62 68t98 25q88 0 135 -53
t47 -136t-48 -137.5t-134 -54.5q-88 0 -134.5 53.5zM1235.5 130q12.5 17 12.5 54t-12 54t-40 17q-29 0 -42 -17.5t-13 -53.5t12 -53.5t41 -17.5t41.5 17zM696 693l105 -68l-485 -699l-105 68z" />
    <glyph glyph-name="lozenge" unicode="&#x25ca;" horiz-adv-x="618" 
d="M223 624h172l193 -312l-193 -312h-172l-193 312zM309 487l-109 -175l109 -175l109 175z" />
    <glyph glyph-name="at" unicode="@" horiz-adv-x="975" 
d="M136.5 -26.5q-88.5 110.5 -88.5 272.5q0 121 59 220t162.5 156t230.5 57q122 0 219.5 -43.5t153.5 -122t56 -180.5q0 -80 -40 -145t-107 -101.5t-145 -36.5h-49q-8 18 -13 47q-56 -56 -128 -56q-80 0 -126.5 57.5t-46.5 146.5q0 90 49 145.5t132 55.5q73 0 121 -50
q5 29 12 41h117v-262q43 17 67.5 59t24.5 104q0 105 -81.5 163t-215.5 58q-91 0 -164 -40t-114 -111t-41 -161q0 -254 285 -320l-55 -107q-186 43 -274.5 153.5zM538.5 185q20.5 20 20.5 51v9q0 41 -20.5 59t-50.5 18q-28 0 -48.5 -17.5t-20.5 -59.5t19.5 -61t47.5 -19
q32 0 52.5 20z" />
    <glyph glyph-name="ampersand" unicode="&#x26;" horiz-adv-x="653" 
d="M303 -11q-128 0 -200.5 51.5t-72.5 146.5q0 56 30.5 101.5t84.5 73.5q-26 46 -26 91q0 50 27 91.5t75 65.5t106 24q69 0 121.5 -27.5t89.5 -84.5l-104 -82q-21 26 -39 35.5t-49 9.5q-32 0 -49.5 -13.5t-17.5 -35.5q0 -18 17.5 -42t64.5 -77l109 -124q10 20 10 41
q0 28 -15.5 50t-44.5 44l94 67q52 -29 77.5 -73.5t25.5 -98.5q0 -38 -15 -72.5t-42 -62.5l46 -54l-113 -81l-52 60q-67 -24 -138 -24zM344 124l-105 121l-21 24q-32 -22 -32 -63q0 -43 35.5 -63t94.5 -20q19 0 28 1z" />
    <glyph glyph-name="paragraph" unicode="&#xb6;" horiz-adv-x="694" 
d="M219.5 -54.5q16.5 24.5 16.5 58.5v222q-59 0 -104.5 26.5t-70.5 71.5t-25 100q0 56 25 101.5t70.5 72t104.5 26.5h153v-607q0 -69 -26 -122.5t-87 -89.5l-107 87q34 29 50.5 53.5zM618 624v-624h-153v624h153z" />
    <glyph glyph-name="section" unicode="&#xa7;" horiz-adv-x="581" 
d="M156.5 -171q-59.5 23 -111.5 79l88 110q40 -32 76.5 -46t78.5 -14q38 0 52.5 8.5t14.5 24.5q0 19 -18.5 27.5t-74.5 20.5q-114 24 -170.5 66.5t-56.5 119.5q0 76 60 117q-43 43 -43 109q0 54 31 95.5t84.5 64.5t119.5 23q74 0 131.5 -23t109.5 -79l-88 -110
q-41 33 -73.5 46.5t-73.5 13.5q-38 0 -54 -8.5t-16 -24.5q0 -19 18.5 -27.5t74.5 -20.5q114 -24 170.5 -66.5t56.5 -119.5q0 -76 -60 -117q43 -43 43 -109q0 -54 -31 -95.5t-84.5 -64.5t-119.5 -23q-75 0 -134.5 23zM373 202q0 23 -22.5 36t-83.5 25q-26 5 -44 10
q-18 -12 -18 -35t22.5 -36t83.5 -25q26 -5 44 -10q18 12 18 35z" />
    <glyph glyph-name="copyright" unicode="&#xa9;" horiz-adv-x="732" 
d="M193 31q-76 42 -118.5 115.5t-42.5 166.5q0 89 44.5 162.5t121 116t168.5 42.5q96 0 172 -41.5t119 -114.5t43 -165q0 -90 -44 -164.5t-120 -117t-170 -42.5q-97 0 -173 42zM490 108q56 31 88 85t32 120q0 67 -31.5 120t-87 83t-125.5 30q-68 0 -124 -30.5t-88 -84
t-32 -118.5q0 -67 31 -121t87 -84.5t126 -30.5q68 0 124 31zM246 186.5q-47 44.5 -47 124.5q0 42 20 81.5t60 64t96 24.5q45 0 83 -20.5t58 -63.5l-69 -49q-24 42 -71 42q-37 0 -56.5 -20.5t-19.5 -57.5t19 -57.5t54 -20.5q26 0 45.5 11t31.5 31l67 -49q-20 -43 -58 -64
t-86 -21q-80 0 -127 44.5z" />
    <glyph glyph-name="registered" unicode="&#xae;" horiz-adv-x="548" 
d="M156.5 238.5q-52.5 29.5 -82 81.5t-29.5 117q0 63 30.5 115t82.5 82t116 30q65 0 117.5 -29t82 -81t29.5 -117q0 -64 -30.5 -116t-82.5 -82t-116 -30q-65 0 -117.5 29.5zM366.5 277q41.5 24 65.5 66t24 94t-23.5 94t-65 65.5t-93.5 23.5q-51 0 -92.5 -24t-65.5 -66
t-24 -93q0 -53 23.5 -95t65 -65.5t93.5 -23.5q51 0 92.5 24zM282 555q47 0 73 -22t26 -60q0 -41 -38 -64l58 -84h-76l-46 68q-8 -1 -22 -1h-12v-67h-65v230h102zM312 473q0 12 -8 17t-28 5h-31v-43h31q36 0 36 21z" />
    <glyph glyph-name="trademark" unicode="&#x2122;" horiz-adv-x="960" 
d="M20 523v101h370v-101h-127v-287h-116v287h-127zM578 624l95 -166l92 166h119l24 -388h-113l-12 229l-69 -146h-82l-70 142l-11 -225h-114l25 388h116z" />
    <glyph glyph-name="degree" unicode="&#xb0;" horiz-adv-x="430" 
d="M127 339.5q-40 23.5 -63.5 63.5t-23.5 87t23.5 87t63.5 63.5t88 23.5t88 -23t63.5 -63t23.5 -88q0 -47 -23 -87t-63 -63.5t-89 -23.5q-48 0 -88 23.5zM252 450.5q14 14.5 14 39.5t-14 39.5t-37 14.5q-22 0 -36.5 -15t-14.5 -38q0 -24 14.5 -39.5t36.5 -15.5q23 0 37 14.5
z" />
    <glyph glyph-name="minute" unicode="&#x2032;" horiz-adv-x="283" 
d="M221 624l-9 -288h-141l-9 288h159z" />
    <glyph glyph-name="second" unicode="&#x2033;" horiz-adv-x="497" 
d="M221 624l-9 -288h-141l-9 288h159zM435 624l-9 -288h-141l-9 288h159z" />
    <glyph glyph-name="bar" unicode="|" horiz-adv-x="331" 
d="M255 723v-869h-179v869h179z" />
    <glyph glyph-name="brokenbar" unicode="&#xa6;" horiz-adv-x="331" 
d="M255 723v-320h-179v320h179zM255 174v-320h-179v320h179z" />
    <glyph glyph-name="dagger" unicode="&#x2020;" horiz-adv-x="576" 
d="M20 321v166h180v175h176v-175h180v-166h-180v-409h-176v409h-180z" />
    <glyph glyph-name="daggerdbl" unicode="&#x2021;" horiz-adv-x="586" 
d="M30 67v156h175v128h-175v156h175v155h176v-155h175v-156h-175v-128h175v-156h-175v-155h-176v155h-175z" />
    <glyph glyph-name="at.case" horiz-adv-x="975" 
d="M136.5 18.5q-88.5 110.5 -88.5 272.5q0 121 59 220t162.5 156t230.5 57q122 0 219.5 -43.5t153.5 -122t56 -180.5q0 -80 -40 -145t-107 -101.5t-145 -36.5h-49q-8 18 -13 47q-56 -56 -128 -56q-80 0 -126.5 57.5t-46.5 146.5q0 90 49 145.5t132 55.5q73 0 121 -50
q5 29 12 41h117v-262q43 17 67.5 59t24.5 104q0 105 -81.5 163t-215.5 58q-91 0 -164 -40t-114 -111t-41 -161q0 -254 285 -320l-55 -107q-186 43 -274.5 153.5zM538.5 230q20.5 20 20.5 51v9q0 41 -20.5 59t-50.5 18q-28 0 -48.5 -17.5t-20.5 -59.5t19.5 -61t47.5 -19
q32 0 52.5 20z" />
    <glyph glyph-name="uni0308" unicode="&#x308;" horiz-adv-x="0" 
d="M-177.5 552q-23.5 23 -23.5 59q0 34 24 57.5t64 23.5t64 -23.5t24 -57.5q0 -36 -24 -59t-65 -23q-40 0 -63.5 23zM48.5 552q-23.5 23 -23.5 59q0 34 24 57.5t63 23.5q41 0 65 -23.5t24 -57.5q0 -36 -24 -59t-65 -23q-40 0 -63.5 23z" />
    <glyph glyph-name="uni0307" unicode="&#x307;" horiz-adv-x="0" 
d="M-71.5 550q-25.5 24 -25.5 62q0 36 26 60.5t70 24.5t70.5 -24.5t26.5 -60.5q0 -38 -26.5 -62t-71.5 -24q-44 0 -69.5 24z" />
    <glyph glyph-name="gravecomb" unicode="&#x300;" horiz-adv-x="0" 
d="M-124 738l247 -122l-48 -90l-253 108z" />
    <glyph glyph-name="acutecomb" unicode="&#x301;" horiz-adv-x="0" 
d="M124 738l54 -104l-253 -108l-48 90z" />
    <glyph glyph-name="uni030B" unicode="&#x30b;" horiz-adv-x="0" 
d="M-45 738l87 -77l-150 -136l-78 68zM167 737l87 -77l-151 -136l-77 68z" />
    <glyph glyph-name="uni0302" unicode="&#x302;" horiz-adv-x="0" 
d="M-47 710q22 19 48 19t48 -19l132 -110l-58 -69l-123 88l-124 -88l-58 70z" />
    <glyph glyph-name="uni030C" unicode="&#x30c;" horiz-adv-x="0" 
d="M-50 550l-132 110l58 69l123 -88l124 88l58 -70l-135 -109q-22 -19 -48 -19t-48 19z" />
    <glyph glyph-name="uni0306" unicode="&#x306;" horiz-adv-x="0" 
d="M-104.5 573.5q-48.5 29.5 -84.5 86.5l80 60q27 -39 51.5 -54t57.5 -15t57.5 15t51.5 54l80 -60q-36 -57 -84.5 -86.5t-104.5 -29.5t-104.5 29.5z" />
    <glyph glyph-name="uni030A" unicode="&#x30a;" horiz-adv-x="0" 
d="M-80.5 571q-34.5 32 -34.5 81t34.5 81t80.5 32t80.5 -32t34.5 -81t-34.5 -81t-80.5 -32t-80.5 32zM26.5 624q10.5 10 10.5 28t-10.5 28t-26.5 10t-26.5 -10t-10.5 -28t10.5 -28t26.5 -10t26.5 10z" />
    <glyph glyph-name="tildecomb" unicode="&#x303;" horiz-adv-x="0" 
d="M29 546.5q-19 7.5 -41 20.5q-33 21 -54 21q-24 0 -37 -8.5t-29 -30.5l-70 61q22 36 55.5 61.5t78.5 25.5q30 0 49.5 -7.5t39.5 -20.5q16 -11 29 -16t29 -5q17 0 30 9t28 30l70 -61q-54 -87 -137 -87q-22 0 -41 7.5z" />
    <glyph glyph-name="uni0304" unicode="&#x304;" horiz-adv-x="0" 
d="M166 673v-111h-332v111h332z" />
    <glyph glyph-name="uni0312" unicode="&#x312;" horiz-adv-x="0" 
d="M-35 678.5q39 53.5 107 86.5l64 -67q-44 -31 -64 -61.5t-20 -80.5h-126q0 69 39 122.5z" />
    <glyph glyph-name="uni0326" unicode="&#x326;" horiz-adv-x="0" 
d="M-77 -124.5q20 30.5 20 80.5h126q0 -69 -39 -122.5t-107 -86.5l-64 67q44 31 64 61.5z" />
    <glyph glyph-name="uni0327" unicode="&#x327;" horiz-adv-x="0" 
d="M-91 -174.5q-36 15.5 -59 41.5l54 69q16 -13 29.5 -20t31.5 -7q50 0 50 39q0 35 -49 44l57 57q43 -18 75 -51.5t32 -75.5q0 -52 -38 -82t-105 -30q-42 0 -78 15.5z" />
    <glyph glyph-name="uni0328" unicode="&#x328;" horiz-adv-x="0" 
d="M31 -181q-34 22 -34 64q0 60 71 102q29 17 97 51l65 -36q-35 -21 -72 -42q-25 -14 -34.5 -24t-9.5 -23q0 -21 29 -21q23 0 51 24l54 -65q-22 -24 -56.5 -38t-71.5 -14q-55 0 -89 22z" />
    <glyph glyph-name="uni0335" unicode="&#x335;" horiz-adv-x="0" 
d="M223 481v-124h-448v124h448z" />
    <glyph glyph-name="uni0336" unicode="&#x336;" horiz-adv-x="0" 
d="M368 547v-158h-735v158h735z" />
    <glyph glyph-name="uni0337" unicode="&#x337;" horiz-adv-x="0" 
d="M173 595l52 -112l-397 -193l-52 112z" />
    <glyph glyph-name="acute" unicode="&#xb4;" horiz-adv-x="500" 
d="M346 738l54 -104l-253 -108l-48 90z" />
    <glyph glyph-name="breve" unicode="&#x2d8;" horiz-adv-x="500" 
d="M145.5 573.5q-48.5 29.5 -84.5 86.5l80 60q27 -39 51.5 -54t57.5 -15t57.5 15t51.5 54l80 -60q-36 -57 -84.5 -86.5t-104.5 -29.5t-104.5 29.5z" />
    <glyph glyph-name="caron" unicode="&#x2c7;" horiz-adv-x="500" 
d="M200 550l-132 110l58 69l123 -88l124 88l58 -70l-135 -109q-22 -19 -48 -19t-48 19z" />
    <glyph glyph-name="cedilla" unicode="&#xb8;" horiz-adv-x="500" 
d="M169 -174.5q-36 15.5 -59 41.5l54 69q16 -13 29.5 -20t31.5 -7q50 0 50 39q0 35 -49 44l57 57q43 -18 75 -51.5t32 -75.5q0 -52 -38 -82t-105 -30q-42 0 -78 15.5z" />
    <glyph glyph-name="circumflex" unicode="&#x2c6;" horiz-adv-x="500" 
d="M203 710q22 19 48 19t48 -19l132 -110l-58 -69l-123 88l-124 -88l-58 70z" />
    <glyph glyph-name="dieresis" unicode="&#xa8;" horiz-adv-x="500" 
d="M72.5 552q-23.5 23 -23.5 59q0 34 24 57.5t64 23.5t64 -23.5t24 -57.5q0 -36 -24 -59t-65 -23q-40 0 -63.5 23zM298.5 552q-23.5 23 -23.5 59q0 34 24 57.5t63 23.5q41 0 65 -23.5t24 -57.5q0 -36 -24 -59t-65 -23q-40 0 -63.5 23z" />
    <glyph glyph-name="dotaccent" unicode="&#x2d9;" horiz-adv-x="500" 
d="M178.5 550q-25.5 24 -25.5 62q0 36 26 60.5t70 24.5t70.5 -24.5t26.5 -60.5q0 -38 -26.5 -62t-71.5 -24q-44 0 -69.5 24z" />
    <glyph glyph-name="grave" unicode="`" horiz-adv-x="500" 
d="M153 738l247 -122l-48 -90l-253 108z" />
    <glyph glyph-name="hungarumlaut" unicode="&#x2dd;" horiz-adv-x="500" 
d="M171 738l87 -77l-150 -136l-78 68zM383 737l87 -77l-151 -136l-77 68z" />
    <glyph glyph-name="macron" unicode="&#xaf;" horiz-adv-x="500" 
d="M416 673v-111h-332v111h332z" />
    <glyph glyph-name="ogonek" unicode="&#x2db;" horiz-adv-x="500" 
d="M158 -181q-34 22 -34 64q0 60 71 102q29 17 97 51l65 -36q-35 -21 -72 -42q-25 -14 -34.5 -24t-9.5 -23q0 -21 29 -21q23 0 51 24l54 -65q-22 -24 -56.5 -38t-71.5 -14q-55 0 -89 22z" />
    <glyph glyph-name="ring" unicode="&#x2da;" horiz-adv-x="500" 
d="M169.5 571q-34.5 32 -34.5 81t34.5 81t80.5 32t80.5 -32t34.5 -81t-34.5 -81t-80.5 -32t-80.5 32zM276.5 624q10.5 10 10.5 28t-10.5 28t-26.5 10t-26.5 -10t-10.5 -28t10.5 -28t26.5 -10t26.5 10z" />
    <glyph glyph-name="tilde" unicode="&#x2dc;" horiz-adv-x="500" 
d="M276 546.5q-19 7.5 -41 20.5q-33 21 -54 21q-24 0 -37 -8.5t-29 -30.5l-70 61q22 36 55.5 61.5t78.5 25.5q30 0 49.5 -7.5t39.5 -20.5q16 -11 29 -16t29 -5q17 0 30 9t28 30l70 -61q-54 -87 -137 -87q-22 0 -41 7.5z" />
    <glyph glyph-name="uni0308.case" horiz-adv-x="0" 
d="M-176.5 707q-22.5 23 -22.5 59q0 35 23.5 58t61.5 23q40 0 63.5 -23t23.5 -58q0 -36 -24 -59t-64 -23q-39 0 -61.5 23zM50 706.5q-23 22.5 -23 59.5q0 35 23.5 58t62.5 23t62.5 -23t23.5 -58q0 -36 -24 -59t-63 -23t-62 22.5z" />
    <glyph glyph-name="uni0307.case" horiz-adv-x="0" 
d="M-70 702q-25 25 -25 64q0 37 25.5 62.5t68.5 25.5q44 0 69.5 -25.5t25.5 -62.5q0 -39 -26 -64t-70 -25q-43 0 -68 25z" />
    <glyph glyph-name="gravecomb.case" horiz-adv-x="0" 
d="M-121 864l259 -100l-40 -96l-264 87z" />
    <glyph glyph-name="acutecomb.case" horiz-adv-x="0" 
d="M121 864l45 -109l-264 -87l-40 96z" />
    <glyph glyph-name="uni030B.case" horiz-adv-x="0" 
d="M-37 875l69 -86l-173 -119l-63 76zM190 872l69 -86l-174 -119l-62 76z" />
    <glyph glyph-name="uni0302.case" horiz-adv-x="0" 
d="M-45 843q21 18 46 18t46 -18l127 -106l-56 -66l-118 84l-119 -84l-56 67z" />
    <glyph glyph-name="uni030C.case" horiz-adv-x="0" 
d="M-47 692l-127 106l56 66l118 -84l119 84l56 -67l-130 -105q-21 -18 -46 -18t-46 18z" />
    <glyph glyph-name="uni0306.case" horiz-adv-x="0" 
d="M-100.5 706.5q-46.5 28.5 -81.5 83.5l77 58q27 -37 50.5 -52t54.5 -15t54.5 15t50.5 52l77 -58q-35 -55 -81.5 -83.5t-100.5 -28.5t-100.5 28.5z" />
    <glyph glyph-name="uni030A.case" horiz-adv-x="0" 
d="M-65.5 676.5q-30.5 16.5 -49 46.5t-18.5 67t18.5 67t49 46.5t65.5 16.5t65.5 -16.5t49 -46.5t18.5 -67t-18.5 -67t-49 -46.5t-65.5 -16.5t-65.5 16.5zM31 758q13 13 13 32t-13 32t-31 13t-31 -13t-13 -32t13 -32t31 -13t31 13z" />
    <glyph glyph-name="tildecomb.case" horiz-adv-x="0" 
d="M27.5 678q-17.5 7 -39.5 20q-33 20 -52 20q-23 0 -36 -8.5t-28 -28.5l-67 58q51 84 129 84q28 0 47 -7t39 -20q16 -10 27.5 -15t27.5 -5q17 0 29.5 8.5t26.5 28.5l67 -58q-51 -84 -132 -84q-21 0 -38.5 7z" />
    <glyph glyph-name="uni0304.case" horiz-adv-x="0" 
d="M161 805v-107h-322v107h322z" />
    <glyph glyph-name="uni0326.case" horiz-adv-x="0" 
d="M-88.5 -129.5q20.5 29.5 20.5 79.5h127q0 -68 -39.5 -120.5t-108.5 -84.5l-64 66q44 30 64.5 59.5z" />
    <glyph glyph-name="uni0327.case" horiz-adv-x="0" 
d="M-93.5 -177.5q-37.5 15.5 -60.5 41.5l55 71q18 -13 31.5 -20t31.5 -7q50 0 50 38q0 34 -49 45l58 57q44 -18 76.5 -52t32.5 -76q0 -52 -39 -82.5t-107 -30.5q-42 0 -79.5 15.5z" />
    <glyph glyph-name="uni0328.case" horiz-adv-x="0" 
d="M-206 -184.5q-35 22.5 -35 67.5q0 35 22.5 62t67.5 52q35 20 79 41l72 -38l-64 -37q-32 -18 -43.5 -28t-11.5 -23q0 -22 30 -22q24 0 53 25l56 -68q-22 -25 -58.5 -39.5t-74.5 -14.5q-58 0 -93 22.5z" />
    <glyph glyph-name="uni0335.case" horiz-adv-x="0" 
d="M187 465v-158h-375v158h375z" />
    <glyph glyph-name="uni0337.case" horiz-adv-x="0" 
d="M197 631l59 -139l-453 -210l-59 139z" />
    </font>
</defs>
</svg>
